<svg width="41" height="41" viewBox="0 0 41 41" fill="none" xmlns="http://www.w3.org/2000/svg">
<path fill-rule="evenodd" clip-rule="evenodd" d="M28.5892 10.5753C29.0675 10.304 29.604 10.6852 29.604 11.1996C29.604 11.2014 29.604 11.2032 29.604 11.2051L29.5076 16.4682C29.5053 16.9974 28.918 17.3105 28.471 17.0354C28.4705 17.035 28.47 17.0347 28.4695 17.0344L27.1747 16.2515L22.2703 24.2971C22.269 24.2991 22.2678 24.3012 22.2665 24.3032C22.0767 24.5983 21.6667 24.7204 21.3455 24.515C21.345 24.5148 21.3446 24.5145 21.3441 24.5142L18.3461 22.6239L18.3439 22.6225C18.3368 22.6179 18.3221 22.6134 18.3019 22.6186C18.2822 22.6237 18.2712 22.6345 18.2665 22.6434L18.2655 22.6453L14.0497 30.4143C14.0495 30.4147 14.0492 30.4152 14.049 30.4157C13.7505 30.9775 13.0599 31.1681 12.51 30.8769C11.9471 30.5789 11.7559 29.8875 12.0473 29.3371L12.0488 29.3343L17.1204 19.9982C17.1206 19.9978 17.1208 19.9974 17.121 19.9971C17.3026 19.6582 17.726 19.5564 18.0473 19.7492C18.049 19.7502 18.0507 19.7512 18.0524 19.7523L21.1215 21.6781C21.1419 21.6897 21.1586 21.6901 21.1719 21.6868C21.1864 21.6831 21.203 21.6733 21.2161 21.654L25.2254 15.0607L23.9661 14.3011L23.9631 14.2993C23.512 14.02 23.537 13.3745 23.9843 13.1189L23.9881 13.1168L28.5892 10.5753ZM28.9539 11.102C28.9305 11.0872 28.9082 11.0869 28.8859 11.0996L28.8821 11.1018L24.2819 13.6427C24.2247 13.6765 24.2257 13.7524 24.2793 13.7864L25.7954 14.7009C25.864 14.7423 25.9133 14.8093 25.9324 14.887C25.9515 14.9648 25.9388 15.047 25.8972 15.1154L21.7282 21.9713C21.7269 21.9735 21.7256 21.9756 21.7242 21.9777C21.5325 22.276 21.1375 22.3902 20.8098 22.1936C20.8088 22.193 20.8078 22.1924 20.8068 22.1918C20.8061 22.1914 20.8054 22.1909 20.8047 22.1905L17.7356 20.2648C17.6965 20.2424 17.6634 20.2604 17.652 20.2818L17.6509 20.2838L12.5797 29.619C12.5795 29.6194 12.5793 29.6199 12.5791 29.6203C12.4377 29.889 12.5358 30.2089 12.7918 30.3445C13.0608 30.4868 13.3815 30.3888 13.5173 30.1324L13.5188 30.1296L17.7349 22.3599C17.7351 22.3595 17.7353 22.3591 17.7355 22.3588C17.9155 22.0229 18.3531 21.9133 18.6683 22.1148C18.6688 22.1151 18.6692 22.1154 18.6697 22.1157L21.6677 24.006L21.6699 24.0074C21.6783 24.0128 21.6915 24.0167 21.7107 24.012C21.7301 24.0072 21.7475 23.9952 21.7585 23.9793L26.8165 15.6817C26.9029 15.54 27.0876 15.4948 27.2296 15.5807L28.7839 16.5205L28.7866 16.5222C28.8137 16.539 28.8421 16.5385 28.8676 16.5245C28.8936 16.5103 28.9052 16.4889 28.9052 16.465C28.9052 16.4641 28.9052 16.4631 28.9052 16.4622C28.9052 16.4613 28.9052 16.4604 28.9052 16.4595L29.0016 11.1975C29.0009 11.1472 28.9774 11.1168 28.9539 11.102Z" fill="white"/>
<path opacity="0.2" d="M20.7578 40.7488C31.8035 40.7488 40.7578 31.7945 40.7578 20.7488C40.7578 9.70308 31.8035 0.748779 20.7578 0.748779C9.71212 0.748779 0.757812 9.70308 0.757812 20.7488C0.757812 31.7945 9.71212 40.7488 20.7578 40.7488Z" fill="#6D6D6D"/>
</svg>
