<svg width="41" height="41" viewBox="0 0 41 41" fill="none" xmlns="http://www.w3.org/2000/svg">
<path opacity="0.2" d="M20.4297 40.7725C31.4754 40.7725 40.4297 31.8182 40.4297 20.7725C40.4297 9.72677 31.4754 0.772461 20.4297 0.772461C9.38399 0.772461 0.429688 9.72677 0.429688 20.7725C0.429688 31.8182 9.38399 40.7725 20.4297 40.7725Z" fill="#6D6D6D"/>
<path fill-rule="evenodd" clip-rule="evenodd" d="M12.1445 19.4064V17.8471C12.1445 16.8645 12.9468 16.0622 13.9384 16.0532H17.4541V14.692C17.4541 14.1422 17.9048 13.7004 18.4457 13.7004H22.4121C22.962 13.7004 23.4037 14.1512 23.4037 14.692V16.0532H26.9194C27.911 16.0532 28.7133 16.8645 28.7133 17.8471V26.0504C28.7133 27.042 27.902 27.8443 26.9194 27.8443H13.9384C12.9468 27.8443 12.1445 27.033 12.1445 26.0504V19.8752H18.1562V20.9752C18.1562 21.471 18.5619 21.8767 19.0577 21.8767H21.7801C22.2759 21.8767 22.6816 21.471 22.6816 20.9752V19.8752H28.7043V19.4064H12.1445ZM22.2759 19.8752H22.6816V19.8665H22.2759V19.8752ZM18.5619 19.8752H18.1562V19.8665H18.5619V19.8752ZM18.5619 19.8752V20.9752C18.5619 21.2457 18.7873 21.471 19.0577 21.471H21.7801C22.0505 21.471 22.2759 21.2457 22.2759 20.9752V19.8752H18.5619ZM18.9135 14.6499C18.4891 14.6499 18.1562 14.9967 18.1562 15.4071V16.3627C18.1562 16.4871 18.2571 16.588 18.3816 16.588H22.5103C22.6347 16.588 22.7356 16.4871 22.7356 16.3627V15.4071C22.7356 14.9827 22.3889 14.6499 21.9784 14.6499H18.9135ZM21.9093 16.1373H18.9946V15.5246C18.9946 15.3581 19.1305 15.2181 19.3011 15.2181H21.6028C21.7693 15.2181 21.9093 15.354 21.9093 15.5246V16.1373Z" fill="white"/>
</svg>
