<svg width="26" height="27" viewBox="0 0 26 27" fill="none" xmlns="http://www.w3.org/2000/svg">
<circle cx="12.8974" cy="11.8713" r="10.24" stroke="white"/>
<path d="M23.6374 11.8713C23.6374 14.7197 22.5059 17.4515 20.4917 19.4656C18.4776 21.4797 15.7458 22.6113 12.8974 22.6113C10.049 22.6113 7.31727 21.4797 5.30313 19.4656C3.289 17.4515 2.15747 14.7197 2.15747 11.8713L12.8974 11.8713H23.6374Z" fill="white"/>
<path d="M25.603 13.2992C25.603 16.669 24.2644 19.9008 21.8815 22.2836C19.4987 24.6665 16.2669 26.0051 12.8971 26.0051C9.52727 26.0051 6.29547 24.6665 3.91265 22.2836C1.52982 19.9008 0.191163 16.669 0.191162 13.2992L12.8971 13.2992H25.603Z" fill="#F7F7F7" fill-opacity="0.5"/>
</svg>
