<svg width="20" height="25" viewBox="0 0 20 25" fill="none" xmlns="http://www.w3.org/2000/svg">
<path d="M14.6636 3.22588C12.8237 3.22588 11.2347 2.35913 10.4486 1.07707C10.3148 0.860379 10.0137 0.860379 9.87987 1.07707C9.09373 2.35913 7.50471 3.22588 5.66481 3.22588C4.04235 3.22588 2.62061 2.53971 1.75084 1.51044C1.55012 1.25764 1.14868 1.42015 1.14868 1.76324V15.7757C1.14868 16.9133 1.63375 17.9606 2.40316 18.5023L9.17736 23.1972C9.77951 23.6125 10.5489 23.6125 11.1343 23.1972L17.9085 18.5023C18.678 17.9606 19.163 16.9133 19.163 15.7757V1.76324C19.163 1.42015 18.7783 1.25764 18.5609 1.51044C17.7245 2.53971 16.2861 3.22588 14.6636 3.22588Z" stroke="white" stroke-miterlimit="10" stroke-linecap="round" stroke-linejoin="round"/>
<path d="M10.1642 0.914551C10.0471 0.914551 9.94677 0.968727 9.87987 1.07707C9.09373 2.35913 7.50472 3.22589 5.66481 3.22589C4.04235 3.22589 2.62061 2.53971 1.75084 1.51045C1.68393 1.42016 1.58357 1.38405 1.49994 1.38405C1.33268 1.38405 1.14868 1.5285 1.14868 1.76324V15.7757C1.14868 16.9133 1.63375 17.9606 2.40316 18.5023L9.17736 23.1972C9.47843 23.3958 9.81296 23.5042 10.1642 23.5042C10.4987 23.5042 10.85 23.3958 11.1511 23.1972L17.9253 18.5023C18.6947 17.9606 19.1798 16.9133 19.1798 15.7757V1.76324C19.1798 1.54656 19.0125 1.38405 18.8285 1.38405C18.7449 1.38405 18.6445 1.42016 18.5776 1.51045C17.7246 2.53971 16.2861 3.22589 14.6636 3.22589C12.8237 3.22589 11.2347 2.35913 10.4486 1.07707C10.3817 0.968727 10.2813 0.914551 10.1642 0.914551Z" stroke="white" stroke-miterlimit="10" stroke-linecap="round" stroke-linejoin="round"/>
<path d="M14.8827 8.49849C14.6819 8.26375 14.3474 8.2457 14.13 8.46239L8.49317 13.9337L5.73331 12.0377C5.63295 11.9655 5.49914 11.9835 5.41551 12.0558C5.29842 12.1641 5.2817 12.3447 5.38206 12.4711L8.0081 15.8297C8.02483 15.8478 8.04156 15.8839 8.07501 15.902C8.37609 16.2089 8.86115 16.1909 9.1455 15.8659L9.2124 15.7936L14.8827 9.27496C15.0499 9.05828 15.0666 8.71518 14.8827 8.49849Z" fill="white"/>
</svg>
