<svg width="33" height="27" viewBox="0 0 33 27" fill="none" xmlns="http://www.w3.org/2000/svg">
<path d="M16.7827 9.44249L20.8197 9.47206C21.053 9.47206 21.2164 9.23542 21.2164 8.9692V0.598078C21.2164 0.302278 21.0297 0.0952148 20.8197 0.0952148H12.1623C11.929 0.0952148 11.7656 0.331858 11.7656 0.598078V8.9692C11.7656 9.265 11.9523 9.47206 12.1623 9.47206H16.1993V9.44249H16.7827Z" fill="white"/>
<path d="M10.1787 25.5044V17.1332C10.1787 16.8374 9.99201 16.6304 9.782 16.6304H1.10129C0.867937 16.6304 0.70459 16.867 0.70459 17.1332V25.5044C0.70459 25.8002 0.891272 26.0072 1.10129 26.0072H9.75866C9.99201 26.0368 10.1787 25.8002 10.1787 25.5044Z" fill="white"/>
<path d="M12.1623 16.6304C11.929 16.6304 11.7656 16.867 11.7656 17.1332V25.5044C11.7656 25.8002 11.9523 26.0072 12.1623 26.0072H20.8197C21.053 26.0072 21.2164 25.7706 21.2164 25.5044V17.1332C21.2164 16.8374 21.0297 16.6304 20.8197 16.6304H12.1623Z" fill="white"/>
<path d="M23.2231 16.6304C22.9898 16.6304 22.8264 16.867 22.8264 17.1332V25.5044C22.8264 25.8002 23.0131 26.0072 23.2231 26.0072H31.8805C32.1138 26.0072 32.2772 25.7706 32.2772 25.5044V17.1332C32.2772 16.8374 32.0905 16.6304 31.8805 16.6304H23.2231Z" fill="white"/>
<path d="M16.7827 9.44249L20.8197 9.47206C21.053 9.47206 21.2164 9.23542 21.2164 8.9692V0.598078C21.2164 0.302278 21.0297 0.0952148 20.8197 0.0952148H12.1623C11.929 0.0952148 11.7656 0.331858 11.7656 0.598078V8.9692C11.7656 9.265 11.9523 9.47206 12.1623 9.47206H16.1993V9.44249H16.7827ZM12.559 8.43676V1.10094H20.423V8.43676H12.559Z" fill="white"/>
<path d="M10.1787 25.5044V17.1332C10.1787 16.8374 9.99202 16.6304 9.782 16.6304H1.10129C0.867937 16.6304 0.70459 16.867 0.70459 17.1332V25.5044C0.70459 25.8002 0.891272 26.0072 1.10129 26.0072H9.75866C9.99201 26.0368 10.1787 25.8002 10.1787 25.5044ZM9.36196 25.0015H1.52132V17.6657H9.3853V25.0015H9.36196Z" fill="white"/>
<path d="M12.1623 16.6304C11.929 16.6304 11.7656 16.867 11.7656 17.1332V25.5044C11.7656 25.8002 11.9523 26.0072 12.1623 26.0072H20.8197C21.053 26.0072 21.2164 25.7706 21.2164 25.5044V17.1332C21.2164 16.8374 21.0297 16.6304 20.8197 16.6304H12.1623ZM20.423 25.0015H12.559V17.6657H20.423V25.0015Z" fill="white"/>
<path d="M23.2231 16.6304C22.9898 16.6304 22.8264 16.867 22.8264 17.1332V25.5044C22.8264 25.8002 23.0131 26.0072 23.2231 26.0072H31.8805C32.1138 26.0072 32.2772 25.7706 32.2772 25.5044V17.1332C32.2772 16.8374 32.0905 16.6304 31.8805 16.6304H23.2231ZM31.4838 25.0015H23.6198V17.6657H31.4838V25.0015Z" fill="white"/>
<path d="M4.00098 16.8078H4.67467V14.0273H16.1544V16.8078H16.8281V14.0273H28.3079V16.8078H28.9816V13.2878H16.8281V9.44238H16.1544V13.2878H4.00098V16.8078Z" fill="white"/>
</svg>
