<svg width="26" height="23" viewBox="0 0 26 23" fill="none" xmlns="http://www.w3.org/2000/svg">
<path d="M0.44043 6.89004V19.0828C0.44043 20.5432 1.63291 21.7491 3.10675 21.7491H22.4007C23.8612 21.7491 25.0671 20.5566 25.0671 19.0828V6.89004C25.0671 5.42959 23.8746 4.22372 22.4007 4.22372H17.1753V2.20053C17.1753 1.39661 16.5188 0.726685 15.7014 0.726685H9.80605C9.00214 0.726685 8.33221 1.38322 8.33221 2.20053V4.22372H3.10675C1.63291 4.23712 0.44043 5.42959 0.44043 6.89004Z" fill="white"/>
<path fill-rule="evenodd" clip-rule="evenodd" d="M7.99774 2.20053C7.99774 1.19625 8.81962 0.391724 9.80655 0.391724H15.7019C16.7062 0.391724 17.5107 1.21361 17.5107 2.20053V3.88875H22.4012C24.0611 3.88875 25.4025 5.24569 25.4025 6.89004V19.0828C25.4025 20.7427 24.0456 22.0841 22.4012 22.0841H3.10725C1.44731 22.0841 0.105957 20.7271 0.105957 19.0828V6.89004C0.105957 5.24294 1.44942 3.90381 3.1042 3.88877L3.10725 3.88875H7.99774V2.20053ZM9.80655 1.06165C9.18565 1.06165 8.66767 1.57019 8.66767 2.20053V4.22372C8.66767 4.40872 8.5177 4.55868 8.3327 4.55868H3.10882C1.81659 4.57122 0.775887 5.61674 0.775887 6.89004V19.0828C0.775887 20.3593 1.81949 21.4141 3.10725 21.4141H22.4012C23.6778 21.4141 24.7326 20.3705 24.7326 19.0828V6.89004C24.7326 5.6135 23.689 4.55868 22.4012 4.55868H17.1758C16.9908 4.55868 16.8408 4.40872 16.8408 4.22372V2.20053C16.8408 1.57963 16.3323 1.06165 15.7019 1.06165H9.80655Z" fill="#6D6D6D"/>
<path d="M25.0546 9.20813H0.441406V9.90487H25.0546V9.20813Z" fill="#6D6D6D"/>
<path d="M10.7173 12.8792H14.7637C15.5006 12.8792 16.1035 12.2763 16.1035 11.5394V9.89136H15.5006V11.5394C15.5006 11.9413 15.1656 12.2763 14.7637 12.2763H10.7173C10.3153 12.2763 9.98038 11.9413 9.98038 11.5394V9.89136H9.37744V11.5394C9.37744 12.2763 9.98038 12.8792 10.7173 12.8792Z" fill="#6D6D6D"/>
<path fill-rule="evenodd" clip-rule="evenodd" d="M9.37793 3.26318C9.37793 2.65313 9.87258 2.1377 10.5034 2.1377H15.0589C15.669 2.1377 16.1844 2.63236 16.1844 3.26318V4.68343C16.1844 4.86843 16.0344 5.01839 15.8494 5.01839H9.71289C9.5279 5.01839 9.37793 4.86843 9.37793 4.68343V3.26318ZM10.624 4.34846H14.9561V3.43775C14.9561 3.18426 14.7481 2.98219 14.5006 2.98219H11.0795C10.8261 2.98219 10.624 3.19028 10.624 3.43775V4.34846Z" fill="#6D6D6D"/>
</svg>
