<svg width="71" height="142" viewBox="0 0 71 142" fill="none" xmlns="http://www.w3.org/2000/svg">
<g clip-path="url(#clip0_1435_301)">
<path d="M65.4184 141.531L65.1084 141.688L65.4184 141.531Z" fill="#20262B"/>
<path d="M70.9993 40.7723V40.6161V40.4598V40.3036V40.1474V39.9912V39.835V39.6788V39.5225V39.3663V39.2101V39.0539V38.8977V38.7415V38.5853L70.8443 38.429L70.6893 38.2728L70.5343 38.1166L70.3792 37.8042C70.2242 37.648 70.2242 37.4917 70.0692 37.3355L69.9142 37.0231L69.7592 36.8669L69.6041 36.7107L69.4491 36.5545L68.829 35.9296L68.674 35.7734L68.519 35.6172L68.364 35.4609L68.2089 35.3047L68.0539 35.1485L67.8989 34.9923L67.7439 34.8361L67.5889 34.6799L8.68056 0.468647H8.52554H8.37051H8.21549H8.06047H7.90545L7.75043 0.156216H7.59541L7.44038 0H7.28536H6.97532H6.8203H6.66527L6.20021 0.156216H6.04519L1.39453 2.9681H1.54955H1.8596H2.01462H2.16964H2.32466H2.47968H2.63471H2.78973H2.94475H3.09977H3.25479H3.40982H3.56484H3.71986H3.87488L62.6282 37.4917L62.7832 37.648L62.9382 37.8042L63.0932 37.9604L63.2482 38.1166H63.4033L63.5583 38.2728L63.7133 38.429L63.8683 38.5853L64.0234 38.7415L64.1784 38.8977L64.3334 39.0539L64.4884 39.2101L64.6434 39.3663L64.7985 39.6788C64.9535 39.835 64.9535 39.9912 65.1085 40.1474L65.2635 40.3036L65.4186 40.4598L65.5736 40.6161L65.7286 40.7723V40.9285V41.0847V41.2409V41.3971V41.5534V41.7096V41.8658V42.022V42.1782V42.3344V42.4906V42.6469V42.8031V42.9593V43.1155L65.4186 138.876V139.032V139.188V139.344V139.501V139.657V139.813V139.969L65.2635 140.125L65.1085 140.438L64.9535 140.594L65.1085 141.688L64.9535 141.844L69.7592 139.032C69.9142 138.876 70.2242 138.719 70.3792 138.563L70.5343 138.251V138.095V137.938V137.782V137.626V137.47V137.314V137.157V137.001L70.8443 41.2409L70.9993 40.7723Z" fill="#3E4651"/>
<path d="M2.47949 2.81177C2.63451 2.81177 2.94456 2.81177 3.09958 2.96798C2.94456 2.81177 2.63451 2.81177 2.47949 2.81177Z" fill="#20262B"/>
<path d="M3.10059 2.96802C3.41063 2.96802 3.56565 3.12423 3.87569 3.28045C3.56565 3.12423 3.41063 2.96802 3.10059 2.96802Z" fill="#20262B"/>
<path d="M65.5742 141.219L65.7293 141.063C65.7293 140.906 65.8843 140.75 65.8843 140.594V140.438C65.8843 140.125 65.8843 139.969 65.8843 139.657L66.1943 43.7403C66.1943 43.4278 66.1943 43.1154 66.1943 42.803C66.0393 42.1781 65.8843 41.5532 65.7293 40.9284C65.5742 40.616 65.4192 40.3035 65.2642 40.1473C65.1092 39.8349 64.9542 39.6787 64.7991 39.3662C64.6441 39.0538 64.3341 38.8976 64.179 38.5851C64.024 38.4289 63.714 38.1165 63.559 37.9603C63.4039 37.8041 63.0939 37.6479 62.7838 37.4916L3.87555 3.28041C3.5655 3.1242 3.41048 2.96798 3.10044 2.96798C2.94542 2.96798 2.63537 2.81177 2.48035 2.81177H2.32533C2.17031 2.81177 2.01528 2.81177 1.86026 2.81177H1.70524L1.3952 2.96798C0.620087 3.43663 0.310044 4.21771 0.310044 5.31122L0 101.071C0 103.415 1.55022 106.227 3.5655 107.32L62.3188 141.531C63.4039 142.156 64.4891 142.156 65.1092 141.531L65.2642 141.375L65.5742 141.219Z" fill="#2F353D"/>
<path d="M65.5742 141.219L65.7293 140.906L65.5742 141.219Z" fill="#20262B"/>
<path d="M20.7727 103.102V102.946V102.79V102.634V102.478V102.321V102.165V102.009V101.853V101.696V101.54L20.6176 101.384V101.228V101.072V100.915L20.4626 100.759L20.3076 100.603L20.1526 100.29L19.9976 99.9781V99.8218C19.8425 99.6656 19.8425 99.5094 19.6875 99.3532L19.5325 99.0408L19.3775 98.7283L18.6024 97.6348L18.4473 97.4786L18.2923 97.3224L18.1373 97.1662L17.9823 97.01L17.6722 96.8537L17.5172 96.6975L17.3622 96.5413L17.2072 96.3851L17.0521 96.2289L16.8971 96.0727L16.7421 95.9165L9.14602 91.5424H8.991L8.83598 91.3862L8.68096 91.23H8.52594H8.37092H8.21589H8.06087H7.90585H7.75083H7.59581H7.44078H7.28576H7.13074C6.97572 91.23 6.8207 91.3862 6.66568 91.3862H6.51065L4.65039 92.0111L4.96043 91.8548H5.27048H5.58052H5.73554H5.89057H6.04559H6.20061H6.35563H6.51065H6.66568H6.8207H6.97572L7.28576 92.1673L7.44078 92.3235H7.59581L15.1919 96.6975L15.3469 96.8537L15.5019 97.01L15.6569 97.1662L15.812 97.3224H15.967L16.122 97.4786L16.277 97.6348L16.4321 97.791L16.5871 97.9473L16.7421 98.1035L16.8971 98.2597L17.0521 98.4159L17.2072 98.7283L17.5172 99.0408C17.6722 99.197 17.6722 99.3532 17.8272 99.5094V99.6656L17.9823 99.9781L18.1373 100.29L18.2923 100.447L18.4473 100.603V100.759L18.6024 100.915V101.072V101.228V101.384V101.54V101.696V101.853V102.009V102.165V102.321V102.478V102.634V102.79V102.946V103.415V103.571V103.727V103.883V104.04V104.196V104.352V104.508V104.665L18.4473 104.821L18.2923 105.133L18.1373 105.289L18.6024 106.695C18.4473 106.852 18.2923 107.008 18.1373 107.008L19.5325 106.227C19.8425 106.07 19.9976 105.914 20.1526 105.602L20.3076 105.289V105.133V104.977V104.821V104.665V104.508V104.352V104.196V104.04V103.883V103.415L20.7727 103.102Z" fill="#3E4651"/>
<path d="M18.9123 106.227C19.0674 105.914 19.0674 105.758 19.2224 105.445V105.289C19.2224 104.977 19.3774 104.664 19.3774 104.352V103.883C19.3774 103.571 19.3774 103.258 19.2224 102.79C19.0674 102.165 18.9123 101.384 18.6023 100.759C18.4473 100.447 18.2923 100.134 18.1372 99.8217C17.8272 99.1968 17.3621 98.572 16.8971 97.9471C16.587 97.6347 16.432 97.4784 16.1219 97.166C15.8119 97.0098 15.5019 96.6974 15.3468 96.5411L7.75077 92.1671C7.44072 92.0109 7.13068 91.8547 6.97566 91.6985C6.82064 91.6985 6.51059 91.5422 6.35557 91.5422H6.20055C6.04553 91.5422 5.89051 91.5422 5.73548 91.5422H5.58046L5.27042 91.6985L4.65033 92.0109C3.87522 92.4795 3.41016 93.4168 3.41016 94.6666V95.1352C3.41016 97.7909 5.27042 101.071 7.59575 102.477L15.1918 106.851C16.587 107.632 17.8272 107.632 18.6023 106.695C18.7573 106.695 18.9123 106.383 18.9123 106.227Z" fill="#1E2229"/>
<path d="M20.7727 87.9493V87.7931V87.6369V87.4807V87.3245V87.1683V87.012V86.8558V86.6996V86.5434L20.6176 86.3872L20.4626 86.231V86.0747V85.9185V85.7623L20.3076 85.6061L20.1526 85.4499L19.9976 85.1375L19.8425 84.825C19.6875 84.6688 19.6875 84.5126 19.5325 84.3564L19.3775 84.0439L19.2224 83.7315L18.6024 82.4818L18.4473 82.3256L18.2923 82.1694L18.1373 82.0131L17.9823 81.8569L17.8272 81.7007L17.6722 81.5445L17.5172 81.3883H17.3622L17.2072 81.2321L17.0521 81.0758L16.8971 80.9196L16.7421 80.7634L9.14602 76.3894H8.991L8.83598 76.2332H8.68096H8.52594H8.37092H8.21589H8.06087H7.90585H7.75083H7.59581H7.44078H7.28576H7.13074C6.97572 76.2332 6.8207 76.3894 6.66568 76.3894L6.51065 76.5456L4.65039 76.858L4.96043 76.7018L5.27048 76.5456H5.58052H5.73554H5.89057H6.20061H6.35563H6.51065H6.66568H6.8207H6.97572H7.13074H7.28576L7.44078 76.7018H7.59581L15.1919 81.0758L15.3469 81.2321L15.5019 81.3883L15.6569 81.5445L15.812 81.7007H15.967L16.122 81.8569L16.277 82.0131L16.4321 82.1694L16.5871 82.3256L16.7421 82.4818L16.8971 82.638L17.0521 82.7942L17.2072 83.1067L17.5172 83.4191C17.6722 83.5753 17.6722 83.7315 17.8272 83.8877L17.9823 84.2002L18.1373 84.5126L18.2923 84.6688L18.4473 84.825V84.9812L18.6024 85.1375L18.7574 85.2937V85.4499V85.6061V85.7623V85.9185V86.0747V86.231V86.3872V86.5434V86.6996V86.8558V87.012V87.1683V87.6369V87.7931V87.9493V88.1056V88.2618V88.418V88.5742V88.7304V88.8866L18.6024 89.0428L18.4473 89.3553L18.2923 89.5115L18.1373 89.6677L17.8272 89.8239L17.5172 89.9801L18.9124 89.1991C19.2224 89.0428 19.3775 88.8866 19.5325 88.5742L19.6875 88.2618V88.1056V87.9493V87.7931V87.6369V87.4807V87.3245V87.1683V87.012V86.5434L20.7727 87.9493Z" fill="#3E4651"/>
<path d="M18.9126 91.2299L19.0676 90.9175C19.0676 90.7613 19.2226 90.6051 19.2226 90.4489L19.3777 90.1364C19.3777 89.824 19.5327 89.5116 19.5327 89.1991V88.7305C19.5327 88.418 19.5327 88.1056 19.3777 87.637C19.3777 87.3245 19.2226 87.0121 19.0676 86.5435C18.9126 86.231 18.9126 85.9186 18.7576 85.45C18.6025 85.1375 18.4475 84.8251 18.2925 84.5127C17.9825 83.8878 17.5174 83.2629 17.0523 82.7943C16.7423 82.4819 16.5873 82.3256 16.2772 82.0132C15.9672 81.857 15.6571 81.5446 15.5021 81.3883L7.90604 77.0143C7.596 76.8581 7.28595 76.7019 7.13093 76.7019H6.97591C6.35582 76.7019 6.2008 76.5457 6.04578 76.5457H5.89076C5.73574 76.5457 5.58071 76.5457 5.42569 76.5457H5.27067C5.11565 76.5457 4.96063 76.7019 4.8056 76.7019C4.0305 77.1705 3.56543 78.1078 3.56543 79.3575V79.8262C3.56543 82.4818 5.42569 85.7624 7.75102 87.1683L15.3471 91.5424C16.5873 92.3234 17.8274 92.3234 18.6025 91.6986L18.9126 91.5424V91.2299Z" fill="#1E2229"/>
<path d="M20.7727 72.6402V72.484V72.3278V72.1716V72.0154V71.8592V71.7029V71.5467V71.3905V71.2343V71.0781V70.9219V70.7657V70.6094V70.4532L20.6176 70.297L20.4626 70.1408L20.3076 69.8284L19.6875 68.7349C19.5325 68.5786 19.5325 68.4224 19.3775 68.2662L19.0674 67.9538L18.9124 67.6413L18.6024 67.3289L18.4473 67.1727L18.2923 67.0165L18.1373 66.8603L17.9823 66.704L17.8272 66.5478L17.6722 66.3916L17.5172 66.2354L17.3622 66.0792L17.0521 65.923L16.8971 65.7668L16.7421 65.6105L9.14602 61.2365H8.991L8.83598 61.0803L8.52594 60.9241H8.37092H8.21589H8.06087H7.90585H7.75083H7.59581H7.44078H7.28576H7.13074H6.97572C6.8207 60.9241 6.66567 61.0803 6.51065 61.0803H6.35563L4.65039 61.7052L4.96043 61.5489H5.27048H5.4255H5.58052H5.73554H5.89057H6.04559H6.20061H6.35563H6.51065H6.66568H6.8207L6.97572 61.7052L7.13074 61.8614H7.28576L14.8818 66.2354L15.0369 66.3916L15.1919 66.5478L15.3469 66.704L15.5019 66.8603L15.6569 67.0165L15.812 67.1727L15.967 67.3289L16.122 67.4851L16.277 67.6413L16.4321 67.7976L16.5871 67.9538L16.7421 68.11L16.8971 68.4224L17.2072 68.7349C17.3622 68.8911 17.3622 69.0473 17.5172 69.2035L17.6722 69.5159L17.8272 69.8284L18.6024 70.297L18.7574 70.4532V70.6094L18.9124 70.7657V70.9219V71.0781V71.2343V71.3905V71.5467V71.7029V71.8592V72.0154V72.1716V72.3278V72.484V72.6402V72.7965V73.2651V73.4213V73.5775V73.7338V73.89V74.0462V74.2024V74.3586V74.5148L18.7574 74.671L18.6024 74.9835L18.4473 75.1397L18.2923 75.2959L18.4473 76.5456L18.1373 76.7018L19.5325 75.9208C19.8425 75.7645 19.9976 75.6083 20.1526 75.2959L20.3076 74.9835V74.8273V74.671V74.5148V74.3586V74.2024V74.0462V73.89V73.7338V73.5775V73.1089L20.7727 72.6402Z" fill="#3E4651"/>
<path d="M18.9126 76.0768L19.0676 75.7644C19.0676 75.6082 19.2226 75.452 19.2226 75.2958L19.3777 74.9833C19.3777 74.6709 19.5327 74.3585 19.5327 74.046V73.5774C19.5327 72.9525 19.3777 72.1715 19.2226 71.5466C19.0676 71.2342 19.0676 70.9217 18.9126 70.4531C18.7576 70.1406 18.6025 69.8282 18.4475 69.5158C18.1375 68.8909 17.6724 68.2661 17.2074 67.7974C16.8973 67.485 16.7423 67.3288 16.4322 67.0163C16.1222 66.8601 15.8122 66.5477 15.6571 66.3915L7.75102 62.0174C7.44098 61.8612 7.13093 61.705 6.97591 61.5488H6.66587C6.51084 61.5488 6.35582 61.3926 6.2008 61.3926H5.89076C5.73574 61.3926 5.58071 61.3926 5.42569 61.3926L5.27067 61.5488C5.11565 61.5488 4.96063 61.705 4.8056 61.705C4.0305 62.1737 3.56543 63.111 3.56543 64.3607V64.8293C3.56543 67.485 5.42569 70.7655 7.75102 72.1715L15.1921 76.5455C16.4322 77.3266 17.6724 77.3266 18.4475 76.5455L18.6025 76.3893L18.9126 76.0768Z" fill="#1E2229"/>
<path d="M20.9275 57.4874V57.3312V57.1749V57.0187V56.8625V56.7063V56.5501V56.3939V56.2377V56.0814L20.7724 55.9252V55.769L20.6174 55.6128V55.4566L20.1524 54.5193V54.3631L19.9973 54.2068L19.8423 53.8944L19.6873 53.582C19.5323 53.4258 19.5323 53.2696 19.3772 53.1133L19.0672 52.8009L18.9122 52.4885L18.7572 52.3323L18.6021 52.0198L18.4471 51.8636L18.2921 51.5512L18.1371 51.395L17.982 51.2387L17.827 51.0825L17.672 50.9263L17.517 50.7701L17.0519 50.6139L16.8969 50.4577L16.7419 50.3015L9.1458 45.9274H8.99078L8.83576 45.7712L8.68074 45.615H8.52571H8.37069H8.21567H8.06065H7.90563H7.75061H7.59558H7.44056H7.28554H7.13052C6.9755 45.615 6.82047 45.7712 6.66545 45.7712H6.51043L5.11523 46.5523L5.42528 46.3961L5.73532 46.2399H6.04537H6.20039H6.35541H6.51043H6.66545H6.82047H6.9755H7.13052H7.28554H7.44056L7.59558 46.3961L7.75061 46.5523V46.8647L15.3467 51.2387L15.5017 51.395L15.6567 51.5512L15.8117 51.7074L15.9668 51.8636L16.1218 52.0198L16.2768 52.176L16.4318 52.3323L16.5868 52.4885L16.7419 52.6447L16.8969 52.8009L17.0519 52.9571L17.2069 53.1133L17.362 53.4258L17.672 53.7382C17.827 53.8944 17.827 54.0506 17.982 54.2068L18.1371 54.5193L18.2921 54.8317L18.4471 54.9879L18.6021 55.1441V55.3004L18.7572 55.4566V55.6128V55.769V55.9252V56.0814V56.2377V56.3939V56.5501V56.7063V56.8625V57.0187V57.1749V57.3312V57.4874V57.956V58.1122V58.2685V58.4247V58.5809V58.7371V58.8933V59.0495V59.2057L18.6021 59.362L19.0672 60.9241L18.9122 61.0803L18.7572 61.2366L18.6021 61.3928C18.4471 61.549 18.2921 61.549 18.2921 61.7052L19.6873 60.9241C19.9973 60.7679 20.1524 60.6117 20.3074 60.2993L20.4624 59.9868V59.8306V59.6744V59.5182V59.362V59.2057V59.0495V58.8933V58.7371V58.5809V58.1122L20.9275 57.4874Z" fill="#898F94"/>
<path d="M19.0676 60.9243L19.2226 60.6119L19.3777 60.1432L19.5327 59.8308C19.5327 59.5183 19.6877 59.2059 19.6877 58.8935V58.4248C19.6877 58.1124 19.6877 57.8 19.5327 57.3313C19.5327 57.0189 19.3777 56.7065 19.2226 56.2378C19.0676 55.9254 19.0676 55.613 18.9126 55.1443C18.7576 54.8319 18.6025 54.5195 18.4475 54.207C18.1375 53.5822 17.6724 52.9573 17.2073 52.4886C16.8973 52.1762 16.7423 52.02 16.4322 51.7076C16.1222 51.5514 15.8122 51.2389 15.6571 51.0827L7.75102 46.8649C7.44097 46.7087 7.13093 46.5525 6.97591 46.5525H6.66587C6.51084 46.5525 6.35582 46.3962 6.2008 46.3962H5.89076H5.42569L5.11565 46.5525L4.8056 46.7087C4.0305 47.1773 3.56543 48.1146 3.56543 49.3643V49.833C3.56543 52.4886 5.42569 55.7692 7.75102 57.1751L15.3471 61.5492C16.7423 62.3302 17.9825 62.3302 18.7576 61.5492L18.9126 61.3929L19.0676 60.9243Z" fill="#676B6F"/>
<path d="M40.6159 114.662V114.506V114.35V114.194V114.038V113.881V113.725V113.569V113.413V113.256V113.1L40.4609 112.944V112.788L40.3059 112.632V112.475L40.1509 112.319L39.9959 112.163L39.5308 110.913L39.3758 110.601V110.445C39.2207 110.288 39.2207 110.132 39.0657 109.976L38.7557 109.664L38.6007 109.351L38.4456 109.195L38.2906 109.039L38.1356 108.882L37.9806 108.726L37.8255 108.57L37.6705 108.414L37.5155 108.258H37.3605H37.2055L37.0504 108.101L36.8954 107.789L36.7404 107.633L36.5854 107.477L28.8343 103.102H28.6793L28.5242 102.946L28.3692 102.79H28.2142H28.0592H27.9041H27.7491H27.5941H27.4391H27.2841H27.129H26.974H26.819C26.664 102.79 26.509 102.946 26.3539 102.946H26.1989L24.8037 103.727L25.1138 103.571H25.4238H25.7338H25.8889H26.0439H26.1989H26.3539H26.509H26.664H26.819H26.974H27.129L27.2841 103.727L27.4391 103.884H27.5941L35.1902 108.258L35.3452 108.414L35.5002 108.57L35.6552 108.726L35.8103 108.882H35.9653L36.1203 109.039L36.2753 109.195L36.4303 109.351L36.5854 109.507L36.7404 109.664L36.8954 109.82L37.0504 109.976L37.2055 110.288L37.5155 110.601C37.6705 110.757 37.6705 110.913 37.8255 111.069L37.9806 111.382L38.1356 111.694L38.2906 111.851L38.4456 112.007V112.163L38.6007 112.319V112.475V112.632V112.788V112.944V113.1V113.256V113.413V113.569V113.725V113.881V114.038V114.194V115.6V116.068V116.225V116.381V116.537V116.693V116.849V117.006V117.162V117.318L38.4456 117.474L38.7557 118.099L38.6007 118.255L38.4456 118.412L37.9806 118.724L39.3758 117.943C39.6858 117.787 39.8408 117.631 39.9959 117.318L40.1509 117.006L40.3059 116.849V116.693V116.537V116.381V116.225V116.068V115.912V115.756V115.6V115.131L40.6159 114.662Z" fill="#3E4651"/>
<path d="M38.7551 117.943L38.9101 117.787C39.0652 117.63 39.0652 117.474 39.0652 117.162V117.006C39.0652 116.693 39.2202 116.381 39.2202 116.068V115.6C39.2202 115.287 39.2202 114.975 39.0652 114.506C38.9101 113.881 38.7551 113.1 38.4451 112.475C38.29 112.163 38.135 111.85 37.98 111.538C37.825 111.226 37.67 110.913 37.3599 110.601C37.2049 110.288 36.8948 109.976 36.5848 109.82C36.2748 109.507 36.1197 109.351 35.8097 109.039C35.4997 108.882 35.1896 108.57 35.0346 108.414L27.4385 104.04C26.9735 103.727 26.6634 103.571 26.1983 103.571L25.8883 103.415H25.5783C25.4232 103.415 25.2682 103.415 25.1132 103.415L24.8031 103.571L24.4931 103.727C23.718 104.196 23.2529 105.133 23.2529 106.383V106.852C23.2529 109.507 25.1132 112.788 27.4385 114.194L35.0346 118.568C36.4298 119.349 37.5149 119.349 38.29 118.568L38.4451 118.411C38.6001 118.255 38.7551 118.099 38.7551 117.943Z" fill="#1E2229"/>
<path d="M40.7707 99.5096V99.3533V99.1971V99.0409V98.8847V98.7285V98.5723V98.4161V98.2598V98.1036L40.3056 97.3225L40.1506 97.1663V97.0101V96.8539V96.6977L39.9956 96.5415L39.8406 96.3853L39.6856 96.0728L39.5305 95.7604V95.6042C39.3755 95.448 39.3755 95.2917 39.2205 95.1355L38.9104 94.6669L38.7554 94.3545L38.6004 94.1982L38.4454 94.042L38.1353 93.7296L37.9803 93.5734L37.8253 93.4172L37.6703 93.2609L37.5153 93.1047L37.3602 92.9485L37.2052 92.7923L37.0502 92.6361L36.8952 92.4799L36.7401 92.3236L29.1441 87.9496H28.9891L28.834 87.7934L28.679 87.6372H28.524H28.369L27.9039 87.481H27.7489H27.5939H27.4388H27.2838H27.1288H26.9738H26.8187C26.3537 87.481 26.3537 87.481 26.1987 87.481L26.0436 87.6372L24.6484 88.4182L24.9585 88.262H25.2685H25.4235H25.5786H25.7336H25.8886H26.0436H26.1987H26.3537H26.5087H26.6637H26.8187L26.9738 88.4182L27.1288 88.5745H27.2838L34.8799 92.9485L35.0349 93.1047L35.1899 93.2609L35.3449 93.4172L35.5 93.5734H35.655L35.81 93.7296L35.965 93.8858L36.1201 94.042L36.2751 94.1982L36.4301 94.3545L36.5851 94.5107L36.7401 94.6669L36.8952 94.9793L37.2052 95.2917C37.3602 95.448 37.3602 95.6042 37.5153 95.7604V95.9166L37.6703 96.229L37.8253 96.5415L37.9803 96.6977L38.1353 96.8539V97.0101L38.2904 97.1663V97.3225L38.4454 97.4788V97.635V97.7912V97.9474V98.1036V98.2598V98.4161V98.5723V98.7285V98.8847V99.0409V99.1971V99.6658V99.822V99.9782V100.134V100.291V100.447V100.603V100.759V100.916L38.2904 101.072L38.7554 102.79V102.946L38.6004 103.103L38.2904 103.259L37.9803 103.415L39.3755 102.634C39.6856 102.478 39.8406 102.321 39.9956 102.009L40.1506 101.697V101.54V101.384V101.228V101.072V100.916V100.759V100.603V100.447V100.291V99.822L40.7707 99.5096Z" fill="#3E4651"/>
<path d="M38.7554 102.79L38.9104 102.477C38.9104 102.321 39.0654 102.165 39.0654 102.009L39.2204 101.696C39.2204 101.384 39.3755 101.072 39.3755 100.759V100.29C39.3755 99.978 39.3755 99.6656 39.2204 99.197C39.2204 98.8845 39.0654 98.5721 38.9104 98.1034C38.7554 97.791 38.7554 97.4786 38.6003 97.0099C38.4453 96.6975 38.2903 96.3851 38.1353 96.0726V95.9164C37.9803 95.604 37.8252 95.2916 37.5152 94.9791C37.3602 94.6667 37.0501 94.3543 36.7401 94.1981C36.43 93.8856 36.275 93.7294 35.965 93.417C35.6549 93.2608 35.4999 92.9483 35.1899 92.7921L27.5938 88.4181C27.1287 88.1056 26.8187 87.9494 26.3536 87.9494L26.0436 87.7932H25.7335C25.5785 87.7932 25.4235 87.7932 25.2685 87.7932L24.9584 87.9494L24.6484 88.1056C23.8733 88.5743 23.4082 89.5116 23.4082 90.7613V91.23C23.4082 93.8856 25.2685 97.1662 27.5938 98.5721L35.1899 102.946C36.43 103.727 37.6702 103.727 38.4453 103.102L38.7554 102.946V102.79Z" fill="#1E2229"/>
<path d="M40.7705 84.3565V84.2003V84.0441V83.8879V83.7317V83.5754V83.4192V83.263V83.1068V82.9506V82.7944L40.3054 81.8571V81.7009V81.5446V81.3884L40.1504 81.2322L39.9954 81.076L39.8404 80.7636L39.6853 80.4511C39.5303 80.2949 39.5303 80.1387 39.3753 79.9825L39.0652 79.6701L38.7552 79.2014L38.6002 79.0452L38.4452 78.889L38.2901 78.7328L38.1351 78.5765L37.9801 78.4203L37.8251 78.2641L37.67 78.1079L37.515 77.9517L37.205 77.6392L37.05 77.483L36.8949 77.3268L36.7399 77.1706L29.1438 72.7966H28.9888L28.8338 72.6403L28.6788 72.4841H28.5238H28.3687H28.2137H28.0587H27.9037H27.7487H27.5936H27.4386H27.2836H27.1286C26.9735 72.4841 26.8185 72.6403 26.6635 72.6403H26.5085L25.1133 73.4214L25.4233 73.2652L25.7334 73.109H26.0434H26.1984H26.3535H26.5085H26.6635H26.8185H26.9735H27.1286H27.2836H27.4386L27.5936 73.2652L27.7487 73.4214H27.9037L35.4997 77.7955L35.6548 77.9517L35.8098 78.1079L35.9648 78.2641L36.1198 78.4203H36.2749L36.4299 78.5765L36.5849 78.7328L36.7399 78.889L36.8949 79.0452L37.05 79.2014L37.205 79.6701L37.36 79.8263L37.515 80.1387L37.8251 80.4511C37.9801 80.6073 37.9801 80.7636 38.1351 80.9198L38.2901 81.2322L38.4452 81.5446L38.6002 81.7009L38.7552 81.8571V82.0133L38.9102 82.1695V82.3257V82.4819V82.6382V82.7944V82.9506V83.1068V83.263V83.4192V83.5754V83.7317V83.8879V84.0441V84.2003V84.669V84.8252V84.9814V85.1376V85.2938V85.45V85.6062V85.7625V85.9187L38.7552 86.0749L38.6002 86.3873H38.4452L38.2901 86.5435L37.9801 86.6998L37.67 86.856L39.0652 86.0749C39.3753 85.9187 39.5303 85.7625 39.6853 85.45L39.8404 85.1376V84.9814V84.8252V84.669V84.5127V84.3565V84.2003V84.0441V83.8879V83.7317V83.263L40.7705 84.3565Z" fill="#3E4651"/>
<path d="M38.9109 87.637L39.0659 87.3245L39.2209 87.0121L39.3759 86.6997C39.3759 86.3872 39.531 86.0748 39.531 85.7624V85.2937C39.531 84.9813 39.531 84.6689 39.3759 84.2002C39.2209 83.5753 39.0659 82.7943 38.7559 82.1694C38.6008 81.857 38.4458 81.5445 38.2908 81.2321C37.9808 80.6072 37.5157 79.9824 37.0506 79.5137C36.7406 79.2013 36.5856 79.0451 36.2755 78.7327C35.9655 78.5764 35.6554 78.264 35.5004 78.1078L27.9043 73.7338C27.5943 73.5775 27.2843 73.4213 27.1292 73.2651H26.9742C26.8192 73.2651 26.5091 73.1089 26.3541 73.1089H26.0441C25.8891 73.1089 25.734 73.1089 25.579 73.1089L25.269 73.2651L24.9589 73.4213C24.1838 73.89 23.7188 74.8273 23.7188 76.077V76.5456C23.7188 79.2013 25.579 82.4818 27.9043 83.8878L35.5004 88.2618C36.7406 89.0429 37.9808 89.0429 38.7559 88.418L39.0659 88.2618L38.9109 87.637Z" fill="#1E2229"/>
<path d="M40.7705 69.0472V68.891V68.7348V68.5786V68.4223V68.2661V68.1099V67.9537V67.7975V67.6413V67.485V67.3288L40.6155 67.1726V67.0164L40.4604 66.8602L40.3054 66.704L40.1504 66.5477L39.9954 66.2353L39.8404 65.9229C39.6853 65.7667 39.6853 65.6105 39.5303 65.4542L39.2203 65.1418L38.7552 63.8921L38.6002 63.7359L38.4452 63.5796L38.2901 63.4234L38.1351 63.2672L37.9801 63.111L37.8251 62.9548L37.67 62.7986L37.515 62.6424H37.36L37.205 62.3299L37.05 62.1737L36.8949 62.0175L36.7399 61.8613L29.1438 57.4872H28.9888L28.8338 57.331L28.6788 57.1748H28.5238H28.3687H28.2137H28.0587H27.9037H27.7487H27.5936H27.4386H27.2836H27.1286C26.9735 57.1748 26.8185 57.331 26.6635 57.331H26.5085L25.1133 58.1121L25.4233 57.9559L25.7334 57.7997H25.8884H26.0434H26.1984H26.3535H26.5085H26.6635H26.8185H26.9735H27.1286H27.2836L27.4386 57.9559L27.5936 58.1121H27.7487L35.3447 62.4861L35.4997 62.6424L35.6548 62.7986L35.8098 62.9548L35.9648 63.111H36.1198L36.2749 63.2672L36.4299 63.4234L36.5849 63.5796L36.7399 63.7359L36.8949 63.8921L37.05 64.0483L37.205 64.2045L37.36 64.5169L37.67 64.8294C37.8251 64.9856 37.8251 65.1418 37.9801 65.298L38.1351 65.6105L38.2901 65.9229L38.4452 66.0791L38.6002 66.2353V66.3915L38.7552 66.5477V66.704V66.8602V67.0164V67.1726V67.3288V67.485V67.6413V67.7975V67.9537V68.1099V68.2661V68.4223V68.5786V69.0472V69.2034V69.3596V69.5158V69.6721V69.8283V69.9845V70.1407V70.2969L38.6002 70.4531L38.4452 70.7656L38.7552 72.6402V72.7964L38.6002 72.9526L38.2901 73.265L39.6853 72.4839C39.9954 72.3277 40.1504 72.1715 40.3054 71.8591L40.4604 71.5466V71.3904V71.2342V71.078V70.9218V70.7656V70.6094V70.4531V70.2969V69.8283L40.7705 69.0472Z" fill="#E94B51"/>
<path d="M38.9104 72.4841L39.0654 72.3279C39.0654 72.1716 39.2204 72.0154 39.2204 71.8592L39.3755 71.5468C39.3755 71.2343 39.5305 70.9219 39.5305 70.6095V70.1408C39.5305 69.2035 39.2204 68.11 38.7554 67.0165C38.6003 66.7041 38.4453 66.3917 38.2903 66.0792C37.9803 65.4544 37.5152 64.8295 36.8951 64.2046C36.5851 63.8922 36.43 63.736 36.12 63.4236C35.8099 63.2673 35.4999 62.9549 35.3449 62.7987L27.7488 58.4247C27.1287 58.1122 26.6637 57.956 26.0436 57.7998H25.8886C25.7335 57.7998 25.4235 57.7998 25.2685 57.7998H25.1134C24.9584 57.7998 24.8034 57.956 24.6484 57.956C23.8733 58.4247 23.4082 59.362 23.4082 60.6117V61.0803C23.4082 63.736 25.2685 67.0165 27.5938 68.4225L35.1899 72.7965C36.5851 73.5776 37.8252 73.5776 38.6003 72.7965L38.7554 72.6403L38.9104 72.4841Z" fill="#B8393B"/>
<path d="M58.5976 129.815C58.7527 129.659 58.7527 129.503 58.9077 129.347C58.9077 129.19 59.0627 129.034 59.0627 128.878V128.566C59.0627 128.253 59.2177 127.941 59.2177 127.628V127.16V112.319V111.85V97.0099V96.8537C59.2177 96.5413 59.2177 96.2289 59.0627 95.7602C59.0627 95.4478 58.9077 95.1354 58.7527 94.6667C58.5976 94.0418 58.2876 93.2608 57.8225 92.6359C57.2024 91.6986 56.5824 90.7613 55.6522 90.1365C55.3422 89.9802 55.0321 89.6678 54.8771 89.5116L47.281 85.1376C46.971 84.9813 46.661 84.8251 46.3509 84.6689H46.1959C45.8858 84.6689 45.7308 84.5127 45.5758 84.5127H45.4208C45.2658 84.5127 44.9557 84.5127 44.8007 84.5127H44.6457C44.4906 84.5127 44.3356 84.6689 44.1806 84.6689C43.4055 85.1376 42.9404 86.0749 42.9404 87.3246V87.7932V102.634V103.102V117.943V118.411C42.9404 121.067 44.8007 124.348 47.126 125.754L54.7221 130.128C55.9623 130.753 56.8924 130.909 57.6675 130.44C58.1326 130.128 58.2876 130.128 58.5976 129.815Z" fill="#146CB3"/>
<path d="M60.614 95.9163V95.7601V95.6039V95.4477V95.2915V95.1353V94.979V94.8228V94.6666V94.5104V94.3542V94.198V94.0417V93.8855V93.7293L60.459 93.5731L60.3039 93.4169L59.5288 92.1672L59.3738 91.8547C59.2188 91.6985 59.2188 91.5423 59.0638 91.3861L58.7537 91.0736L58.5987 90.9174L58.4437 90.7612L58.2887 90.605L58.1336 90.4488L57.9786 90.2926L57.8236 90.1364L57.6686 89.9801L57.3585 89.3553L57.2035 89.1991L56.8935 89.0428L56.7384 88.8866L56.5834 88.7304L48.8323 84.3564H48.6773L48.5223 84.2002L48.3673 84.0439H48.2122H48.0572H47.9022H47.7472H47.5922H47.4371H47.2821H47.1271H46.9721H46.817C46.662 84.0439 46.507 84.2002 46.352 84.2002H46.197L44.8018 84.9812L45.1118 84.825L45.4218 84.6688H45.7319H45.8869H46.0419H46.197H46.352H46.507H46.662H46.817H46.9721H47.1271L47.2821 84.825L47.4371 84.9812H47.5922L55.1882 89.3553L55.3432 89.5115L55.4983 89.6677L55.6533 89.8239L55.8083 89.9801H55.9633L56.1184 90.1364L56.2734 90.2926L56.4284 90.4488L56.5834 90.605L56.7384 90.7612L56.8935 90.9174L57.0485 91.0736L57.2035 91.3861L57.5135 91.6985C57.6686 91.8547 57.6686 92.0109 57.8236 92.1672L57.9786 92.4796L58.1336 92.792L58.2887 92.9482L58.4437 93.1044L58.5987 93.2607L58.7537 93.4169V93.5731V93.7293V93.8855V94.0417V94.198V94.3542V94.5104V94.6666V94.8228V94.979V95.1353V95.2915V95.4477V95.9163V110.757V112.475V127.316V127.784C58.7537 128.097 58.7537 128.409 58.5987 128.722V128.878V129.034V129.19L58.9087 129.346L58.5987 129.659L58.4437 129.815C58.2887 129.971 58.1336 130.128 57.9786 130.284L59.3738 129.503C59.6839 129.346 59.8389 129.19 59.9939 128.878L60.1489 128.565V128.409V128.253V128.097V127.941V127.784V127.628V127.472V127.316V127.159V126.691V111.85V111.382V96.5412V96.0725L60.614 95.9163Z" fill="#4F96D2"/>
<path d="M60.614 80.607V80.4508V80.2946V80.1384V79.9821V79.8259V79.6697V79.5135V79.3573V79.2011L60.459 79.0448L60.3039 78.8886V78.7324V78.5762L60.1489 78.42L59.9939 78.2638L59.8389 78.1076L59.6839 77.7951L59.5288 77.4827C59.3738 77.3265 59.3738 77.1703 59.2188 77.014L58.9087 75.7643L58.7537 75.6081L58.5987 75.4519L58.4437 75.2957L58.1336 74.9832L57.9786 74.827L57.8236 74.6708L57.6686 74.5146L57.5135 74.3584L57.3585 74.2022H57.2035L57.0485 74.046L56.8935 73.8897L56.7384 73.7335L56.5834 73.5773L48.9873 69.2033H48.8323L48.6773 69.0471L48.5223 68.8908H48.3673L48.0572 68.7346H47.9022H47.7472H47.5922H47.4371H47.2821H47.1271H46.9721H46.817C46.662 68.7346 46.507 68.8908 46.352 68.8908H46.197L44.8018 69.6719L45.1118 69.5157L45.4218 69.3595H45.5769H45.7319H45.8869H46.0419H46.197H46.352H46.507H46.662H46.817H46.9721L47.1271 69.5157L47.2821 69.6719H47.4371L55.0332 74.046L55.1882 74.2022L55.3432 74.3584L55.4983 74.5146L55.8083 74.9832H55.9633L56.1184 75.1395L56.2734 75.2957L56.4284 75.4519L56.5834 75.6081L56.7384 75.7643L56.8935 75.9205L57.0485 76.0768L57.2035 76.3892L57.5135 76.7016C57.6686 76.8578 57.6686 77.0141 57.8236 77.1703L57.9786 77.4827L58.1336 77.7951L58.2887 77.9513L58.4437 78.1076V78.2638L58.5987 78.42V78.5762V78.7324V78.8886V79.0448V79.2011V79.3573V79.5135V79.6697V79.8259V79.9821V80.1384V80.2946V80.4508V80.9194V81.0757V81.2319V81.3881V81.5443V81.7005V81.8567V82.0129L58.4437 82.1692L58.9087 83.7313L58.7537 84.0438L58.5987 84.2V84.3562L58.2887 84.6686L58.1336 84.8248L59.5288 84.0438C59.8389 83.8875 59.9939 83.7313 60.1489 83.4189L60.3039 83.1065V82.9502V82.794V82.6378V82.4816V82.3254V82.1692V82.0129V81.8567V81.7005V81.2319L60.614 80.607Z" fill="#FDC338"/>
<path d="M58.7534 84.0441L58.9084 83.7317C58.9084 83.5755 59.0634 83.4192 59.0634 83.263L59.2185 82.9506C59.2185 82.6382 59.3735 82.3257 59.3735 82.0133V81.5447C59.3735 81.2322 59.3735 80.9198 59.2185 80.4511C59.2185 80.1387 59.0635 79.8263 58.9084 79.3576C58.7534 79.0452 58.7534 78.7328 58.5984 78.2641C58.4434 77.9517 58.2883 77.6393 58.1333 77.3268C57.8233 76.702 57.3582 76.0771 56.8931 75.6085C56.5831 75.296 56.4281 75.1398 56.118 74.8274C55.808 74.6712 55.498 74.3587 55.3429 74.2025L47.7469 69.8285C47.4368 69.6723 47.1268 69.516 46.9718 69.3598H46.6617C46.5067 69.3598 46.3517 69.2036 46.1966 69.2036H45.8866C45.7316 69.2036 45.5766 69.2036 45.4215 69.2036L44.9565 69.516L44.6464 69.6723C43.8713 70.1409 43.4062 71.0782 43.4062 72.3279V72.7966C43.4062 75.4522 45.2665 78.7328 47.5918 80.1387L55.1879 84.5127C56.4281 85.2938 57.6683 85.2938 58.4434 84.669L58.7534 84.3565V84.0441Z" fill="#F5A905"/>
<path d="M10.3859 17.6524L8.68066 16.7151V39.3664L10.3859 38.2728V17.6524Z" fill="#4F96D2"/>
<path d="M56.5832 44.5214L10.3867 17.6523V38.2728L56.4282 64.9857L56.5832 44.5214Z" fill="#146CB3"/>
<path d="M10.3859 38.2729L8.68066 39.3665V39.5227L56.4274 67.3291V64.9858L10.3859 38.2729Z" fill="#145181"/>
</g>
<defs>
<clipPath id="clip0_1435_301">
<rect width="71" height="142" fill="white"/>
</clipPath>
</defs>
</svg>
