<svg width="171" height="109" viewBox="0 0 171 109" fill="none" xmlns="http://www.w3.org/2000/svg">
<g clip-path="url(#clip0_1435_381)">
<path d="M105.272 66.4115L98.8564 62.5055L118.668 50.7876L125.083 54.4983L105.272 66.4115Z" fill="#1E2229"/>
<path d="M83.1973 79.4967L76.7822 75.5907L96.5935 63.8728L103.009 67.7788L83.1973 79.4967Z" fill="#1E2229"/>
<path d="M81.1219 80.8637L61.3106 92.5816L54.8955 88.871L74.7068 76.9578L81.1219 80.8637Z" fill="#1E2229"/>
<path d="M127.158 53.3265L120.743 49.4205L140.554 37.7026L146.97 41.4133L127.158 53.3265Z" fill="#1E2229"/>
<path d="M0.177734 64.0679V64.2632L0.366414 64.6538V64.8491L0.743772 65.2397L1.12113 65.435L1.30981 65.6303L60.5551 101.175C60.9325 101.37 61.1211 101.565 61.4985 101.565H61.6872H61.8759C62.0645 101.565 62.2532 101.565 62.4419 101.761H62.6306H63.0079H63.1966C63.3853 101.761 63.574 101.761 63.7626 101.761H63.9513H64.14H64.3287H64.8947H65.0834H65.2721H65.4608H66.0268H66.2155H66.4042H66.5928L66.9702 101.565H67.1589C67.3475 101.37 67.7249 101.37 67.9136 101.175L165.838 42.7804C166.027 42.5851 166.215 42.3898 166.404 42.3898L166.593 42.1945L166.782 41.9992L166.97 41.8039L167.159 41.6086V41.4133V41.0227V47.077C167.159 47.8581 166.593 48.6393 165.649 49.2252L67.3475 107.424C67.1589 107.619 66.9702 107.619 66.5928 107.815H66.4042L66.2155 108.01H66.0268H65.8381H65.6494H65.0834H64.8947H64.706H64.5174H63.9513H63.7626H63.574H63.3853C63.1966 108.01 63.0079 108.01 62.8192 108.01H62.6306H62.2532H62.0645L61.4985 107.815H61.3098H61.1211C61.1211 107.619 60.7438 107.619 60.5551 107.424L1.68717 72.0751L1.49849 71.8799L1.12113 71.6846L0.743772 71.294V71.0987L0.366414 70.5128V70.1222V69.9269L0.177734 64.0679V63.8726V64.0679Z" fill="#8B2A2C"/>
<path d="M127.159 53.3266L120.744 49.4207L140.555 37.5075L146.97 41.4134L127.159 53.3266ZM105.272 66.4116L98.857 62.5057L118.668 50.5925L125.083 54.4984L105.272 66.4116ZM83.1966 79.4966L76.7815 75.5906L96.5928 63.6774L103.008 67.5834L83.1966 79.4966ZM61.3098 92.5816L54.8947 88.6756L74.706 76.7624L81.1211 80.6684L61.3098 92.5816ZM165.272 38.6793L106.404 3.13495C104.517 1.96316 101.31 1.96316 99.423 3.13495L1.68718 61.7245C0.555103 62.5057 -0.0109349 63.4821 0.366424 64.2633L0.555103 64.6539L0.932461 65.0445L1.30982 65.2398L1.4985 65.4351L60.5551 101.175C60.9325 101.37 61.1211 101.565 61.4985 101.565L61.8759 101.761C62.0645 101.761 62.2532 101.761 62.4419 101.956C62.6306 101.956 62.8193 101.956 63.0079 102.151H63.1966C63.3853 102.151 63.7626 102.151 63.9513 102.151H64.14C64.3287 102.151 64.706 102.151 64.8947 102.151H65.0834C65.2721 102.151 65.6494 102.151 65.8381 101.956H66.0268C66.2155 101.956 66.4042 101.761 66.7815 101.761H66.9702C67.1589 101.565 67.5362 101.565 67.7249 101.37L165.649 42.9758C165.838 42.7805 166.027 42.5852 166.215 42.5852L166.404 42.3899L166.593 42.1946L166.782 41.9993L166.97 41.804V41.6087V41.2181C166.782 39.851 166.215 39.2652 165.272 38.6793Z" fill="#E94B51"/>
<path d="M46.026 88.0899L30.9316 78.9108L128.101 20.9072L143.196 29.891L46.026 88.0899Z" fill="white"/>
<path d="M24.5177 79.692L12.6309 72.4659L117.348 9.77515L129.423 17.0012L24.5177 79.692Z" fill="#1E2229"/>
<path d="M39.2341 33.4063L53.1964 41.8041C54.8945 42.7806 57.3474 42.7806 59.0455 41.8041L73.0077 33.4063C74.7058 32.4298 74.5172 30.8674 73.0077 29.8909L59.0455 21.4931C57.3474 20.5166 54.8945 20.5166 53.1964 21.4931L39.2341 29.8909C37.536 30.8674 37.7247 32.4298 39.2341 33.4063Z" fill="#FDC338"/>
<path d="M75.0836 34.5781L61.1213 42.9759C60.3666 43.3665 59.9893 44.1477 59.9893 44.7336V44.9289V45.1242L60.1779 45.3195L60.3666 45.5148L60.5553 45.7101L60.744 45.9054C60.9326 46.1007 61.1213 46.1007 61.31 46.296L119.046 81.0591C120.744 82.0356 123.197 82.0356 124.895 81.0591L138.857 72.6612C140.555 71.6847 140.367 70.1224 138.857 69.1459L80.9327 34.5781C79.2345 33.6016 76.593 33.6016 75.0836 34.5781Z" fill="#146CB3"/>
<path d="M60.7441 46.1006C60.9328 46.2959 61.1215 46.2959 61.3102 46.4912C60.9328 46.2959 60.7441 46.2959 60.7441 46.1006Z" fill="#12385B"/>
<path d="M60.3662 45.7102L60.5549 45.9055L60.3662 45.7102Z" fill="#12385B"/>
<path d="M59.9893 45.1243L60.1779 45.5149L59.9893 45.1243Z" fill="#12385B"/>
<path d="M65.2723 64.2635L71.6874 60.3576L51.876 48.6396L45.4609 52.5456L65.2723 64.2635Z" fill="white"/>
<path d="M87.159 77.3485L93.5741 73.6378L73.7628 61.7246L67.3477 65.6306L87.159 77.3485Z" fill="white"/>
<path d="M89.2344 78.7155L109.046 90.6287L115.461 86.7228L95.6495 74.8096L89.2344 78.7155Z" fill="white"/>
<path d="M29.9893 35.5546L49.8006 47.4678L43.3855 51.3737L23.3855 39.2652L29.9893 35.5546ZM39.2346 29.8909L53.1969 21.4931C54.895 20.5166 57.3478 20.5166 59.0459 21.4931L73.0082 29.8909C74.7063 30.8674 74.7063 32.4298 73.0082 33.4063L59.0459 41.8041C57.3478 42.7806 54.895 42.7806 53.1969 41.8041L39.2346 33.4063C37.7252 32.4298 37.5365 30.8674 39.2346 29.8909ZM68.8572 12.1188L106.97 34.7734L100.555 38.6793L62.4421 15.8294L68.8572 12.1188ZM138.669 72.6613L124.706 81.0591C123.008 82.0356 120.555 82.0356 118.857 81.0591L61.1214 46.4913C60.9327 46.296 60.744 46.296 60.5554 46.1007V45.9054L60.3667 45.7101L60.178 45.5148L59.9893 45.1242V44.9289V44.7336C59.9893 44.1477 60.3667 43.5618 61.1214 42.9759L75.0837 34.5781C76.7818 33.6016 79.2346 33.6016 80.9327 34.5781L138.669 69.1459C140.367 70.1224 140.367 71.6848 138.669 72.6613ZM109.046 90.6287L89.2346 78.7155L95.6497 74.8096L115.461 86.7228L109.046 90.6287ZM67.3478 65.6305L73.7629 61.7246L93.5742 73.6378L87.1591 77.5437L67.3478 65.6305ZM51.8761 48.6396L71.6874 60.5528L65.2723 64.4587L45.461 52.5455L51.8761 48.6396ZM3.7629 39.0699L3.95158 39.4605L4.14026 39.6558L4.32894 39.8511L4.51761 40.0464C4.70629 40.2417 4.89497 40.437 5.08365 40.437L103.008 98.8313C103.197 99.0266 103.574 99.0266 103.763 99.2219H103.952C104.14 99.2219 104.329 99.4171 104.706 99.4171H104.895C105.084 99.4171 105.461 99.6124 105.65 99.6124H105.838C106.027 99.6124 106.404 99.6124 106.593 99.6124H106.782C106.97 99.6124 107.348 99.6124 107.536 99.6124H107.725C107.914 99.6124 108.103 99.6124 108.291 99.4171L108.857 99.2219L109.235 99.0266C109.612 98.8313 109.989 98.8313 110.178 98.636L169.046 63.2869L169.235 63.0916L169.612 62.8963L169.989 62.5057L170.178 62.1152C170.367 61.1387 169.989 60.1622 168.857 59.5763L70.9327 0.986753C69.0459 -0.185037 65.8384 -0.185037 63.9516 0.986753L5.08365 36.5311C4.14026 37.117 3.57422 37.8982 3.57422 38.6793V39.0699H3.7629Z" fill="#4F96D2"/>
<path d="M100.556 38.6795L106.971 34.7735L68.8575 12.1189L62.4424 15.8296L100.556 38.6795Z" fill="white"/>
<path d="M43.3848 51.1786L49.7999 47.2726L29.9885 35.5547L23.3848 39.2654L43.3848 51.1786Z" fill="white"/>
<path d="M170.178 61.9199V62.1152L169.989 62.5058V62.7011L169.612 63.0917L169.234 63.287L169.046 63.4823L109.989 99.0266C109.612 99.2219 109.423 99.4172 109.046 99.4172H108.857H108.668L108.102 99.8078H107.914H107.536H107.348C107.159 99.8078 106.97 99.8078 106.782 99.8078H106.593H106.404H106.216H105.649H105.461H105.272H105.083H104.517H104.329H104.14H103.951V99.6125H103.763C103.574 99.4172 103.197 99.4172 103.008 99.2219L5.08345 40.6324C4.89477 40.4371 4.70609 40.2418 4.51741 40.2418L4.32873 40.0465L4.14005 39.8512L3.95137 39.4606L3.7627 39.2653V39.07V38.6794V44.7337C3.7627 45.5149 4.32873 46.2961 5.27213 46.882L103.197 105.276C103.385 105.471 103.574 105.471 103.951 105.667H104.14L104.517 105.862H104.706H104.895H105.083H105.649H105.838H106.027H106.216H106.782H106.97H107.159H107.348C107.536 105.862 107.725 105.862 107.914 105.862H108.102H108.48H108.668L109.234 105.667H109.423H109.612C109.989 105.471 110.366 105.471 110.555 105.276L169.423 69.9272L169.612 69.7319L169.989 69.5366L170.366 69.146V68.9507L170.555 68.7554V68.3648V68.1695L170.178 61.9199V61.7246V61.9199Z" fill="#155486"/>
</g>
<defs>
<clipPath id="clip0_1435_381">
<rect width="170" height="108" fill="white" transform="translate(0.177734 0.205566)"/>
</clipPath>
</defs>
</svg>
