<svg width="24" height="18" viewBox="0 0 24 18" fill="none" xmlns="http://www.w3.org/2000/svg">
<path d="M22.4255 1.30974C21.8459 0.633517 20.8155 0.601316 20.1392 1.18094L8.5146 11.6141L3.04041 8.13638C2.65399 7.87878 2.13881 7.91097 1.78459 8.23299C1.55918 8.42619 1.4304 8.6838 1.39819 8.97361C1.36599 9.26342 1.46253 9.52103 1.65574 9.74644L7.16217 16.2833C7.22657 16.3477 7.25877 16.4121 7.32317 16.4443C7.74179 16.8307 8.25701 17.0239 8.77222 17.0239C9.31964 17.0239 9.89925 16.7985 10.2857 16.3477L22.3611 3.46722C22.9407 2.8876 22.9729 1.92156 22.4255 1.30974Z" fill="white" stroke="white" stroke-miterlimit="10" stroke-linecap="round" stroke-linejoin="round"/>
</svg>
