<svg width="14" height="14" viewBox="0 0 14 14" fill="none" xmlns="http://www.w3.org/2000/svg">
<path fill-rule="evenodd" clip-rule="evenodd" d="M0.889337 0.670482C1.13707 0.3883 1.551 0.376898 1.81389 0.645016L13.1574 12.2142C13.4203 12.4823 13.4326 12.9284 13.1848 13.2106C12.9371 13.4928 12.5232 13.5042 12.2603 13.2361L0.916782 1.66689C0.653895 1.39877 0.641607 0.952663 0.889337 0.670482Z" fill="white"/>
<path fill-rule="evenodd" clip-rule="evenodd" d="M13.3275 0.670482C13.0797 0.3883 12.6658 0.376898 12.4029 0.645016L1.05941 12.2142C0.796524 12.4823 0.784236 12.9284 1.03197 13.2106C1.27969 13.4928 1.69363 13.5042 1.95652 13.2361L13.3 1.66689C13.5629 1.39877 13.5752 0.952663 13.3275 0.670482Z" fill="white"/>
</svg>
