<svg width="17" height="9" viewBox="0 0 17 9" fill="none" xmlns="http://www.w3.org/2000/svg">
<path d="M2.77865 0.648475C2.12634 0.137808 1.18356 0.252634 0.672889 0.904946C0.162222 1.55726 0.277048 2.50004 0.92936 3.0107L2.77865 0.648475ZM16.4089 2.9693C17.0383 2.4307 17.112 1.48381 16.5734 0.854365C16.0348 0.224921 15.0879 0.151279 14.4584 0.689881L16.4089 2.9693ZM8.94559 7.38129L8.02095 8.56241C8.58333 9.00267 9.37815 8.98535 9.92082 8.521L8.94559 7.38129ZM0.92936 3.0107L8.02095 8.56241L9.87024 6.20017L2.77865 0.648475L0.92936 3.0107ZM9.92082 8.521L16.4089 2.9693L14.4584 0.689881L7.97037 6.24158L9.92082 8.521Z" fill="url(#paint0_linear_559_811)"/>
<defs>
<linearGradient id="paint0_linear_559_811" x1="1.854" y1="1.82959" x2="15.7197" y2="2.67173" gradientUnits="userSpaceOnUse">
<stop stop-color="#2F69FF"/>
<stop offset="1" stop-color="#BC2FFF"/>
</linearGradient>
</defs>
</svg>
