<svg width="145" height="147" viewBox="0 0 145 147" fill="none" xmlns="http://www.w3.org/2000/svg">
<g clip-path="url(#clip0_1435_350)">
<path d="M143.53 49.3045L143.722 49.1171L143.53 49.3045ZM52.8849 43.4945L47.3391 40.3083L42.367 43.1196V24.0028L41.602 23.4406H42.7494L52.8849 37.497V43.4945ZM16.9327 24.0028V74.7936L13.6817 72.9194L13.873 23.8154L16.9327 24.0028ZM144.486 48.3674C144.678 47.9926 144.486 47.8051 144.486 47.4303L135.69 30.9374C135.498 30.5625 135.307 30.3751 134.925 30.1877C134.542 30.0003 133.969 29.8128 133.395 29.6254C132.247 29.438 131.1 29.6254 130.335 30.1877L123.451 34.6858L93.4267 41.058L85.3949 30.1877L84.2475 28.6883L83.1 28.8757L72.7733 31.1248L70.2873 29.8128L57.4745 12.1954L56.5184 10.8834H55.371L26.112 11.2583L13.873 18.3802V5.26085L6.41479 0.950195L0.868969 4.13633L0.677734 80.4162L8.1359 84.7268L118.287 147.138L123.833 143.951V135.518L111.977 128.77L115.036 127.084V98.4085L102.224 91.0991L96.6777 94.2852L96.869 60.7371L84.0562 53.4277L78.5104 56.6139V52.4906L78.7016 52.6781L79.849 54.1774L80.9965 53.99L108.343 48.18V48.5548C108.343 49.1171 108.726 49.4919 109.299 49.8668H109.49L109.873 50.0542L110.255 50.2416H110.447H110.829H111.212H111.594H111.785L141.235 53.0529H141.427H141.809H142.192H142.383H142.765H142.957H143.339H143.53C143.722 53.0529 143.913 52.8655 144.104 52.8655H144.295L144.678 52.6781L144.869 52.4906V52.3032V52.1158V51.9284V48.5548L144.486 48.3674Z" fill="#133658"/>
<path d="M8.13574 76.1054L13.6816 73.1067L13.8728 5.26074L8.32698 8.25946L8.13574 76.1054Z" fill="#2F363E"/>
<path d="M13.8731 5.26085L6.41496 0.950195L0.869141 4.13633L8.32731 8.25957L13.8731 5.26085Z" fill="#353C46"/>
<path d="M118.478 138.516L118.287 146.95L123.833 143.764V135.33L118.478 138.516Z" fill="#2F363E"/>
<path d="M118.478 138.516L123.833 135.33L13.6816 73.1067L8.13574 76.1054L118.478 138.516Z" fill="#353C46"/>
<path d="M8.1359 76.1054L8.32714 8.25947L0.868969 4.13623L0.677734 80.4161L8.1359 84.5393L118.287 146.95L118.479 138.516L8.1359 76.1054Z" fill="#010202"/>
<path d="M29.9364 31.3123L29.7451 93.5357L42.3666 86.2263L42.5579 24.0029L29.9364 31.3123Z" fill="#0E3C60"/>
<path d="M17.1239 24.0029L16.9326 86.2263L29.7454 93.5357L29.9366 31.3123L17.1239 24.0029Z" fill="#122E47"/>
<path d="M42.5583 24.0027L29.7455 16.6934L17.124 24.0027L29.9368 31.3121L42.5583 24.0027Z" fill="#10456F"/>
<path d="M47.5301 54.927L47.3389 103.469L60.1516 96.1594L60.3429 47.6177L47.5301 54.927Z" fill="#175A90"/>
<path d="M34.7176 47.6177L34.5264 96.1594L47.3391 103.469L47.5303 54.927L34.7176 47.6177Z" fill="#10446B"/>
<path d="M60.3433 47.6178L47.5305 40.4958L34.7178 47.6178L47.5305 54.9272L60.3433 47.6178Z" fill="#1968A6"/>
<path d="M65.8885 41.6202L65.6973 113.777L78.3188 106.467L78.7012 34.3108L65.8885 41.6202Z" fill="#4F96D2"/>
<path d="M53.076 34.3108L52.8848 106.467L65.6975 113.777L65.8887 41.6202L53.076 34.3108Z" fill="#1875B3"/>
<path d="M78.7017 34.3108L65.6977 27.0015L53.0762 34.3108L65.8889 41.6202L78.7017 34.3108Z" fill="#3586C7"/>
<path d="M84.2479 68.0464L84.0566 124.085L96.6782 116.776L96.8694 60.7371L84.2479 68.0464Z" fill="#66ACDF"/>
<path d="M71.2432 60.7371V116.776L84.0559 124.085L84.2471 68.0464L71.2432 60.7371Z" fill="#3E86C0"/>
<path d="M96.8686 60.7371L84.0559 53.4277L71.2432 60.7371L84.2471 68.0465L96.8686 60.7371Z" fill="#4B98D3"/>
<path d="M102.415 105.718V134.206L115.228 127.084V98.4084L102.415 105.718Z" fill="#B5DCF6"/>
<path d="M89.6016 98.4084V127.084L102.414 134.206V105.718L89.6016 98.4084Z" fill="#87C1EA"/>
<path d="M115.227 98.4085L102.414 91.0991L89.6016 98.4085L102.414 105.718L115.227 98.4085Z" fill="#9ECEF0"/>
<path d="M55.7533 10.696L26.1119 11.2583L12.5342 19.1299L41.9844 18.5677H43.1318L56.9007 10.696H55.7533Z" fill="#B8393B"/>
<path d="M57.6657 12.008L56.9008 10.696L43.1318 18.5677L44.088 19.8796L58.2394 39.1839L71.8171 31.3122L57.6657 12.008Z" fill="#E94B51"/>
<path d="M83.2911 28.8757L71.817 31.3121L58.2393 39.1837L69.7134 36.7473L70.8608 36.5599L84.4385 28.6882L83.2911 28.8757Z" fill="#B8393B"/>
<path d="M85.5864 30.1876L84.439 28.6882L70.8613 36.5599L71.8175 38.0592L79.8494 48.7422L93.4271 41.0579L85.5864 30.1876Z" fill="#E94B51"/>
<path d="M112.741 41.6203L115.036 46.4932L80.9963 53.99H79.8489L78.7015 52.678L70.6696 41.8077L59.1955 44.2441L58.0481 44.619L56.9007 42.9322L42.7493 23.4405L12.5342 24.0028V19.1299L41.9844 18.5676H43.1318L44.088 19.8796L58.2394 39.1838L69.7135 36.7473L70.8609 36.5599L71.8171 38.0593L79.8489 48.7422L112.741 41.6203Z" fill="#8B2A2C"/>
<path d="M79.8486 48.7422L93.4263 41.058L126.51 33.936L112.741 41.6202L79.8486 48.7422Z" fill="#B8393B"/>
<path d="M144.486 48.5549C144.295 48.7423 144.104 48.9297 143.912 49.1171L143.721 49.3046C143.53 49.3046 143.339 49.492 143.147 49.492L142.765 49.6794H142.574C142.382 49.6794 142.191 49.6794 141.809 49.6794C141.618 49.6794 141.235 49.6794 141.044 49.6794L111.402 46.8681C111.02 46.8681 110.637 46.8681 110.255 46.6807C109.872 46.6807 109.49 46.4933 109.299 46.3058H109.108C108.534 45.931 108.151 45.5562 108.151 44.9939V48.3675C108.151 48.9297 108.534 49.3046 109.108 49.6794H109.299L109.681 49.8668L110.064 50.0542H110.255H110.637H111.02H111.402H111.594L141.235 52.8655H141.426H141.809H142.191H142.382H142.765H142.956H143.339C143.53 52.8655 143.721 52.6781 143.912 52.6781H144.104L144.486 52.4907L144.677 52.3033V52.1158V51.9284V51.741V48.3675C144.677 48.18 144.677 48.3675 144.486 48.5549Z" fill="#8B2A2C"/>
<path d="M134.925 30.0003C135.308 30.1877 135.499 30.5626 135.69 30.75L144.487 47.2429C144.869 47.8052 144.487 48.5549 143.722 48.9297C142.957 49.3045 141.81 49.6794 140.853 49.492L111.212 46.6807C110.447 46.6807 109.682 46.4932 109.108 46.3058H108.917C107.77 45.5561 107.579 44.4316 108.726 43.8694L129.953 30.1877C130.718 29.6255 131.865 29.438 133.013 29.6255C133.969 29.6255 134.543 29.8129 134.925 30.0003Z" fill="#E94B51"/>
</g>
<defs>
<clipPath id="clip0_1435_350">
<rect width="144" height="146" fill="white" transform="translate(0.677734 0.950195)"/>
</clipPath>
</defs>
</svg>
