<svg width="35" height="35" viewBox="0 0 35 35" fill="none" xmlns="http://www.w3.org/2000/svg">
<path fill-rule="evenodd" clip-rule="evenodd" d="M18.519 1.53302C21.688 1.68272 24.747 2.72417 27.3333 4.53391C27.3605 4.52384 27.3883 4.51514 27.4164 4.50784C27.4646 4.49708 27.5138 4.49142 27.5632 4.49097C27.7284 4.49097 27.8868 4.5556 28.0036 4.67063C28.1204 4.78566 28.186 4.94166 28.186 5.10434L28.1834 5.17232C28.3972 5.3427 28.6062 5.51801 28.8103 5.69828C29.0293 5.89252 29.2437 6.09032 29.4492 6.29375C30.3497 7.17757 31.1449 8.15968 31.8193 9.22104C31.9831 9.22305 32.1396 9.28857 32.2547 9.40338C32.3698 9.51819 32.4344 9.67305 32.4344 9.83441C32.4341 9.89637 32.4241 9.95792 32.4048 10.0169C32.3919 10.0567 32.3745 10.0949 32.3529 10.1309C33.516 12.2536 34.1822 14.6057 34.3027 17.0149C34.4723 17.0761 34.6187 17.1873 34.7221 17.3331C34.8256 17.479 34.881 17.6527 34.881 17.8307C34.881 18.0086 34.8256 18.1823 34.7221 18.3281C34.6187 18.474 34.4723 18.5851 34.3027 18.6464C34.2672 19.3544 34.185 20.0595 34.0567 20.7569C33.9283 21.4558 33.7528 22.1455 33.5315 22.8214C33.573 22.8682 33.6064 22.9214 33.6306 22.9788C33.6669 23.0636 33.6833 23.1553 33.6787 23.2471C33.6741 23.339 33.6485 23.4287 33.604 23.5095C33.5595 23.5904 33.497 23.6604 33.4213 23.7142C33.3456 23.768 33.2586 23.8045 33.1666 23.8207C32.7536 24.8484 32.2348 25.8318 31.6185 26.7556C30.9899 27.6989 30.2642 28.5759 29.4528 29.3727L29.2146 29.6006L29.2224 29.6962C29.2224 29.7767 29.2063 29.8565 29.175 29.9309C29.1437 30.0053 29.0978 30.0729 29.0399 30.1299C28.9822 30.1868 28.9135 30.2321 28.8379 30.2629C28.7624 30.2937 28.6814 30.3096 28.5996 30.3096C28.5629 30.3098 28.5262 30.3067 28.4901 30.3004L28.4382 30.2886C27.0887 31.4124 25.5655 32.3166 23.9263 32.967C23.9011 33.097 23.8334 33.2152 23.7337 33.3038C23.6191 33.4074 23.4694 33.465 23.3139 33.4653C23.2327 33.465 23.1523 33.4494 23.0772 33.4193C23.0212 33.3967 22.9686 33.3663 22.9215 33.3289C22.2098 33.5599 21.4832 33.7435 20.7465 33.8783C20.0111 34.0117 19.2674 34.0971 18.5205 34.1339C18.4569 34.3001 18.3434 34.4433 18.195 34.5443C18.0466 34.6454 17.8706 34.6995 17.6902 34.6995C17.5098 34.6995 17.3337 34.6454 17.1854 34.5443C17.037 34.4433 16.9234 34.3001 16.8598 34.1339C16.1147 34.0977 15.3728 34.0124 14.6392 33.8783C13.9046 33.7454 13.1801 33.5632 12.4708 33.333C12.4235 33.3693 12.371 33.3989 12.3151 33.4209C12.2411 33.4497 12.1622 33.4647 12.0826 33.4653C11.9389 33.4651 11.7996 33.4163 11.6881 33.3269C11.5766 33.2376 11.4997 33.1132 11.4703 32.9746C9.82543 32.3229 8.29684 31.4166 6.94219 30.2901L6.89391 30.3009C6.85866 30.3072 6.82286 30.3103 6.78701 30.3101C6.62184 30.3101 6.46343 30.2454 6.34664 30.1304C6.22985 30.0154 6.16424 29.8594 6.16424 29.6967L6.17099 29.6063L5.92759 29.3727C4.31437 27.7941 3.04859 25.9052 2.20912 23.8237C2.11659 23.808 2.02887 23.7719 1.95253 23.718C1.87619 23.6642 1.8132 23.594 1.76827 23.5127C1.72336 23.4316 1.69765 23.3413 1.69312 23.249C1.68857 23.1566 1.70529 23.0644 1.74204 22.9793C1.76675 22.922 1.80056 22.8688 1.8422 22.8219C1.40183 21.4705 1.14309 20.0681 1.07255 18.6505C0.902929 18.5892 0.7565 18.4782 0.653055 18.3322C0.549611 18.1863 0.494141 18.0126 0.494141 17.8348C0.494141 17.6568 0.549611 17.4832 0.653055 17.3372C0.7565 17.1914 0.902929 17.0802 1.07255 17.0189C1.19065 14.6085 1.85548 12.2547 3.0182 10.1304C2.99682 10.0938 2.97942 10.055 2.9663 10.0148C2.9481 9.95566 2.93866 9.8942 2.93828 9.83236C2.93854 9.67074 3.00357 9.51577 3.1192 9.4011C3.23485 9.28644 3.39177 9.22136 3.55586 9.22002C3.88695 8.69802 4.24732 8.19463 4.63533 7.71216C5.03645 7.2144 5.46672 6.7401 5.92395 6.29171C6.13154 6.08726 6.3438 5.89047 6.56282 5.69624C6.76729 5.51665 6.97626 5.34134 7.18974 5.17028L7.18869 5.10536C7.18869 4.94268 7.25431 4.78667 7.37111 4.67164C7.4879 4.55661 7.6463 4.492 7.81147 4.492C7.8609 4.49237 7.91015 4.49802 7.95834 4.50887C7.98684 4.51599 8.01491 4.52468 8.04242 4.53493C10.6282 2.7244 13.6872 1.68255 16.8562 1.53302C16.9147 1.37686 17.0178 1.2407 17.1531 1.14098C17.3073 1.02689 17.495 0.96521 17.6879 0.96521C17.8808 0.96521 18.0684 1.02689 18.2227 1.14098C18.358 1.2407 18.4611 1.37686 18.5195 1.53302H18.519ZM13.3811 6.76196L8.50846 5.60116L10.4806 8.75284L10.5195 8.7462C10.5564 8.74206 10.5934 8.73984 10.6305 8.73955C10.7165 8.73984 10.8019 8.75223 10.8844 8.77635C10.9424 8.79274 10.9985 8.81554 11.0514 8.84433L13.4138 6.90866L13.3936 6.83658L13.379 6.76196H13.3811ZM8.5806 4.95202L13.5353 6.13377C13.6094 6.02853 13.7069 5.94117 13.8202 5.8782C13.9539 5.80555 14.1045 5.76821 14.2572 5.76984C14.3038 5.76979 14.3503 5.77372 14.3962 5.7816L14.4617 5.79335L16.9454 2.31762L16.9055 2.25066L16.8723 2.1837C13.9002 2.32576 11.0278 3.28475 8.5806 4.95202ZM6.4258 14.5879L9.87389 10.0644L9.8443 10.0133L9.81732 9.95963L4.10337 10.1406L4.08469 10.1707L6.15074 14.5614H6.19641C6.24758 14.5611 6.29866 14.5656 6.34899 14.5747L6.42632 14.5916L6.4258 14.5879ZM4.15943 9.49143L9.79552 9.31458C9.8101 9.27461 9.82745 9.23568 9.84741 9.19804C9.86856 9.16102 9.89177 9.12518 9.91695 9.0907L7.80576 5.71719C7.75979 5.71719 7.71398 5.71187 7.66927 5.70135L7.59713 5.68039C7.39525 5.84191 7.19597 6.00956 7.00083 6.18131C6.79324 6.36498 6.58911 6.55512 6.38844 6.75173C5.95095 7.18146 5.5389 7.63559 5.15431 8.11187C4.79736 8.55367 4.46524 9.01438 4.15943 9.49195V9.49143ZM10.3026 10.5837L6.95515 14.9749C6.99039 15.0328 7.01911 15.0944 7.04079 15.1584C7.06974 15.2457 7.08462 15.3369 7.08491 15.4288L7.07816 15.5361L10.07 17.1585C10.1054 17.1307 10.1425 17.1053 10.1811 17.0823C10.2198 17.0597 10.2605 17.0404 10.3026 17.0246V10.5843V10.5837ZM9.75037 17.7238L6.75691 16.103C6.71016 16.1407 6.65955 16.1737 6.60589 16.2012C6.55187 16.2288 6.49497 16.2508 6.43618 16.2666L6.09885 19.3503C6.13323 19.3681 6.16634 19.3883 6.19797 19.4106C6.22977 19.4326 6.26011 19.4568 6.28879 19.4826L9.74518 17.8838V17.8327L9.75192 17.7238H9.75037ZM5.55133 14.8308L3.53821 10.5485C2.46265 12.5541 1.84619 14.7674 1.73217 17.0327C1.77413 17.0509 1.81471 17.0719 1.85361 17.0957C1.89316 17.1203 1.93064 17.1479 1.96571 17.1784L5.31207 15.5075L5.30792 15.4303C5.30763 15.3071 5.33399 15.1851 5.38525 15.0725C5.42653 14.9832 5.48247 14.9012 5.5508 14.8298L5.55133 14.8308ZM5.33076 20.9174L3.05245 23.1301L9.63775 25.374L5.95302 20.9501C5.92208 20.9606 5.89031 20.9685 5.85804 20.9737C5.80163 20.9847 5.74428 20.9903 5.68677 20.9905C5.61373 20.9906 5.54097 20.9813 5.47036 20.9629C5.42308 20.9521 5.37701 20.9367 5.33283 20.9169L5.33076 20.9174ZM2.59004 22.6696L4.86835 20.4584C4.84967 20.4165 4.8349 20.3731 4.82424 20.3286C4.80664 20.2604 4.79758 20.1904 4.79725 20.1201L4.804 20.0178L1.94703 18.5018C1.91475 18.5293 1.88001 18.554 1.84323 18.5753C1.807 18.5967 1.76958 18.616 1.73114 18.6331C1.79971 19.991 2.04869 21.334 2.47171 22.6282L2.5397 22.6492L2.5916 22.6701L2.59004 22.6696ZM5.44442 19.2807L5.7802 16.1986C5.74989 16.1831 5.72044 16.166 5.69197 16.1475C5.66368 16.128 5.63647 16.107 5.61049 16.0846L2.26516 17.754L2.26931 17.8327L2.26257 17.9349L5.11694 19.4525C5.16498 19.413 5.21718 19.3788 5.27264 19.3503C5.32764 19.3208 5.38576 19.2976 5.44597 19.2807H5.44442ZM10.0244 18.4691L6.57008 20.0679V20.119C6.56996 20.2043 6.55737 20.2892 6.53271 20.371C6.51426 20.4298 6.48957 20.4865 6.45902 20.5402L10.2994 25.146V18.6408C10.1976 18.6007 10.1042 18.5425 10.0239 18.4691H10.0244ZM9.74207 26.0942L2.89156 23.7583C3.27849 24.6875 3.75576 25.5776 4.31667 26.4162C4.91908 27.3165 5.61346 28.1536 6.38896 28.9147L6.59654 29.1124L6.65675 29.0966C6.69895 29.0882 6.74187 29.0837 6.78493 29.0834C6.82127 29.0838 6.85752 29.0869 6.8934 29.0925L6.93752 29.1017L9.80954 26.384C9.79231 26.3433 9.77842 26.3012 9.76801 26.2583C9.75539 26.2043 9.7474 26.1495 9.74414 26.0942H9.74207ZM23.7503 30.0249L23.6595 32.3449L23.6849 32.3633C25.1809 31.7687 26.5766 30.9539 27.8243 29.9467L24.2433 29.6031C24.1395 29.8 23.9637 29.9505 23.7513 30.0243L23.7503 30.0249ZM23.0029 32.3183L23.0953 29.9978L23.0274 29.9635L18.6462 33.4756C19.3104 33.4368 19.9717 33.3577 20.6261 33.2384C21.3293 33.1109 22.0227 32.9366 22.7019 32.7165C22.7212 32.6336 22.758 32.5555 22.8099 32.4875C22.8624 32.4188 22.9284 32.3613 23.004 32.3183H23.0029ZM12.2653 29.9978L12.3832 32.3178C12.4616 32.361 12.5299 32.42 12.5835 32.4911C12.636 32.5607 12.6725 32.6408 12.6903 32.7257C13.3668 32.9443 14.0574 33.1178 14.7575 33.245C15.4083 33.3627 16.0659 33.441 16.7265 33.4796L12.3266 29.9645L12.2653 29.9963V29.9978ZM11.7251 32.349L11.6089 30.0274C11.5015 29.9922 11.4024 29.9365 11.3172 29.8634C11.232 29.791 11.1616 29.7034 11.1096 29.6053L7.55199 29.9467C8.80241 30.9554 10.2011 31.7712 11.7002 32.3664L11.7256 32.3479L11.7251 32.349ZM11.2398 26.6887L11.9005 28.3335C11.9405 28.3335 11.982 28.3376 12.0219 28.3427L12.0738 28.3519L13.3936 26.3795H11.4552C11.4313 26.4377 11.4009 26.493 11.3644 26.5446C11.3284 26.5969 11.2866 26.6453 11.2398 26.6887ZM10.2668 26.8487L7.6947 29.2852L11.0436 28.9627C11.0657 28.8886 11.0977 28.8176 11.1386 28.7516C11.1804 28.685 11.2307 28.6242 11.2886 28.5706L10.6269 26.9259C10.5534 26.9248 10.4802 26.9152 10.409 26.8972C10.3604 26.8851 10.3129 26.8689 10.2673 26.8487H10.2668ZM22.1996 29.7933L18.5621 30.5437C18.5361 30.69 18.4725 30.8275 18.3773 30.9427C18.282 31.0579 18.1585 31.1472 18.0182 31.202V33.0212L18.1173 33.0671L22.2002 29.7959L22.1996 29.7933ZM18.546 29.8863L22.582 29.0537C22.5927 28.9909 22.61 28.9294 22.634 28.8702C22.6591 28.8103 22.6913 28.7534 22.73 28.701L21.3838 26.6656C21.3503 26.6666 21.3168 26.6649 21.2836 26.6605L18.5444 29.8869L18.546 29.8863ZM12.7708 29.0542L16.8308 29.8884L14.0911 26.6605C14.0567 26.6656 14.022 26.6673 13.9873 26.6656L12.6234 28.7051C12.66 28.7575 12.6913 28.8133 12.7168 28.8717C12.7405 28.9306 12.7579 28.9917 12.7687 29.0542H12.7708ZM17.3576 33.0216V31.2026C17.2174 31.1479 17.0939 31.0587 16.9986 30.9436C16.9034 30.8286 16.8397 30.6914 16.8137 30.5452L13.1544 29.7933L17.2543 33.0697L17.3576 33.0216ZM14.705 26.3769L17.4125 29.5668C17.4453 29.556 17.4788 29.5473 17.5127 29.5408C17.5703 29.5299 17.6289 29.5243 17.6876 29.5239C17.7464 29.5242 17.805 29.5303 17.8625 29.5423C17.8965 29.5482 17.9299 29.5566 17.9626 29.5674L20.6697 26.3789L14.705 26.3769ZM21.979 26.3769L23.2827 28.3483L23.3346 28.3407C23.3759 28.335 23.4175 28.3319 23.4591 28.3315L24.2439 26.4152L24.2168 26.3774H21.9795L21.979 26.3769ZM25.3986 26.2235L28.2114 28.8814L28.0147 25.9935C27.9266 25.9662 27.8434 25.9249 27.7687 25.8714C27.6936 25.8174 27.6272 25.7524 27.5721 25.6787L25.398 26.223L25.3986 26.2235ZM27.6873 29.2832L24.8972 26.6457L24.8516 26.6565L24.0679 28.5727C24.1241 28.6258 24.173 28.6858 24.2137 28.7511C24.2543 28.8162 24.2857 28.8863 24.3071 28.9596L27.6873 29.2832ZM25.4089 21.7971L27.952 24.361C27.994 24.3437 28.0374 24.3301 28.0817 24.32C28.1339 24.307 28.1873 24.2991 28.241 24.2965L29.2597 21.3274C29.2252 21.2994 29.193 21.2686 29.1637 21.2353C29.135 21.2013 29.1082 21.1659 29.0833 21.129L25.4111 21.7966L25.4089 21.7971ZM28.6743 25.9526L28.882 29.0164L28.9857 28.9142C30.4748 27.4564 31.6566 25.7228 32.4628 23.8135L29.1793 25.1537V25.167C29.1791 25.3312 29.1318 25.4921 29.0425 25.6308C28.9533 25.7696 28.8261 25.8806 28.6753 25.951L28.6743 25.9526ZM25.177 25.6127L27.4086 25.0541C27.4144 25.0125 27.4228 24.9713 27.434 24.9309C27.446 24.8915 27.461 24.8506 27.4766 24.8128L25.0727 22.388V25.5355L25.1246 25.5708L25.1764 25.6127H25.177ZM30.6822 20.9225L32.8522 22.6419L32.904 22.6261C33.3275 21.3327 33.5765 19.99 33.6446 18.6326L33.5735 18.5999L33.5055 18.559L30.6984 20.4702L30.7103 20.532C30.7179 20.5766 30.7215 20.6218 30.7212 20.6669C30.7212 20.722 30.7159 20.777 30.7051 20.831L30.6822 20.923V20.9225ZM29.883 21.5359L28.8658 24.504L28.9245 24.5577L32.4204 23.1296L30.2681 21.4245C30.213 21.4551 30.1548 21.4798 30.0943 21.498C30.0256 21.5186 29.9547 21.5313 29.883 21.5359ZM29.0221 10.112L31.2226 9.63199L31.2557 9.55328C30.61 8.53681 29.8484 7.59635 28.9857 6.75021C28.7944 6.56278 28.6024 6.38354 28.4097 6.21249C28.2758 6.09339 28.1382 5.97532 27.9944 5.85469L28.5093 9.75671C28.7182 9.80838 28.9005 9.93391 29.0215 10.1094L29.0221 10.112ZM31.8765 10.623L30.3714 14.8185C30.457 14.8926 30.5275 14.9821 30.579 15.0823C30.6422 15.2036 30.6751 15.338 30.675 15.4743L30.6657 15.595L33.4422 17.1504C33.4733 17.1266 33.5059 17.1047 33.5397 17.0849C33.5733 17.0658 33.6079 17.0487 33.6436 17.0337C33.585 15.8928 33.3999 14.7616 33.0914 13.6602C32.7959 12.6089 32.3885 11.5912 31.8759 10.6242L31.8765 10.623ZM29.811 14.4331L31.304 10.2745L29.1648 10.7411C29.1479 10.8468 29.1108 10.9483 29.0553 11.0402C29.0004 11.1335 28.9282 11.2158 28.8425 11.283L29.811 14.4331ZM29.4969 19.8604L29.4648 16.2849C29.3641 16.247 29.2716 16.1911 29.1918 16.1199C29.1119 16.049 29.0458 15.9645 28.9966 15.8704L23.5957 16.3637C23.557 16.4898 23.4903 16.606 23.4005 16.7036C23.3102 16.801 23.1986 16.8769 23.0741 16.9255V18.7404C23.2076 18.7925 23.3263 18.8758 23.4197 18.9833C23.5131 19.0906 23.5785 19.2189 23.6102 19.3569L29.0713 20.2197C29.1201 20.139 29.182 20.0669 29.2546 20.0061C29.3268 19.9452 29.4085 19.896 29.4964 19.8604H29.4969ZM30.3232 19.9406L33.1293 18.0285L33.1173 17.9666C33.1102 17.9223 33.1063 17.8775 33.1059 17.8327L33.1137 17.712L30.3382 16.1552C30.3053 16.1812 30.2707 16.2049 30.2344 16.2262C30.1981 16.2461 30.1607 16.2641 30.1223 16.2798L30.1545 19.8553L30.2401 19.8931L30.3232 19.9401V19.9406ZM25.2056 21.1801L27.9041 20.6894L23.5069 19.9958C23.4336 20.1145 23.3328 20.2144 23.2127 20.2871C23.0728 20.3738 22.9108 20.4197 22.7456 20.4196C22.5686 20.4196 22.3956 20.3675 22.2489 20.27C22.1021 20.1726 21.9884 20.0342 21.9219 19.8726H16.0471V21.2681H24.2143C24.2966 21.1379 24.4254 21.0428 24.5753 21.0016C24.7253 20.9603 24.8855 20.9759 25.0244 21.0452C25.093 21.0781 25.1543 21.124 25.205 21.1801H25.2056ZM23.5365 15.7212L27.9997 15.3122L25.1666 14.5251C25.1169 14.5691 25.0606 14.605 24.9995 14.6314C24.9199 14.6674 24.8333 14.6857 24.7457 14.6851C24.6399 14.6853 24.5357 14.6589 24.4431 14.6085C24.3504 14.5581 24.2724 14.4852 24.2163 14.3968H16.0471V15.7922H21.9204C21.9868 15.6306 22.1006 15.4922 22.2473 15.3948C22.3941 15.2973 22.567 15.2453 22.744 15.2453C22.9073 15.2451 23.0674 15.2895 23.2068 15.3732C23.3462 15.457 23.4593 15.5771 23.5339 15.7202L23.5365 15.7212ZM25.3467 13.9046L29.0859 14.9432C29.1076 14.9158 29.1308 14.8895 29.1554 14.8645C29.181 14.8395 29.2079 14.8157 29.2359 14.7935L28.2145 11.4711C28.0092 11.4537 27.8164 11.3666 27.6691 11.2247C27.5221 11.0831 27.4303 10.8951 27.4096 10.6937L25.1624 10.0634L25.1235 10.0961L25.0716 10.1288V13.5534C25.1374 13.5933 25.1947 13.6454 25.2403 13.7068C25.287 13.7658 25.3222 13.8329 25.3441 13.9046H25.3467ZM24.7597 8.97212L26.8657 5.60116L22.0076 6.76196L21.9967 6.81972L21.9832 6.87748L24.7597 8.97212ZM27.3598 6.04994L25.301 9.33656L25.3317 9.40761L25.3986 9.45872L27.5855 10.0721C27.6591 9.97901 27.7508 9.90148 27.8554 9.84412L27.3557 6.0525L27.3598 6.04994ZM24.098 9.28698L21.5835 7.3881C21.5264 7.42169 21.4654 7.44862 21.4019 7.46835C21.3148 7.49616 21.2237 7.5103 21.132 7.51027C21.0504 7.51004 20.969 7.49905 20.8902 7.47755C20.8352 7.46222 20.7818 7.4415 20.7309 7.4157L18.5652 9.28749L24.098 9.28698ZM21.8544 6.13428L26.7972 4.95508C24.3503 3.28404 21.4765 2.32247 18.5024 2.17961L18.4692 2.24657L18.4302 2.31097L20.9213 5.79182L20.9867 5.78006C21.0327 5.7723 21.0792 5.76837 21.1258 5.76831C21.2791 5.76828 21.4297 5.80756 21.5628 5.88229C21.6755 5.94488 21.7732 6.03086 21.8488 6.13428H21.8544ZM15.0927 6.93268L17.507 9.02477L17.5646 9.01045C17.6051 9.00264 17.6463 8.99871 17.6876 8.9987C17.7284 8.99866 17.7691 9.0026 17.809 9.01045L17.8677 9.02477L20.2913 6.9291C20.2791 6.89391 20.2689 6.85807 20.2607 6.82176C20.2471 6.76151 20.2403 6.69997 20.2404 6.63826C20.2407 6.54224 20.257 6.44691 20.2887 6.35611C20.3123 6.28814 20.3446 6.22338 20.3848 6.16342L17.8937 2.68257L17.8283 2.69432C17.7362 2.71007 17.6421 2.71007 17.5501 2.69432L17.4858 2.68257L15.0019 6.15831C15.0418 6.21895 15.074 6.28417 15.0979 6.35254C15.1504 6.50316 15.1601 6.66508 15.1259 6.82074C15.1178 6.85774 15.1071 6.89413 15.0938 6.92961L15.0927 6.93268ZM16.8173 9.28698L14.6583 7.41673C14.6071 7.44146 14.5538 7.46165 14.4991 7.47704C14.4202 7.49853 14.3389 7.50953 14.2572 7.50976C14.1101 7.51088 13.9651 7.47479 13.8363 7.40497L11.5408 9.28698H16.8173ZM22.4134 16.9249C22.3021 16.8814 22.2009 16.8161 22.1161 16.7329C22.0312 16.6497 21.9645 16.5503 21.9198 16.4409H15.3886V13.7497H24.2143C24.2647 13.6705 24.3329 13.6038 24.4136 13.5544V10.1298C24.3329 10.0806 24.2647 10.0138 24.2143 9.93459H18.2169C18.1604 10.0225 18.0824 10.095 17.9898 10.1452C17.8972 10.1954 17.7933 10.2217 17.6876 10.2217C17.582 10.2217 17.478 10.1954 17.3855 10.1452C17.2929 10.095 17.2147 10.0225 17.1583 9.93459H11.4552C11.41 10.0437 11.3432 10.1427 11.2585 10.2259C11.1736 10.3095 11.0722 10.375 10.9607 10.4186V17.0246C11.125 17.0887 11.2661 17.2001 11.3655 17.3441C11.4648 17.4882 11.518 17.6583 11.518 17.8324C11.518 18.0066 11.4648 18.1767 11.3655 18.3207C11.2661 18.4648 11.125 18.5762 10.9607 18.6403V25.2467C11.0721 25.2901 11.1735 25.3553 11.2585 25.4384C11.3429 25.5223 11.4097 25.6216 11.4552 25.7308H13.474C13.5242 25.651 13.5924 25.5836 13.6733 25.534C13.7724 25.474 13.8865 25.4422 14.0029 25.4422C14.1192 25.4422 14.2333 25.474 14.3324 25.534C14.4136 25.5836 14.4822 25.6509 14.5328 25.7308H20.843C20.8989 25.642 20.9768 25.5688 21.0694 25.518C21.1621 25.4672 21.2663 25.4405 21.3724 25.4405C21.4784 25.4405 21.5826 25.4672 21.6752 25.518C21.7679 25.5688 21.8459 25.642 21.9017 25.7308H24.2148C24.2652 25.6516 24.3334 25.5848 24.4141 25.5355V22.1109C24.3334 22.0617 24.2652 21.9948 24.2148 21.9156H15.3886V19.224H21.9204C21.9647 19.1142 22.0313 19.0146 22.1161 18.9312C22.2011 18.8477 22.3024 18.7823 22.4139 18.739V16.9249H22.4134Z" fill="white"/>
</svg>
