<svg width="16" height="14" viewBox="0 0 16 14" fill="none" xmlns="http://www.w3.org/2000/svg">
<path d="M11.9604 13.9577H3.60988C1.85356 13.9577 0.433075 12.7205 0.433075 11.1908V3.64889C0.433075 
2.11917 1.85356 0.881958 3.60988 0.881958H11.9604C13.7167 0.881958 15.1372 2.11917 15.1372 3.64889V11.1868C15.1372 12.7165 13.7167 13.9577 11.9604 13.9577Z" fill="white"/>
<path d="M6.57356 13.9579V9.35297H4.64025L4.67655 7.42797H6.57356V5.76386C6.57356 4.52665 7.84882 3.07203 
10.9394 3.6768V5.29348L9.99998 5.30929C9.351 5.32115 8.91986 5.70852 8.91986 6.26981V7.42797H10.9394L10.6126 
9.35297H8.91986V13.954H6.57356V13.9579Z" fill="#0D0D0D"/>
</svg>
