<svg width="42" height="41" viewBox="0 0 42 41" fill="none" xmlns="http://www.w3.org/2000/svg">
<path fill-rule="evenodd" clip-rule="evenodd" d="M6.43204 13.9727H13.3369C13.5684 13.9727 13.7998 13.7448 13.5684 13.5169C13.1055 13.0611 12.9401 12.1585 13.1715 11.4748C13.3413 10.9734 13.7998 10.5542 14.4942 10.3263C15.4199 10.0984 16.1143 10.3263 16.5772 10.7821C16.5882 10.793 16.599 10.8036 16.6095 10.814C16.9089 11.1089 17.0236 11.2219 17.11 11.2033C17.1636 11.1917 17.2064 11.1294 17.2756 11.0284C17.2835 11.017 17.2917 11.005 17.3003 10.9925C17.5661 10.6079 17.8481 10.4211 18.4057 10.4211H19.577H22.3437C23.9638 10.4211 25.3722 11.6133 25.3722 13.0611C25.3722 13.1745 25.3722 13.2314 25.4007 13.2601C25.4295 13.289 25.4874 13.289 25.6037 13.289H29.7698C33.096 13.289 35.7874 16.0237 35.7874 19.4422V20.3538C35.7874 24.228 33.2681 27.4185 29.4247 27.6464H26.4599H23.7521C22.5949 27.6464 21.2062 27.1906 20.2804 26.5069C20.0403 26.3297 19.8175 26.5069 19.8175 26.7348V27.4185C19.8175 30.6851 18.6565 33.6774 16.7506 35.9856C9.94475 34.0977 4.95605 27.9394 4.95605 20.6337C4.95605 18.2559 5.4845 15.9997 6.43204 13.9727ZM22.0532 14.2946C22.0532 15.0067 21.4667 15.584 20.7432 15.584C20.0197 15.584 19.4332 15.0067 19.4332 14.2946C19.4332 13.5825 20.0197 13.0051 20.7432 13.0051C21.4667 13.0051 22.0532 13.5825 22.0532 14.2946Z" fill="#6D6D6D"/>
<path fill-rule="evenodd" clip-rule="evenodd" d="M20.9674 38.2784C31.0508 38.2784 39.2266 30.2287 39.2266 20.2971C39.2266 10.3655 31.0508 2.31585 20.9674 2.31585C10.884 2.31585 2.70817 10.3655 2.70817 20.2971C2.70817 30.2287 10.884 38.2784 20.9674 38.2784ZM20.9674 40.2971C32.1844 40.2971 41.2775 31.3428 41.2775 20.2971C41.2775 9.25142 32.1844 0.297119 20.9674 0.297119C9.75039 0.297119 0.657227 9.25142 0.657227 20.2971C0.657227 31.3428 9.75039 40.2971 20.9674 40.2971Z" fill="#6D6D6D"/>
</svg>
