<svg width="27" height="23" viewBox="0 0 27 23" fill="none" xmlns="http://www.w3.org/2000/svg">
<path d="M17.729 3.02141L19.9797 0.770752L26.4841 7.29766L24.0084 9.77338C23.9859 10.8762 23.6032 12.0015 22.838 13.1494C22.5229 13.622 22.1628 14.0496 21.7577 14.4547L20.9475 15.265C21.5552 16.0077 21.5777 16.7729 21.015 17.5156C20.8124 17.7857 20.4298 18.1008 19.9347 18.0783L20.1147 18.3034C20.8124 19.1811 20.5649 19.9013 19.9572 20.5315C19.372 21.1617 18.8094 21.2292 17.9991 21.0042H17.9766C16.8288 22.7372 15.8385 22.7147 14.3756 21.4768C14.173 21.7919 14.128 21.9494 13.7454 22.1745C12.8901 22.6696 11.7873 22.5121 11.0671 21.8144C10.8195 21.5893 10.5945 21.3417 10.3469 21.1167C9.76171 21.0717 9.22156 20.644 8.63639 19.7663H8.61388C7.80364 19.9914 7.26349 19.9238 6.65581 19.2937C6.07064 18.686 5.82307 18.0108 6.38573 17.2005L4.85528 15.6701C4.45017 15.265 4.09006 14.8374 3.77497 14.3647C3.00975 13.2394 2.62713 12.0916 2.60463 10.9887L0.128906 8.51301L6.6333 2.03112L8.70391 4.10172C9.17654 3.78663 10.8195 2.90888 12.8901 4.32679L13.4303 3.76413L13.4753 3.71911C15.1633 2.41373 16.5812 2.6613 17.3914 2.9764C17.504 2.9989 17.6165 2.9989 17.729 3.02141Z" fill="white"/>
<path d="M19.9797 0.770752L17.729 3.02141C17.6165 2.9989 17.504 2.9989 17.3914 2.9764C16.5812 2.6613 15.1633 2.41373 13.4753 3.71911L13.4303 3.76413L12.8901 4.32679C10.8195 2.90888 9.17654 3.78663 8.70391 4.10172L6.6333 2.03112L0.128906 8.51301L2.60463 10.9887C2.62713 12.0916 3.00975 13.2394 3.77497 14.3647C4.09006 14.8374 4.45017 15.265 4.85528 15.6701C5.37294 16.1878 5.89059 16.7054 6.38573 17.2005C5.82307 18.0108 6.07064 18.686 6.65581 19.2937C7.26349 19.9238 7.80364 19.9914 8.61388 19.7663H8.63639C9.22156 20.644 9.76172 21.0717 10.3469 21.1167C10.5945 21.3417 10.8195 21.5893 11.0671 21.8144C11.7873 22.5121 12.8901 22.6696 13.7454 22.1745C14.128 21.9494 14.173 21.7919 14.3756 21.4768C15.8385 22.7147 16.8288 22.7372 17.9766 21.0042H17.9991C18.8094 21.2292 19.372 21.1617 19.9572 20.5315C20.5649 19.9013 20.8124 19.1811 20.1147 18.3034L19.9347 18.0783C20.4298 18.1008 20.8124 17.7857 21.015 17.5156C21.5777 16.7729 21.5552 16.0077 20.9475 15.265C21.2176 14.9949 21.4876 14.7248 21.7577 14.4547C22.1628 14.0496 22.5229 13.622 22.838 13.1494C23.6033 12.0015 23.9859 10.8762 24.0084 9.77338L26.4841 7.29766L19.9797 0.770752ZM5.2604 14.7473C4.51769 13.9596 3.95502 13.0818 3.70745 12.0916C3.66244 11.8665 3.61742 11.6414 3.59492 11.4164C3.57241 11.2363 3.57241 11.0337 3.57241 10.8312L1.05168 8.33296L6.43074 2.93138L8.16375 4.66439L8.27628 4.77692V4.79943L9.10903 4.86695L9.15404 4.73191C9.49164 4.50684 10.842 3.74162 12.6651 5.13703L15.0733 7.56774C15.1858 7.68027 15.2533 7.86032 15.2533 8.01787C15.2533 8.19792 15.1858 8.35547 15.0733 8.468L14.9157 8.62554C14.6681 8.87312 14.263 8.87312 13.9929 8.62554L11.5172 6.14982L10.9096 6.57745L11.5847 7.36518L11.8773 7.65776C11.5847 7.95035 11.3147 8.22043 11.0221 8.51301C10.9546 8.58053 10.9096 8.67056 10.887 8.73808C10.8645 8.76058 10.8645 8.76058 10.842 8.78309C9.17654 10.4486 7.53357 12.0916 5.86808 13.757C5.57549 14.0721 5.35043 14.4097 5.2604 14.7473ZM13.2502 21.4543C13.0702 21.6343 12.8676 21.7469 12.575 21.7244C12.1924 21.7019 11.8998 21.3868 11.7198 21.2067C11.6073 21.0942 11.4947 20.9816 11.3822 20.8691C11.6523 20.7116 11.9449 20.509 12.2599 20.2614C12.4625 20.5765 12.5075 20.7341 12.8901 20.9591C13.0477 21.0492 13.2277 21.1167 13.4078 21.1842C13.3628 21.2742 13.3178 21.3868 13.2502 21.4543ZM16.8063 21.1167C16.4462 21.5443 16.0185 21.5893 15.4784 21.0942C15.3884 21.0267 15.3208 20.9366 15.2308 20.8691C15.3433 20.8016 15.4559 20.7116 15.5684 20.599C15.8835 20.3064 16.1761 19.9914 16.4912 19.6988C16.5137 19.7213 16.5587 19.7663 16.5812 19.7888C17.0763 20.3064 17.1439 20.7116 16.8063 21.1167ZM19.372 19.7663C18.9894 20.2839 18.4267 20.2839 17.9091 19.7888C17.6615 19.5412 17.3914 19.2711 17.1439 19.0236C17.5715 18.6185 17.9766 18.2133 18.4042 17.7857C18.6293 18.0108 18.8769 18.2584 19.1019 18.4834C19.5746 18.9561 19.6421 19.4062 19.372 19.7663ZM20.4073 16.7504C20.2273 17.223 19.6646 17.4481 19.2145 17.2005C19.1695 17.178 19.1244 17.1555 19.0794 17.1105C19.4846 16.7054 19.8897 16.3003 20.2948 15.8952C20.4523 16.1652 20.5424 16.4128 20.4073 16.7504ZM23.0631 9.59333C23.0631 9.79589 23.0631 9.97594 23.0406 10.1785C23.0181 10.4036 22.9731 10.6286 22.9281 10.8537C22.6805 11.844 22.1178 12.7217 21.3526 13.5095C20.3398 14.5898 19.2595 15.6251 18.2017 16.6604C17.0989 17.7632 15.996 18.866 14.8932 19.9689C14.7132 20.1489 14.4206 20.464 14.038 20.4865C13.7454 20.509 13.5653 20.3965 13.3628 20.2164C13.1827 20.0589 13.1377 19.6538 13.2052 19.3837C13.2727 19.1136 13.5203 18.866 13.7454 18.641C14.2405 18.1233 14.7582 17.6282 15.2758 17.1105C15.5234 16.8629 15.771 16.6154 16.0185 16.3678C16.2886 16.0977 17.0313 15.5351 16.6037 15.1299C16.2211 14.7698 15.6584 15.4675 15.4109 15.7151C15.1633 15.9627 14.9157 16.2103 14.6681 16.4578C13.4978 17.6057 12.35 18.7535 11.1571 19.8563C10.617 20.3515 10.1893 20.329 9.82924 19.8788C9.46913 19.4737 9.53665 19.0461 10.0543 18.5509C11.3822 17.223 12.6876 15.9177 14.0155 14.5898C14.1955 14.4097 14.3531 14.2747 14.3981 14.0046C14.4206 13.8021 14.3531 13.5995 14.128 13.577C13.7679 13.532 13.6103 13.667 13.3628 13.8921C11.8098 15.445 10.2569 16.998 8.70391 18.5509C8.18626 19.0686 7.62359 19.0461 7.24098 18.5284C6.9709 18.1458 7.03842 17.7182 7.48855 17.2681C9.06401 15.6926 10.6395 14.0946 12.2374 12.5192C12.485 12.2716 12.6876 11.979 12.3725 11.6864C12.0799 11.3939 11.8098 11.6639 11.5847 11.889C10.3694 13.1043 9.15404 14.3197 7.93868 15.5351C7.78114 15.6926 7.60109 15.8727 7.39853 15.9627C6.9484 16.2103 6.38573 15.9852 6.20568 15.5126C6.00312 15.0174 6.25069 14.7248 6.56578 14.4097C8.59137 12.3841 10.617 10.3811 12.62 8.35547L13.4528 9.18821C13.7454 9.48079 14.1055 9.61584 14.4656 9.61584C14.8257 9.61584 15.2083 9.48079 15.4784 9.18821L15.6359 9.03066C15.906 8.76058 16.0636 8.40048 16.0636 8.01787C16.0636 7.65776 15.9285 7.32016 15.6809 7.05009L13.8354 5.20455L13.4753 4.84444L13.9704 4.3493C14.7357 3.76413 15.4109 3.56157 15.9735 3.53906C16.9863 3.44903 17.9091 3.98919 17.9091 3.98919L18.4492 3.44904L20.1823 1.71603L25.5613 7.0951L23.0631 9.59333Z" fill="#6D6D6D"/>
</svg>
