<svg width="41" height="41" viewBox="0 0 41 41" fill="none" xmlns="http://www.w3.org/2000/svg">
<path opacity="0.2" d="M20.5039 40.6558C31.5496 40.6558 40.5039 31.7015 40.5039 20.6558C40.5039 9.61007 31.5496 0.655762 20.5039 0.655762C9.45821 0.655762 0.503906 9.61007 0.503906 20.6558C0.503906 31.7015 9.45821 40.6558 20.5039 40.6558Z" fill="#6D6D6D"/>
<path d="M16.6014 27.0553C17.2257 27.0553 17.798 26.587 17.798 25.9626V17.898C17.798 17.2737 17.2778 16.8054 16.6014 16.8054H14.4682C13.8438 16.8054 13.2715 17.2737 13.2715 17.898V25.9626C13.2715 26.587 13.7918 27.0553 14.4682 27.0553H16.6014Z" fill="white"/>
<path d="M24.4057 12.6951C23.7813 12.6951 23.209 13.3194 23.209 14.1519V25.5984C23.209 26.3789 23.7293 27.0553 24.4057 27.0553H26.5389C27.1632 27.0553 27.7356 26.4309 27.7356 25.5984V14.1519C27.7356 13.3715 27.2153 12.6951 26.5389 12.6951H24.4057Z" fill="white"/>
<path d="M19.515 27.0552H21.6483C22.3246 27.0552 22.8449 26.691 22.8449 26.2228V20.8637C22.8449 20.3954 22.3246 20.0312 21.6483 20.0312H19.515C18.8386 20.0312 18.3184 20.3954 18.3184 20.8637V26.2228C18.3184 26.691 18.8386 27.0552 19.515 27.0552Z" fill="white"/>
<path d="M13.791 28.096C13.791 28.4082 14.0512 28.6163 14.3633 28.6163H26.7984C27.1106 28.6163 27.3707 28.3561 27.3707 28.096C27.3707 27.7838 27.1106 27.5757 26.7984 27.5757H14.3633C14.0512 27.5757 13.791 27.8358 13.791 28.096Z" fill="white"/>
</svg>
