<svg width="15" height="15" viewBox="0 0 15 15" fill="none" xmlns="http://www.w3.org/2000/svg">
<path d="M7.18138 5.26124C8.47916 5.26124 9.53081 6.23975 9.53081 7.44728C9.53081 8.6548 8.47916 9.63332 7.18138 9.63332C5.8836 9.63332 4.83196 8.6548 4.83196 7.44728C4.83196 6.23975 5.8836 5.26124 7.18138 5.26124ZM7.18138 4.05371C5.16759 4.05371 3.53418 5.57353 3.53418 7.44728C3.53418 9.32102 5.16759 10.8408 7.18138 10.8408C9.19517 10.8408 10.8286 9.32102 10.8286 7.44728C10.8211 5.57353 9.18772 4.05371 7.18138 4.05371Z" fill="white"/>
<path d="M10.2842 2.08985C11.7461 2.08985 12.932 3.19328 12.932 4.55348V10.3343C12.932 11.6945 11.7461 12.798 10.2842 12.798H4.07127C2.60941 12.798 1.42351 11.6945 1.42351 10.3343V4.55348C1.42351 3.19328 2.60941 2.08985 4.07127 2.08985H10.2842ZM10.2842 0.882324H4.07127C1.89339 0.882324 0.125732 2.52706 0.125732 4.55348V10.3343C0.125732 12.3608 1.89339 14.0055 4.07127 14.0055H10.2842C12.4621 14.0055 14.2297 12.3608 14.2297 10.3343V4.55348C14.2297 2.534 12.4621 0.882324 10.2842 0.882324Z" fill="white"/>
<path d="M11.8453 4.06765C11.9542 3.63869 11.6687 3.20885 11.2077 3.10756C10.7467 3.00627 10.2847 3.2719 10.1759 3.70085C10.067 4.1298 10.3525 4.55965 10.8135 4.66094C11.2745 4.76223 11.7365 4.4966 11.8453 4.06765Z" fill="white"/>
</svg>
