<svg width="30" height="35" viewBox="0 0 30 35" fill="none" xmlns="http://www.w3.org/2000/svg">
<path d="M28.623 20.9818V21.2232V27.716C28.623 31.1676 22.5405 33.9675 15.0339 33.9675C7.52734 33.9675 1.44482 31.1676 1.44482 27.716V21.2232V20.9818" fill="#2F69FF"/>
<path fill-rule="evenodd" clip-rule="evenodd" d="M1.44522 20.3784C1.77848 20.3784 2.04864 20.6486 2.04864 20.9818V27.716C2.04864 29.0636 3.26182 30.4767 5.67703 31.5879C8.0403 32.6753 11.3478 33.3641 15.0343 33.3641C18.7208 33.3641 22.0283 32.6753 24.3916 31.5879C26.8068 30.4767 28.02 29.0636 28.02 27.716V20.9818C28.02 20.6486 28.2902 20.3784 28.6234 20.3784C28.9567 20.3784 29.2268 20.6486 29.2268 20.9818V27.716C29.2268 29.8201 27.3988 31.5328 24.8961 32.6843C22.3414 33.8597 18.8544 34.5709 15.0343 34.5709C11.2143 34.5709 7.7272 33.8597 5.17257 32.6843C2.66988 31.5328 0.841797 29.8201 0.841797 27.716V20.9818C0.841797 20.6486 1.11196 20.3784 1.44522 20.3784Z" fill="#0D0D0D"/>
<path d="M28.5265 14.5132H28.623V21.006V21.2474C28.623 24.699 22.5405 27.4988 15.0339 27.4988C7.52734 27.4988 1.44482 24.699 1.44482 21.2474V21.006V14.5132H1.54141" fill="#2F69FF"/>
<path fill-rule="evenodd" clip-rule="evenodd" d="M0.841797 14.5132C0.841797 14.1799 1.11196 13.9097 1.44522 13.9097H1.5418C1.87506 13.9097 2.14523 14.1799 2.14523 14.5132C2.14523 14.6339 2.10975 14.7464 2.04864 14.8408V21.2474C2.04864 22.5949 3.26182 24.008 5.67703 25.1193C8.0403 26.2066 11.3478 26.8954 15.0343 26.8954C18.7208 26.8954 22.0283 26.2066 24.3916 25.1193C26.8068 24.008 28.02 22.5949 28.02 21.2474V14.8407C27.9589 14.7463 27.9235 14.6339 27.9235 14.5132C27.9235 14.1799 28.1936 13.9097 28.5269 13.9097H28.6234C28.9567 13.9097 29.2268 14.1799 29.2268 14.5132V21.2474C29.2268 23.3514 27.3988 25.0641 24.8961 26.2156C22.3414 27.3911 18.8544 28.1022 15.0343 28.1022C11.2143 28.1022 7.7272 27.3911 5.17257 26.2156C2.66988 25.0641 0.841797 23.3514 0.841797 21.2474V14.5132Z" fill="#0D0D0D"/>
<path d="M28.5991 7.03073H28.6474V7.51347V13.7649C28.6474 14.0304 28.6233 14.2718 28.5509 14.5132C27.7302 17.6027 22.0098 19.9922 15.0583 19.9922C8.1069 19.9922 2.38642 17.6027 1.56576 14.5132C1.49335 14.2718 1.46924 14.0063 1.46924 13.7649V7.51347V7.03073H1.5175" fill="#2F69FF"/>
<path fill-rule="evenodd" clip-rule="evenodd" d="M0.866211 7.03073C0.866211 6.69747 1.13637 6.42731 1.46963 6.42731H1.5179C1.85116 6.42731 2.12132 6.69747 2.12132 7.03073C2.12132 7.11481 2.10412 7.19487 2.07306 7.26759V13.7649C2.07306 13.9718 2.09438 14.1739 2.14413 14.3398C2.14597 14.3459 2.14771 14.3521 2.14936 14.3583C2.48417 15.6187 3.88691 16.8883 6.2421 17.8529C8.55822 18.8014 11.6461 19.3888 15.0587 19.3888C18.4713 19.3888 21.5592 18.8014 23.8753 17.8529C26.2305 16.8883 27.6332 15.6187 27.9681 14.3583C27.9697 14.3521 27.9714 14.3459 27.9733 14.3398C28.0236 14.172 28.0444 13.9931 28.0444 13.7649V7.26773C28.0133 7.19497 27.9961 7.11486 27.9961 7.03073C27.9961 6.69747 28.2663 6.42731 28.5995 6.42731H28.6478C28.9811 6.42731 29.2513 6.69747 29.2513 7.03073V13.7649C29.2513 14.0648 29.2243 14.3656 29.132 14.6772C28.6424 16.502 26.7767 17.9688 24.3327 18.9697C21.8456 19.9883 18.5976 20.5957 15.0587 20.5957C11.5199 20.5957 8.27186 19.9883 5.78471 18.9697C3.34066 17.9687 1.47494 16.502 0.985365 14.6771C0.892583 14.3631 0.866211 14.038 0.866211 13.7649V7.03073Z" fill="#0D0D0D"/>
<path d="M15.0583 13.7649C22.5634 13.7649 28.6474 10.9661 28.6474 7.51346C28.6474 4.06087 22.5634 1.26199 15.0583 1.26199C7.55329 1.26199 1.46924 4.06087 1.46924 7.51346C1.46924 10.9661 7.55329 13.7649 15.0583 13.7649Z" fill="#2F69FF"/>
<path fill-rule="evenodd" clip-rule="evenodd" d="M5.70198 3.6412C3.28657 4.75238 2.07306 6.16545 2.07306 7.51346C2.07306 8.86147 3.28657 10.2745 5.70198 11.3857C8.06545 12.473 11.373 13.1615 15.0587 13.1615C18.7445 13.1615 22.052 12.473 24.4155 11.3857C26.8309 10.2745 28.0444 8.86147 28.0444 7.51346C28.0444 6.16545 26.8309 4.75238 24.4155 3.6412C22.052 2.55392 18.7445 1.86542 15.0587 1.86542C11.373 1.86542 8.06545 2.55392 5.70198 3.6412ZM5.1976 2.54481C7.75242 1.3695 11.2395 0.658569 15.0587 0.658569C18.878 0.658569 22.365 1.3695 24.9199 2.54481C27.4227 3.69622 29.2513 5.40888 29.2513 7.51346C29.2513 9.61804 27.4227 11.3307 24.9199 12.4821C22.365 13.6574 18.878 14.3684 15.0587 14.3684C11.2395 14.3684 7.75242 13.6574 5.1976 12.4821C2.69472 11.3307 0.866211 9.61804 0.866211 7.51346C0.866211 5.40888 2.69472 3.69622 5.1976 2.54481Z" fill="#0D0D0D"/>
</svg>
