<svg width="28" height="26" viewBox="0 0 28 26" fill="none" xmlns="http://www.w3.org/2000/svg">
<path d="M26.9282 7.83409C26.9282 7.66733 26.8502 7.52438 26.7203 7.42909L20.3786 1.63989C20.3526 1.61607 20.3006 1.59224 20.2746 1.56842C20.2746 1.56842 20.2486 1.56842 20.2486 1.5446C20.1966 1.52077 20.1706 1.52077 20.1187 1.49695C20.0927 1.49695 20.0407 1.49695 20.0147 1.49695H7.61721C7.33132 1.49695 7.07141 1.71136 7.07141 1.99725V6.97644C14.8145 5.55642 19.0316 18.6357 7.07141 19.4601V24.4393C7.07141 24.7014 7.30533 24.9396 7.61721 24.9396H26.3824C26.6683 24.9396 26.9282 24.7252 26.9282 24.4393V7.90557C26.9282 7.88174 26.9282 7.85792 26.9282 7.83409Z" fill="white"/>
<path d="M7.67039 19.9611C7.46246 19.9611 7.25454 19.9611 7.02062 19.9372C3.20001 19.6275 0.315063 16.7448 0.315063 13.1951C0.315063 9.66914 3.20001 6.78646 7.02062 6.45292C7.43647 6.4291 7.80034 6.40528 8.1902 6.45292C12.0368 6.69116 15.0517 9.64532 15.0517 13.1951C15.0517 16.7448 12.0368 19.699 8.16421 19.9372C8.03425 19.9611 7.85232 19.9611 7.67039 19.9611Z" fill="white"/>
<path fill-rule="evenodd" clip-rule="evenodd" d="M7.15883 9.93127C6.53732 9.93127 5.99136 10.4839 5.99136 11.2256V11.4078C6.01235 11.4078 6.03222 11.4079 6.05051 11.408C6.06698 11.408 6.08217 11.4081 6.09574 11.4081H9.27226C9.30943 11.4081 9.3349 11.4052 9.37288 11.4009C9.37412 11.4008 9.37538 11.4006 9.37664 11.4005V11.2256C9.37664 10.4888 8.83062 9.93521 8.21662 9.93127H7.15883ZM5.28161 11.4754V11.2256C5.28161 10.1403 6.09641 9.21655 7.15883 9.21655H8.21962C9.27218 9.22238 10.0864 10.1451 10.0864 11.2256V11.7655C10.0864 11.8812 10.0307 11.9898 9.93704 12.0568C9.84335 12.1238 9.72323 12.141 9.61471 12.1029C9.61365 12.1025 9.59921 12.0975 9.53738 12.1026C9.51646 12.1043 9.49936 12.1062 9.4783 12.1085C9.46393 12.1101 9.44772 12.1118 9.4272 12.1139C9.38378 12.1183 9.33024 12.1228 9.27226 12.1228H6.09574C6.07667 12.1228 6.05758 12.1227 6.03848 12.1227C5.96825 12.1224 5.89785 12.1221 5.82701 12.1256C5.73058 12.1305 5.67869 12.1411 5.66193 12.1475C5.53185 12.1974 5.38487 12.166 5.28601 12.0674C5.18716 11.9687 5.15468 11.821 5.20295 11.6896L5.28161 11.4754Z" fill="#BC2FFF"/>
<path fill-rule="evenodd" clip-rule="evenodd" d="M5.72253 11.6432C5.772 11.5059 5.90274 11.4077 6.05624 11.4077H9.4262C9.6399 11.4077 9.84647 11.4411 10.0438 11.5097C10.8003 11.7641 11.3518 12.4764 11.3518 13.3245V15.207C11.3518 16.2683 10.4834 17.1192 9.4262 17.1192H5.93506C4.87788 17.1192 4.0094 16.2683 4.0094 15.207V13.3245C4.0094 12.4808 4.56142 11.763 5.31967 11.509C5.47225 11.4579 5.63489 11.517 5.72253 11.6432ZM5.76534 11.9698C5.7296 12.069 5.65079 12.1513 5.54366 12.1872C5.06207 12.3485 4.71915 12.8026 4.71915 13.3245V15.207C4.71915 15.862 5.25832 16.4045 5.93506 16.4045H9.4262C10.1029 16.4045 10.6421 15.862 10.6421 15.207V13.3245C10.6421 12.7986 10.2998 12.3487 9.8176 12.1872L9.81328 12.1857C9.69426 12.1442 9.56596 12.1224 9.4262 12.1224H6.05624C5.93588 12.1224 5.82951 12.0621 5.76534 11.9698Z" fill="#BC2FFF"/>
<path fill-rule="evenodd" clip-rule="evenodd" d="M7.59299 12.8243C8.0646 12.7724 8.47518 13.1367 8.47518 13.6055C8.47518 13.8373 8.37158 14.0452 8.20764 14.1875L8.35866 14.9426L8.35937 14.9463C8.41441 15.246 8.18512 15.5232 7.8797 15.5232H7.47419C7.17721 15.5232 6.93003 15.2524 6.99549 14.9413L7.14727 14.1823C6.96862 14.0188 6.86178 13.7732 6.89953 13.4994C6.94706 13.1453 7.23456 12.8637 7.59299 12.8243ZM8.00201 13.6055C8.00201 13.4284 7.84393 13.276 7.64436 13.2979C7.4996 13.3138 7.38638 13.4287 7.3684 13.5634L7.36824 13.5646C7.35041 13.6932 7.41453 13.8103 7.52534 13.8733C7.61445 13.9241 7.66106 14.0267 7.64085 14.1278L7.45859 15.0391C7.45881 15.0395 7.45914 15.04 7.45962 15.0405C7.46242 15.0439 7.46717 15.0467 7.47419 15.0467H7.8797C7.89081 15.0467 7.89471 15.0385 7.89418 15.0335L7.71302 14.1278C7.69217 14.0235 7.74245 13.918 7.83624 13.8691C7.94007 13.8151 8.00201 13.7137 8.00201 13.6055Z" fill="#BC2FFF"/>
<path d="M27.6009 7.31796C27.6009 7.14319 27.5192 6.99338 27.383 6.89351L20.7368 0.826321C20.7096 0.801353 20.6551 0.776385 20.6278 0.751417C20.6278 0.751417 20.6006 0.751417 20.6006 0.726449C20.5461 0.701481 20.5189 0.701482 20.4644 0.676514C20.4372 0.676514 20.3827 0.676514 20.3555 0.676514H7.36266C7.06304 0.676514 6.79065 0.901224 6.79065 1.20084V6.41912C7.00856 6.39415 7.22647 6.39415 7.44437 6.39415C7.60781 6.39415 7.77124 6.39415 7.93467 6.41912V1.7002H19.7835V7.31796C19.7835 7.59261 20.0286 7.84229 20.3555 7.84229H26.4841V24.1962H7.93467V19.5023C7.77124 19.5272 7.60781 19.5272 7.44437 19.5272C7.22647 19.5272 7.00856 19.5272 6.79065 19.5023V24.7206C6.79065 24.9952 7.0358 25.2449 7.36266 25.2449H27.0289C27.3285 25.2449 27.6009 25.0202 27.6009 24.7206V7.39287C27.6009 7.3679 27.6009 7.34293 27.6009 7.31796ZM20.9002 6.79364V2.42426L25.667 6.79364H20.9002Z" fill="#BC2FFF"/>
<path d="M7.66818 20.11C7.45491 20.11 7.24163 20.11 7.00169 20.0856C3.08274 19.7679 0.123535 16.811 0.123535 13.1699C0.123535 9.55317 3.08274 6.59629 7.00169 6.25417C7.42825 6.22973 7.80148 6.2053 8.20137 6.25417C12.147 6.49854 15.2395 9.52874 15.2395 13.1699C15.2395 16.811 12.147 19.8412 8.17471 20.0856C8.04141 20.11 7.8548 20.11 7.66818 20.11ZM7.08167 7.28053C3.72257 7.54933 1.21658 10.0908 1.21658 13.1699C1.21658 16.2489 3.74923 18.7904 7.08167 19.0592C7.45491 19.0836 7.77482 19.1081 8.09473 19.0592C11.4805 18.8637 14.1198 16.2489 14.1198 13.1454C14.1198 9.77043 10.7744 6.85742 7.08167 7.28053Z" fill="#BC2FFF"/>
</svg>
