<svg width="41" height="41" viewBox="0 0 41 41" fill="none" xmlns="http://www.w3.org/2000/svg">
<path opacity="0.2" d="M20.9883 40.2507C32.034 40.2507 40.9883 31.2964 40.9883 20.2507C40.9883 9.20504 32.034 0.250732 20.9883 0.250732C9.94259 0.250732 0.988281 9.20504 0.988281 20.2507C0.988281 31.2964 9.94259 40.2507 20.9883 40.2507Z" fill="#6D6D6D"/>
<path fill-rule="evenodd" clip-rule="evenodd" d="M20.9869 13.6926C21.7164 13.6926 22.3078 14.284 22.3078 15.0135V25.4876C22.3078 26.2171 21.7164 26.8085 20.9869 26.8085C20.2574 26.8085 19.666 26.2171 19.666 25.4876V15.0135C19.666 14.284 20.2574 13.6926 20.9869 13.6926Z" fill="white"/>
<path fill-rule="evenodd" clip-rule="evenodd" d="M27.5449 20.2506C27.5449 20.9801 26.9535 21.5714 26.224 21.5714L15.7499 21.5714C15.0204 21.5714 14.429 20.9801 14.429 20.2506C14.429 19.5211 15.0204 18.9297 15.7499 18.9297L26.224 18.9297C26.9535 18.9297 27.5449 19.5211 27.5449 20.2506Z" fill="white"/>
</svg>
