<svg width="41" height="41" viewBox="0 0 41 41" fill="none" xmlns="http://www.w3.org/2000/svg">
<path opacity="0.2" d="M20.5371 40.8401C31.5828 40.8401 40.5371 31.8858 40.5371 20.8401C40.5371 9.79439 31.5828 0.840088 20.5371 0.840088C9.49141 0.840088 0.537109 9.79439 0.537109 20.8401C0.537109 31.8858 9.49141 40.8401 20.5371 40.8401Z" fill="#6D6D6D"/>
<path d="M15.2028 25.4941C15.2531 25.7456 15.4544 25.8966 15.7059 25.8966H15.7562C18.6241 25.5444 20.7372 24.7394 22.2466 23.5319C23.0013 22.9281 23.605 22.2237 24.1082 21.3684C24.5107 20.664 24.8628 19.9094 25.1647 19.0037L26.0703 19.1547C26.2716 19.205 26.4225 19.1044 26.5232 18.9534C26.6238 18.8025 26.6238 18.6012 26.5735 18.4503L25.0641 15.2806C25.0138 15.1296 24.8628 15.029 24.7119 15.029C24.561 14.9787 24.41 15.029 24.3094 15.1296L21.6428 17.444C21.4919 17.5447 21.4416 17.7459 21.4919 17.9472C21.5422 18.1484 21.6931 18.249 21.8441 18.2993L22.6491 18.4503C22.4478 19.6075 21.9447 20.6137 21.2906 21.5194C20.1837 22.9784 18.7247 23.8337 17.6681 24.2866C17.0643 24.5381 16.5612 24.7394 16.209 24.84C16.0078 24.8903 15.8568 24.9406 15.7562 24.9406C15.7059 24.9406 15.6556 24.9406 15.6556 24.9406C15.3034 24.991 15.1525 25.2425 15.2028 25.4941Z" fill="white"/>
<path d="M28.1339 27.5066C28.1339 27.3054 27.9326 27.1041 27.7314 27.1041H13.7444V14.1738C13.7444 13.9725 13.5935 13.7712 13.3419 13.7712C13.1407 13.7712 12.9395 13.9725 12.9395 14.1738V27.5066C12.9395 27.6073 12.9898 27.7079 13.0401 27.8085C13.0904 27.8588 13.191 27.9091 13.3419 27.9091H27.7314C27.9326 27.9091 28.1339 27.7079 28.1339 27.5066Z" fill="white"/>
</svg>
