<svg width="19" height="19" viewBox="0 0 19 19" fill="none" xmlns="http://www.w3.org/2000/svg">
<path fill-rule="evenodd" clip-rule="evenodd" d="M7.34325 12.9302C10.419 12.9302 12.9124 10.4368 12.9124 7.36107C12.9124 4.28531 10.419 1.79191 7.34325 1.79191C4.26749 1.79191 1.77409 4.28531 1.77409 7.36107C1.77409 10.4368 4.26749 12.9302 7.34325 12.9302ZM7.34325 14.5031C11.2877 14.5031 14.4853 11.3055 14.4853 7.36107C14.4853 3.41661 11.2877 0.218994 7.34325 0.218994C3.39879 0.218994 0.201172 3.41661 0.201172 7.36107C0.201172 11.3055 3.39879 14.5031 7.34325 14.5031Z" fill="#6D6D6D"/>
<path fill-rule="evenodd" clip-rule="evenodd" d="M11.4158 11.1696C11.8765 10.7089 12.6235 10.7089 13.0842 11.1696L17.5873 15.6728C18.048 16.1335 18.048 16.8804 17.5873 17.3411C17.1266 17.8018 16.3797 17.8018 15.919 17.3411L11.4158 12.8379C10.9551 12.3772 10.9551 11.6303 11.4158 11.1696Z" fill="#6D6D6D"/>
</svg>
