<svg width="35" height="40" viewBox="0 0 35 40" fill="none" xmlns="http://www.w3.org/2000/svg">
<path d="M25.4898 5.51603C22.3739 5.51603 19.6829 4.15635 18.3515 2.14518C18.1249 1.80526 17.615 1.80526 17.3884 2.14518C16.0571 4.15635 13.3661 5.51603 10.2502 5.51603C7.50251 5.51603 5.09478 4.43962 3.62181 2.82502C3.28189 2.42845 2.60205 2.68338 2.60205 3.22158V25.2029C2.60205 26.9874 3.42352 28.6303 4.72653 29.4801L16.1987 36.845C17.2185 37.4965 18.5215 37.4965 19.5129 36.845L30.9851 29.4801C32.2881 28.6303 33.1096 26.9874 33.1096 25.2029V3.22158C33.1096 2.68338 32.458 2.42845 32.0898 2.82502C30.6735 4.43962 28.2374 5.51603 25.4898 5.51603Z" fill="#2F69FF"/>
<path fill-rule="evenodd" clip-rule="evenodd" d="M15.8527 1.12125C16.8099 -0.314587 18.9302 -0.314587 19.8874 1.12125L19.8908 1.12625C20.8146 2.52175 22.8639 3.67015 25.4899 3.67015C27.7908 3.67015 29.6887 2.76327 30.7023 1.60777C30.7138 1.59467 30.7255 1.58174 30.7373 1.56898C32.2356 -0.0445739 34.9555 0.988886 34.9555 3.22153V25.2028C34.9555 27.5109 33.8978 29.7842 31.9935 31.0261L31.9824 31.0334L20.5175 38.3935C18.9036 39.4488 16.819 39.4315 15.2051 38.4004L3.72947 31.0334L3.71833 31.0261C1.81409 29.7842 0.756348 27.5109 0.756348 25.2028V3.22153C0.756348 1.06495 3.48395 -0.123875 4.99837 1.59496C6.08715 2.77923 7.9738 3.67015 10.2503 3.67015C12.8763 3.67015 14.9256 2.52175 15.8494 1.12626L15.8527 1.12125ZM17.8701 4.4486C16.0087 6.2946 13.2223 7.36179 10.2503 7.36179C8.11239 7.36179 6.10179 6.80513 4.44798 5.83119V25.2028C4.44798 26.461 5.03051 27.4717 5.73016 27.9309L17.1926 35.2895C17.193 35.2897 17.1933 35.2899 17.1937 35.2902C17.616 35.5594 18.132 35.5437 18.4993 35.3024L18.5158 35.2916L29.9816 27.9309C30.6813 27.4718 31.2639 26.461 31.2639 25.2028V5.85053C29.6152 6.81783 27.6006 7.36179 25.4899 7.36179C22.5179 7.36179 19.7315 6.2946 17.8701 4.4486Z" fill="#0D0D0D"/>
<path d="M17.87 1.89024C17.6717 1.89024 17.5017 1.97523 17.3884 2.14519C16.0571 4.15636 13.3661 5.51603 10.2502 5.51603C7.50251 5.51603 5.09478 4.43963 3.62181 2.82503C3.5085 2.6834 3.33855 2.62674 3.19691 2.62674C2.91365 2.62674 2.60205 2.85334 2.60205 3.22159V25.2029C2.60205 26.9874 3.42352 28.6303 4.72653 29.4801L16.1987 36.845C16.7086 37.1566 17.2751 37.3265 17.87 37.3265C18.4365 37.3265 19.0314 37.1566 19.5412 36.845L31.0134 29.4801C32.3164 28.6303 33.1379 26.9874 33.1379 25.2029V3.22159C33.1379 2.88167 32.8546 2.62674 32.543 2.62674C32.4014 2.62674 32.2315 2.6834 32.1181 2.82503C30.6735 4.43963 28.2374 5.51603 25.4898 5.51603C22.3739 5.51603 19.6829 4.15636 18.3515 2.14519C18.2382 1.97523 18.0683 1.89024 17.87 1.89024Z" fill="#2F69FF"/>
<path fill-rule="evenodd" clip-rule="evenodd" d="M15.8527 1.12126C16.3245 0.413656 17.0842 0.0443726 17.8701 0.0443726C18.6559 0.0443726 19.4157 0.413656 19.8874 1.12126L19.8908 1.12626C20.8146 2.52176 22.8639 3.67016 25.4899 3.67016C27.7716 3.67016 29.6704 2.77709 30.7227 1.61636C31.2532 0.992139 31.9802 0.780869 32.5432 0.780869C33.8166 0.780869 34.9838 1.80562 34.9838 3.22153V25.2028C34.9838 27.5109 33.9261 29.7843 32.0218 31.0262L32.0107 31.0334L20.5385 38.3982C20.527 38.4056 20.5155 38.4128 20.5038 38.4199C19.7167 38.901 18.7906 39.1723 17.8701 39.1723C16.9129 39.1723 16.016 38.8964 15.2363 38.4199C15.2247 38.4128 15.2131 38.4056 15.2016 38.3982L3.72947 31.0334L3.71833 31.0262C1.81408 29.7843 0.756348 27.5109 0.756348 25.2028V3.22153C0.756348 1.66704 2.06959 0.780869 3.19703 0.780869C3.75717 0.780869 4.47967 0.990016 5.00944 1.60696C6.09991 2.78525 7.98149 3.67016 10.2503 3.67016C12.8763 3.67016 14.9256 2.52176 15.8494 1.12627L15.8527 1.12126ZM17.8701 4.4486C16.0087 6.29461 13.2223 7.3618 10.2503 7.3618C8.11239 7.3618 6.10179 6.80514 4.44798 5.8312V25.2028C4.44798 26.4611 5.03062 27.4719 5.73036 27.931L17.1757 35.2786C17.4108 35.4192 17.6422 35.4807 17.8701 35.4807C18.0784 35.4807 18.3358 35.4148 18.5649 35.2783L30.0097 27.9311C30.7095 27.472 31.2922 26.4612 31.2922 25.2028V5.83871C29.6351 6.81124 27.6144 7.3618 25.4899 7.3618C22.5179 7.3618 19.7315 6.29461 17.8701 4.4486Z" fill="#0D0D0D"/>
<path d="M25.8587 13.7873C25.5188 13.4191 24.9522 13.3908 24.584 13.7307L15.038 22.3136L10.3642 19.3393C10.1942 19.226 9.96759 19.2543 9.82596 19.3676C9.62767 19.5376 9.59936 19.8208 9.76932 20.0191L14.2165 25.2878C14.2449 25.3162 14.2732 25.3728 14.3299 25.4011C14.8397 25.8827 15.6612 25.8544 16.1428 25.3445L16.256 25.2312L25.8587 15.0054C26.142 14.6655 26.1703 14.1272 25.8587 13.7873Z" fill="#0D0D0D"/>
</svg>
