<svg width="23" height="26" viewBox="0 0 23 26" fill="none" xmlns="http://www.w3.org/2000/svg">
<path d="M17.0152 3.33441C14.8561 3.33441 12.9915 2.39226 12.0689 0.998674C11.9119 0.763137 11.5586 0.763137 11.4016 0.998674C10.4791 2.39226 8.61441 3.33441 6.45533 3.33441C4.55141 3.33441 2.88303 2.58855 1.86238 1.46975C1.62684 1.19496 1.15576 1.3716 1.15576 1.74454V16.9759C1.15576 18.2125 1.72497 19.3509 2.62786 19.9397L10.5772 25.043C11.2838 25.4944 12.1867 25.4944 12.8737 25.043L20.823 19.9397C21.7259 19.3509 22.2952 18.2125 22.2952 16.9759V1.74454C22.2952 1.3716 21.8437 1.19496 21.5885 1.46975C20.6071 2.58855 18.9191 3.33441 17.0152 3.33441Z" fill="white"/>
<path fill-rule="evenodd" clip-rule="evenodd" d="M10.9933 0.72646C11.3445 0.199579 12.126 0.199579 12.4772 0.72646L12.4781 0.72779C13.2923 1.9577 14.9863 2.84369 17.0152 2.84369C18.8003 2.84369 20.3453 2.14289 21.2196 1.14614C21.2227 1.14266 21.2258 1.13922 21.2289 1.13583C21.7845 0.53751 22.7858 0.921124 22.7858 1.74451V16.9759C22.7858 18.3516 22.1538 19.6576 21.0911 20.3507L21.0881 20.3526L13.1409 25.4546C12.2883 26.0135 11.1776 26.0089 10.313 25.4565L2.36275 20.3526L2.35979 20.3507C1.29706 19.6576 0.665039 18.3516 0.665039 16.9759V1.74451C0.665039 0.941084 1.68118 0.516013 2.229 1.14353C3.14744 2.14735 4.67693 2.84369 6.4553 2.84369C8.48414 2.84369 10.1782 1.95771 10.9924 0.727791L10.9933 0.72646ZM11.7352 1.38002C10.6826 2.87385 8.69001 3.82509 6.4553 3.82509C4.51448 3.82509 2.77673 3.09766 1.64644 1.95475V16.9759C1.64644 18.0725 2.15218 19.0428 2.89445 19.5277C2.89493 19.528 2.89541 19.5284 2.89589 19.5287L10.8414 24.6295C10.8415 24.6295 10.8416 24.6296 10.8417 24.6297C11.3895 24.9795 12.0831 24.9753 12.6042 24.6329L12.6086 24.63L20.555 19.5287C20.5554 19.5284 20.5559 19.5281 20.5564 19.5277C21.2987 19.0428 21.8044 18.0726 21.8044 16.9759V1.95968C20.7021 3.10442 18.9459 3.82509 17.0152 3.82509C14.7805 3.82509 12.7879 2.87385 11.7352 1.38002Z" fill="#BC2FFF"/>
<path d="M11.7353 0.822021C11.5979 0.822021 11.4801 0.88091 11.4016 0.998678C10.4791 2.39227 8.61441 3.33442 6.45533 3.33442C4.55141 3.33442 2.88303 2.58855 1.86238 1.46976C1.78387 1.37162 1.6661 1.33236 1.56796 1.33236C1.37168 1.33236 1.15576 1.48938 1.15576 1.74454V16.9759C1.15576 18.2125 1.72497 19.3509 2.62786 19.9397L10.5772 25.043C10.9305 25.2589 11.3231 25.3767 11.7353 25.3767C12.1278 25.3767 12.54 25.2589 12.8933 25.043L20.8427 19.9397C21.7456 19.3509 22.3148 18.2125 22.3148 16.9759V1.74454C22.3148 1.509 22.1185 1.33236 21.9026 1.33236C21.8044 1.33236 21.6867 1.37162 21.6082 1.46976C20.6071 2.58855 18.9191 3.33442 17.0152 3.33442C14.8561 3.33442 12.9915 2.39227 12.0689 0.998678C11.9904 0.88091 11.8727 0.822021 11.7353 0.822021Z" fill="white"/>
<path fill-rule="evenodd" clip-rule="evenodd" d="M10.9933 0.726465C11.1671 0.465767 11.4416 0.331299 11.7352 0.331299C12.0288 0.331299 12.3034 0.465767 12.4772 0.726465L12.4781 0.727794C13.2923 1.95771 14.9864 2.84369 17.0152 2.84369C18.7945 2.84369 20.3389 2.14713 21.2355 1.15024C21.4253 0.922265 21.692 0.841634 21.9026 0.841634C22.3742 0.841634 22.8055 1.22293 22.8055 1.74452V16.9759C22.8055 18.3516 22.1734 19.6576 21.1107 20.3507L21.1077 20.3526L13.1584 25.4559C13.1553 25.4579 13.1523 25.4598 13.1492 25.4617C12.7222 25.7226 12.2219 25.8674 11.7352 25.8674C11.2267 25.8674 10.7463 25.7214 10.3213 25.4617C10.3182 25.4598 10.3151 25.4579 10.3121 25.4559L2.36275 20.3526L2.35979 20.3507C1.29706 19.6576 0.665039 18.3516 0.665039 16.9759V1.74452C0.665039 1.174 1.14723 0.841634 1.56794 0.841634C1.77782 0.841634 2.04348 0.921742 2.2331 1.14802C3.15199 2.14943 4.67958 2.84369 6.4553 2.84369C8.48414 2.84369 10.1782 1.95771 10.9924 0.727796L10.9933 0.726465ZM11.7352 1.38002C10.6826 2.87385 8.69001 3.8251 6.4553 3.8251C4.51448 3.8251 2.77673 3.09767 1.64644 1.95475V16.9759C1.64644 18.0725 2.15218 19.0428 2.89445 19.5277C2.89493 19.528 2.89541 19.5284 2.89589 19.5287L10.8375 24.627C11.1178 24.7973 11.421 24.886 11.7352 24.886C12.0321 24.886 12.3545 24.7961 12.633 24.6269L20.5746 19.5287C20.5751 19.5284 20.5755 19.5281 20.576 19.5278C21.3183 19.0428 21.8241 18.0726 21.8241 16.9759V1.95713C20.7066 3.10147 18.9503 3.8251 17.0152 3.8251C14.7805 3.8251 12.7879 2.87385 11.7352 1.38002Z" fill="#BC2FFF"/>
<path d="M17.2705 9.0655C17.0349 8.81034 16.6424 8.79072 16.3872 9.02626L9.77257 14.9735L6.53395 12.9126C6.41618 12.8341 6.25915 12.8537 6.16101 12.9322C6.02362 13.05 6.004 13.2463 6.12177 13.3837L9.20336 17.0345C9.22298 17.0541 9.24262 17.0934 9.28187 17.113C9.63518 17.4467 10.2044 17.427 10.5381 17.0737L10.6166 16.9952L17.2705 9.90952C17.4668 9.67398 17.4864 9.30104 17.2705 9.0655Z" fill="#BC2FFF"/>
</svg>
