<svg width="27" height="23" viewBox="0 0 27 23" fill="none" xmlns="http://www.w3.org/2000/svg">
<path d="M24.5559 22.1995H2.16155C1.91653 22.1995 1.76953 22.0035 1.76953 21.8075V3.03936C1.76953 2.79435 1.96554 2.64734 2.16155 2.64734H24.5559C24.8009 2.64734 24.9479 2.84335 24.9479 3.03936V21.8075C24.9969 22.0035 24.8009 22.1995 24.5559 22.1995Z" fill="white"/>
<path d="M23.2033 8.18472C22.6711 8.18472 22.1389 7.9397 21.8002 7.54768C21.4615 7.9397 20.9777 8.18472 20.3971 8.18472C19.8649 8.18472 19.3327 7.9397 18.994 7.54768C18.6553 7.9397 18.1715 8.18472 17.5909 8.18472C17.0586 8.18472 16.5264 7.9397 16.1878 7.54768C15.8491 7.9397 15.3652 8.18472 14.7846 8.18472C14.2524 8.18472 13.7202 7.9397 13.3815 7.54768C13.0428 7.9397 12.559 8.18472 11.9784 8.18472C11.4462 8.18472 10.914 7.9397 10.5753 7.54768C10.2366 7.9397 9.75278 8.18472 9.17218 8.18472C8.59158 8.18472 8.10774 7.9397 7.76906 7.54768C7.43037 7.9397 6.94653 8.18472 6.36593 8.18472C5.78533 8.18472 5.30151 7.9397 4.96283 7.54768C4.62415 7.9397 4.1403 8.18472 3.5597 8.18472C2.59204 8.18472 1.76953 7.35167 1.76953 6.37161V2.99041C1.76953 2.7454 1.96306 2.59839 2.15659 2.59839H24.2677C24.5097 2.59839 24.6548 2.7944 24.6548 2.99041V6.37161C24.9935 7.40067 24.171 8.18472 23.2033 8.18472Z" fill="white"/>
<path d="M5.15854 6.78804C4.91663 6.78804 4.77148 6.59203 4.77148 6.39601V4.3869C4.77148 4.14188 4.96501 3.99487 5.15854 3.99487C5.40046 3.99487 5.54561 4.19088 5.54561 4.3869V6.39601C5.54561 6.59203 5.35208 6.78804 5.15854 6.78804Z" fill="white"/>
<path d="M7.86655 6.78804C7.62464 6.78804 7.47949 6.59203 7.47949 6.39601V4.3869C7.47949 4.14188 7.67302 3.99487 7.86655 3.99487C8.06009 3.99487 8.25361 4.19088 8.25361 4.3869V6.39601C8.25361 6.59203 8.10847 6.78804 7.86655 6.78804Z" fill="white"/>
<path d="M10.5741 6.78816C10.3322 6.78816 10.187 6.59215 10.187 6.39614V4.38702C10.187 4.142 10.3805 3.995 10.5741 3.995C10.7676 3.995 10.9611 4.19101 10.9611 4.38702V6.39614C10.9611 6.59215 10.816 6.78816 10.5741 6.78816Z" fill="white"/>
<path d="M13.2846 6.78804C13.0426 6.78804 12.8975 6.59203 12.8975 6.39601V4.3869C12.8975 4.14188 13.091 3.99487 13.2846 3.99487C13.5265 3.99487 13.6716 4.19088 13.6716 4.3869V6.39601C13.6716 6.59203 13.5265 6.78804 13.2846 6.78804Z" fill="white"/>
<path d="M15.9945 6.78804C15.7526 6.78804 15.6074 6.59203 15.6074 6.39601V4.3869C15.6074 4.14188 15.8009 3.99487 15.9945 3.99487C16.188 3.99487 16.3816 4.19088 16.3816 4.3869V6.39601C16.43 6.59203 16.2364 6.78804 15.9945 6.78804Z" fill="white"/>
<path d="M18.7123 6.78804C18.4703 6.78804 18.3252 6.59203 18.3252 6.39601V4.3869C18.3252 4.14188 18.5187 3.99487 18.7123 3.99487C18.9542 3.99487 19.0993 4.19088 19.0993 4.3869V6.39601C19.1477 6.59203 18.9542 6.78804 18.7123 6.78804Z" fill="white"/>
<path d="M21.7992 6.78804C21.5573 6.78804 21.4121 6.59203 21.4121 6.39601V4.3869C21.4121 4.14188 21.6056 3.99487 21.7992 3.99487C22.0411 3.99487 22.1862 4.19088 22.1862 4.3869V6.39601C22.2346 6.59203 22.0411 6.78804 21.7992 6.78804Z" fill="white"/>
<path d="M10.3453 22.1994H4.41596C4.17094 22.1994 4.02393 22.0034 4.02393 21.8074V10.9288C4.02393 10.6838 4.21995 10.5367 4.41596 10.5367H10.3453C10.5903 10.5367 10.7373 10.7328 10.7373 10.9288V21.7584C10.7863 22.0034 10.5903 22.1994 10.3453 22.1994Z" fill="white"/>
<path d="M22.1547 17.2991H12.6972C12.4522 17.2991 12.3052 17.1031 12.3052 16.9071V10.9288C12.3052 10.6838 12.5012 10.5367 12.6972 10.5367H22.1547C22.3998 10.5367 22.5468 10.7328 22.5468 10.9288V16.8581C22.5958 17.1031 22.3998 17.2991 22.1547 17.2991Z" fill="white"/>
<path d="M24.7518 3.43149H2.06351C1.23046 3.43149 0.544434 2.74545 0.544434 1.9124C0.544434 1.07935 1.23046 0.393311 2.06351 0.393311H24.7518C25.5849 0.393311 26.271 1.07935 26.271 1.9124C26.271 2.74545 25.5849 3.43149 24.7518 3.43149Z" fill="white"/>
<path d="M24.5559 22.1995H2.16155C1.91653 22.1995 1.76953 22.0035 1.76953 21.8075V3.03936C1.76953 2.79435 1.96554 2.64734 2.16155 2.64734H24.5559C24.8009 2.64734 24.9479 2.84335 24.9479 3.03936V21.8075C24.9969 22.0035 24.8009 22.1995 24.5559 22.1995ZM2.60257 21.3664H24.1639V3.43139H2.60257V21.3664Z" fill="#6D6D6D"/>
<path d="M23.2033 8.18472C22.6711 8.18472 22.1389 7.9397 21.8002 7.54768C21.4615 7.9397 20.9777 8.18472 20.3971 8.18472C19.8649 8.18472 19.3327 7.9397 18.994 7.54768C18.6553 7.9397 18.1715 8.18472 17.5909 8.18472C17.0586 8.18472 16.5264 7.9397 16.1878 7.54768C15.8491 7.9397 15.3652 8.18472 14.7846 8.18472C14.2524 8.18472 13.7202 7.9397 13.3815 7.54768C13.0428 7.9397 12.559 8.18472 11.9784 8.18472C11.4462 8.18472 10.914 7.9397 10.5753 7.54768C10.2366 7.9397 9.75278 8.18472 9.17218 8.18472C8.59158 8.18472 8.10774 7.9397 7.76906 7.54768C7.43037 7.9397 6.94653 8.18472 6.36593 8.18472C5.78533 8.18472 5.30151 7.9397 4.96283 7.54768C4.62415 7.9397 4.1403 8.18472 3.5597 8.18472C2.59204 8.18472 1.76953 7.35167 1.76953 6.37161V2.99041C1.76953 2.7454 1.96306 2.59839 2.15659 2.59839H24.2677C24.5097 2.59839 24.6548 2.7944 24.6548 2.99041V6.37161C24.9935 7.40067 24.171 8.18472 23.2033 8.18472ZM21.8002 5.97959C22.0421 5.97959 22.1873 6.1756 22.1873 6.37161C22.1873 6.91064 22.6227 7.35167 23.1549 7.35167C23.6872 7.35167 24.1226 6.91064 24.1226 6.37161V3.43144H2.83395V6.37161C2.83395 6.91064 3.2694 7.35167 3.80162 7.35167C4.33384 7.35167 4.76929 6.91064 4.76929 6.37161C4.76929 6.1266 4.96283 5.97959 5.15636 5.97959C5.39828 5.97959 5.54344 6.1756 5.54344 6.37161C5.54344 6.91064 5.97889 7.35167 6.5111 7.35167C7.04332 7.35167 7.47877 6.91064 7.47877 6.37161C7.47877 6.1266 7.6723 5.97959 7.86583 5.97959C8.05936 5.97959 8.25289 6.1756 8.25289 6.37161C8.25289 6.91064 8.68834 7.35167 9.22056 7.35167C9.75277 7.35167 10.1882 6.91064 10.1882 6.37161C10.1882 6.1266 10.3817 5.97959 10.5753 5.97959C10.7688 5.97959 10.9623 6.1756 10.9623 6.37161C10.9623 6.91064 11.3978 7.35167 11.93 7.35167C12.4622 7.35167 12.8977 6.91064 12.8977 6.37161C12.8977 6.1266 13.0912 5.97959 13.2848 5.97959C13.5267 5.97959 13.6718 6.1756 13.6718 6.37161C13.6718 6.91064 14.1073 7.35167 14.6395 7.35167C15.1717 7.35167 15.6072 6.91064 15.6072 6.37161C15.6072 6.1266 15.8007 5.97959 15.9942 5.97959C16.1877 5.97959 16.3813 6.1756 16.3813 6.37161C16.3813 6.91064 16.8167 7.35167 17.3489 7.35167C17.8812 7.35167 18.3166 6.91064 18.3166 6.37161C18.3166 6.1266 18.5101 5.97959 18.7037 5.97959C18.9456 5.97959 19.0908 6.1756 19.0908 6.37161C19.0908 6.91064 19.8649 7.35167 20.3971 7.35167C20.9293 7.35167 21.4417 6.6757 21.4417 6.37161C21.4417 6.19591 21.6067 5.97959 21.8002 5.97959Z" fill="#6D6D6D"/>
<path d="M5.15854 6.78804C4.91663 6.78804 4.77148 6.59203 4.77148 6.39601V4.3869C4.77148 4.14188 4.96501 3.99487 5.15854 3.99487C5.40046 3.99487 5.54561 4.19088 5.54561 4.3869V6.39601C5.54561 6.59203 5.35208 6.78804 5.15854 6.78804Z" fill="#6D6D6D"/>
<path d="M7.86655 6.78804C7.62464 6.78804 7.47949 6.59203 7.47949 6.39601V4.3869C7.47949 4.14188 7.67302 3.99487 7.86655 3.99487C8.06009 3.99487 8.25361 4.19088 8.25361 4.3869V6.39601C8.25361 6.59203 8.10847 6.78804 7.86655 6.78804Z" fill="#6D6D6D"/>
<path d="M10.5741 6.78816C10.3322 6.78816 10.187 6.59215 10.187 6.39614V4.38702C10.187 4.142 10.3805 3.995 10.5741 3.995C10.7676 3.995 10.9611 4.19101 10.9611 4.38702V6.39614C10.9611 6.59215 10.816 6.78816 10.5741 6.78816Z" fill="#6D6D6D"/>
<path d="M13.2846 6.78804C13.0426 6.78804 12.8975 6.59203 12.8975 6.39601V4.3869C12.8975 4.14188 13.091 3.99487 13.2846 3.99487C13.5265 3.99487 13.6716 4.19088 13.6716 4.3869V6.39601C13.6716 6.59203 13.5265 6.78804 13.2846 6.78804Z" fill="#6D6D6D"/>
<path d="M15.9945 6.78804C15.7526 6.78804 15.6074 6.59203 15.6074 6.39601V4.3869C15.6074 4.14188 15.8009 3.99487 15.9945 3.99487C16.188 3.99487 16.3816 4.19088 16.3816 4.3869V6.39601C16.43 6.59203 16.2364 6.78804 15.9945 6.78804Z" fill="#6D6D6D"/>
<path d="M18.7123 6.78804C18.4703 6.78804 18.3252 6.59203 18.3252 6.39601V4.3869C18.3252 4.14188 18.5187 3.99487 18.7123 3.99487C18.9542 3.99487 19.0993 4.19088 19.0993 4.3869V6.39601C19.1477 6.59203 18.9542 6.78804 18.7123 6.78804Z" fill="#6D6D6D"/>
<path d="M21.7992 6.78804C21.5573 6.78804 21.4121 6.59203 21.4121 6.39601V4.3869C21.4121 4.14188 21.6056 3.99487 21.7992 3.99487C22.0411 3.99487 22.1862 4.19088 22.1862 4.3869V6.39601C22.2346 6.59203 22.0411 6.78804 21.7992 6.78804Z" fill="#6D6D6D"/>
<path d="M10.3453 22.1994H4.41596C4.17094 22.1994 4.02393 22.0034 4.02393 21.8074V10.9288C4.02393 10.6838 4.21995 10.5367 4.41596 10.5367H10.3453C10.5903 10.5367 10.7373 10.7328 10.7373 10.9288V21.7584C10.7863 22.0034 10.5903 22.1994 10.3453 22.1994ZM4.80798 21.3664H9.95329V11.3698H4.80798V21.3664Z" fill="#6D6D6D"/>
<path d="M22.1547 17.2991H12.6972C12.4522 17.2991 12.3052 17.1031 12.3052 16.9071V10.9288C12.3052 10.6838 12.5012 10.5367 12.6972 10.5367H22.1547C22.3998 10.5367 22.5468 10.7328 22.5468 10.9288V16.8581C22.5958 17.1031 22.3998 17.2991 22.1547 17.2991ZM13.0892 16.4661H21.7627V11.3698H13.1382V16.4661H13.0892Z" fill="#6D6D6D"/>
<path d="M24.7518 3.43149H2.06351C1.23046 3.43149 0.544434 2.74545 0.544434 1.9124C0.544434 1.07935 1.23046 0.393311 2.06351 0.393311H24.7518C25.5849 0.393311 26.271 1.07935 26.271 1.9124C26.271 2.74545 25.5849 3.43149 24.7518 3.43149ZM2.01452 1.22636C1.6225 1.22636 1.32847 1.52038 1.32847 1.9124C1.32847 2.30442 1.6225 2.59844 2.01452 2.59844H24.7029C25.0949 2.59844 25.3889 2.30442 25.3889 1.9124C25.3889 1.52038 25.0949 1.22636 24.7029 1.22636H2.01452Z" fill="#6D6D6D"/>
</svg>
