<svg width="15" height="14" viewBox="0 0 15 14" fill="none" xmlns="http://www.w3.org/2000/svg">
<path d="M0.722713 7.89799C0.239743 7.73542 0.14164 7.0937 0.609517 6.87124L12.7441 1.01881C13.6874 0.556772 14.3515 1.13005 14.2534 1.88299C13.7704 5.52793 13.295 9.17286 12.8121 12.8178C12.6838 13.8103 11.6801 14.3066 10.9481 13.7333C9.42372 12.5354 7.6503 11.1493 6.66927 10.3793C6.27686 10.0713 6.23159 9.44666 6.57118 9.07019C7.49184 8.052 9.22751 6.1183 10.7142 4.46696C10.8802 4.28728 10.6689 3.99636 10.4802 4.14182C8.61624 5.58781 6.40515 7.29906 5.1449 8.26591C4.50345 8.76217 3.70354 8.89906 2.96399 8.65093L0.722713 7.89799Z" fill="white"/>
</svg>
