<svg width="18" height="14" viewBox="0 0 18 14" fill="none" xmlns="http://www.w3.org/2000/svg">
<path d="M15.9884 2.91536C16.7928 2.42202 17.1733 2.12279 17.476 1.10375C17.476 1.10375 16.0144 1.88016 15.236 1.88016C15.2273 1.88016 15.2101 1.88016 15.2014 1.88016C14.5614 1.24933 13.6533 0.853027 12.6414 0.853027C10.6955 0.853027 9.12145 2.32497 9.12145 4.14468C9.12145 4.37922 9.14743 4.60568 9.19932 4.82404C9.18202 4.83213 9.17337 4.84021 9.15608 4.84021C5.30747 4.99388 2.0037 1.44343 2.0037 1.44343C0.810196 3.74839 2.14209 5.18798 3.0156 5.8916C2.54857 5.83499 2.05557 5.75411 1.51071 5.50339C1.51071 6.23127 1.66639 7.96203 4.23501 8.74652C3.75934 8.85975 3.27503 8.80313 2.73017 8.79504C2.73017 8.79504 3.11071 10.8816 5.93879 11.0838C4.64151 12.022 3.24908 12.5639 0.870728 12.4506C2.72152 13.4535 6.23286 14.974 10.5831 13.0572L11.3096 12.669C14.1722 11.1324 15.9971 8.33405 16.1528 5.24459L16.2133 4.07189C16.8965 3.805 17.7008 2.85875 17.943 2.47054C17.2338 2.71317 16.7582 2.83449 15.9884 2.91536Z" fill="white"/>
</svg>
