<svg width="20" height="8" viewBox="0 0 20 8" fill="none" xmlns="http://www.w3.org/2000/svg">
<path d="M6.32419 0.239014L2.96678 7.02896H1.8633L0.172852 0.239014H1.15425C1.26068 0.239014 1.34364 0.265623 1.40312 0.318841C1.46573 0.368928 1.50486 0.434667 1.52051 0.516059L2.43147 4.74686C2.46591 4.87834 2.49721 5.02234 2.52539 5.17887C2.55356 5.33226 2.5786 5.49348 2.60052 5.66252C2.65373 5.49348 2.71165 5.33226 2.77426 5.17887C2.83687 5.02234 2.90104 4.87834 2.96678 4.74686L4.9014 0.516059C4.9327 0.447189 4.98749 0.38458 5.06575 0.328232C5.14714 0.268754 5.23792 0.239014 5.3381 0.239014H6.32419Z" fill="white"/>
<path d="M7.59591 7.02896H6.37034L7.19678 0.239014H8.42235L7.59591 7.02896Z" fill="white"/>
<path d="M13.2657 1.45989C13.2219 1.5225 13.1781 1.56946 13.1342 1.60076C13.0935 1.62893 13.0419 1.64302 12.9793 1.64302C12.9167 1.64302 12.8525 1.61798 12.7868 1.56789C12.721 1.5178 12.6428 1.46302 12.552 1.40354C12.4612 1.34093 12.3532 1.28458 12.228 1.2345C12.1028 1.18441 11.9525 1.15937 11.7772 1.15937C11.6081 1.15937 11.4579 1.18441 11.3264 1.2345C11.1949 1.28458 11.0838 1.35346 10.993 1.44111C10.9054 1.52876 10.8381 1.63207 10.7911 1.75102C10.7473 1.86998 10.7254 1.99833 10.7254 2.13607C10.7254 2.28007 10.7614 2.40059 10.8334 2.49763C10.9085 2.59155 11.0055 2.6745 11.1245 2.74651C11.2434 2.81851 11.3796 2.88268 11.533 2.93903C11.6864 2.99538 11.8414 3.05485 11.9979 3.11746C12.1575 3.18007 12.3141 3.25207 12.4675 3.33346C12.6208 3.41486 12.757 3.51503 12.876 3.63399C12.9949 3.75295 13.0904 3.89695 13.1624 4.06599C13.2375 4.2319 13.2751 4.43382 13.2751 4.67173C13.2751 5.00356 13.2172 5.31661 13.1014 5.61087C12.9855 5.90513 12.8212 6.16339 12.6083 6.38566C12.3955 6.60479 12.1356 6.78009 11.8288 6.91157C11.5221 7.03992 11.1793 7.10409 10.8005 7.10409C10.6033 7.10409 10.4092 7.08218 10.2182 7.03835C10.0273 6.99766 9.84727 6.93818 9.67822 6.85992C9.50918 6.78166 9.35266 6.68774 9.20866 6.57818C9.06465 6.46861 8.93944 6.34652 8.833 6.21192L9.265 5.62965C9.29944 5.58582 9.34326 5.54982 9.39648 5.52165C9.4497 5.49348 9.50292 5.47939 9.55613 5.47939C9.60622 5.47939 9.65474 5.49504 9.7017 5.52635C9.75179 5.55765 9.80501 5.59678 9.86135 5.64374C9.92083 5.68756 9.98344 5.73765 10.0492 5.794C10.1181 5.84722 10.1947 5.89731 10.2793 5.94426C10.3669 5.98809 10.4655 6.02565 10.5751 6.05696C10.6878 6.08826 10.8146 6.10391 10.9554 6.10391C11.3123 6.10391 11.5909 6.00374 11.7913 5.80339C11.9916 5.60304 12.0918 5.326 12.0918 4.97226C12.0918 4.81573 12.0558 4.68739 11.9838 4.58721C11.9118 4.48704 11.8163 4.40251 11.6974 4.33365C11.5784 4.26478 11.4422 4.2053 11.2888 4.15521C11.1386 4.10199 10.9852 4.04721 10.8287 3.99086C10.6721 3.93138 10.5172 3.86408 10.3638 3.78895C10.2135 3.71068 10.0789 3.61208 9.95996 3.49312C9.84101 3.37103 9.74553 3.22233 9.67353 3.04703C9.60153 2.87172 9.56553 2.65572 9.56553 2.39903C9.56553 2.10789 9.61874 1.82772 9.72518 1.5585C9.83474 1.28928 9.9897 1.05293 10.1901 0.849452C10.3935 0.642842 10.6377 0.478494 10.9226 0.356406C11.2106 0.231188 11.5346 0.168579 11.8946 0.168579C12.0793 0.168579 12.2561 0.187362 12.4252 0.224927C12.5974 0.262493 12.757 0.31571 12.9042 0.38458C13.0513 0.45345 13.1859 0.536407 13.308 0.633451C13.4332 0.727365 13.5412 0.832235 13.632 0.948061L13.2657 1.45989Z" fill="white"/>
<path d="M17.7588 4.47451L17.2986 2.15015C17.2799 2.04372 17.2579 1.92007 17.2329 1.7792C17.2079 1.63833 17.1828 1.48493 17.1578 1.31902C17.0952 1.48493 17.0341 1.63833 16.9746 1.7792C16.9152 1.92007 16.8619 2.04528 16.815 2.15485L15.7866 4.47451H17.7588ZM19.5291 7.02896H18.5853C18.4788 7.02896 18.3959 7.00392 18.3364 6.95383C18.28 6.90061 18.2393 6.83331 18.2143 6.75192L17.9326 5.33382H15.4016L14.7724 6.75192C14.7379 6.82392 14.6816 6.88809 14.6033 6.94444C14.5282 7.00079 14.4405 7.02896 14.3404 7.02896H13.3825L16.6647 0.239014H17.9091L19.5291 7.02896Z" fill="white"/>
</svg>
