<svg width="22" height="14" viewBox="0 0 22 14" fill="none" xmlns="http://www.w3.org/2000/svg">
<path d="M21.5215 1.85291C21.2578 1.6069 20.2321 1.63766 19.2065 1.63766C18.1809 1.63766 17.126 1.63766 16.8915 1.76066C16.6571 1.85291 16.1589 3.11369 15.5143 4.40521C14.7817 5.88124 13.8733 7.26501 13.3165 7.26501C12.5839 7.26501 12.7597 4.83571 12.789 3.08293C12.8183 1.91441 12.6425 1.5454 12.4667 1.4224C12.0857 1.14565 11.0015 0.868895 11.0015 0.868895C11.0015 0.868895 7.77812 0.622888 7.33857 2.06817C7.95394 2.16042 9.00887 1.94516 8.59862 6.4655C8.56931 6.68075 8.10046 8.55654 6.60598 6.03499C6.22503 5.41998 4.78915 1.63766 4.29099 1.63766C2.62068 1.57616 0.979688 1.51465 0.393617 1.85291C-0.133848 2.16041 1.12621 4.77422 3.23607 8.24903C4.96498 11.0781 6.78179 13.3229 9.94657 13.8764C10.5326 13.9379 12.0857 13.9994 12.5839 13.7534C12.9062 13.5689 12.5253 11.1088 13.6388 10.8936C14.137 10.8013 16.071 13.4459 16.8036 13.7534C17.2432 13.9379 18.2102 13.9994 19.2065 13.9686C20.2907 13.9379 21.4922 14.0609 21.6094 13.2921C21.8731 11.6008 18.3567 9.3868 18.2395 8.34128C18.1516 7.60327 19.5289 6.18874 20.2321 5.14322C21.1405 3.8517 22.0783 2.31417 21.5215 1.85291Z" fill="white"/>
</svg>
