<svg width="24" height="23" viewBox="0 0 24 23" fill="none" xmlns="http://www.w3.org/2000/svg">
<path fill-rule="evenodd" clip-rule="evenodd" d="M11.9594 21.6665C17.5096 21.6665 22.0089 17.1672 22.0089 11.617C22.0089 6.06678 17.5096 1.56746 11.9594 1.56746C6.40918 1.56746 1.90986 6.06678 1.90986 11.617C1.90986 17.1672 6.40918 21.6665 11.9594 21.6665ZM11.9594 22.8508C18.1636 22.8508 23.1932 17.8212 23.1932 11.617C23.1932 5.41272 18.1636 0.383179 11.9594 0.383179C5.75513 0.383179 0.725586 5.41272 0.725586 11.617C0.725586 17.8212 5.75513 22.8508 11.9594 22.8508Z" fill="white"/>
<path d="M14.9687 5.10587C13.2417 4.70723 13.3854 2.64707 13.4324 1.46814C18.5359 2.48993 20.6106 5.72397 21.3155 7.4074C20.5959 7.4074 19.1481 7.23882 18.5955 6.6009C17.9047 5.80351 17.1275 5.60416 14.9687 5.10587Z" fill="white"/>
<path fill-rule="evenodd" clip-rule="evenodd" d="M12.8683 0.751099L13.5486 0.8873C18.8935 1.9574 21.1021 5.36447 21.8617 7.17847L22.2054 7.99931H21.3155C20.9189 7.99931 20.3308 7.95373 19.758 7.81971C19.2132 7.69226 18.5535 7.45649 18.1479 6.9884C17.6083 6.36553 17.0505 6.19386 14.8356 5.68261C13.6829 5.41654 13.1674 4.56796 12.9601 3.71998C12.7763 2.96794 12.8115 2.1359 12.8355 1.57113C12.8373 1.52719 12.8391 1.48488 12.8407 1.44434L12.8683 0.751099ZM14.0012 2.20399C13.9964 2.62259 14.0158 3.05107 14.1105 3.4388C14.2514 4.01529 14.5276 4.3961 15.1019 4.52867L15.1258 4.53418C17.2122 5.01576 18.2042 5.24473 19.043 6.21295C19.1902 6.38278 19.5306 6.55026 20.0278 6.66657C20.1227 6.68879 20.2188 6.7081 20.3143 6.72476C19.4249 5.19197 17.5792 3.11493 14.0012 2.20399Z" fill="white"/>
<path d="M6.46562 13.4966C6.60881 10.8302 10.4997 9.48776 10.936 8.83487C12.2852 6.81609 7.44128 4.52146 7.51568 2.22119C-2.73025 8.45989 3.09454 17.9142 6.23589 20.4693C6.57002 19.9931 7.47755 18.658 7.51573 17.7819C7.56347 16.6867 6.32242 16.163 6.46562 13.4966Z" fill="white"/>
<path fill-rule="evenodd" clip-rule="evenodd" d="M8.14321 1.146L8.10782 2.24032C8.09587 2.60964 8.28364 3.0477 8.68448 3.58851C9.00593 4.02221 9.40865 4.45163 9.83447 4.90568C9.93472 5.01258 10.0363 5.12085 10.1383 5.23086C10.649 5.7813 11.1851 6.38822 11.4919 7.01185C11.8149 7.66828 11.9203 8.42828 11.4286 9.16389C11.3071 9.34577 11.1153 9.49221 10.9655 9.59759C10.7983 9.71521 10.5936 9.84131 10.3805 9.97028C10.3282 10.002 10.2748 10.0342 10.2206 10.0669C9.82182 10.3073 9.37592 10.5762 8.93658 10.8916C7.91137 11.6278 7.11316 12.4865 7.05721 13.5284C6.99166 14.749 7.23949 15.4485 7.48975 15.9738C7.54908 16.0983 7.60888 16.2136 7.6707 16.3328C7.67803 16.347 7.68539 16.3612 7.69279 16.3754C7.76026 16.5057 7.83189 16.6453 7.8942 16.7873C8.02199 17.0786 8.12493 17.4105 8.10762 17.8076C8.08211 18.3928 7.78375 19.05 7.5073 19.5584C7.21752 20.0913 6.89166 20.5661 6.7209 20.8094L6.35573 21.3298L5.86256 20.9286C4.19791 19.5747 1.86666 16.4498 1.27154 12.8225C0.971394 10.993 1.11126 9.02248 2.01564 7.0937C2.9198 5.16539 4.56713 3.32346 7.20803 1.71542L8.14321 1.146ZM6.12252 19.5751C4.69697 18.1964 2.92422 15.5809 2.44019 12.6307C2.17221 10.9973 2.30092 9.27486 3.0879 7.59647C3.79549 6.08738 5.05219 4.57788 7.1018 3.19038C7.25313 3.5882 7.48456 3.95845 7.73304 4.29369C8.09954 4.78817 8.56207 5.2809 8.99061 5.73741C9.08594 5.83896 9.17958 5.93871 9.27011 6.0363C9.7925 6.5994 10.2097 7.08842 10.4293 7.5347C10.6323 7.94716 10.627 8.23066 10.4454 8.50382C10.4464 8.50225 10.4469 8.50141 10.4468 8.5013C10.4458 8.50048 10.4086 8.54139 10.2842 8.62892C10.1545 8.72011 9.98255 8.82683 9.76722 8.95719C9.71712 8.98752 9.66507 9.01889 9.61132 9.05128C9.2151 9.29005 8.72663 9.58442 8.24581 9.9297C7.1807 10.6946 5.96188 11.8403 5.87464 13.4649C5.79699 14.9106 6.09809 15.8062 6.42061 16.4831C6.4891 16.6269 6.5583 16.7603 6.61929 16.8779C6.62672 16.8922 6.63403 16.9063 6.6412 16.9201C6.70947 17.0519 6.76463 17.1604 6.80972 17.2632C6.89672 17.4614 6.93102 17.6056 6.92446 17.7561C6.91178 18.047 6.73729 18.4954 6.46689 18.9927C6.35463 19.1991 6.23513 19.3976 6.12252 19.5751Z" fill="white"/>
<path d="M17.4917 8.49285C16.0929 8.14307 15.0121 10.8452 14.5701 11.6854C13.9775 12.4916 10.8505 13.3375 11.5232 14.1341C13.3153 16.256 13.2854 16.8835 13.8973 19.0214C14.3911 20.7468 16.1741 17.5371 16.9902 16.2549C17.8062 14.9727 19.7425 13.6526 19.7134 12.4286C19.6844 11.2046 19.2402 8.93008 17.4917 8.49285Z" fill="white"/>
<path fill-rule="evenodd" clip-rule="evenodd" d="M18.975 10.2825C18.6611 9.55136 18.1691 8.96756 17.4196 8.78013C17.1789 8.71994 16.9372 8.78302 16.6787 8.96714C16.4153 9.15487 16.1585 9.45314 15.9168 9.80923C15.5584 10.3371 15.2696 10.9318 15.0474 11.3894C14.9668 11.5553 14.895 11.7032 14.8318 11.8233L14.8215 11.8429L14.8084 11.8608C14.6171 12.121 14.2544 12.3524 13.8939 12.5544C13.6737 12.6778 13.4231 12.8064 13.1782 12.932C13.0165 13.015 12.8574 13.0967 12.7112 13.1746C12.3223 13.3822 12.0126 13.5701 11.8392 13.7402C11.7526 13.8251 11.7298 13.8776 11.7255 13.8971C11.7243 13.9026 11.7247 13.904 11.725 13.9049C11.725 13.9049 11.725 13.905 11.7251 13.9051C11.7256 13.9072 11.7296 13.9199 11.7491 13.9431C12.6547 15.0153 13.1158 15.7285 13.425 16.456C13.6439 16.9709 13.7858 17.4948 13.9606 18.1403C14.0275 18.387 14.0991 18.6515 14.1817 18.94C14.2362 19.1306 14.2944 19.1972 14.3184 19.2156C14.3188 19.2159 14.3192 19.2163 14.3197 19.2167C14.3253 19.2214 14.3359 19.2304 14.3851 19.2149C14.452 19.1939 14.5512 19.1357 14.6814 19.0206C14.8079 18.9087 14.9465 18.7587 15.0932 18.5789C15.5519 18.0167 16.0326 17.2377 16.4213 16.6078C16.5367 16.4209 16.6439 16.2471 16.7401 16.096C16.9584 15.7529 17.2467 15.4146 17.5453 15.0884C17.6849 14.9359 17.8291 14.7835 17.9712 14.6334C17.9817 14.6223 17.9923 14.6111 18.0028 14.6C18.1557 14.4384 18.3058 14.2793 18.4489 14.1213C18.7368 13.8033 18.986 13.5006 19.161 13.2099C19.3367 12.918 19.4225 12.6628 19.4171 12.4357C19.4032 11.8482 19.2889 11.0137 18.975 10.2825ZM19.5191 10.0489C19.8717 10.8703 19.994 11.7851 20.0091 12.4216C20.0183 12.8065 19.873 13.1753 19.6683 13.5153C19.4629 13.8564 19.1825 14.1933 18.8879 14.5187C18.7398 14.6822 18.5855 14.8457 18.4329 15.007L18.402 15.0396C18.2592 15.1905 18.1182 15.3395 17.9821 15.4882C17.6891 15.8083 17.4294 16.1158 17.2396 16.4139C17.1523 16.5512 17.0516 16.7144 16.9411 16.8935C16.5511 17.5258 16.0384 18.3571 15.552 18.9532C15.394 19.1469 15.2329 19.3234 15.0736 19.4642C14.9179 19.6019 14.745 19.7226 14.5626 19.7799C14.3665 19.8415 14.1479 19.8311 13.9581 19.6855C13.7868 19.5542 13.6813 19.3437 13.6124 19.1029C13.5222 18.788 13.4468 18.5095 13.3783 18.2567C13.2089 17.6311 13.082 17.1627 12.8801 16.6876C12.6033 16.0364 12.1832 15.3748 11.2967 14.3252L11.518 14.1383L11.2967 14.3252C11.1614 14.1649 11.1025 13.9724 11.1473 13.7695C11.1875 13.5871 11.3033 13.4365 11.4245 13.3175C11.6668 13.0798 12.0497 12.8565 12.4325 12.6522C12.5988 12.5635 12.7646 12.4785 12.9276 12.395C13.1609 12.2755 13.3886 12.1588 13.6044 12.0379C13.9621 11.8374 14.2076 11.6661 14.319 11.526C14.3676 11.4323 14.4266 11.311 14.4948 11.1705C14.7183 10.71 15.0414 10.0443 15.4269 9.47661C15.6854 9.09587 15.9887 8.73169 16.3351 8.48489C16.6866 8.23449 17.1045 8.09098 17.5632 8.20568C18.5622 8.45548 19.1665 9.22755 19.5191 10.0489Z" fill="white"/>
</svg>
