<svg width="31" height="30" viewBox="0 0 31 30" fill="none" xmlns="http://www.w3.org/2000/svg">
<path fill-rule="evenodd" clip-rule="evenodd" d="M22.9052 7.25525C24.2052 6.65515 25.4052 5.9552 26.6052 5.05518C24.3052 2.4552 21.2052 0.655151 17.8052 0.0551758C20.0052 2.05518 21.8051 4.55518 22.9052 7.25525ZM21.7051 7.75525C20.5051 4.75525 18.5052 2.15515 15.9052 0.155151V8.8551C17.9052 8.75513 19.8051 8.4552 21.7051 7.75525ZM22.2051 8.8551C20.2051 9.65515 18.0052 10.0552 15.9052 10.0552V14.6552H23.1052C23.1052 12.6552 22.8051 10.7551 22.2051 8.8551ZM23.1052 15.9552H15.9052V20.5552C18.0052 20.5552 20.0052 20.9552 21.9052 21.5552C22.6051 19.7551 23.0052 17.8551 23.1052 15.9552ZM7.50513 6.9552C8.60513 4.3551 10.3051 1.9552 12.5051 0.0551758C9.30513 0.755127 6.30513 2.35522 4.00513 4.75525C5.10513 5.65515 6.30513 6.3551 7.50513 6.9552ZM7.10516 8.25525C5.80516 7.55518 4.50517 6.75513 3.30518 5.8551C1.30518 8.4552 0.305176 11.4552 0.305176 14.7552H6.00513C6.00513 12.5552 6.40517 10.3552 7.10516 8.25525ZM0.405151 15.9552C0.605148 19.0552 1.80518 21.9552 3.80518 24.3551C4.90518 23.5552 6.10513 22.8552 7.50513 22.2552C6.70512 20.2552 6.20517 18.1552 6.10516 15.9552H0.405151ZM7.90515 23.3551C6.70515 23.8551 5.60516 24.5552 4.60516 25.2552C6.80516 27.4552 9.50513 28.9552 12.5051 29.4552C10.6051 27.7551 9.00516 25.6552 7.90515 23.3551ZM9.10516 22.9552C10.3052 25.5552 12.2052 27.8551 14.6052 29.6552V21.8551C12.7052 21.9552 10.9052 22.3551 9.10516 22.9552ZM8.50513 21.7552C10.5051 21.0552 12.5052 20.6552 14.6052 20.5552H14.5051V15.9552H7.20514C7.30515 17.9552 7.80513 19.9552 8.50513 21.7552ZM7.20514 14.7552H14.6052V10.1552C12.4052 10.0552 10.2051 9.55518 8.20514 8.75525C7.50514 10.6552 7.20514 12.6552 7.20514 14.7552ZM8.70514 7.55518C10.6051 8.35522 12.6052 8.75513 14.6052 8.8551V0.0551758C12.0052 1.9552 10.0051 4.55518 8.70514 7.55518ZM15.9052 21.7552V29.4552C18.2052 27.6552 20.1051 25.3551 21.4052 22.6552C19.6051 22.0552 17.8051 21.7552 15.9052 21.7552ZM22.6052 23.1552C21.4052 25.5552 19.8052 27.7551 17.8052 29.5552C20.9052 29.0552 23.9051 27.4552 26.2051 25.0552C25.1051 24.3552 23.9052 23.6552 22.6052 23.1552ZM23.0051 22.0552C24.4051 22.5552 25.7052 23.2551 26.9052 24.1552C28.8051 21.7551 29.9051 18.9552 30.2051 16.0552H24.3052C24.2052 18.0552 23.7051 20.1552 23.0051 22.0552ZM24.3052 14.6552H30.2051C30.2051 11.5552 29.2052 8.65515 27.4052 6.05518C26.1051 7.05518 24.7052 7.8551 23.3052 8.4552C23.9052 10.4552 24.3052 12.5552 24.3052 14.6552Z" fill="#2F69FF"/>
</svg>
