<svg width="49" height="49" viewBox="0 0 49 49" fill="none" xmlns="http://www.w3.org/2000/svg">
<path d="M0.60364 24.4063C0.60364 21.2838 1.21867 18.1918 2.41362 15.3069C3.60856 12.4221 5.36002 9.80085 7.56799 7.59288C9.77596 5.38491 12.3972 3.63346 15.2821 2.43851C18.1669 1.24357 21.2589 0.628538 24.3814 0.628538C27.504 0.628538 30.5959 1.24357 33.4808 2.43851C36.3656 3.63346 38.9869 5.38492 41.1948 7.59289C43.4028 9.80086 45.1543 12.4221 46.3492 15.307C47.5442 18.1918 48.1592 21.2838 48.1592 24.4063L24.3814 24.4063L0.60364 24.4063Z" fill="#FEDD33"/>
<path d="M48.1591 24.4062C48.1591 27.5287 47.544 30.6207 46.3491 33.5055C45.1541 36.3904 43.4027 39.0116 41.1947 41.2196C38.9867 43.4276 36.3655 45.179 33.4806 46.374C30.5958 47.5689 27.5038 48.184 24.3813 48.184L24.3813 24.4062L48.1591 24.4062Z" fill="black"/>
<path d="M24.3814 48.184C21.2589 48.184 18.1669 47.5689 15.282 46.374C12.3972 45.179 9.77595 43.4276 7.56798 41.2196C5.36001 39.0116 3.60856 36.3904 2.41361 33.5055C1.21866 30.6207 0.603637 27.5287 0.603637 24.4062L24.3814 24.4062L24.3814 48.184Z" fill="#F2F1ED"/>
</svg>
