<svg width="15" height="14" viewBox="0 0 15 14" fill="none" xmlns="http://www.w3.org/2000/svg">
<path d="M7.4763 4.65003C8.77408 4.65003 9.82573 5.62855 9.82573 6.83607C9.82573 8.0436 8.77408 9.02211 7.4763 9.02211C6.17853 9.02211 5.12688 8.0436 5.12688 6.83607C5.12688 5.62855 6.17853 4.65003 7.4763 4.65003ZM7.4763 3.4425C5.46251 3.4425 3.8291 4.96232 3.8291 6.83607C3.8291 8.70982 5.46251 10.2296 7.4763 10.2296C9.4901 10.2296 11.1235 8.70982 11.1235 6.83607C11.116 4.96232 9.48264 3.4425 7.4763 3.4425Z" fill="white"/>
<path d="M10.5789 1.47889C12.0407 1.47889 13.2266 2.58232 13.2266 3.94252V9.72337C13.2266 11.0836 12.0407 12.187 10.5789 12.187H4.36595C2.90409 12.187 1.71819 11.0836 1.71819 9.72337V3.94252C1.71819 2.58232 2.90409 1.47889 4.36595 1.47889H10.5789ZM10.5789 0.271362H4.36595C2.18807 0.271362 0.42041 1.9161 0.42041 3.94252V9.72337C0.42041 11.7498 2.18807 13.3945 4.36595 13.3945H10.5789C12.7568 13.3945 14.5244 11.7498 14.5244 9.72337V3.94252C14.5244 1.92304 12.7568 0.271362 10.5789 0.271362Z" fill="white"/>
<path d="M12.14 3.45656C12.2489 3.02761 11.9634 2.59776 11.5024 2.49648C11.0414 2.39519 10.5794 2.66081 10.4705 3.08977C10.3617 3.51872 10.6472 3.94857 11.1082 4.04985C11.5692 4.15114 12.0312 3.88552 12.14 3.45656Z" fill="white"/>
</svg>
