<svg width="15" height="14" viewBox="0 0 15 14" fill="none" xmlns="http://www.w3.org/2000/svg">
<path d="M1.01715 7.28727C0.534177 7.1247 0.436073 6.48299 0.903951 6.26053L13.0386 0.408089C13.9819 -0.0539457 14.6459 0.519327 14.5478 1.27227C14.0649 4.91721 13.5895 8.56214 13.1065 12.2071C12.9782 13.1996 11.9745 13.6959 11.2425 13.1226C9.71816 11.9247 7.94474 10.5386 6.9637 9.76856C6.57129 9.46054 6.52603 8.83595 6.86561 8.45947C7.78628 7.44129 9.52194 5.50758 11.0086 3.85624C11.1746 3.67656 10.9633 3.38564 10.7746 3.5311C8.91068 4.97709 6.69958 6.68834 5.43933 7.65519C4.79789 8.15145 3.99798 8.28835 3.25843 8.04022L1.01715 7.28727Z" fill="white"/>
</svg>
