<svg width="18" height="14" viewBox="0 0 18 14" fill="none" xmlns="http://www.w3.org/2000/svg">
<path d="M15.2828 2.30464C16.0871 1.8113 16.4676 1.51207 16.7703 0.493033C16.7703 0.493033 15.3087 1.26944 14.5303 1.26944C14.5217 1.26944 14.5044 1.26944 14.4957 1.26944C13.8557 0.638607 12.9476 0.24231 11.9357 0.24231C9.98981 0.24231 8.41576 1.71426 8.41576 3.53396C8.41576 3.7685 8.44174 3.99496 8.49363 4.21332C8.47633 4.22141 8.46768 4.22949 8.45039 4.22949C4.60178 4.38316 1.29801 0.832707 1.29801 0.832707C0.104508 3.13767 1.4364 4.57726 2.30991 5.28088C1.84289 5.22427 1.34988 5.14339 0.805024 4.89267C0.805024 5.62056 0.960698 7.35131 3.52932 8.1358C3.05365 8.24903 2.56934 8.19241 2.02448 8.18433C2.02448 8.18433 2.40503 10.2709 5.23311 10.4731C3.93582 11.4113 2.54339 11.9531 0.165039 11.8399C2.01583 12.8428 5.52717 14.3633 9.8774 12.4465L10.6039 12.0583C13.4665 10.5216 15.2914 7.72333 15.4471 4.63387L15.5076 3.46117C16.1908 3.19428 16.9951 2.24803 17.2373 1.85983C16.5281 2.10245 16.0525 2.22377 15.2828 2.30464Z" fill="white"/>
</svg>
