<svg width="22" height="14" viewBox="0 0 22 14" fill="none" xmlns="http://www.w3.org/2000/svg">
<path d="M21.8162 1.24231C21.5524 0.996308 20.5268 1.02706 19.5012 1.02706C18.4756 1.02706 17.4206 1.02706 17.1862 1.15006C16.9518 1.24232 16.4536 2.50309 15.8089 3.79462C15.0763 5.27064 14.1679 6.65442 13.6112 6.65442C12.8786 6.65442 13.0544 4.22512 13.0837 2.47234C13.113 1.30381 12.9372 0.934808 12.7614 0.811806C12.3804 0.535051 11.2962 0.258299 11.2962 0.258299C11.2962 0.258299 8.0728 0.0122928 7.63324 1.45757C8.24862 1.54982 9.30354 1.33456 8.89329 5.8549C8.86399 6.07015 8.39514 7.94594 6.90065 5.42439C6.51971 4.80938 5.08383 1.02706 4.58567 1.02706C2.91536 0.965563 1.27437 0.904056 0.688294 1.24231C0.16083 1.54982 1.42089 4.16362 3.53074 7.63844C5.25965 10.4675 7.07647 12.7123 10.2413 13.2658C10.8273 13.3273 12.3804 13.3888 12.8786 13.1428C13.2009 12.9583 12.82 10.4982 13.9335 10.283C14.4317 10.1907 16.3657 12.8353 17.0983 13.1428C17.5378 13.3273 18.5049 13.3888 19.5012 13.358C20.5854 13.3273 21.7869 13.4503 21.9041 12.6815C22.1678 10.9903 18.6514 8.77621 18.5342 7.73069C18.4462 6.99267 19.8235 5.57815 20.5268 4.53263C21.4352 3.2411 22.3729 1.70357 21.8162 1.24231Z" fill="white"/>
</svg>
