<svg width="256" height="94" viewBox="0 0 256 94" fill="none" xmlns="http://www.w3.org/2000/svg">
<path d="M0.858398 16.3623C0.858398 7.33211 8.16057 0.0117188 17.1683 0.0117188H239.549C248.556 0.0117188 255.858 7.33212 255.858 16.3623V76.6612C255.858 85.6913 248.556 93.0117 239.549 93.0117H17.1682C8.16056 93.0117 0.858398 85.6913 0.858398 76.6611V16.3623Z" fill="#5B5B5B" fill-opacity="0.2"/>
<path fill-rule="evenodd" clip-rule="evenodd" d="M239.549 0.829247H17.1683C8.61096 0.829247 1.67389 7.78362 1.67389 16.3623V76.6611C1.67389 85.2398 8.61094 92.1942 17.1682 92.1942H239.549C248.106 92.1942 255.043 85.2398 255.043 76.6612V16.3623C255.043 7.78363 248.106 0.829247 239.549 0.829247ZM17.1683 0.0117188C8.16057 0.0117188 0.858398 7.33211 0.858398 16.3623V76.6611C0.858398 85.6913 8.16056 93.0117 17.1682 93.0117H239.549C248.556 93.0117 255.858 85.6913 255.858 76.6612V16.3623C255.858 7.33212 248.556 0.0117188 239.549 0.0117188H17.1683Z" fill="#5B5B5B" fill-opacity="0.2"/>
<path fill-rule="evenodd" clip-rule="evenodd" d="M14.8584 27.6653C14.8584 25.6475 16.5012 24.0117 18.5276 24.0117H171.189C173.216 24.0117 174.858 25.6475 174.858 27.6653C174.858 29.6832 173.216 31.319 171.189 31.319H18.5276C16.5012 31.319 14.8584 29.6832 14.8584 27.6653Z" fill="#545454" fill-opacity="0.5"/>
<path fill-rule="evenodd" clip-rule="evenodd" d="M14.8584 64.3582C14.8584 62.3404 16.5012 60.7046 18.5276 60.7046H171.189C173.216 60.7046 174.858 62.3404 174.858 64.3582C174.858 66.3761 173.216 68.0118 171.189 68.0118H18.5276C16.5012 68.0118 14.8584 66.3761 14.8584 64.3582Z" fill="#545454" fill-opacity="0.5"/>
<path d="M188.858 21.1201C188.858 18.8511 190.704 17.0117 192.98 17.0117H238.737C241.013 17.0117 242.858 18.8511 242.858 21.1201V35.9033C242.858 38.1723 241.013 40.0117 238.737 40.0117H192.98C190.704 40.0117 188.858 38.1723 188.858 35.9033V21.1201Z" fill="#2F69FF"/>
<path d="M188.858 58.1201C188.858 55.8511 190.704 54.0117 192.98 54.0117H238.737C241.013 54.0117 242.858 55.8511 242.858 58.1201V72.9033C242.858 75.1723 241.013 77.0117 238.737 77.0117H192.98C190.704 77.0117 188.858 75.1723 188.858 72.9033V58.1201Z" fill="#00C0A9"/>
<path d="M205.346 27.2297C205.916 27.2297 206.438 27.3371 206.914 27.5517C207.4 27.7571 207.787 28.0744 208.076 28.5037C208.366 28.9331 208.51 29.4604 208.51 30.0857C208.51 30.7017 208.356 31.2431 208.048 31.7097C207.75 32.1764 207.348 32.5357 206.844 32.7877C206.35 33.0397 205.813 33.1657 205.234 33.1657C204.497 33.1657 203.858 32.9884 203.316 32.6337C202.784 32.2791 202.36 31.8217 202.042 31.2617L202.798 30.7017C203.088 31.1404 203.424 31.4951 203.806 31.7657C204.198 32.0271 204.67 32.1577 205.22 32.1577C205.846 32.1577 206.359 31.9711 206.76 31.5977C207.171 31.2151 207.376 30.7157 207.376 30.0997C207.376 29.4931 207.171 29.0217 206.76 28.6857C206.359 28.3497 205.78 28.1817 205.024 28.1817H202.938V23.7717H207.992V24.7517H204.03V27.3417C204.46 27.2671 204.898 27.2297 205.346 27.2297ZM213.854 33.1657C212.725 33.1657 211.875 32.7131 211.306 31.8077C210.746 30.8931 210.466 29.7264 210.466 28.3077C210.466 26.8984 210.751 25.7644 211.32 24.9057C211.889 24.0471 212.734 23.6177 213.854 23.6177C214.974 23.6177 215.814 24.0471 216.374 24.9057C216.943 25.7551 217.228 26.8891 217.228 28.3077C217.228 29.7264 216.948 30.8931 216.388 31.8077C215.828 32.7131 214.983 33.1657 213.854 33.1657ZM213.854 32.1577C214.629 32.1577 215.193 31.8124 215.548 31.1217C215.912 30.4311 216.094 29.4977 216.094 28.3217C216.094 27.1644 215.917 26.2591 215.562 25.6057C215.207 24.9524 214.638 24.6257 213.854 24.6257C213.07 24.6257 212.496 24.9524 212.132 25.6057C211.777 26.2591 211.6 27.1644 211.6 28.3217C211.6 29.4977 211.782 30.4311 212.146 31.1217C212.51 31.8124 213.079 32.1577 213.854 32.1577ZM221.655 28.1257C221.235 28.1257 220.848 28.0277 220.493 27.8317C220.148 27.6264 219.873 27.3557 219.667 27.0197C219.462 26.6744 219.359 26.2917 219.359 25.8717C219.359 25.4517 219.462 25.0737 219.667 24.7377C219.873 24.3924 220.148 24.1217 220.493 23.9257C220.848 23.7204 221.235 23.6177 221.655 23.6177C222.066 23.6177 222.444 23.7204 222.789 23.9257C223.144 24.1217 223.424 24.3924 223.629 24.7377C223.835 25.0737 223.937 25.4517 223.937 25.8717C223.937 26.2917 223.835 26.6744 223.629 27.0197C223.424 27.3557 223.144 27.6264 222.789 27.8317C222.444 28.0277 222.066 28.1257 221.655 28.1257ZM226.499 23.7717H227.465L222.173 33.0117H221.207L226.499 23.7717ZM221.655 27.3277C222.057 27.3277 222.388 27.1877 222.649 26.9077C222.911 26.6277 223.041 26.2824 223.041 25.8717C223.041 25.4611 222.911 25.1157 222.649 24.8357C222.388 24.5557 222.057 24.4157 221.655 24.4157C221.254 24.4157 220.923 24.5557 220.661 24.8357C220.4 25.1064 220.269 25.4517 220.269 25.8717C220.269 26.2917 220.4 26.6417 220.661 26.9217C220.923 27.1924 221.254 27.3277 221.655 27.3277ZM227.003 33.1517C226.593 33.1517 226.21 33.0537 225.855 32.8577C225.51 32.6524 225.235 32.3817 225.029 32.0457C224.833 31.7004 224.735 31.3177 224.735 30.8977C224.735 30.4777 224.833 30.0997 225.029 29.7637C225.235 29.4184 225.51 29.1477 225.855 28.9517C226.21 28.7464 226.593 28.6437 227.003 28.6437C227.414 28.6437 227.797 28.7464 228.151 28.9517C228.506 29.1477 228.786 29.4184 228.991 29.7637C229.197 30.0997 229.299 30.4777 229.299 30.8977C229.299 31.3177 229.197 31.7004 228.991 32.0457C228.786 32.3817 228.506 32.6524 228.151 32.8577C227.797 33.0537 227.414 33.1517 227.003 33.1517ZM227.017 32.3397C227.409 32.3397 227.736 32.2044 227.997 31.9337C228.259 31.6537 228.389 31.3084 228.389 30.8977C228.389 30.4777 228.259 30.1324 227.997 29.8617C227.736 29.5817 227.409 29.4417 227.017 29.4417C226.616 29.4417 226.285 29.5817 226.023 29.8617C225.762 30.1324 225.631 30.4777 225.631 30.8977C225.631 31.3084 225.762 31.6537 226.023 31.9337C226.285 32.2044 226.616 32.3397 227.017 32.3397Z" fill="white"/>
<path d="M206.445 60.7717V70.0117H205.353V62.0597L203.337 62.6897L203.071 61.7517L206.039 60.7717H206.445ZM212.085 64.2297C212.655 64.2297 213.177 64.3371 213.653 64.5517C214.139 64.7571 214.526 65.0744 214.815 65.5037C215.105 65.9331 215.249 66.4604 215.249 67.0857C215.249 67.7017 215.095 68.2431 214.787 68.7097C214.489 69.1764 214.087 69.5357 213.583 69.7877C213.089 70.0397 212.552 70.1657 211.973 70.1657C211.236 70.1657 210.597 69.9884 210.055 69.6337C209.523 69.2791 209.099 68.8217 208.781 68.2617L209.537 67.7017C209.827 68.1404 210.163 68.4951 210.545 68.7657C210.937 69.0271 211.409 69.1577 211.959 69.1577C212.585 69.1577 213.098 68.9711 213.499 68.5977C213.91 68.2151 214.115 67.7157 214.115 67.0997C214.115 66.4931 213.91 66.0217 213.499 65.6857C213.098 65.3497 212.519 65.1817 211.763 65.1817H209.677V60.7717H214.731V61.7517H210.769V64.3417C211.199 64.2671 211.637 64.2297 212.085 64.2297ZM219.501 65.1257C219.081 65.1257 218.694 65.0277 218.339 64.8317C217.994 64.6264 217.718 64.3557 217.513 64.0197C217.308 63.6744 217.205 63.2917 217.205 62.8717C217.205 62.4517 217.308 62.0737 217.513 61.7377C217.718 61.3924 217.994 61.1217 218.339 60.9257C218.694 60.7204 219.081 60.6177 219.501 60.6177C219.912 60.6177 220.29 60.7204 220.635 60.9257C220.99 61.1217 221.27 61.3924 221.475 61.7377C221.68 62.0737 221.783 62.4517 221.783 62.8717C221.783 63.2917 221.68 63.6744 221.475 64.0197C221.27 64.3557 220.99 64.6264 220.635 64.8317C220.29 65.0277 219.912 65.1257 219.501 65.1257ZM224.345 60.7717H225.311L220.019 70.0117H219.053L224.345 60.7717ZM219.501 64.3277C219.902 64.3277 220.234 64.1877 220.495 63.9077C220.756 63.6277 220.887 63.2824 220.887 62.8717C220.887 62.4611 220.756 62.1157 220.495 61.8357C220.234 61.5557 219.902 61.4157 219.501 61.4157C219.1 61.4157 218.768 61.5557 218.507 61.8357C218.246 62.1064 218.115 62.4517 218.115 62.8717C218.115 63.2917 218.246 63.6417 218.507 63.9217C218.768 64.1924 219.1 64.3277 219.501 64.3277ZM224.849 70.1517C224.438 70.1517 224.056 70.0537 223.701 69.8577C223.356 69.6524 223.08 69.3817 222.875 69.0457C222.679 68.7004 222.581 68.3177 222.581 67.8977C222.581 67.4777 222.679 67.0997 222.875 66.7637C223.08 66.4184 223.356 66.1477 223.701 65.9517C224.056 65.7464 224.438 65.6437 224.849 65.6437C225.26 65.6437 225.642 65.7464 225.997 65.9517C226.352 66.1477 226.632 66.4184 226.837 66.7637C227.042 67.0997 227.145 67.4777 227.145 67.8977C227.145 68.3177 227.042 68.7004 226.837 69.0457C226.632 69.3817 226.352 69.6524 225.997 69.8577C225.642 70.0537 225.26 70.1517 224.849 70.1517ZM224.863 69.3397C225.255 69.3397 225.582 69.2044 225.843 68.9337C226.104 68.6537 226.235 68.3084 226.235 67.8977C226.235 67.4777 226.104 67.1324 225.843 66.8617C225.582 66.5817 225.255 66.4417 224.863 66.4417C224.462 66.4417 224.13 66.5817 223.869 66.8617C223.608 67.1324 223.477 67.4777 223.477 67.8977C223.477 68.3084 223.608 68.6537 223.869 68.9337C224.13 69.2044 224.462 69.3397 224.863 69.3397Z" fill="white"/>
<path d="M14.8584 27.6461C14.8584 25.6176 16.5028 23.9731 18.5313 23.9731H90.1705C92.199 23.9731 93.8434 25.6176 93.8434 27.6461C93.8434 29.6746 92.199 31.319 90.1705 31.319H18.5313C16.5028 31.319 14.8584 29.6746 14.8584 27.6461Z" fill="#2F69FF"/>
<path d="M14.8584 64.3775C14.8584 62.349 16.5028 60.7046 18.5313 60.7046H41.0826C43.1111 60.7046 44.7555 62.349 44.7555 64.3775C44.7555 66.406 43.111 68.0504 41.0826 68.0504H18.5313C16.5028 68.0504 14.8584 66.406 14.8584 64.3775Z" fill="#00C0A9"/>
</svg>
