<svg width="217" height="272" viewBox="0 0 217 272" fill="none" xmlns="http://www.w3.org/2000/svg">
<path fill-rule="evenodd" clip-rule="evenodd" d="M200.433 1.6621H17.2051C8.60773 1.6621 1.63816 8.6297 1.63816 17.2247V255.461C1.63816 264.056 8.60773 271.024 17.2051 271.024H200.433C209.03 271.024 216 264.056 216 255.461V17.2247C216 8.62972 209.03 1.6621 200.433 1.6621ZM17.2051 0.843018C8.15524 0.843018 0.818848 8.17733 0.818848 17.2247V255.461C0.818848 264.509 8.15523 271.843 17.2051 271.843H200.433C209.482 271.843 216.819 264.509 216.819 255.461V17.2247C216.819 8.17736 209.482 0.843018 200.433 0.843018H17.2051Z" fill="#5B5B5B" fill-opacity="0.2"/>
<path d="M0.818848 17.2247C0.818848 8.17733 8.15524 0.843018 17.2051 0.843018H200.433C209.482 0.843018 216.819 8.17736 216.819 17.2247V255.461C216.819 264.509 209.482 271.843 200.433 271.843H17.2051C8.15524 271.843 0.818848 264.509 0.818848 255.461V17.2247Z" fill="#5B5B5B" fill-opacity="0.2"/>
<path fill-rule="evenodd" clip-rule="evenodd" d="M17.2003 38.2956L201.699 38.2956V39.1125L17.2003 39.1125V38.2956Z" fill="white"/>
<path fill-rule="evenodd" clip-rule="evenodd" d="M17.2003 88.6945L201.699 88.6945V89.5114L17.2003 89.5114V88.6945Z" fill="white"/>
<path fill-rule="evenodd" clip-rule="evenodd" d="M17.2003 139.092L201.699 139.092V139.909L17.2003 139.909V139.092Z" fill="white"/>
<path fill-rule="evenodd" clip-rule="evenodd" d="M17.2003 189.491L201.699 189.491V190.308L17.2003 190.308V189.491Z" fill="white"/>
<path d="M32.8236 239.695V245.086H32.1864V240.446L31.0102 240.814L30.855 240.267L32.5867 239.695H32.8236Z" fill="white"/>
<path d="M110.27 241.712C110.602 241.712 110.907 241.775 111.185 241.9C111.468 242.02 111.694 242.205 111.863 242.456C112.032 242.706 112.116 243.014 112.116 243.379C112.116 243.738 112.026 244.054 111.847 244.326C111.672 244.599 111.438 244.808 111.144 244.955C110.855 245.102 110.542 245.176 110.205 245.176C109.774 245.176 109.401 245.072 109.086 244.866C108.775 244.659 108.527 244.392 108.342 244.065L108.783 243.738C108.952 243.994 109.148 244.201 109.372 244.359C109.6 244.512 109.875 244.588 110.197 244.588C110.561 244.588 110.861 244.479 111.095 244.261C111.335 244.038 111.454 243.746 111.454 243.387C111.454 243.033 111.335 242.758 111.095 242.562C110.861 242.366 110.523 242.268 110.082 242.268H108.865V239.695H111.814V240.267H109.502V241.778C109.753 241.734 110.009 241.712 110.27 241.712Z" fill="white"/>
<path d="M192.234 239.695V245.086H191.597V240.446L190.42 240.814L190.265 240.267L191.997 239.695H192.234Z" fill="white"/>
<path d="M195.794 245.176C195.135 245.176 194.64 244.912 194.308 244.384C193.981 243.85 193.818 243.169 193.818 242.341C193.818 241.519 193.984 240.857 194.316 240.356C194.648 239.855 195.141 239.605 195.794 239.605C196.448 239.605 196.938 239.855 197.265 240.356C197.597 240.852 197.763 241.514 197.763 242.341C197.763 243.169 197.6 243.85 197.273 244.384C196.946 244.912 196.453 245.176 195.794 245.176ZM195.794 244.588C196.246 244.588 196.576 244.386 196.783 243.983C196.995 243.58 197.101 243.036 197.101 242.35C197.101 241.674 196.998 241.146 196.791 240.765C196.584 240.384 196.252 240.193 195.794 240.193C195.337 240.193 195.002 240.384 194.79 240.765C194.583 241.146 194.479 241.674 194.479 242.35C194.479 243.036 194.585 243.58 194.798 243.983C195.01 244.386 195.342 244.588 195.794 244.588Z" fill="white"/>
<path d="M101.471 158.748L17.2002 137.581V221.746H201.699V116.917L101.471 158.748Z" fill="url(#paint0_linear_1611_248)"/>
<path fill-rule="evenodd" clip-rule="evenodd" d="M201.856 117.294L101.503 159.177L17.1006 137.977L17.2996 137.185L101.439 158.319L201.541 116.541L201.856 117.294Z" fill="#40FFE8"/>
<path d="M212.745 113.893C212.745 119.46 208.232 123.973 202.666 123.973C197.099 123.973 192.586 119.46 192.586 113.893C192.586 108.327 197.099 103.814 202.666 103.814C208.232 103.814 212.745 108.327 212.745 113.893Z" fill="#40FFE8" fill-opacity="0.37"/>
<path d="M207.705 113.893C207.705 116.677 205.449 118.933 202.665 118.933C199.882 118.933 197.625 116.677 197.625 113.893C197.625 111.11 199.882 108.854 202.665 108.854C205.449 108.854 207.705 111.11 207.705 113.893Z" fill="#40FFE8"/>
<path d="M21.6598 128.965C22.0598 129.005 22.4358 129.125 22.7878 129.325C23.1398 129.517 23.4238 129.789 23.6398 130.141C23.8558 130.493 23.9638 130.913 23.9638 131.401C23.9638 131.929 23.8358 132.393 23.5798 132.793C23.3238 133.193 22.9798 133.501 22.5478 133.717C22.1158 133.933 21.6518 134.041 21.1558 134.041C20.5478 134.041 20.0118 133.889 19.5478 133.585C19.0918 133.273 18.7318 132.877 18.4678 132.397L19.1278 131.929C19.3838 132.305 19.6718 132.609 19.9918 132.841C20.3118 133.065 20.6958 133.177 21.1438 133.177C21.6878 133.177 22.1318 133.017 22.4758 132.697C22.8198 132.369 22.9918 131.941 22.9918 131.413C22.9918 130.901 22.8158 130.501 22.4638 130.213C22.1198 129.925 21.6278 129.781 20.9878 129.781H20.2078V129.505L22.2838 126.853H19.0078V125.989H23.7598V126.265L21.6598 128.965ZM28.5488 134.041C27.5808 134.041 26.8528 133.653 26.3648 132.877C25.8848 132.093 25.6448 131.093 25.6448 129.877C25.6448 128.669 25.8888 127.697 26.3768 126.961C26.8648 126.225 27.5888 125.857 28.5488 125.857C29.5088 125.857 30.2288 126.225 30.7088 126.961C31.1968 127.689 31.4408 128.661 31.4408 129.877C31.4408 131.093 31.2008 132.093 30.7208 132.877C30.2408 133.653 29.5168 134.041 28.5488 134.041ZM28.5488 133.177C29.2128 133.177 29.6968 132.881 30.0008 132.289C30.3128 131.697 30.4688 130.897 30.4688 129.889C30.4688 128.897 30.3168 128.121 30.0128 127.561C29.7088 127.001 29.2208 126.721 28.5488 126.721C27.8768 126.721 27.3848 127.001 27.0728 127.561C26.7688 128.121 26.6168 128.897 26.6168 129.889C26.6168 130.897 26.7728 131.697 27.0848 132.289C27.3968 132.881 27.8848 133.177 28.5488 133.177ZM39.7749 134.041C38.8069 134.041 38.0789 133.653 37.5909 132.877C37.1109 132.093 36.8709 131.093 36.8709 129.877C36.8709 128.669 37.1149 127.697 37.6029 126.961C38.0909 126.225 38.8149 125.857 39.7749 125.857C40.7349 125.857 41.4549 126.225 41.9349 126.961C42.4229 127.689 42.6669 128.661 42.6669 129.877C42.6669 131.093 42.4269 132.093 41.9469 132.877C41.4669 133.653 40.7429 134.041 39.7749 134.041ZM39.7749 133.177C40.4389 133.177 40.9229 132.881 41.2269 132.289C41.5389 131.697 41.6949 130.897 41.6949 129.889C41.6949 128.897 41.5429 128.121 41.2389 127.561C40.9349 127.001 40.4469 126.721 39.7749 126.721C39.1029 126.721 38.6109 127.001 38.2989 127.561C37.9949 128.121 37.8429 128.897 37.8429 129.889C37.8429 130.897 37.9989 131.697 38.3109 132.289C38.6229 132.881 39.1109 133.177 39.7749 133.177ZM47.3977 134.041C46.4297 134.041 45.7017 133.653 45.2137 132.877C44.7337 132.093 44.4937 131.093 44.4937 129.877C44.4937 128.669 44.7377 127.697 45.2257 126.961C45.7137 126.225 46.4377 125.857 47.3977 125.857C48.3577 125.857 49.0777 126.225 49.5577 126.961C50.0457 127.689 50.2897 128.661 50.2897 129.877C50.2897 131.093 50.0497 132.093 49.5697 132.877C49.0897 133.653 48.3657 134.041 47.3977 134.041ZM47.3977 133.177C48.0617 133.177 48.5457 132.881 48.8497 132.289C49.1617 131.697 49.3177 130.897 49.3177 129.889C49.3177 128.897 49.1657 128.121 48.8617 127.561C48.5577 127.001 48.0697 126.721 47.3977 126.721C46.7257 126.721 46.2337 127.001 45.9217 127.561C45.6177 128.121 45.4657 128.897 45.4657 129.889C45.4657 130.897 45.6217 131.697 45.9337 132.289C46.2457 132.881 46.7337 133.177 47.3977 133.177ZM55.0205 134.041C54.0525 134.041 53.3245 133.653 52.8365 132.877C52.3565 132.093 52.1165 131.093 52.1165 129.877C52.1165 128.669 52.3605 127.697 52.8485 126.961C53.3365 126.225 54.0605 125.857 55.0205 125.857C55.9805 125.857 56.7005 126.225 57.1805 126.961C57.6685 127.689 57.9125 128.661 57.9125 129.877C57.9125 131.093 57.6725 132.093 57.1925 132.877C56.7125 133.653 55.9885 134.041 55.0205 134.041ZM55.0205 133.177C55.6845 133.177 56.1685 132.881 56.4725 132.289C56.7845 131.697 56.9405 130.897 56.9405 129.889C56.9405 128.897 56.7885 128.121 56.4845 127.561C56.1805 127.001 55.6925 126.721 55.0205 126.721C54.3485 126.721 53.8565 127.001 53.5445 127.561C53.2405 128.121 53.0885 128.897 53.0885 129.889C53.0885 130.897 53.2445 131.697 53.5565 132.289C53.8685 132.881 54.3565 133.177 55.0205 133.177Z" fill="white"/>
<path d="M21.8518 184.44C20.8838 184.44 20.1558 184.052 19.6678 183.276C19.1878 182.492 18.9478 181.492 18.9478 180.276C18.9478 179.068 19.1918 178.096 19.6798 177.36C20.1678 176.624 20.8918 176.256 21.8518 176.256C22.8118 176.256 23.5318 176.624 24.0118 177.36C24.4998 178.088 24.7438 179.06 24.7438 180.276C24.7438 181.492 24.5038 182.492 24.0238 183.276C23.5438 184.052 22.8198 184.44 21.8518 184.44ZM21.8518 183.576C22.5158 183.576 22.9998 183.28 23.3038 182.688C23.6158 182.096 23.7718 181.296 23.7718 180.288C23.7718 179.296 23.6198 178.52 23.3158 177.96C23.0118 177.4 22.5238 177.12 21.8518 177.12C21.1798 177.12 20.6878 177.4 20.3758 177.96C20.0718 178.52 19.9198 179.296 19.9198 180.288C19.9198 181.296 20.0758 182.096 20.3878 182.688C20.6998 183.28 21.1878 183.576 21.8518 183.576Z" fill="white"/>
<path d="M21.5758 78.7088C22.0398 78.7088 22.4678 78.8248 22.8598 79.0568C23.2598 79.2808 23.5758 79.5928 23.8078 79.9928C24.0398 80.3848 24.1558 80.8208 24.1558 81.3008C24.1558 81.7968 24.0358 82.2488 23.7958 82.6568C23.5558 83.0648 23.2278 83.3848 22.8118 83.6168C22.4038 83.8488 21.9518 83.9648 21.4558 83.9648C20.9678 83.9648 20.5158 83.8488 20.0998 83.6168C19.6838 83.3848 19.3558 83.0648 19.1158 82.6568C18.8758 82.2488 18.7558 81.7928 18.7558 81.2888C18.7558 80.8808 18.8278 80.5168 18.9718 80.1968C19.1238 79.8768 19.3598 79.4808 19.6798 79.0088C19.7198 78.9608 19.7518 78.9168 19.7758 78.8768C19.7998 78.8368 19.8238 78.8008 19.8478 78.7688L21.8158 75.9128H22.9318L20.9158 78.8168C21.1078 78.7448 21.3278 78.7088 21.5758 78.7088ZM21.4558 83.1128C21.7838 83.1128 22.0838 83.0328 22.3558 82.8728C22.6278 82.7128 22.8398 82.4968 22.9918 82.2248C23.1518 81.9448 23.2318 81.6368 23.2318 81.3008C23.2318 80.9728 23.1518 80.6728 22.9918 80.4008C22.8398 80.1208 22.6278 79.9008 22.3558 79.7408C22.0838 79.5808 21.7838 79.5008 21.4558 79.5008C21.1278 79.5008 20.8278 79.5808 20.5558 79.7408C20.2838 79.9008 20.0678 80.1208 19.9078 80.4008C19.7558 80.6728 19.6798 80.9728 19.6798 81.3008C19.6798 81.6368 19.7558 81.9448 19.9078 82.2248C20.0678 82.4968 20.2838 82.7128 20.5558 82.8728C20.8278 83.0328 21.1278 83.1128 21.4558 83.1128ZM28.7011 83.9648C27.7331 83.9648 27.0051 83.5768 26.5171 82.8008C26.0371 82.0168 25.7971 81.0168 25.7971 79.8008C25.7971 78.5928 26.0411 77.6208 26.5291 76.8848C27.0171 76.1488 27.7411 75.7808 28.7011 75.7808C29.6611 75.7808 30.3811 76.1488 30.8611 76.8848C31.3491 77.6128 31.5931 78.5848 31.5931 79.8008C31.5931 81.0168 31.3531 82.0168 30.8731 82.8008C30.3931 83.5768 29.6691 83.9648 28.7011 83.9648ZM28.7011 83.1008C29.3651 83.1008 29.8491 82.8048 30.1531 82.2128C30.4651 81.6208 30.6211 80.8208 30.6211 79.8128C30.6211 78.8208 30.4691 78.0448 30.1651 77.4848C29.8611 76.9248 29.3731 76.6448 28.7011 76.6448C28.0291 76.6448 27.5371 76.9248 27.2251 77.4848C26.9211 78.0448 26.7691 78.8208 26.7691 79.8128C26.7691 80.8208 26.9251 81.6208 27.2371 82.2128C27.5491 82.8048 28.0371 83.1008 28.7011 83.1008ZM39.9272 83.9648C38.9592 83.9648 38.2312 83.5768 37.7432 82.8008C37.2632 82.0168 37.0232 81.0168 37.0232 79.8008C37.0232 78.5928 37.2672 77.6208 37.7552 76.8848C38.2432 76.1488 38.9672 75.7808 39.9272 75.7808C40.8872 75.7808 41.6072 76.1488 42.0872 76.8848C42.5752 77.6128 42.8192 78.5848 42.8192 79.8008C42.8192 81.0168 42.5792 82.0168 42.0992 82.8008C41.6192 83.5768 40.8952 83.9648 39.9272 83.9648ZM39.9272 83.1008C40.5912 83.1008 41.0752 82.8048 41.3792 82.2128C41.6912 81.6208 41.8472 80.8208 41.8472 79.8128C41.8472 78.8208 41.6952 78.0448 41.3912 77.4848C41.0872 76.9248 40.5992 76.6448 39.9272 76.6448C39.2552 76.6448 38.7632 76.9248 38.4512 77.4848C38.1472 78.0448 37.9952 78.8208 37.9952 79.8128C37.9952 80.8208 38.1512 81.6208 38.4632 82.2128C38.7752 82.8048 39.2632 83.1008 39.9272 83.1008ZM47.55 83.9648C46.582 83.9648 45.854 83.5768 45.366 82.8008C44.886 82.0168 44.646 81.0168 44.646 79.8008C44.646 78.5928 44.89 77.6208 45.378 76.8848C45.866 76.1488 46.59 75.7808 47.55 75.7808C48.51 75.7808 49.23 76.1488 49.71 76.8848C50.198 77.6128 50.442 78.5848 50.442 79.8008C50.442 81.0168 50.202 82.0168 49.722 82.8008C49.242 83.5768 48.518 83.9648 47.55 83.9648ZM47.55 83.1008C48.214 83.1008 48.698 82.8048 49.002 82.2128C49.314 81.6208 49.47 80.8208 49.47 79.8128C49.47 78.8208 49.318 78.0448 49.014 77.4848C48.71 76.9248 48.222 76.6448 47.55 76.6448C46.878 76.6448 46.386 76.9248 46.074 77.4848C45.77 78.0448 45.618 78.8208 45.618 79.8128C45.618 80.8208 45.774 81.6208 46.086 82.2128C46.398 82.8048 46.886 83.1008 47.55 83.1008ZM55.1729 83.9648C54.2049 83.9648 53.4769 83.5768 52.9889 82.8008C52.5089 82.0168 52.2689 81.0168 52.2689 79.8008C52.2689 78.5928 52.5129 77.6208 53.0009 76.8848C53.4889 76.1488 54.2129 75.7808 55.1729 75.7808C56.1329 75.7808 56.8529 76.1488 57.3329 76.8848C57.8209 77.6128 58.0649 78.5848 58.0649 79.8008C58.0649 81.0168 57.8249 82.0168 57.3449 82.8008C56.8649 83.5768 56.1409 83.9648 55.1729 83.9648ZM55.1729 83.1008C55.8369 83.1008 56.3209 82.8048 56.6249 82.2128C56.9369 81.6208 57.0929 80.8208 57.0929 79.8128C57.0929 78.8208 56.9409 78.0448 56.6369 77.4848C56.3329 76.9248 55.8449 76.6448 55.1729 76.6448C54.5009 76.6448 54.0089 76.9248 53.6969 77.4848C53.3929 78.0448 53.2409 78.8208 53.2409 79.8128C53.2409 80.8208 53.3969 81.6208 53.7089 82.2128C54.0209 82.8048 54.5089 83.1008 55.1729 83.1008Z" fill="white"/>
<path d="M21.6363 25.5142V33.4342H20.7003V26.6182L18.9723 27.1582L18.7443 26.3542L21.2883 25.5142H21.6363ZM29.2432 32.5942V33.4342H23.7352V33.1942L26.5552 30.1942C27.0352 29.6902 27.3872 29.2662 27.6112 28.9222C27.8352 28.5702 27.9472 28.2062 27.9472 27.8302C27.9472 27.3902 27.8072 27.0182 27.5272 26.7142C27.2552 26.4022 26.8872 26.2462 26.4232 26.2462C25.9432 26.2462 25.5592 26.4062 25.2712 26.7262C24.9832 27.0462 24.8392 27.4302 24.8392 27.8782C24.8392 28.1022 24.8632 28.3222 24.9112 28.5382H23.9512C23.8952 28.3222 23.8672 28.0902 23.8672 27.8422C23.8672 27.4262 23.9712 27.0302 24.1792 26.6542C24.3872 26.2702 24.6832 25.9622 25.0672 25.7302C25.4592 25.4982 25.9112 25.3822 26.4232 25.3822C26.9032 25.3822 27.3312 25.4902 27.7072 25.7062C28.0912 25.9142 28.3872 26.2022 28.5952 26.5702C28.8112 26.9302 28.9192 27.3342 28.9192 27.7822C28.9192 28.1502 28.8432 28.5022 28.6912 28.8382C28.5392 29.1742 28.3512 29.4822 28.1272 29.7622C27.9112 30.0422 27.6232 30.3702 27.2632 30.7462L25.5112 32.5942H29.2432ZM33.822 33.5662C32.854 33.5662 32.126 33.1782 31.638 32.4022C31.158 31.6182 30.918 30.6182 30.918 29.4022C30.918 28.1942 31.162 27.2222 31.65 26.4862C32.138 25.7502 32.862 25.3822 33.822 25.3822C34.782 25.3822 35.502 25.7502 35.982 26.4862C36.47 27.2142 36.714 28.1862 36.714 29.4022C36.714 30.6182 36.474 31.6182 35.994 32.4022C35.514 33.1782 34.79 33.5662 33.822 33.5662ZM33.822 32.7022C34.486 32.7022 34.97 32.4062 35.274 31.8142C35.586 31.2222 35.742 30.4222 35.742 29.4142C35.742 28.4222 35.59 27.6462 35.286 27.0862C34.982 26.5262 34.494 26.2462 33.822 26.2462C33.15 26.2462 32.658 26.5262 32.346 27.0862C32.042 27.6462 31.89 28.4222 31.89 29.4142C31.89 30.4222 32.046 31.2222 32.358 31.8142C32.67 32.4062 33.158 32.7022 33.822 32.7022ZM45.0481 33.5662C44.0801 33.5662 43.3521 33.1782 42.8641 32.4022C42.3841 31.6182 42.1441 30.6182 42.1441 29.4022C42.1441 28.1942 42.3881 27.2222 42.8761 26.4862C43.3641 25.7502 44.0881 25.3822 45.0481 25.3822C46.0081 25.3822 46.7281 25.7502 47.2081 26.4862C47.6961 27.2142 47.9401 28.1862 47.9401 29.4022C47.9401 30.6182 47.7001 31.6182 47.2201 32.4022C46.7401 33.1782 46.0161 33.5662 45.0481 33.5662ZM45.0481 32.7022C45.7121 32.7022 46.1961 32.4062 46.5001 31.8142C46.8121 31.2222 46.9681 30.4222 46.9681 29.4142C46.9681 28.4222 46.8161 27.6462 46.5121 27.0862C46.2081 26.5262 45.7201 26.2462 45.0481 26.2462C44.3761 26.2462 43.8841 26.5262 43.5721 27.0862C43.2681 27.6462 43.1161 28.4222 43.1161 29.4142C43.1161 30.4222 43.2721 31.2222 43.5841 31.8142C43.8961 32.4062 44.3841 32.7022 45.0481 32.7022ZM52.6709 33.5662C51.7029 33.5662 50.9749 33.1782 50.4869 32.4022C50.0069 31.6182 49.7669 30.6182 49.7669 29.4022C49.7669 28.1942 50.0109 27.2222 50.4989 26.4862C50.9869 25.7502 51.7109 25.3822 52.6709 25.3822C53.6309 25.3822 54.3509 25.7502 54.8309 26.4862C55.3189 27.2142 55.5629 28.1862 55.5629 29.4022C55.5629 30.6182 55.3229 31.6182 54.8429 32.4022C54.3629 33.1782 53.6389 33.5662 52.6709 33.5662ZM52.6709 32.7022C53.3349 32.7022 53.8189 32.4062 54.1229 31.8142C54.4349 31.2222 54.5909 30.4222 54.5909 29.4142C54.5909 28.4222 54.4389 27.6462 54.1349 27.0862C53.8309 26.5262 53.3429 26.2462 52.6709 26.2462C51.9989 26.2462 51.5069 26.5262 51.1949 27.0862C50.8909 27.6462 50.7389 28.4222 50.7389 29.4142C50.7389 30.4222 50.8949 31.2222 51.2069 31.8142C51.5189 32.4062 52.0069 32.7022 52.6709 32.7022ZM60.2937 33.5662C59.3257 33.5662 58.5977 33.1782 58.1097 32.4022C57.6297 31.6182 57.3897 30.6182 57.3897 29.4022C57.3897 28.1942 57.6337 27.2222 58.1217 26.4862C58.6097 25.7502 59.3337 25.3822 60.2937 25.3822C61.2537 25.3822 61.9737 25.7502 62.4537 26.4862C62.9417 27.2142 63.1857 28.1862 63.1857 29.4022C63.1857 30.6182 62.9457 31.6182 62.4657 32.4022C61.9857 33.1782 61.2617 33.5662 60.2937 33.5662ZM60.2937 32.7022C60.9577 32.7022 61.4417 32.4062 61.7457 31.8142C62.0577 31.2222 62.2137 30.4222 62.2137 29.4142C62.2137 28.4222 62.0617 27.6462 61.7577 27.0862C61.4537 26.5262 60.9657 26.2462 60.2937 26.2462C59.6217 26.2462 59.1297 26.5262 58.8177 27.0862C58.5137 27.6462 58.3617 28.4222 58.3617 29.4142C58.3617 30.4222 58.5177 31.2222 58.8297 31.8142C59.1417 32.4062 59.6297 32.7022 60.2937 32.7022Z" fill="white"/>
<defs>
<linearGradient id="paint0_linear_1611_248" x1="468.473" y1="41.3198" x2="468.473" y2="221.746" gradientUnits="userSpaceOnUse">
<stop stop-color="#2C6EFA"/>
<stop offset="1" stop-color="#02BDAD" stop-opacity="0.13"/>
</linearGradient>
</defs>
</svg>
