<svg width="219" height="211" viewBox="0 0 219 211" fill="none" xmlns="http://www.w3.org/2000/svg">
<path d="M0.858398 16.3137C0.858398 7.31038 8.18631 0.0117188 17.2257 0.0117188H202.491C211.531 0.0117188 218.858 7.31037 218.858 16.3137V193.71C218.858 202.713 211.53 210.012 202.491 210.012H17.2257C8.18631 210.012 0.858398 202.713 0.858398 193.71V16.3137Z" fill="#5B5B5B" fill-opacity="0.2"/>
<path fill-rule="evenodd" clip-rule="evenodd" d="M202.491 0.826818H17.2257C8.63828 0.826818 1.67677 7.76054 1.67677 16.3137V193.71C1.67677 202.263 8.63828 209.197 17.2257 209.197H202.491C211.079 209.197 218.04 202.263 218.04 193.71V16.3137C218.04 7.76053 211.079 0.826818 202.491 0.826818ZM17.2257 0.0117188C8.18631 0.0117188 0.858398 7.31038 0.858398 16.3137V193.71C0.858398 202.713 8.1863 210.012 17.2257 210.012H202.491C211.53 210.012 218.858 202.713 218.858 193.71V16.3137C218.858 7.31037 211.531 0.0117188 202.491 0.0117188H17.2257Z" fill="#5B5B5B" fill-opacity="0.2"/>
<path opacity="0.2" d="M34.8584 57.0117C47.0087 57.0117 56.8584 47.162 56.8584 35.0117C56.8584 22.8615 47.0087 13.0117 34.8584 13.0117C22.7081 13.0117 12.8584 22.8615 12.8584 35.0117C12.8584 47.162 22.7081 57.0117 34.8584 57.0117Z" fill="#F70000"/>
<path fill-rule="evenodd" clip-rule="evenodd" d="M21.6479 45.8784L35.1209 31.7685L48.7249 46.0117L35.1814 24.0117L21.6479 45.8784ZM37.0762 37.3736H37.0592L35.0301 35.0066L32.864 37.3736H37.0592L37.0762 37.3934V37.3736ZM28.954 41.2565H41.0868L38.6281 38.7563L31.3418 38.7876L28.9536 41.2262L28.954 41.2565Z" fill="#F70000"/>
<path opacity="0.2" d="M34.8584 198.012C47.0087 198.012 56.8584 188.162 56.8584 176.012C56.8584 163.861 47.0087 154.012 34.8584 154.012C22.7081 154.012 12.8584 163.861 12.8584 176.012C12.8584 188.162 22.7081 198.012 34.8584 198.012Z" fill="#2C5F93"/>
<path fill-rule="evenodd" clip-rule="evenodd" d="M34.7605 164.166L23.0122 184.385H28.8702L37.791 169.31L34.7605 164.166Z" fill="#1562A1"/>
<path fill-rule="evenodd" clip-rule="evenodd" d="M29.2866 184.463L37.0902 179.986L34.0907 176.328L29.2866 184.463V184.463Z" fill="#0C426C"/>
<path fill-rule="evenodd" clip-rule="evenodd" d="M39.8638 172.969L34.2373 175.992L41.2841 184.458H46.6946L39.8638 172.969Z" fill="#3C87C7"/>
<path opacity="0.1" d="M34.8584 128.012C47.0087 128.012 56.8584 117.938 56.8584 105.512C56.8584 93.0853 47.0087 83.0117 34.8584 83.0117C22.7081 83.0117 12.8584 93.0853 12.8584 105.512C12.8584 117.938 22.7081 128.012 34.8584 128.012Z" fill="#3AB83A"/>
<mask id="mask0_1611_249" style="mask-type:alpha" maskUnits="userSpaceOnUse" x="12" y="83" width="45" height="46">
<path d="M34.8584 128.012C47.0087 128.012 56.8584 117.938 56.8584 105.512C56.8584 93.0853 47.0087 83.0117 34.8584 83.0117C22.7081 83.0117 12.8584 93.0853 12.8584 105.512C12.8584 117.938 22.7081 128.012 34.8584 128.012Z" fill="white"/>
</mask>
<g mask="url(#mask0_1611_249)">
<path fill-rule="evenodd" clip-rule="evenodd" d="M29.7812 104.345L35.7286 100.391L41.6274 104.37L35.7027 93.3964L29.7812 104.345ZM30.0082 105.487L35.7352 101.627L41.3876 105.459L35.7384 109.322L30.0082 105.487ZM29.7812 106.592C31.8685 107.992 34.0465 109.457 35.7286 110.591L41.6274 106.592C39.4915 110.599 37.7122 113.935 35.7286 117.627L34.5121 115.372C32.8781 112.343 31.193 109.219 29.7812 106.592Z" fill="#3AB83A"/>
<path fill-rule="evenodd" clip-rule="evenodd" d="M35.7046 93.3964L35.7268 100.391L41.6277 104.37L35.7046 93.3964ZM35.7324 101.627L41.4222 105.459L35.7352 109.322L35.7324 101.627ZM35.7268 110.591L41.6277 106.592C39.7975 110.599 35.7268 117.627 35.7268 117.627V110.591Z" fill="#0B8311"/>
</g>
<path d="M73.4964 19.5365H74.9004V31.4165H73.4964V19.5365ZM83.9146 31.6145C82.7866 31.6145 81.7486 31.3445 80.8006 30.8045C79.8526 30.2645 79.1026 29.5265 78.5506 28.5905C78.0106 27.6545 77.7406 26.6165 77.7406 25.4765C77.7406 24.3365 78.0106 23.2985 78.5506 22.3625C79.1026 21.4265 79.8526 20.6885 80.8006 20.1485C81.7486 19.6085 82.7866 19.3385 83.9146 19.3385C84.9706 19.3385 85.9306 19.5725 86.7946 20.0405C87.6586 20.4965 88.3426 21.1145 88.8466 21.8945L87.8026 22.7225C87.3466 22.0625 86.7886 21.5525 86.1286 21.1925C85.4806 20.8205 84.7486 20.6345 83.9326 20.6345C83.0446 20.6345 82.2406 20.8445 81.5206 21.2645C80.8006 21.6845 80.2306 22.2665 79.8106 23.0105C79.4026 23.7425 79.1986 24.5645 79.1986 25.4765C79.1986 26.3885 79.4026 27.2165 79.8106 27.9605C80.2306 28.6925 80.8006 29.2685 81.5206 29.6885C82.2406 30.1085 83.0446 30.3185 83.9326 30.3185C84.7486 30.3185 85.4806 30.1385 86.1286 29.7785C86.7886 29.4065 87.3466 28.8905 87.8026 28.2305L88.8466 29.0585C88.3546 29.8385 87.6706 30.4625 86.7946 30.9305C85.9306 31.3865 84.9706 31.6145 83.9146 31.6145ZM98.3562 31.4165L95.1522 26.5385L91.9302 31.4165H90.2922L94.3782 25.3325L90.5802 19.5365H92.2002L95.1522 24.1625L98.0862 19.5365H99.7062L95.9622 25.3505L99.9942 31.4165H98.3562Z" fill="white"/>
<path d="M81.3784 38.4072V38.8672L74.6984 51.6072H72.9984L79.2784 39.8072H72.5584V38.4072H81.3784ZM92.0725 48.2472C92.0725 48.9538 91.8791 49.5805 91.4925 50.1272C91.1191 50.6605 90.5791 51.0805 89.8725 51.3872C89.1791 51.6805 88.3725 51.8272 87.4525 51.8272C86.5325 51.8272 85.7191 51.6805 85.0125 51.3872C84.3058 51.0805 83.7591 50.6538 83.3725 50.1072C82.9858 49.5605 82.7925 48.9338 82.7925 48.2272C82.7925 46.6138 83.8391 45.4405 85.9325 44.7072C85.1325 44.3338 84.5125 43.8872 84.0725 43.3672C83.6325 42.8472 83.4125 42.2138 83.4125 41.4672C83.4125 40.4405 83.7925 39.6405 84.5525 39.0672C85.3258 38.4805 86.2925 38.1872 87.4525 38.1872C88.5858 38.1872 89.5325 38.4805 90.2925 39.0672C91.0658 39.6405 91.4525 40.4405 91.4525 41.4672C91.4525 42.8805 90.6125 43.9538 88.9325 44.6872C91.0258 45.4738 92.0725 46.6605 92.0725 48.2472ZM84.9525 41.5272C84.9525 42.0872 85.1525 42.5472 85.5525 42.9072C85.9658 43.2672 86.5925 43.6205 87.4325 43.9672C88.2725 43.6338 88.8925 43.2872 89.2925 42.9272C89.7058 42.5672 89.9125 42.1005 89.9125 41.5272C89.9125 40.9005 89.6791 40.4138 89.2125 40.0672C88.7591 39.7072 88.1725 39.5272 87.4525 39.5272C86.7191 39.5272 86.1191 39.7072 85.6525 40.0672C85.1858 40.4138 84.9525 40.9005 84.9525 41.5272ZM87.4525 50.4872C88.4258 50.4872 89.1725 50.2805 89.6925 49.8672C90.2258 49.4405 90.4925 48.8805 90.4925 48.1872C90.4925 47.4938 90.2325 46.9538 89.7125 46.5672C89.2058 46.1672 88.4525 45.7872 87.4525 45.4272C86.4391 45.7872 85.6725 46.1672 85.1525 46.5672C84.6325 46.9672 84.3725 47.5072 84.3725 48.1872C84.3725 48.8805 84.6391 49.4405 85.1725 49.8672C85.7191 50.2805 86.4791 50.4872 87.4525 50.4872ZM96.435 51.8272C96.0883 51.8272 95.7883 51.7072 95.535 51.4672C95.295 51.2272 95.175 50.9272 95.175 50.5672C95.175 50.2072 95.295 49.9072 95.535 49.6672C95.7883 49.4272 96.0883 49.3072 96.435 49.3072C96.7816 49.3072 97.075 49.4272 97.315 49.6672C97.5683 49.9072 97.695 50.2072 97.695 50.5672C97.695 50.9272 97.5683 51.2272 97.315 51.4672C97.075 51.7072 96.7816 51.8272 96.435 51.8272ZM110.356 49.1472H108.436V51.6072H106.876V49.1472H100.256V48.7072L104.596 38.4072H106.196L102.236 47.7872H106.876V43.3872H108.436V47.7872H110.356V49.1472ZM122.103 49.1472H120.183V51.6072H118.623V49.1472H112.003V48.7072L116.343 38.4072H117.943L113.983 47.7872H118.623V43.3872H120.183V47.7872H122.103V49.1472ZM133.851 49.1472H131.931V51.6072H130.371V49.1472H123.751V48.7072L128.091 38.4072H129.691L125.731 47.7872H130.371V43.3872H131.931V47.7872H133.851V49.1472Z" fill="white"/>
<path d="M73.4964 90.0365H81.1104V91.2965H74.9004V94.9325H79.6524V96.1925H74.9004V100.657H81.3264V101.917H73.4964V90.0365ZM86.9317 91.2965H82.7557V90.0365H92.5297V91.2965H88.3357V101.917H86.9317V91.2965ZM94.8707 90.0365H96.2747V94.9325H102.935V90.0365H104.339V101.917H102.935V96.1925H96.2747V101.917H94.8707V90.0365Z" fill="white"/>
<path d="M77.2784 108.907V122.107H75.7184V110.747L72.8384 111.647L72.4584 110.307L76.6984 108.907H77.2784ZM82.6365 122.327C82.2899 122.327 81.9899 122.207 81.7365 121.967C81.4965 121.727 81.3765 121.427 81.3765 121.067C81.3765 120.707 81.4965 120.407 81.7365 120.167C81.9899 119.927 82.2899 119.807 82.6365 119.807C82.9832 119.807 83.2765 119.927 83.5165 120.167C83.7699 120.407 83.8965 120.707 83.8965 121.067C83.8965 121.427 83.7699 121.727 83.5165 121.967C83.2765 122.207 82.9832 122.327 82.6365 122.327ZM91.682 113.867C92.3487 113.934 92.9753 114.134 93.562 114.467C94.1487 114.787 94.622 115.241 94.982 115.827C95.342 116.414 95.522 117.114 95.522 117.927C95.522 118.807 95.3087 119.581 94.882 120.247C94.4553 120.914 93.882 121.427 93.162 121.787C92.442 122.147 91.6687 122.327 90.842 122.327C89.8287 122.327 88.9353 122.074 88.162 121.567C87.402 121.047 86.802 120.387 86.362 119.587L87.462 118.807C87.8887 119.434 88.3687 119.941 88.902 120.327C89.4353 120.701 90.0753 120.887 90.822 120.887C91.7287 120.887 92.4687 120.621 93.042 120.087C93.6153 119.541 93.902 118.827 93.902 117.947C93.902 117.094 93.6087 116.427 93.022 115.947C92.4487 115.467 91.6287 115.227 90.562 115.227H89.262V114.767L92.722 110.347H87.262V108.907H95.182V109.367L91.682 113.867ZM107.524 119.647H105.604V122.107H104.044V119.647H97.4237V119.207L101.764 108.907H103.364L99.4037 118.287H104.044V113.887H105.604V118.287H107.524V119.647ZM117.49 108.907V109.367L110.81 122.107H109.11L115.39 110.307H108.67V108.907H117.49Z" fill="white"/>
<path d="M80.7324 170.005H74.9004L73.8924 172.417H72.4164L77.5644 160.339H78.0864L83.2344 172.417H81.7404L80.7324 170.005ZM77.8164 162.895L75.4404 168.745H80.1924L77.8164 162.895ZM93.4239 172.417L89.7339 167.431H87.1959V172.417H85.7919V160.537H89.9679C90.7359 160.537 91.4019 160.687 91.9659 160.987C92.5419 161.275 92.9859 161.683 93.2979 162.211C93.6099 162.727 93.7659 163.315 93.7659 163.975C93.7659 164.779 93.5439 165.475 93.0999 166.063C92.6559 166.639 92.0439 167.041 91.2639 167.269L95.0619 172.417H93.4239ZM87.1959 166.171H89.9139C90.6819 166.171 91.2699 165.973 91.6779 165.577C92.0979 165.181 92.3079 164.653 92.3079 163.993C92.3079 163.345 92.0979 162.817 91.6779 162.409C91.2579 162.001 90.6699 161.797 89.9139 161.797H87.1959V166.171ZM97.3492 160.537H100.877C102.197 160.537 103.343 160.789 104.315 161.293C105.287 161.797 106.031 162.499 106.547 163.399C107.075 164.287 107.339 165.307 107.339 166.459C107.339 167.599 107.075 168.619 106.547 169.519C106.031 170.419 105.287 171.127 104.315 171.643C103.343 172.159 102.197 172.417 100.877 172.417H97.3492V160.537ZM100.859 171.157C101.891 171.157 102.785 170.953 103.541 170.545C104.309 170.137 104.891 169.579 105.287 168.871C105.683 168.163 105.881 167.359 105.881 166.459C105.881 165.547 105.683 164.743 105.287 164.047C104.891 163.339 104.315 162.787 103.559 162.391C102.803 161.995 101.903 161.797 100.859 161.797H98.7532V171.157H100.859ZM110.207 160.537H117.821V161.797H111.611V165.433H116.363V166.693H111.611V171.157H118.037V172.417H110.207V160.537Z" fill="white"/>
<path d="M77.2784 179.407V192.607H75.7184V181.247L72.8384 182.147L72.4584 180.807L76.6984 179.407H77.2784ZM90.2365 189.247C90.2365 189.954 90.0432 190.581 89.6565 191.127C89.2832 191.661 88.7432 192.081 88.0365 192.387C87.3432 192.681 86.5365 192.827 85.6165 192.827C84.6965 192.827 83.8832 192.681 83.1765 192.387C82.4699 192.081 81.9232 191.654 81.5365 191.107C81.1499 190.561 80.9565 189.934 80.9565 189.227C80.9565 187.614 82.0032 186.441 84.0965 185.707C83.2965 185.334 82.6765 184.887 82.2365 184.367C81.7965 183.847 81.5765 183.214 81.5765 182.467C81.5765 181.441 81.9565 180.641 82.7165 180.067C83.4899 179.481 84.4565 179.187 85.6165 179.187C86.7499 179.187 87.6965 179.481 88.4565 180.067C89.2299 180.641 89.6165 181.441 89.6165 182.467C89.6165 183.881 88.7765 184.954 87.0965 185.687C89.1899 186.474 90.2365 187.661 90.2365 189.247ZM83.1165 182.527C83.1165 183.087 83.3165 183.547 83.7165 183.907C84.1299 184.267 84.7565 184.621 85.5965 184.967C86.4365 184.634 87.0565 184.287 87.4565 183.927C87.8699 183.567 88.0765 183.101 88.0765 182.527C88.0765 181.901 87.8432 181.414 87.3765 181.067C86.9232 180.707 86.3365 180.527 85.6165 180.527C84.8832 180.527 84.2832 180.707 83.8165 181.067C83.3499 181.414 83.1165 181.901 83.1165 182.527ZM85.6165 191.487C86.5899 191.487 87.3365 191.281 87.8565 190.867C88.3899 190.441 88.6565 189.881 88.6565 189.187C88.6565 188.494 88.3965 187.954 87.8765 187.567C87.3699 187.167 86.6165 186.787 85.6165 186.427C84.6032 186.787 83.8365 187.167 83.3165 187.567C82.7965 187.967 82.5365 188.507 82.5365 189.187C82.5365 189.881 82.8032 190.441 83.3365 190.867C83.8832 191.281 84.6432 191.487 85.6165 191.487ZM94.599 192.827C94.2524 192.827 93.9524 192.707 93.699 192.467C93.459 192.227 93.339 191.927 93.339 191.567C93.339 191.207 93.459 190.907 93.699 190.667C93.9524 190.427 94.2524 190.307 94.599 190.307C94.9457 190.307 95.239 190.427 95.479 190.667C95.7324 190.907 95.859 191.207 95.859 191.567C95.859 191.927 95.7324 192.227 95.479 192.467C95.239 192.707 94.9457 192.827 94.599 192.827ZM107.129 179.407V179.867L100.449 192.607H98.7492L105.029 180.807H98.3092V179.407H107.129ZM112.537 184.067C113.311 184.067 114.024 184.261 114.677 184.647C115.344 185.021 115.871 185.541 116.257 186.207C116.644 186.861 116.837 187.587 116.837 188.387C116.837 189.214 116.637 189.967 116.237 190.647C115.837 191.327 115.291 191.861 114.597 192.247C113.917 192.634 113.164 192.827 112.337 192.827C111.524 192.827 110.771 192.634 110.077 192.247C109.384 191.861 108.837 191.327 108.437 190.647C108.037 189.967 107.837 189.207 107.837 188.367C107.837 187.687 107.957 187.081 108.197 186.547C108.451 186.014 108.844 185.354 109.377 184.567C109.444 184.487 109.497 184.414 109.537 184.347C109.577 184.281 109.617 184.221 109.657 184.167L112.937 179.407H114.797L111.437 184.247C111.757 184.127 112.124 184.067 112.537 184.067ZM112.337 191.407C112.884 191.407 113.384 191.274 113.837 191.007C114.291 190.741 114.644 190.381 114.897 189.927C115.164 189.461 115.297 188.947 115.297 188.387C115.297 187.841 115.164 187.341 114.897 186.887C114.644 186.421 114.291 186.054 113.837 185.787C113.384 185.521 112.884 185.387 112.337 185.387C111.791 185.387 111.291 185.521 110.837 185.787C110.384 186.054 110.024 186.421 109.757 186.887C109.504 187.341 109.377 187.841 109.377 188.387C109.377 188.947 109.504 189.461 109.757 189.927C110.024 190.381 110.384 190.741 110.837 191.007C111.291 191.274 111.791 191.407 112.337 191.407ZM123.773 179.187C124.586 179.187 125.333 179.381 126.013 179.767C126.706 180.154 127.253 180.687 127.653 181.367C128.053 182.047 128.253 182.807 128.253 183.647C128.253 184.167 128.173 184.654 128.013 185.107C127.866 185.547 127.686 185.934 127.473 186.267C127.273 186.601 126.926 187.127 126.433 187.847L123.153 192.607H121.313L124.673 187.767C124.353 187.887 123.98 187.947 123.553 187.947C122.793 187.947 122.08 187.761 121.413 187.387C120.76 187.001 120.233 186.481 119.833 185.827C119.446 185.161 119.253 184.427 119.253 183.627C119.253 182.801 119.453 182.047 119.853 181.367C120.266 180.687 120.813 180.154 121.493 179.767C122.186 179.381 122.946 179.187 123.773 179.187ZM123.773 186.627C124.32 186.627 124.82 186.494 125.273 186.227C125.726 185.961 126.08 185.601 126.333 185.147C126.586 184.681 126.713 184.167 126.713 183.607C126.713 183.047 126.586 182.541 126.333 182.087C126.08 181.621 125.726 181.261 125.273 181.007C124.82 180.741 124.32 180.607 123.773 180.607C123.226 180.607 122.72 180.741 122.253 181.007C121.8 181.261 121.44 181.621 121.173 182.087C120.92 182.541 120.793 183.047 120.793 183.607C120.793 184.167 120.92 184.681 121.173 185.147C121.44 185.601 121.8 185.961 122.253 186.227C122.72 186.494 123.226 186.627 123.773 186.627Z" fill="white"/>
</svg>
