<svg width="1534" height="445" viewBox="0 0 1534 445" fill="none" xmlns="http://www.w3.org/2000/svg">
<path fill-rule="evenodd" clip-rule="evenodd" d="M189.094 346.71C135.718 332.228 96.459 283.418 96.459 225.435C96.459 206.695 100.56 188.913 107.913 172.938H162.899C164.694 172.938 166.488 171.143 164.694 169.347C161.104 165.756 159.821 158.645 161.616 153.258C162.932 149.308 166.488 146.006 171.873 144.21C179.052 142.415 184.437 144.21 188.027 147.801C188.112 147.887 188.195 147.97 188.277 148.052C190.595 150.372 191.486 151.263 192.155 151.12C192.573 151.031 192.905 150.539 193.443 149.742C193.504 149.651 193.568 149.557 193.634 149.459C195.696 146.429 197.882 144.957 202.206 144.957H211.29H232.745C245.309 144.957 256.231 154.349 256.231 165.756V165.757C256.231 166.654 256.231 167.103 256.456 167.327C256.68 167.552 257.129 167.552 258.026 167.552H290.333C316.128 167.552 337 189.098 337 216.031V223.213C337 253.736 317.462 278.873 287.658 280.669H264.666H243.667C234.693 280.669 223.924 277.078 216.744 271.691C214.883 270.294 213.155 271.691 213.155 273.487V278.873C213.155 304.77 204.039 328.479 189.094 346.71ZM230.484 175.492C230.484 181.103 225.935 185.651 220.325 185.651C214.714 185.651 210.166 181.103 210.166 175.492C210.166 169.881 214.714 165.333 220.325 165.333C225.935 165.333 230.484 169.881 230.484 175.492Z" fill="#2F69FF"/>
<path fill-rule="evenodd" clip-rule="evenodd" d="M222.052 364.457C300.247 364.457 363.65 301.037 363.65 222.789C363.65 144.542 300.247 81.1217 222.052 81.1217C143.856 81.1217 80.4537 144.542 80.4537 222.789C80.4537 301.037 143.856 364.457 222.052 364.457ZM222.052 380.362C309.038 380.362 379.555 309.814 379.555 222.789C379.555 135.764 309.038 65.2168 222.052 65.2168C135.065 65.2168 64.5488 135.764 64.5488 222.789C64.5488 309.814 135.065 380.362 222.052 380.362Z" fill="#2F69FF"/>
<path fill-rule="evenodd" clip-rule="evenodd" d="M222.049 402.862C321.439 402.862 402.02 322.253 402.02 222.807C402.02 123.361 321.439 42.7517 222.049 42.7517C122.658 42.7517 42.0778 123.361 42.0778 222.807C42.0778 322.253 122.658 402.862 222.049 402.862ZM222.049 413.465C327.3 413.465 412.623 328.105 412.623 222.807C412.623 117.509 327.3 32.1484 222.049 32.1484C116.798 32.1484 31.4746 117.509 31.4746 222.807C31.4746 328.105 116.798 413.465 222.049 413.465Z" fill="#2F69FF"/>
<path fill-rule="evenodd" clip-rule="evenodd" d="M222.048 11.572C105.443 11.572 10.9118 106.142 10.9118 222.804C10.9118 225.732 8.53822 228.106 5.61021 228.106C2.68221 228.106 0.308594 225.732 0.308594 222.804C0.308594 100.29 99.5825 0.96875 222.048 0.96875C224.976 0.96875 227.35 3.34237 227.35 6.27037C227.35 9.19837 224.976 11.572 222.048 11.572ZM438.486 217.502C441.414 217.502 443.788 219.876 443.788 222.804C443.788 345.318 344.514 444.639 222.048 444.639C219.12 444.639 216.746 442.266 216.746 439.338C216.746 436.41 219.12 434.036 222.048 434.036C338.653 434.036 433.184 339.466 433.184 222.804C433.184 219.876 435.558 217.502 438.486 217.502ZM9.65483 265.02C12.5125 264.382 15.3462 266.182 15.9839 269.039C28.4293 324.806 62.9252 372.27 109.854 401.779C112.333 403.338 113.079 406.61 111.52 409.089C109.961 411.568 106.688 412.314 104.21 410.755C54.9443 379.777 18.7115 329.943 5.63523 271.349C4.99749 268.491 6.79712 265.657 9.65483 265.02Z" fill="#2F69FF"/>
<path fill-rule="evenodd" clip-rule="evenodd" d="M222.052 364.457C300.247 364.457 363.65 301.037 363.65 222.789C363.65 144.542 300.247 81.1217 222.052 81.1217C143.856 81.1217 80.4537 144.542 80.4537 222.789C80.4537 301.037 143.856 364.457 222.052 364.457ZM222.052 380.362C309.038 380.362 379.555 309.814 379.555 222.789C379.555 135.764 309.038 65.2168 222.052 65.2168C135.065 65.2168 64.5488 135.764 64.5488 222.789C64.5488 309.814 135.065 380.362 222.052 380.362Z" fill="#2F69FF"/>
<path fill-rule="evenodd" clip-rule="evenodd" d="M222.049 402.862C321.439 402.862 402.02 322.253 402.02 222.807C402.02 123.361 321.439 42.7517 222.049 42.7517C122.658 42.7517 42.0778 123.361 42.0778 222.807C42.0778 322.253 122.658 402.862 222.049 402.862ZM222.049 413.465C327.3 413.465 412.623 328.105 412.623 222.807C412.623 117.509 327.3 32.1484 222.049 32.1484C116.798 32.1484 31.4746 117.509 31.4746 222.807C31.4746 328.105 116.798 413.465 222.049 413.465Z" fill="#2F69FF"/>
<path fill-rule="evenodd" clip-rule="evenodd" d="M222.048 11.572C105.443 11.572 10.9118 106.142 10.9118 222.804C10.9118 225.732 8.53822 228.106 5.61021 228.106C2.68221 228.106 0.308594 225.732 0.308594 222.804C0.308594 100.29 99.5825 0.96875 222.048 0.96875C224.976 0.96875 227.35 3.34237 227.35 6.27037C227.35 9.19837 224.976 11.572 222.048 11.572ZM438.486 217.502C441.414 217.502 443.788 219.876 443.788 222.804C443.788 345.318 344.514 444.639 222.048 444.639C219.12 444.639 216.746 442.266 216.746 439.338C216.746 436.41 219.12 434.036 222.048 434.036C338.653 434.036 433.184 339.466 433.184 222.804C433.184 219.876 435.558 217.502 438.486 217.502ZM9.65483 265.02C12.5125 264.382 15.3462 266.182 15.9839 269.039C28.4293 324.806 62.9252 372.27 109.854 401.779C112.333 403.338 113.079 406.61 111.52 409.089C109.961 411.568 106.688 412.314 104.21 410.755C54.9443 379.777 18.7115 329.943 5.63523 271.349C4.99749 268.491 6.79712 265.657 9.65483 265.02Z" fill="#2F69FF"/>
<path fill-rule="evenodd" clip-rule="evenodd" d="M222.048 11.572C105.443 11.572 10.9118 106.142 10.9118 222.804C10.9118 225.732 8.53822 228.106 5.61021 228.106C2.68221 228.106 0.308594 225.732 0.308594 222.804C0.308594 100.29 99.5825 0.96875 222.048 0.96875C224.976 0.96875 227.35 3.34237 227.35 6.27037C227.35 9.19837 224.976 11.572 222.048 11.572ZM438.486 217.502C441.414 217.502 443.788 219.876 443.788 222.804C443.788 345.318 344.514 444.639 222.048 444.639C219.12 444.639 216.746 442.266 216.746 439.338C216.746 436.41 219.12 434.036 222.048 434.036C338.653 434.036 433.184 339.466 433.184 222.804C433.184 219.876 435.558 217.502 438.486 217.502ZM9.65483 265.02C12.5125 264.382 15.3462 266.182 15.9839 269.039C28.4293 324.806 62.9252 372.27 109.854 401.779C112.333 403.338 113.079 406.61 111.52 409.089C109.961 411.568 106.688 412.314 104.21 410.755C54.9443 379.777 18.7115 329.943 5.63523 271.349C4.99749 268.491 6.79712 265.657 9.65483 265.02Z" fill="#2F69FF"/>
<path d="M572.07 377.163V316.592H592.967C595.967 316.592 598.692 317.213 601.144 318.453C603.625 319.664 605.586 321.438 607.028 323.774C608.47 326.111 609.191 328.908 609.191 332.168C609.191 333.927 608.888 335.629 608.283 337.273C607.706 338.888 606.898 340.287 605.86 341.47C604.85 342.623 603.697 343.402 602.399 343.806C604.216 344.267 605.759 345.089 607.028 346.272C608.297 347.426 609.321 348.781 610.1 350.339C610.907 351.896 611.484 353.526 611.83 355.228C612.176 356.929 612.35 358.573 612.35 360.16C612.35 363.506 611.585 366.462 610.057 369.029C608.557 371.567 606.538 373.557 603.999 374.999C601.461 376.442 598.664 377.163 595.606 377.163H572.07ZM579.339 370.76H594.957C596.947 370.76 598.75 370.255 600.365 369.245C602.009 368.207 603.322 366.794 604.302 365.005C605.283 363.217 605.773 361.198 605.773 358.948C605.773 356.958 605.283 355.083 604.302 353.324C603.322 351.536 602.009 350.094 600.365 348.998C598.75 347.902 596.947 347.353 594.957 347.353H579.339V370.76ZM579.339 341.08H592.275C594.928 341.08 597.193 340.301 599.067 338.744C600.971 337.157 601.923 334.951 601.923 332.124C601.923 329.067 600.971 326.788 599.067 325.289C597.193 323.76 594.928 322.996 592.275 322.996H579.339V341.08Z" fill="#2F69FF"/>
<path d="M679.063 378.288C674.218 378.288 670.007 377.105 666.43 374.74C662.882 372.375 660.142 369.202 658.21 365.222C656.306 361.213 655.354 356.771 655.354 351.896V316.592H662.623V351.896C662.623 355.357 663.257 358.545 664.526 361.458C665.824 364.371 667.685 366.693 670.108 368.423C672.559 370.154 675.545 371.019 679.063 371.019C682.64 371.019 685.64 370.154 688.062 368.423C690.485 366.664 692.317 364.342 693.557 361.458C694.826 358.545 695.461 355.357 695.461 351.896V316.592H702.729V351.896C702.729 355.559 702.181 358.992 701.085 362.193C699.989 365.366 698.403 368.164 696.326 370.587C694.278 373.009 691.798 374.899 688.884 376.254C685.971 377.61 682.698 378.288 679.063 378.288Z" fill="#2F69FF"/>
<path d="M769.094 378.288C765.835 378.288 762.691 377.783 759.662 376.773C756.634 375.735 753.98 374.264 751.702 372.36C749.452 370.457 747.851 368.193 746.899 365.568L753.692 363.015C754.269 364.63 755.336 366.044 756.893 367.255C758.48 368.438 760.34 369.361 762.475 370.024C764.609 370.687 766.815 371.019 769.094 371.019C771.69 371.019 774.098 370.601 776.319 369.764C778.569 368.899 780.386 367.702 781.771 366.174C783.155 364.645 783.847 362.857 783.847 360.809C783.847 358.703 783.126 356.987 781.684 355.66C780.242 354.305 778.396 353.237 776.146 352.459C773.896 351.651 771.546 351.031 769.094 350.598C764.912 349.906 761.162 348.925 757.845 347.656C754.557 346.358 751.947 344.556 750.014 342.248C748.111 339.941 747.159 336.898 747.159 333.119C747.159 329.601 748.168 326.529 750.187 323.904C752.235 321.279 754.932 319.246 758.278 317.804C761.624 316.362 765.229 315.641 769.094 315.641C772.296 315.641 775.396 316.145 778.396 317.155C781.424 318.136 784.092 319.578 786.4 321.481C788.707 323.385 790.366 325.707 791.375 328.447L784.496 330.956C783.919 329.312 782.838 327.899 781.251 326.716C779.694 325.505 777.848 324.582 775.713 323.947C773.608 323.284 771.401 322.952 769.094 322.952C766.527 322.923 764.133 323.342 761.912 324.207C759.691 325.072 757.889 326.269 756.504 327.798C755.12 329.327 754.427 331.1 754.427 333.119C754.427 335.542 755.062 337.403 756.331 338.701C757.629 339.97 759.388 340.922 761.609 341.556C763.83 342.191 766.325 342.753 769.094 343.243C773.017 343.907 776.651 344.96 779.997 346.402C783.342 347.815 786.025 349.704 788.044 352.069C790.092 354.434 791.116 357.348 791.116 360.809C791.116 364.328 790.092 367.399 788.044 370.024C786.025 372.649 783.342 374.682 779.997 376.124C776.651 377.567 773.017 378.288 769.094 378.288Z" fill="#2F69FF"/>
<path d="M837.332 377.163V316.592H844.601V377.163H837.332Z" fill="#2F69FF"/>
<path d="M892.507 377.163V316.592H900.381L930.623 364.01V316.592H937.891V377.163H930.06L899.732 329.745V377.163H892.507Z" fill="#2F69FF"/>
<path d="M984.435 377.163V316.592H1021.6V323.861H991.703V341.08H1016.19V348.349H991.703V369.894H1021.6V377.163H984.435Z" fill="#2F69FF"/>
<path d="M1087.02 378.288C1083.76 378.288 1080.62 377.783 1077.59 376.773C1074.56 375.735 1071.91 374.264 1069.63 372.36C1067.38 370.457 1065.78 368.193 1064.83 365.568L1071.62 363.015C1072.2 364.63 1073.26 366.044 1074.82 367.255C1076.41 368.438 1078.27 369.361 1080.4 370.024C1082.54 370.687 1084.74 371.019 1087.02 371.019C1089.62 371.019 1092.02 370.601 1094.25 369.764C1096.5 368.899 1098.31 367.702 1099.7 366.174C1101.08 364.645 1101.77 362.857 1101.77 360.809C1101.77 358.703 1101.05 356.987 1099.61 355.66C1098.17 354.305 1096.32 353.237 1094.07 352.459C1091.82 351.651 1089.47 351.031 1087.02 350.598C1082.84 349.906 1079.09 348.925 1075.77 347.656C1072.48 346.358 1069.87 344.556 1067.94 342.248C1066.04 339.941 1065.09 336.898 1065.09 333.119C1065.09 329.601 1066.09 326.529 1068.11 323.904C1070.16 321.279 1072.86 319.246 1076.2 317.804C1079.55 316.362 1083.16 315.641 1087.02 315.641C1090.22 315.641 1093.32 316.145 1096.32 317.155C1099.35 318.136 1102.02 319.578 1104.33 321.481C1106.63 323.385 1108.29 325.707 1109.3 328.447L1102.42 330.956C1101.85 329.312 1100.76 327.899 1099.18 326.716C1097.62 325.505 1095.77 324.582 1093.64 323.947C1091.53 323.284 1089.33 322.952 1087.02 322.952C1084.45 322.923 1082.06 323.342 1079.84 324.207C1077.62 325.072 1075.81 326.269 1074.43 327.798C1073.05 329.327 1072.35 331.1 1072.35 333.119C1072.35 335.542 1072.99 337.403 1074.26 338.701C1075.56 339.97 1077.31 340.922 1079.54 341.556C1081.76 342.191 1084.25 342.753 1087.02 343.243C1090.94 343.907 1094.58 344.96 1097.92 346.402C1101.27 347.815 1103.95 349.704 1105.97 352.069C1108.02 354.434 1109.04 357.348 1109.04 360.809C1109.04 364.328 1108.02 367.399 1105.97 370.024C1103.95 372.649 1101.27 374.682 1097.92 376.124C1094.58 377.567 1090.94 378.288 1087.02 378.288Z" fill="#2F69FF"/>
<path d="M1174.78 378.288C1171.52 378.288 1168.38 377.783 1165.35 376.773C1162.32 375.735 1159.67 374.264 1157.39 372.36C1155.14 370.457 1153.54 368.193 1152.59 365.568L1159.38 363.015C1159.96 364.63 1161.02 366.044 1162.58 367.255C1164.17 368.438 1166.03 369.361 1168.16 370.024C1170.3 370.687 1172.5 371.019 1174.78 371.019C1177.38 371.019 1179.79 370.601 1182.01 369.764C1184.26 368.899 1186.08 367.702 1187.46 366.174C1188.84 364.645 1189.54 362.857 1189.54 360.809C1189.54 358.703 1188.82 356.987 1187.37 355.66C1185.93 354.305 1184.08 353.237 1181.84 352.459C1179.59 351.651 1177.23 351.031 1174.78 350.598C1170.6 349.906 1166.85 348.925 1163.53 347.656C1160.25 346.358 1157.64 344.556 1155.7 342.248C1153.8 339.941 1152.85 336.898 1152.85 333.119C1152.85 329.601 1153.86 326.529 1155.88 323.904C1157.92 321.279 1160.62 319.246 1163.97 317.804C1167.31 316.362 1170.92 315.641 1174.78 315.641C1177.98 315.641 1181.09 316.145 1184.08 317.155C1187.11 318.136 1189.78 319.578 1192.09 321.481C1194.4 323.385 1196.05 325.707 1197.06 328.447L1190.19 330.956C1189.61 329.312 1188.53 327.899 1186.94 326.716C1185.38 325.505 1183.54 324.582 1181.4 323.947C1179.3 323.284 1177.09 322.952 1174.78 322.952C1172.22 322.923 1169.82 323.342 1167.6 324.207C1165.38 325.072 1163.58 326.269 1162.19 327.798C1160.81 329.327 1160.12 331.1 1160.12 333.119C1160.12 335.542 1160.75 337.403 1162.02 338.701C1163.32 339.97 1165.08 340.922 1167.3 341.556C1169.52 342.191 1172.01 342.753 1174.78 343.243C1178.71 343.907 1182.34 344.96 1185.69 346.402C1189.03 347.815 1191.71 349.704 1193.73 352.069C1195.78 354.434 1196.8 357.348 1196.8 360.809C1196.8 364.328 1195.78 367.399 1193.73 370.024C1191.71 372.649 1189.03 374.682 1185.69 376.124C1182.34 377.567 1178.71 378.288 1174.78 378.288Z" fill="#2F69FF"/>
<path fill-rule="evenodd" clip-rule="evenodd" d="M804.68 213.263C803.106 208.994 800.878 205.317 798.042 202.289C800.117 200.405 801.971 198.275 803.579 195.89C808.121 189.204 810.438 181.723 810.438 173.659C810.438 161.588 805.774 151.354 796.54 143.749C787.178 136.04 774.105 132.933 758.843 132.933H722.142C717.753 132.933 713.797 134.65 710.799 137.817C707.809 140.866 706.303 144.753 706.303 148.929V245.328C706.303 249.558 707.848 253.49 710.914 256.557C713.981 259.623 717.913 261.168 722.142 261.168C726.319 261.168 730.206 259.662 733.256 256.671C736.422 253.673 738.139 249.718 738.139 245.328V217.536H761.994C767.934 217.536 770.701 218.999 772.03 220.328L772.076 220.374L772.123 220.42C774.544 222.77 775.867 225.233 776.426 227.904L776.434 227.945C777.231 231.664 777.658 235.871 777.658 240.603V245.328C777.658 249.319 778.919 253.267 781.869 256.462L782.106 256.719L782.363 256.957C785.639 259.981 789.686 261.168 793.654 261.168C797.884 261.168 801.816 259.623 804.883 256.557C807.949 253.49 809.493 249.558 809.493 245.328V238.083C809.493 229.782 807.846 221.493 804.68 213.263ZM757.898 186.488H738.139V163.981H757.111C767.779 163.981 773.075 165.711 775.198 167.291L775.276 167.347C777.375 168.874 778.603 170.927 778.603 174.762C778.603 178.387 777.354 180.677 774.466 182.602L774.4 182.647C771.094 184.894 765.885 186.488 757.898 186.488ZM878.497 256.557L878.611 256.671L878.73 256.782C881.809 259.64 885.665 261.168 889.883 261.168C894.112 261.168 898.044 259.623 901.111 256.557C904.177 253.49 905.722 249.558 905.722 245.328V207.973L942.066 157.242L942.227 156.981C943.798 154.428 944.739 151.519 944.784 148.373C944.949 144.137 943.501 140.145 940.447 137.03C937.45 133.862 933.494 132.145 929.104 132.145C923.236 132.145 918.546 135.091 915.541 139.636L889.883 176.957L864.225 139.636C861.219 135.091 856.529 132.145 850.661 132.145C846.218 132.145 842.219 133.904 839.208 137.146L839.191 137.165C836.322 140.273 834.98 144.124 834.98 148.142C834.98 151.376 835.929 154.365 837.538 156.981L837.694 157.234L873.886 207.964V245.328C873.886 249.558 875.43 253.49 878.497 256.557ZM1024.51 189.323H1006.01V163.981H1024.51C1034.6 163.981 1039.21 166.01 1041 167.714L1041.08 167.785C1043.68 170.203 1044.9 172.961 1044.9 176.652C1044.9 180.342 1043.68 183.1 1041.08 185.518L1041 185.59C1039.21 187.294 1034.6 189.323 1024.51 189.323ZM978.782 256.557C981.849 259.623 985.781 261.168 990.011 261.168C994.187 261.168 998.074 259.662 1001.12 256.671C1004.29 253.673 1006.01 249.718 1006.01 245.328V220.371H1025.92C1036.8 220.371 1046.49 218.552 1054.46 214.301C1061.99 210.284 1067.95 204.819 1071.65 197.701C1075.05 191.166 1076.73 184.105 1076.73 176.652C1076.73 169.198 1075.05 162.138 1071.65 155.603C1067.95 148.485 1061.99 143.02 1054.46 139.003C1046.49 134.752 1036.8 132.933 1025.92 132.933H990.011C985.621 132.933 981.666 134.649 978.668 137.816C975.677 140.865 974.171 144.752 974.171 148.929V245.328C974.171 249.558 975.716 253.49 978.782 256.557ZM1157.9 189.323H1139.4V163.981H1157.9C1168 163.981 1172.6 166.01 1174.39 167.714L1174.47 167.785C1177.08 170.203 1178.29 172.961 1178.29 176.652C1178.29 180.342 1177.07 183.1 1174.47 185.518L1174.4 185.59C1172.6 187.294 1168 189.323 1157.9 189.323ZM1112.18 256.557C1115.24 259.623 1119.18 261.168 1123.41 261.168C1127.58 261.168 1131.47 259.662 1134.52 256.672C1137.69 253.675 1139.4 249.719 1139.4 245.328V220.371H1159.32C1170.19 220.371 1179.88 218.552 1187.85 214.301C1195.39 210.284 1201.34 204.819 1205.04 197.701C1208.44 191.166 1210.13 184.105 1210.13 176.652C1210.13 169.198 1208.44 162.138 1205.04 155.603C1201.34 148.485 1195.39 143.02 1187.85 139.003C1179.88 134.752 1170.19 132.933 1159.32 132.933H1123.41C1119.02 132.933 1115.06 134.649 1112.06 137.816C1109.07 140.865 1107.57 144.752 1107.57 148.929V245.328C1107.57 249.558 1109.11 253.49 1112.18 256.557ZM1234.35 196.49L1234.35 196.656L1234.35 196.823C1234.58 209.023 1237.21 220.172 1242.46 230.057C1247.73 239.999 1255.29 247.867 1265 253.521C1274.82 259.239 1286.05 261.955 1298.39 261.955C1310.71 261.955 1321.9 259.245 1331.63 253.51C1341.33 247.86 1348.88 240 1354.15 230.073C1359.49 220.107 1362.19 208.959 1362.42 196.824L1362.43 196.656L1362.42 196.488C1362.19 184.37 1359.5 173.27 1354.15 163.395C1348.88 153.38 1341.34 145.461 1331.63 139.802C1321.9 134.068 1310.71 131.357 1298.39 131.357C1286.05 131.357 1274.82 134.073 1265 139.792C1255.29 145.445 1247.73 153.314 1242.46 163.255C1237.21 173.14 1234.58 184.29 1234.35 196.49ZM1315.72 226.675C1311.1 229.493 1305.44 231.065 1298.39 231.065C1291.22 231.065 1285.51 229.489 1280.92 226.69C1276.24 223.78 1272.68 219.869 1270.14 214.795C1267.57 209.644 1266.18 203.66 1266.18 196.656C1266.18 189.652 1267.57 183.668 1270.14 178.518C1272.68 173.443 1276.24 169.532 1280.92 166.622C1285.51 163.824 1291.22 162.248 1298.39 162.248C1305.44 162.248 1311.1 163.82 1315.72 166.638C1320.51 169.56 1324.11 173.471 1326.63 178.518C1329.21 183.668 1330.59 189.652 1330.59 196.656C1330.59 203.66 1329.21 209.644 1326.63 214.795C1324.11 219.841 1320.51 223.752 1315.72 226.675Z" fill="#2F69FF"/>
<path fill-rule="evenodd" clip-rule="evenodd" d="M593.871 254.076L593.928 254.108L593.986 254.139C603.786 259.406 614.684 261.955 626.482 261.955C634.283 261.955 641.506 261.04 648.048 259.068C654.378 257.191 660.582 254.515 666.655 251.082C668.988 249.796 671.092 247.93 672.567 245.381C674.048 242.824 674.611 240.072 674.611 237.453C674.611 235.225 674.145 233.081 673.222 231.123C672.578 229.757 671.711 228.481 670.625 227.33L669.948 226.656C666.951 223.86 663.225 222.716 659.56 222.716C657.313 222.716 655.003 223.174 652.811 224.27L652.741 224.305L652.671 224.342C648.506 226.519 644.543 228.119 640.774 229.196C637.317 230.184 633.062 230.749 627.899 230.749C620.098 230.749 613.977 229.176 609.173 226.439C604.312 223.506 600.729 219.664 598.251 214.819C595.771 209.663 594.436 203.667 594.436 196.656C594.436 189.619 595.781 183.682 598.251 178.65C600.743 173.676 604.328 169.857 609.154 167.041L609.192 167.019C613.989 164.188 620.098 162.563 627.899 162.563C633.062 162.563 637.317 163.129 640.774 164.116C644.543 165.193 648.506 166.794 652.671 168.971L652.741 169.007L652.811 169.042C655.003 170.138 657.313 170.596 659.56 170.596C663.376 170.596 667.26 169.356 670.316 166.3L670.45 166.166L670.579 166.026C673.076 163.302 674.611 159.819 674.611 155.86C674.611 153.24 674.048 150.488 672.567 147.931C671.092 145.383 668.988 143.516 666.655 142.23C660.582 138.797 654.379 136.122 648.049 134.245C641.507 132.272 634.283 131.357 626.482 131.357C614.657 131.357 603.738 133.971 593.929 139.362C584.126 144.701 576.403 152.473 570.808 162.447L570.79 162.479C565.224 172.497 562.601 183.986 562.601 196.656C562.601 209.329 565.225 220.852 570.768 230.952L570.799 231.008L570.83 231.063C576.427 240.919 584.131 248.651 593.871 254.076Z" fill="#2F69FF"/>
</svg>
