<svg width="183" height="54" viewBox="0 0 183 54" fill="none" xmlns="http://www.w3.org/2000/svg">
<path fill-rule="evenodd" clip-rule="evenodd" d="M21.9087 41.803C15.8587 39.8727 11.4771 34.2038 11.4771 27.5112C11.4771 24.9784 12.1046 22.5923 13.2125 20.5H19.4083C19.6226 20.5 19.8368 20.2871 19.6226 20.0742C19.1941 19.6485 19.041 18.8055 19.2552 18.1669C19.4124 17.6986 19.8368 17.3072 20.4796 17.0943C21.3366 16.8815 21.9793 17.0943 22.4078 17.52C22.418 17.5301 22.428 17.54 22.4378 17.5497C22.7147 17.825 22.8209 17.9305 22.9008 17.9134C22.9506 17.9027 22.9902 17.8445 23.0544 17.75C23.0617 17.7393 23.0693 17.7281 23.0772 17.7165C23.3233 17.3573 23.5843 17.1828 24.1004 17.1828H25.1848H27.7458C29.2456 17.1828 30.5494 18.2963 30.5494 19.6485C30.5494 19.7547 30.5494 19.808 30.576 19.8346C30.6027 19.8614 30.6562 19.8614 30.7636 19.8614H34.6201C37.6992 19.8614 40.1906 22.4156 40.1906 25.6084V26.4598C40.1906 30.0783 37.8585 33.0583 34.3007 33.2711H31.5562H29.0496C27.9783 33.2711 26.6928 32.8454 25.8358 32.2069C25.6136 32.0413 25.4073 32.2069 25.4073 32.4197V33.0583C25.4073 36.473 24.0612 39.5667 21.9087 41.803ZM27.4758 21.5496C27.4758 22.2194 26.9328 22.7623 26.2631 22.7623C25.5933 22.7623 25.0504 22.2194 25.0504 21.5496C25.0504 20.8799 25.5933 20.3369 26.2631 20.3369C26.9328 20.3369 27.4758 20.8799 27.4758 21.5496Z" fill="url(#paint0_linear_307_1149)"/>
<path fill-rule="evenodd" clip-rule="evenodd" d="M26.4689 44.1058C35.8031 44.1058 43.3714 36.5354 43.3714 27.1951C43.3714 17.8548 35.8031 10.2844 26.4689 10.2844C17.1348 10.2844 9.56652 17.8548 9.56652 27.1951C9.56652 36.5354 17.1348 44.1058 26.4689 44.1058ZM26.4689 46.0044C36.8524 46.0044 45.2699 37.5832 45.2699 27.1951C45.2699 16.807 36.8524 8.3858 26.4689 8.3858C16.0855 8.3858 7.66797 16.807 7.66797 27.1951C7.66797 37.5832 16.0855 46.0044 26.4689 46.0044Z" fill="url(#paint1_linear_307_1149)"/>
<path fill-rule="evenodd" clip-rule="evenodd" d="M26.4684 48.6904C38.3326 48.6904 47.9513 39.0682 47.9513 27.1974C47.9513 15.3266 38.3326 5.70436 26.4684 5.70436C14.6042 5.70436 4.98543 15.3266 4.98543 27.1974C4.98543 39.0682 14.6042 48.6904 26.4684 48.6904ZM26.4684 49.9561C39.0321 49.9561 49.217 39.7667 49.217 27.1974C49.217 14.6281 39.0321 4.43866 26.4684 4.43866C13.9046 4.43866 3.71973 14.6281 3.71973 27.1974C3.71973 39.7667 13.9046 49.9561 26.4684 49.9561Z" fill="url(#paint2_linear_307_1149)"/>
<path fill-rule="evenodd" clip-rule="evenodd" d="M26.4688 1.98243C12.5498 1.98243 1.2657 13.2711 1.2657 27.197C1.2657 27.5465 0.982363 27.8298 0.63285 27.8298C0.283336 27.8298 0 27.5465 0 27.197C0 12.5726 11.8502 0.716736 26.4688 0.716736C26.8183 0.716736 27.1017 1.00007 27.1017 1.34959C27.1017 1.6991 26.8183 1.98243 26.4688 1.98243ZM52.3048 26.5641C52.6543 26.5641 52.9377 26.8475 52.9377 27.197C52.9377 41.8214 41.0874 53.6773 26.4688 53.6773C26.1193 53.6773 25.836 53.3939 25.836 53.0444C25.836 52.6949 26.1193 52.4116 26.4688 52.4116C40.3879 52.4116 51.672 41.1229 51.672 27.197C51.672 26.8475 51.9553 26.5641 52.3048 26.5641ZM1.11565 32.2363C1.45677 32.1601 1.79502 32.375 1.87115 32.7161C3.35674 39.3729 7.47448 45.0387 13.0763 48.5611C13.3722 48.7471 13.4612 49.1378 13.2752 49.4337C13.0891 49.7296 12.6985 49.8186 12.4026 49.6326C6.52181 45.9348 2.19673 39.986 0.635836 32.9918C0.559709 32.6506 0.774529 32.3124 1.11565 32.2363Z" fill="url(#paint3_linear_307_1149)"/>
<path fill-rule="evenodd" clip-rule="evenodd" d="M26.4689 44.1058C35.8031 44.1058 43.3714 36.5354 43.3714 27.1951C43.3714 17.8548 35.8031 10.2844 26.4689 10.2844C17.1348 10.2844 9.56652 17.8548 9.56652 27.1951C9.56652 36.5354 17.1348 44.1058 26.4689 44.1058ZM26.4689 46.0044C36.8524 46.0044 45.2699 37.5832 45.2699 27.1951C45.2699 16.807 36.8524 8.3858 26.4689 8.3858C16.0855 8.3858 7.66797 16.807 7.66797 27.1951C7.66797 37.5832 16.0855 46.0044 26.4689 46.0044Z" fill="url(#paint4_linear_307_1149)"/>
<path fill-rule="evenodd" clip-rule="evenodd" d="M26.4684 48.6904C38.3326 48.6904 47.9513 39.0682 47.9513 27.1974C47.9513 15.3266 38.3326 5.70436 26.4684 5.70436C14.6042 5.70436 4.98543 15.3266 4.98543 27.1974C4.98543 39.0682 14.6042 48.6904 26.4684 48.6904ZM26.4684 49.9561C39.0321 49.9561 49.217 39.7667 49.217 27.1974C49.217 14.6281 39.0321 4.43866 26.4684 4.43866C13.9046 4.43866 3.71973 14.6281 3.71973 27.1974C3.71973 39.7667 13.9046 49.9561 26.4684 49.9561Z" fill="url(#paint5_linear_307_1149)"/>
<path fill-rule="evenodd" clip-rule="evenodd" d="M26.4688 1.98243C12.5498 1.98243 1.2657 13.2711 1.2657 27.197C1.2657 27.5465 0.982363 27.8298 0.63285 27.8298C0.283336 27.8298 0 27.5465 0 27.197C0 12.5726 11.8502 0.716736 26.4688 0.716736C26.8183 0.716736 27.1017 1.00007 27.1017 1.34959C27.1017 1.6991 26.8183 1.98243 26.4688 1.98243ZM52.3048 26.5641C52.6543 26.5641 52.9377 26.8475 52.9377 27.197C52.9377 41.8214 41.0874 53.6773 26.4688 53.6773C26.1193 53.6773 25.836 53.3939 25.836 53.0444C25.836 52.6949 26.1193 52.4116 26.4688 52.4116C40.3879 52.4116 51.672 41.1229 51.672 27.197C51.672 26.8475 51.9553 26.5641 52.3048 26.5641ZM1.11565 32.2363C1.45677 32.1601 1.79502 32.375 1.87115 32.7161C3.35674 39.3729 7.47448 45.0387 13.0763 48.5611C13.3722 48.7471 13.4612 49.1378 13.2752 49.4337C13.0891 49.7296 12.6985 49.8186 12.4026 49.6326C6.52181 45.9348 2.19673 39.986 0.635836 32.9918C0.559709 32.6506 0.774529 32.3124 1.11565 32.2363Z" fill="url(#paint6_linear_307_1149)"/>
<path fill-rule="evenodd" clip-rule="evenodd" d="M26.4688 1.98243C12.5498 1.98243 1.2657 13.2711 1.2657 27.197C1.2657 27.5465 0.982363 27.8298 0.63285 27.8298C0.283336 27.8298 0 27.5465 0 27.197C0 12.5726 11.8502 0.716736 26.4688 0.716736C26.8183 0.716736 27.1017 1.00007 27.1017 1.34959C27.1017 1.6991 26.8183 1.98243 26.4688 1.98243ZM52.3048 26.5641C52.6543 26.5641 52.9377 26.8475 52.9377 27.197C52.9377 41.8214 41.0874 53.6773 26.4688 53.6773C26.1193 53.6773 25.836 53.3939 25.836 53.0444C25.836 52.6949 26.1193 52.4116 26.4688 52.4116C40.3879 52.4116 51.672 41.1229 51.672 27.197C51.672 26.8475 51.9553 26.5641 52.3048 26.5641ZM1.11565 32.2363C1.45677 32.1601 1.79502 32.375 1.87115 32.7161C3.35674 39.3729 7.47448 45.0387 13.0763 48.5611C13.3722 48.7471 13.4612 49.1378 13.2752 49.4337C13.0891 49.7296 12.6985 49.8186 12.4026 49.6326C6.52181 45.9348 2.19673 39.986 0.635836 32.9918C0.559709 32.6506 0.774529 32.3124 1.11565 32.2363Z" fill="url(#paint7_linear_307_1149)"/>
<path d="M74.7073 33.5854C73.4538 33.5854 72.3257 33.3159 71.3229 32.7769C70.3326 32.2254 69.5492 31.442 68.9726 30.4266C68.4085 29.3988 68.1265 28.2017 68.1265 26.8354C68.1265 25.4691 68.4085 24.2782 68.9726 23.2629C69.5492 22.235 70.3326 21.4516 71.3229 20.9126C72.3257 20.3611 73.4538 20.0853 74.7073 20.0853C75.5597 20.0853 76.3181 20.1856 76.9824 20.3861C77.6593 20.5867 78.3299 20.875 78.9943 21.251C79.27 21.4015 79.4079 21.6396 79.4079 21.9655C79.4079 22.1536 79.339 22.3228 79.2011 22.4732C79.0632 22.6111 78.8815 22.68 78.6558 22.68C78.5305 22.68 78.4177 22.655 78.3174 22.6048C77.7658 22.3165 77.2268 22.0972 76.7004 21.9467C76.1739 21.7963 75.566 21.7211 74.8765 21.7211C73.7985 21.7211 72.8772 21.9467 72.1126 22.398C71.3605 22.8367 70.7901 23.4447 70.4016 24.2218C70.0255 24.9865 69.8375 25.8576 69.8375 26.8354C69.8375 27.8131 70.0255 28.6905 70.4016 29.4677C70.7901 30.2323 71.3605 30.8403 72.1126 31.2915C72.8772 31.7303 73.7985 31.9496 74.8765 31.9496C75.566 31.9496 76.1739 31.8744 76.7004 31.724C77.2268 31.5736 77.7658 31.3542 78.3174 31.0659C78.4177 31.0158 78.5305 30.9907 78.6558 30.9907C78.8815 30.9907 79.0632 31.0596 79.2011 31.1975C79.339 31.3354 79.4079 31.5046 79.4079 31.7052C79.4079 32.0311 79.27 32.2693 78.9943 32.4197C78.3299 32.7957 77.6593 33.084 76.9824 33.2846C76.3181 33.4852 75.5597 33.5854 74.7073 33.5854Z" fill="white"/>
<path d="M86.1263 33.4914C85.8881 33.4914 85.6875 33.4099 85.5246 33.247C85.3616 33.084 85.2802 32.8835 85.2802 32.6453V21.1382C85.2802 20.9001 85.3616 20.6995 85.5246 20.5366C85.6875 20.3611 85.8881 20.2733 86.1263 20.2733H90.5072C92.212 20.2733 93.4905 20.6243 94.3429 21.3263C95.1953 22.0282 95.6215 22.9495 95.6215 24.0902C95.6215 24.8423 95.4084 25.5317 94.9822 26.1585C94.5686 26.7727 93.9606 27.2177 93.1584 27.4935C94.0609 27.7316 94.6751 28.2957 95.001 29.1857C95.3394 30.0631 95.5087 30.928 95.5087 31.7804V32.6453C95.5087 32.8835 95.4272 33.084 95.2642 33.247C95.1013 33.4099 94.9007 33.4914 94.6626 33.4914C94.3993 33.4914 94.1862 33.4162 94.0233 33.2658C93.8729 33.1028 93.7976 32.896 93.7976 32.6453V32.0812C93.7976 31.4545 93.7412 30.8779 93.6284 30.3514C93.5156 29.8124 93.2461 29.3361 92.8199 28.9224C92.3937 28.4962 91.7482 28.2832 90.8833 28.2832H86.9912V32.6453C86.9912 32.8835 86.9034 33.084 86.7279 33.247C86.565 33.4099 86.3644 33.4914 86.1263 33.4914ZM90.3944 26.6661C91.4724 26.6661 92.3248 26.453 92.9515 26.0269C93.5908 25.6007 93.9105 24.999 93.9105 24.2218C93.9105 23.4697 93.6347 22.8931 93.0832 22.492C92.5442 22.0909 91.6166 21.8903 90.3004 21.8903H86.9912V26.6661H90.3944Z" fill="white"/>
<path d="M106.149 33.4914C105.911 33.4914 105.704 33.4099 105.529 33.247C105.366 33.084 105.284 32.8835 105.284 32.6453V27.8507L100.791 21.5519C100.69 21.3889 100.64 21.2197 100.64 21.0442C100.64 20.8061 100.715 20.6055 100.866 20.4425C101.029 20.2671 101.229 20.1793 101.467 20.1793C101.781 20.1793 102.031 20.3235 102.22 20.6118L106.149 26.3277L110.079 20.6118C110.267 20.3235 110.518 20.1793 110.831 20.1793C111.069 20.1793 111.27 20.2671 111.433 20.4425C111.596 20.6055 111.671 20.8061 111.658 21.0442C111.658 21.2197 111.608 21.3889 111.508 21.5519L106.995 27.8507V32.6453C106.995 32.8835 106.914 33.084 106.751 33.247C106.588 33.4099 106.387 33.4914 106.149 33.4914Z" fill="white"/>
<path d="M118.101 33.4914C117.863 33.4914 117.663 33.4099 117.5 33.247C117.337 33.084 117.255 32.8835 117.255 32.6453V21.1382C117.255 20.9001 117.337 20.6995 117.5 20.5366C117.663 20.3611 117.863 20.2733 118.101 20.2733H122.388C123.579 20.2733 124.551 20.4739 125.303 20.875C126.055 21.2761 126.594 21.79 126.92 22.4168C127.246 23.0435 127.409 23.7204 127.409 24.4475C127.409 25.1745 127.246 25.8514 126.92 26.4781C126.594 27.1049 126.055 27.6188 125.303 28.0199C124.551 28.421 123.579 28.6216 122.388 28.6216H118.966V32.6453C118.966 32.8835 118.879 33.084 118.703 33.247C118.54 33.4099 118.34 33.4914 118.101 33.4914ZM122.219 27.0046C123.498 27.0046 124.394 26.7602 124.908 26.2713C125.434 25.7824 125.698 25.1745 125.698 24.4475C125.698 23.7204 125.434 23.1125 124.908 22.6236C124.394 22.1348 123.498 21.8903 122.219 21.8903H118.966V27.0046H122.219Z" fill="white"/>
<path d="M134.025 33.4914C133.787 33.4914 133.586 33.4099 133.423 33.247C133.26 33.084 133.179 32.8835 133.179 32.6453V21.1382C133.179 20.9001 133.26 20.6995 133.423 20.5366C133.586 20.3611 133.787 20.2733 134.025 20.2733H138.312C139.502 20.2733 140.474 20.4739 141.226 20.875C141.978 21.2761 142.517 21.79 142.843 22.4168C143.169 23.0435 143.332 23.7204 143.332 24.4475C143.332 25.1745 143.169 25.8514 142.843 26.4781C142.517 27.1049 141.978 27.6188 141.226 28.0199C140.474 28.421 139.502 28.6216 138.312 28.6216H134.89V32.6453C134.89 32.8835 134.802 33.084 134.626 33.247C134.463 33.4099 134.263 33.4914 134.025 33.4914ZM138.142 27.0046C139.421 27.0046 140.317 26.7602 140.831 26.2713C141.358 25.7824 141.621 25.1745 141.621 24.4475C141.621 23.7204 141.358 23.1125 140.831 22.6236C140.317 22.1348 139.421 21.8903 138.142 21.8903H134.89V27.0046H138.142Z" fill="white"/>
<path d="M154.912 33.5854C153.596 33.5854 152.442 33.2971 151.452 32.7205C150.462 32.1439 149.697 31.3479 149.158 30.3326C148.619 29.3173 148.337 28.1515 148.312 26.8354C148.337 25.5192 148.619 24.3534 149.158 23.3381C149.697 22.3228 150.462 21.5268 151.452 20.9502C152.442 20.3736 153.596 20.0853 154.912 20.0853C156.228 20.0853 157.375 20.3736 158.353 20.9502C159.343 21.5268 160.108 22.3291 160.647 23.3569C161.198 24.3722 161.486 25.5317 161.511 26.8354C161.486 28.139 161.198 29.3048 160.647 30.3326C160.108 31.3479 159.343 32.1439 158.353 32.7205C157.375 33.2971 156.228 33.5854 154.912 33.5854ZM154.912 31.9872C155.915 31.9872 156.786 31.7616 157.525 31.3103C158.265 30.8591 158.829 30.2449 159.218 29.4677C159.606 28.6905 159.8 27.8131 159.8 26.8354C159.8 25.8576 159.606 24.9802 159.218 24.203C158.829 23.4259 158.265 22.8116 157.525 22.3604C156.786 21.9091 155.915 21.6835 154.912 21.6835C153.897 21.6835 153.019 21.9091 152.28 22.3604C151.552 22.8116 150.995 23.4259 150.606 24.203C150.218 24.9802 150.023 25.8576 150.023 26.8354C150.023 27.8131 150.218 28.6905 150.606 29.4677C150.995 30.2449 151.552 30.8591 152.28 31.3103C153.019 31.7616 153.897 31.9872 154.912 31.9872Z" fill="white"/>
<path fill-rule="evenodd" clip-rule="evenodd" d="M70.8216 33.6931L70.8148 33.6893C69.6521 33.0417 68.7325 32.1187 68.0644 30.9422L68.0606 30.9356L68.057 30.9289C67.3954 29.7233 67.082 28.3479 67.082 26.8351C67.082 25.3227 67.3952 23.9512 68.0596 22.7554L68.0617 22.7516C68.7296 21.561 69.6515 20.6333 70.8216 19.996C71.9925 19.3524 73.2959 19.0405 74.7075 19.0405C75.6387 19.0405 76.501 19.1497 77.2819 19.3851C78.0375 19.6092 78.778 19.9285 79.5029 20.3383C79.7814 20.4919 80.0325 20.7146 80.2087 21.0189C80.3854 21.3241 80.4526 21.6526 80.4526 21.9653C80.4526 22.4379 80.2694 22.8536 79.9713 23.1788L79.9559 23.1955L79.9399 23.2116C79.5751 23.5763 79.1115 23.7244 78.656 23.7244C78.3878 23.7244 78.1121 23.6697 77.8504 23.5389L77.842 23.5347L77.8336 23.5303C77.3365 23.2705 76.8634 23.0794 76.4136 22.9509C76.0009 22.833 75.4929 22.7654 74.8767 22.7654C73.9455 22.7654 73.2162 22.9594 72.6436 23.2973L72.6391 23.3C72.063 23.6361 71.635 24.092 71.3375 24.6857C71.0427 25.2864 70.8822 25.9951 70.8822 26.8351C70.8822 27.672 71.0416 28.3877 71.3375 29.0032C71.6334 29.5815 72.0611 30.0401 72.6413 30.3903C73.2147 30.7169 73.9454 30.9048 74.8767 30.9048C75.4929 30.9048 76.0009 30.8373 76.4136 30.7194C76.8634 30.5908 77.3365 30.3998 77.8336 30.1399L77.842 30.1356L77.8504 30.1314C78.1121 30.0005 78.3878 29.9459 78.656 29.9459C79.1115 29.9459 79.5751 30.0939 79.9399 30.4586L79.2012 31.1973C79.0634 31.0594 78.8816 30.9905 78.656 30.9905C78.5306 30.9905 78.4178 31.0155 78.3175 31.0657C77.766 31.354 77.227 31.5733 76.7005 31.7238C76.1741 31.8742 75.5661 31.9494 74.8767 31.9494C73.7987 31.9494 72.8774 31.73 72.1127 31.2913C71.3606 30.84 70.7903 30.2321 70.4017 29.4675C70.0257 28.6903 69.8376 27.8128 69.8376 26.8351C69.8376 25.8574 70.0257 24.9862 70.4017 24.2216C70.7903 23.4444 71.3606 22.8365 72.1127 22.3977C72.8774 21.9465 73.7987 21.7209 74.8767 21.7209C75.5661 21.7209 76.1741 21.7961 76.7005 21.9465C77.227 22.0969 77.766 22.3163 78.3175 22.6046C78.4178 22.6547 78.5306 22.6798 78.656 22.6798C78.8816 22.6798 79.0634 22.6108 79.2012 22.473C79.3391 22.3225 79.4081 22.1533 79.4081 21.9653C79.4081 21.6394 79.2702 21.4012 78.9944 21.2508C78.3301 20.8747 77.6594 20.5864 76.9826 20.3859C76.3182 20.1853 75.5598 20.085 74.7075 20.085C73.454 20.085 72.3258 20.3608 71.323 20.9124C70.3328 21.4514 69.5493 22.2348 68.9727 23.2627C68.4086 24.278 68.1266 25.4688 68.1266 26.8351C68.1266 28.2014 68.4086 29.3985 68.9727 30.4264C69.5493 31.4417 70.3328 32.2251 71.323 32.7767C72.3258 33.3157 73.454 33.5852 74.7075 33.5852C75.5598 33.5852 76.3182 33.4849 76.9826 33.2844C77.6594 33.0838 78.3301 32.7955 78.9944 32.4194C79.2702 32.269 79.4081 32.0309 79.4081 31.7049C79.4081 31.5044 79.3391 31.3352 79.2012 31.1973L79.9399 30.4586C80.2798 30.7986 80.4526 31.2362 80.4526 31.7049C80.4526 32.0176 80.3854 32.3462 80.2087 32.6514C80.0325 32.9556 79.7814 33.1784 79.5029 33.3319C78.778 33.7417 78.0375 34.061 77.2818 34.2851C76.5009 34.5206 75.6387 34.6298 74.7075 34.6298C73.2992 34.6298 71.9982 34.3255 70.8285 33.6968L70.8216 33.6931ZM93.0833 22.4918C92.5443 22.0906 91.6167 21.8901 90.3006 21.8901H86.9913V26.6659H90.3946C91.4726 26.6659 92.3249 26.4528 92.9517 26.0266C93.591 25.6004 93.9106 24.9987 93.9106 24.2216C93.9106 23.4695 93.6348 22.8929 93.0833 22.4918ZM94.0234 33.2655C93.873 33.1026 93.7978 32.8958 93.7978 32.6451V32.081C93.7978 31.4542 93.7414 30.8776 93.6286 30.3512C93.5158 29.8122 93.2463 29.3358 92.8201 28.9222C92.3939 28.496 91.7483 28.2829 90.8834 28.2829H86.9913V32.6451C86.9913 32.8832 86.9036 33.0838 86.7281 33.2467C86.5651 33.4097 86.3646 33.4912 86.1264 33.4912C85.8882 33.4912 85.6877 33.4097 85.5247 33.2467C85.3618 33.0838 85.2803 32.8832 85.2803 32.6451V21.138C85.2803 20.8998 85.3618 20.6993 85.5247 20.5363C85.6877 20.3608 85.8882 20.2731 86.1264 20.2731H90.5074C92.2121 20.2731 93.4907 20.624 94.3431 21.326C95.1954 22.028 95.6216 22.9493 95.6216 24.09C95.6216 24.8421 95.4085 25.5315 94.9824 26.1582C94.8059 26.4202 94.5942 26.6513 94.3471 26.8517C94.0148 27.1212 93.6186 27.335 93.1585 27.4932C93.6228 27.6157 94.0108 27.8245 94.3224 28.1195C94.6167 28.3979 94.8429 28.7533 95.0012 29.1854C95.3396 30.0629 95.5088 30.9278 95.5088 31.7802V32.6451C95.5088 32.8832 95.4273 33.0838 95.2644 33.2467C95.1014 33.4097 94.9009 33.4912 94.6627 33.4912C94.3995 33.4912 94.1864 33.416 94.0234 33.2655ZM95.1864 27.5075C95.525 27.8689 95.791 28.3079 95.9788 28.8174C96.3567 29.7998 96.5534 30.7893 96.5534 31.7802V32.6451C96.5534 33.1499 96.3691 33.6193 96.003 33.9854C95.637 34.3514 95.1676 34.5358 94.6627 34.5358C94.189 34.5358 93.706 34.3941 93.3149 34.0331L93.2842 34.0048L93.2559 33.9741C92.9038 33.5927 92.7532 33.1215 92.7532 32.6451V32.081C92.7532 31.5161 92.7023 31.014 92.6072 30.57L92.6061 30.5652C92.5394 30.2463 92.3815 29.9522 92.0926 29.6718L92.087 29.6663L92.0814 29.6608C91.9228 29.5022 91.5925 29.3275 90.8834 29.3275H88.0359V32.6451C88.0359 33.169 87.831 33.6412 87.453 33.999C87.089 34.356 86.625 34.5358 86.1264 34.5358C85.6216 34.5358 85.1522 34.3514 84.7861 33.9854C84.42 33.6193 84.2357 33.1499 84.2357 32.6451V21.138C84.2357 20.6395 84.4154 20.1755 84.7724 19.8115C85.1302 19.4335 85.6024 19.2285 86.1264 19.2285H90.5074C92.3292 19.2285 93.8897 19.5994 95.0071 20.5197C96.1095 21.4275 96.6662 22.649 96.6662 24.09C96.6662 25.0525 96.3896 25.9456 95.8475 26.7437C95.6555 27.0284 95.4342 27.2827 95.1864 27.5075ZM88.0359 25.6213H90.3946C91.348 25.6213 91.9697 25.4311 92.3643 25.1628L92.3722 25.1574C92.7169 24.9277 92.866 24.6543 92.866 24.2216C92.866 23.7638 92.7195 23.5188 92.4689 23.3365L92.4596 23.3298C92.2062 23.1412 91.574 22.9347 90.3006 22.9347H88.0359V25.6213ZM104.804 33.999L104.79 33.9854C104.424 33.6193 104.24 33.1499 104.24 32.6451V28.1849L99.9197 22.1294L99.9011 22.0991C99.709 21.7869 99.5957 21.4301 99.5957 21.044C99.5957 20.5644 99.7559 20.1047 100.098 19.7338L100.1 19.7315C100.46 19.3445 100.937 19.1345 101.468 19.1345C102.168 19.1345 102.728 19.4861 103.087 20.0287L106.149 24.4836L109.212 20.0287C109.571 19.4861 110.131 19.1345 110.831 19.1345C111.355 19.1345 111.827 19.3395 112.185 19.7175C112.55 20.0894 112.723 20.5659 112.703 21.0717C112.698 21.4471 112.585 21.7944 112.398 22.0991L112.379 22.1302L108.04 28.186V32.6451C108.04 33.1499 107.856 33.6193 107.49 33.9854C107.124 34.3514 106.654 34.5358 106.149 34.5358C105.646 34.5358 105.186 34.3535 104.818 34.0122L104.804 33.999ZM106.995 27.8504L111.508 21.5516C111.608 21.3887 111.658 21.2195 111.658 21.044C111.671 20.8058 111.596 20.6052 111.433 20.4423C111.27 20.2668 111.069 20.1791 110.831 20.1791C110.518 20.1791 110.267 20.3232 110.079 20.6115L106.149 26.3275L102.22 20.6115C102.032 20.3232 101.781 20.1791 101.468 20.1791C101.229 20.1791 101.029 20.2668 100.866 20.4423C100.715 20.6052 100.64 20.8058 100.64 21.044C100.64 21.2195 100.69 21.3887 100.791 21.5516L105.284 27.8504V32.6451C105.284 32.8832 105.366 33.0838 105.529 33.2467C105.704 33.4097 105.911 33.4912 106.149 33.4912C106.388 33.4912 106.588 33.4097 106.751 33.2467C106.914 33.0838 106.995 32.8832 106.995 32.6451V27.8504ZM124.908 22.6234C124.394 22.1345 123.498 21.8901 122.219 21.8901H118.966V27.0043H122.219C123.498 27.0043 124.394 26.7599 124.908 26.271C125.435 25.7822 125.698 25.1742 125.698 24.4472C125.698 23.7202 125.435 23.1122 124.908 22.6234ZM120.011 25.9598H122.219C123.425 25.9598 123.974 25.7176 124.188 25.5142L124.197 25.5055C124.508 25.217 124.653 24.8877 124.653 24.4472C124.653 24.0067 124.508 23.6774 124.197 23.3888L124.188 23.3803C123.974 23.1769 123.425 22.9347 122.219 22.9347H120.011V25.9598ZM118.102 34.5358C117.597 34.5358 117.127 34.3514 116.761 33.9854C116.395 33.6193 116.211 33.1499 116.211 32.6451V21.138C116.211 20.6394 116.391 20.1754 116.748 19.8114C117.105 19.4334 117.578 19.2285 118.102 19.2285H122.389C123.686 19.2285 124.843 19.4456 125.794 19.9531C126.694 20.4326 127.405 21.0849 127.847 21.9346C128.252 22.7147 128.453 23.5575 128.453 24.4472C128.453 25.3369 128.252 26.1798 127.847 26.9598C127.405 27.8095 126.694 28.4618 125.794 28.9414C124.843 29.4488 123.686 29.6659 122.389 29.6659H120.011V32.6451C120.011 33.169 119.806 33.6412 119.428 33.999C119.064 34.356 118.6 34.5358 118.102 34.5358ZM118.703 33.2467C118.879 33.0838 118.966 32.8832 118.966 32.6451V28.6213H122.389C123.579 28.6213 124.551 28.4208 125.303 28.0197C126.055 27.6186 126.594 27.1046 126.92 26.4779C127.246 25.8511 127.409 25.1742 127.409 24.4472C127.409 23.7202 127.246 23.0433 126.92 22.4165C126.594 21.7898 126.055 21.2759 125.303 20.8747C124.551 20.4736 123.579 20.2731 122.389 20.2731H118.102C117.863 20.2731 117.663 20.3608 117.5 20.5363C117.337 20.6993 117.255 20.8998 117.255 21.138V32.6451C117.255 32.8832 117.337 33.0838 117.5 33.2467C117.663 33.4097 117.863 33.4912 118.102 33.4912C118.34 33.4912 118.54 33.4097 118.703 33.2467ZM140.831 22.6234C140.317 22.1345 139.421 21.8901 138.143 21.8901H134.89V27.0043H138.143C139.421 27.0043 140.317 26.7599 140.831 26.271C141.358 25.7822 141.621 25.1742 141.621 24.4472C141.621 23.7202 141.358 23.1122 140.831 22.6234ZM135.934 25.9598H138.143C139.348 25.9598 139.898 25.7176 140.111 25.5142L140.121 25.5055C140.431 25.217 140.576 24.8877 140.576 24.4472C140.576 24.0067 140.431 23.6774 140.121 23.3888L140.111 23.3803C139.898 23.1769 139.348 22.9347 138.143 22.9347H135.934V25.9598ZM134.025 34.5358C133.52 34.5358 133.051 34.3514 132.685 33.9854C132.318 33.6193 132.134 33.1499 132.134 32.6451V21.138C132.134 20.6394 132.314 20.1754 132.671 19.8114C133.029 19.4334 133.501 19.2285 134.025 19.2285H138.312C139.61 19.2285 140.766 19.4456 141.718 19.9531C142.617 20.4326 143.328 21.0849 143.77 21.9346C144.176 22.7147 144.377 23.5575 144.377 24.4472C144.377 25.3369 144.176 26.1798 143.77 26.9598C143.328 27.8095 142.617 28.4618 141.718 28.9414C140.766 29.4488 139.61 29.6659 138.312 29.6659H135.934V32.6451C135.934 33.1691 135.729 33.6414 135.351 33.9992C134.987 34.3561 134.523 34.5358 134.025 34.5358ZM134.89 32.6451C134.89 32.8832 134.802 33.0838 134.627 33.2467C134.464 33.4097 134.263 33.4912 134.025 33.4912C133.787 33.4912 133.586 33.4097 133.423 33.2467C133.26 33.0838 133.179 32.8832 133.179 32.6451V21.138C133.179 20.8998 133.26 20.6993 133.423 20.5363C133.586 20.3608 133.787 20.2731 134.025 20.2731H138.312C139.503 20.2731 140.474 20.4736 141.226 20.8747C141.978 21.2759 142.517 21.7898 142.843 22.4165C143.169 23.0433 143.332 23.7202 143.332 24.4472C143.332 25.1742 143.169 25.8511 142.843 26.4779C142.517 27.1046 141.978 27.6186 141.226 28.0197C140.474 28.4208 139.503 28.6213 138.312 28.6213H134.89V32.6451ZM147.268 26.8351L147.268 26.8152C147.296 25.359 147.609 24.0281 148.236 22.8481C148.866 21.6614 149.768 20.7221 150.927 20.0473C152.099 19.3646 153.439 19.0405 154.912 19.0405C156.383 19.0405 157.719 19.364 158.881 20.0485C160.04 20.724 160.94 21.6692 161.568 22.8648C162.207 24.0435 162.528 25.3685 162.556 26.815L162.556 26.8351L162.556 26.8552C162.528 28.3037 162.206 29.6344 161.568 30.824C160.939 32.0091 160.038 32.9472 158.881 33.6217C157.719 34.3062 156.383 34.6298 154.912 34.6298C153.439 34.6298 152.099 34.3056 150.927 33.623C149.768 32.9481 148.866 32.0089 148.236 30.8222C147.609 29.6422 147.296 28.3113 147.268 26.855L147.268 26.8351ZM158.353 32.7203C159.343 32.1437 160.108 31.3477 160.647 30.3324C161.198 29.3045 161.487 28.1388 161.512 26.8351C161.487 25.5315 161.198 24.372 160.647 23.3567C160.108 22.3288 159.343 21.5266 158.353 20.95C157.375 20.3733 156.228 20.085 154.912 20.085C153.596 20.085 152.443 20.3733 151.452 20.95C150.462 21.5266 149.697 22.3225 149.158 23.3379C148.619 24.3532 148.337 25.5189 148.312 26.8351C148.337 28.1513 148.619 29.317 149.158 30.3324C149.697 31.3477 150.462 32.1437 151.452 32.7203C152.443 33.2969 153.596 33.5852 154.912 33.5852C156.228 33.5852 157.375 33.2969 158.353 32.7203ZM154.912 30.9424C155.754 30.9424 156.43 30.7548 156.981 30.4184C157.553 30.0696 157.982 29.6027 158.283 29.0003C158.591 28.3855 158.756 27.6712 158.756 26.8351C158.756 25.9991 158.591 25.2848 158.283 24.6699C157.982 24.0675 157.553 23.6007 156.981 23.2518C156.43 22.9155 155.754 22.7278 154.912 22.7278C154.057 22.7278 153.376 22.9159 152.827 23.2499C152.269 23.5974 151.843 24.0642 151.541 24.6699C151.233 25.2848 151.068 25.9991 151.068 26.8351C151.068 27.6712 151.233 28.3855 151.541 29.0003C151.843 29.606 152.269 30.0728 152.827 30.4203C153.376 30.7543 154.057 30.9424 154.912 30.9424ZM157.526 31.3101C156.786 31.7614 155.915 31.987 154.912 31.987C153.897 31.987 153.019 31.7614 152.28 31.3101C151.553 30.8588 150.995 30.2446 150.606 29.4675C150.218 28.6903 150.023 27.8128 150.023 26.8351C150.023 25.8574 150.218 24.9799 150.606 24.2028C150.995 23.4256 151.553 22.8114 152.28 22.3601C153.019 21.9089 153.897 21.6833 154.912 21.6833C155.915 21.6833 156.786 21.9089 157.526 22.3601C158.265 22.8114 158.829 23.4256 159.218 24.2028C159.606 24.9799 159.801 25.8574 159.801 26.8351C159.801 27.8128 159.606 28.6903 159.218 29.4675C158.829 30.2446 158.265 30.8588 157.526 31.3101Z" fill="white"/>
<defs>
<linearGradient id="paint0_linear_307_1149" x1="11.4771" y1="17.0108" x2="40.8793" y2="17.8563" gradientUnits="userSpaceOnUse">
<stop stop-color="#2F69FF"/>
<stop offset="1" stop-color="#00C0A9"/>
</linearGradient>
<linearGradient id="paint1_linear_307_1149" x1="7.66797" y1="8.3858" x2="46.1798" y2="9.34163" gradientUnits="userSpaceOnUse">
<stop stop-color="#2F69FF"/>
<stop offset="1" stop-color="#00C0A9"/>
</linearGradient>
<linearGradient id="paint2_linear_307_1149" x1="3.71973" y1="4.43866" x2="50.318" y2="5.59519" gradientUnits="userSpaceOnUse">
<stop stop-color="#2F69FF"/>
<stop offset="1" stop-color="#00C0A9"/>
</linearGradient>
<linearGradient id="paint3_linear_307_1149" x1="0" y1="0.716736" x2="54.2187" y2="2.06241" gradientUnits="userSpaceOnUse">
<stop stop-color="#2F69FF"/>
<stop offset="1" stop-color="#00C0A9"/>
</linearGradient>
<linearGradient id="paint4_linear_307_1149" x1="7.66797" y1="8.3858" x2="46.1798" y2="9.34163" gradientUnits="userSpaceOnUse">
<stop stop-color="#2F69FF"/>
<stop offset="1" stop-color="#00C0A9"/>
</linearGradient>
<linearGradient id="paint5_linear_307_1149" x1="3.71973" y1="4.43866" x2="50.318" y2="5.59519" gradientUnits="userSpaceOnUse">
<stop stop-color="#2F69FF"/>
<stop offset="1" stop-color="#00C0A9"/>
</linearGradient>
<linearGradient id="paint6_linear_307_1149" x1="0" y1="0.716736" x2="54.2187" y2="2.06241" gradientUnits="userSpaceOnUse">
<stop stop-color="#2F69FF"/>
<stop offset="1" stop-color="#00C0A9"/>
</linearGradient>
<linearGradient id="paint7_linear_307_1149" x1="0" y1="0.716736" x2="54.2187" y2="2.06241" gradientUnits="userSpaceOnUse">
<stop stop-color="#2F69FF"/>
<stop offset="1" stop-color="#00C0A9"/>
</linearGradient>
</defs>
</svg>
