<svg width="1534" height="444" viewBox="0 0 1534 444" fill="none" xmlns="http://www.w3.org/2000/svg">
<path fill-rule="evenodd" clip-rule="evenodd" d="M189.094 345.933C135.718 331.451 96.459 282.641 96.459 224.657C96.459 205.917 100.56 188.135 107.913 172.161H162.899C164.694 172.161 166.488 170.365 164.694 168.57C161.104 164.979 159.821 157.867 161.616 152.481C162.932 148.531 166.488 145.228 171.873 143.433C179.052 141.637 184.437 143.433 188.027 147.024C188.112 147.109 188.195 147.193 188.277 147.275C190.595 149.595 191.486 150.486 192.155 150.343C192.573 150.253 192.905 149.762 193.443 148.964C193.504 148.874 193.568 148.78 193.634 148.681C195.696 145.651 197.882 144.179 202.206 144.179H211.29H232.745C245.309 144.179 256.231 153.572 256.231 164.979V164.979C256.231 165.877 256.231 166.326 256.456 166.55C256.68 166.774 257.129 166.774 258.026 166.774H290.333C316.128 166.774 337 188.321 337 215.253V222.435C337 252.959 317.462 278.096 287.658 279.891H264.666H243.667C234.693 279.891 223.924 276.3 216.744 270.914C214.883 269.517 213.155 270.914 213.155 272.709V278.096C213.155 303.993 204.039 327.701 189.094 345.933ZM230.484 174.715C230.484 180.325 225.935 184.874 220.325 184.874C214.714 184.874 210.166 180.325 210.166 174.715C210.166 169.104 214.714 164.556 220.325 164.556C225.935 164.556 230.484 169.104 230.484 174.715Z" fill="#BC2FFF"/>
<path fill-rule="evenodd" clip-rule="evenodd" d="M222.052 363.68C300.247 363.68 363.65 300.26 363.65 222.012C363.65 143.764 300.247 80.3443 222.052 80.3443C143.856 80.3443 80.4537 143.764 80.4537 222.012C80.4537 300.26 143.856 363.68 222.052 363.68ZM222.052 379.585C309.038 379.585 379.555 309.037 379.555 222.012C379.555 134.987 309.038 64.4395 222.052 64.4395C135.065 64.4395 64.5488 134.987 64.5488 222.012C64.5488 309.037 135.065 379.585 222.052 379.585Z" fill="#BC2FFF"/>
<path fill-rule="evenodd" clip-rule="evenodd" d="M222.049 402.085C321.439 402.085 402.02 321.476 402.02 222.03C402.02 122.583 321.439 41.9743 222.049 41.9743C122.658 41.9743 42.0778 122.583 42.0778 222.03C42.0778 321.476 122.658 402.085 222.049 402.085ZM222.049 412.688C327.3 412.688 412.623 327.327 412.623 222.03C412.623 116.732 327.3 31.3711 222.049 31.3711C116.798 31.3711 31.4746 116.732 31.4746 222.03C31.4746 327.327 116.798 412.688 222.049 412.688Z" fill="#BC2FFF"/>
<path fill-rule="evenodd" clip-rule="evenodd" d="M222.048 10.7946C105.443 10.7946 10.9118 105.364 10.9118 222.027C10.9118 224.955 8.53822 227.328 5.61021 227.328C2.68221 227.328 0.308594 224.955 0.308594 222.027C0.308594 99.5126 99.5825 0.191406 222.048 0.191406C224.976 0.191406 227.35 2.56502 227.35 5.49302C227.35 8.42103 224.976 10.7946 222.048 10.7946ZM438.486 216.725C441.414 216.725 443.788 219.099 443.788 222.027C443.788 344.541 344.514 443.862 222.048 443.862C219.12 443.862 216.746 441.488 216.746 438.56C216.746 435.632 219.12 433.259 222.048 433.259C338.653 433.259 433.184 338.689 433.184 222.027C433.184 219.099 435.558 216.725 438.486 216.725ZM9.65483 264.242C12.5125 263.605 15.3462 265.404 15.9839 268.262C28.4293 324.029 62.9252 371.493 109.854 401.002C112.333 402.56 113.079 405.833 111.52 408.312C109.961 410.791 106.688 411.536 104.21 409.978C54.9443 379 18.7115 329.165 5.63523 270.571C4.99749 267.714 6.79712 264.88 9.65483 264.242Z" fill="#BC2FFF"/>
<path fill-rule="evenodd" clip-rule="evenodd" d="M222.052 363.68C300.247 363.68 363.65 300.26 363.65 222.012C363.65 143.764 300.247 80.3443 222.052 80.3443C143.856 80.3443 80.4537 143.764 80.4537 222.012C80.4537 300.26 143.856 363.68 222.052 363.68ZM222.052 379.585C309.038 379.585 379.555 309.037 379.555 222.012C379.555 134.987 309.038 64.4395 222.052 64.4395C135.065 64.4395 64.5488 134.987 64.5488 222.012C64.5488 309.037 135.065 379.585 222.052 379.585Z" fill="#BC2FFF"/>
<path fill-rule="evenodd" clip-rule="evenodd" d="M222.049 402.085C321.439 402.085 402.02 321.476 402.02 222.03C402.02 122.583 321.439 41.9743 222.049 41.9743C122.658 41.9743 42.0778 122.583 42.0778 222.03C42.0778 321.476 122.658 402.085 222.049 402.085ZM222.049 412.688C327.3 412.688 412.623 327.327 412.623 222.03C412.623 116.732 327.3 31.3711 222.049 31.3711C116.798 31.3711 31.4746 116.732 31.4746 222.03C31.4746 327.327 116.798 412.688 222.049 412.688Z" fill="#BC2FFF"/>
<path fill-rule="evenodd" clip-rule="evenodd" d="M222.048 10.7946C105.443 10.7946 10.9118 105.364 10.9118 222.027C10.9118 224.955 8.53822 227.328 5.61021 227.328C2.68221 227.328 0.308594 224.955 0.308594 222.027C0.308594 99.5126 99.5825 0.191406 222.048 0.191406C224.976 0.191406 227.35 2.56502 227.35 5.49302C227.35 8.42103 224.976 10.7946 222.048 10.7946ZM438.486 216.725C441.414 216.725 443.788 219.099 443.788 222.027C443.788 344.541 344.514 443.862 222.048 443.862C219.12 443.862 216.746 441.488 216.746 438.56C216.746 435.632 219.12 433.259 222.048 433.259C338.653 433.259 433.184 338.689 433.184 222.027C433.184 219.099 435.558 216.725 438.486 216.725ZM9.65483 264.242C12.5125 263.605 15.3462 265.404 15.9839 268.262C28.4293 324.029 62.9252 371.493 109.854 401.002C112.333 402.56 113.079 405.833 111.52 408.312C109.961 410.791 106.688 411.536 104.21 409.978C54.9443 379 18.7115 329.165 5.63523 270.571C4.99749 267.714 6.79712 264.88 9.65483 264.242Z" fill="#BC2FFF"/>
<path fill-rule="evenodd" clip-rule="evenodd" d="M222.048 10.7946C105.443 10.7946 10.9118 105.364 10.9118 222.027C10.9118 224.955 8.53822 227.328 5.61021 227.328C2.68221 227.328 0.308594 224.955 0.308594 222.027C0.308594 99.5126 99.5825 0.191406 222.048 0.191406C224.976 0.191406 227.35 2.56502 227.35 5.49302C227.35 8.42103 224.976 10.7946 222.048 10.7946ZM438.486 216.725C441.414 216.725 443.788 219.099 443.788 222.027C443.788 344.541 344.514 443.862 222.048 443.862C219.12 443.862 216.746 441.488 216.746 438.56C216.746 435.632 219.12 433.259 222.048 433.259C338.653 433.259 433.184 338.689 433.184 222.027C433.184 219.099 435.558 216.725 438.486 216.725ZM9.65483 264.242C12.5125 263.605 15.3462 265.404 15.9839 268.262C28.4293 324.029 62.9252 371.493 109.854 401.002C112.333 402.56 113.079 405.833 111.52 408.312C109.961 410.791 106.688 411.536 104.21 409.978C54.9443 379 18.7115 329.165 5.63523 270.571C4.99749 267.714 6.79712 264.88 9.65483 264.242Z" fill="#BC2FFF"/>
<path fill-rule="evenodd" clip-rule="evenodd" d="M804.68 212.485C803.106 208.216 800.878 204.539 798.042 201.512C800.117 199.628 801.971 197.498 803.579 195.113C808.121 188.427 810.438 180.945 810.438 172.882C810.438 160.811 805.774 150.577 796.54 142.972C787.178 135.263 774.105 132.155 758.843 132.155H722.142C717.753 132.155 713.797 133.872 710.799 137.039C707.809 140.089 706.303 143.976 706.303 148.152V244.551C706.303 248.78 707.848 252.713 710.914 255.779C713.981 258.846 717.913 260.39 722.142 260.39C726.319 260.39 730.206 258.884 733.256 255.893C736.422 252.896 738.139 248.941 738.139 244.551V216.758H761.994C767.934 216.758 770.701 218.222 772.03 219.551L772.076 219.597L772.123 219.642C774.544 221.992 775.867 224.455 776.426 227.127L776.434 227.168C777.231 230.887 777.658 235.094 777.658 239.826V244.551C777.658 248.542 778.919 252.489 781.869 255.685L782.106 255.942L782.363 256.179C785.639 259.203 789.686 260.39 793.654 260.39C797.884 260.39 801.816 258.846 804.883 255.779C807.949 252.713 809.493 248.78 809.493 244.551V237.305C809.493 229.004 807.846 220.715 804.68 212.485ZM757.898 185.71H738.139V163.203H757.111C767.779 163.203 773.075 164.934 775.198 166.513L775.276 166.57C777.375 168.097 778.603 170.149 778.603 173.984C778.603 177.61 777.354 179.899 774.466 181.824L774.4 181.869C771.094 184.117 765.885 185.71 757.898 185.71ZM878.497 255.779L878.611 255.894L878.73 256.004C881.809 258.863 885.665 260.39 889.883 260.39C894.112 260.39 898.044 258.846 901.111 255.779C904.177 252.713 905.722 248.78 905.722 244.551V207.196L942.066 156.464L942.227 156.203C943.798 153.651 944.739 150.742 944.784 147.596C944.949 143.359 943.501 139.368 940.447 136.252C937.45 133.085 933.494 131.368 929.104 131.368C923.236 131.368 918.546 134.313 915.541 138.859L889.883 176.18L864.225 138.859C861.219 134.313 856.529 131.368 850.661 131.368C846.218 131.368 842.219 133.127 839.208 136.369L839.191 136.388C836.322 139.496 834.98 143.347 834.98 147.364C834.98 150.599 835.929 153.588 837.538 156.203L837.694 156.457L873.886 207.186V244.551C873.886 248.78 875.43 252.713 878.497 255.779ZM1024.51 188.546H1006.01V163.203H1024.51C1034.6 163.203 1039.21 165.233 1041 166.936L1041.08 167.008C1043.68 169.425 1044.9 172.184 1044.9 175.874C1044.9 179.565 1043.68 182.323 1041.08 184.74L1041 184.813C1039.21 186.517 1034.6 188.546 1024.51 188.546ZM978.782 255.779C981.849 258.846 985.781 260.39 990.011 260.39C994.187 260.39 998.074 258.884 1001.12 255.893C1004.29 252.896 1006.01 248.941 1006.01 244.551V219.594H1025.92C1036.8 219.594 1046.49 217.775 1054.46 213.524C1061.99 209.506 1067.95 204.042 1071.65 196.923C1075.05 190.389 1076.73 183.328 1076.73 175.874C1076.73 168.421 1075.05 161.36 1071.65 154.826C1067.95 147.707 1061.99 142.243 1054.46 138.225C1046.49 133.974 1036.8 132.155 1025.92 132.155H990.011C985.621 132.155 981.666 133.872 978.668 137.038C975.677 140.088 974.171 143.975 974.171 148.152V244.551C974.171 248.78 975.716 252.713 978.782 255.779ZM1157.9 188.546H1139.4V163.203H1157.9C1168 163.203 1172.6 165.233 1174.39 166.936L1174.47 167.008C1177.08 169.425 1178.29 172.184 1178.29 175.874C1178.29 179.565 1177.07 182.323 1174.47 184.74L1174.4 184.813C1172.6 186.517 1168 188.546 1157.9 188.546ZM1112.18 255.779C1115.24 258.846 1119.18 260.39 1123.41 260.39C1127.58 260.39 1131.47 258.885 1134.52 255.895C1137.69 252.897 1139.4 248.941 1139.4 244.551V219.594H1159.32C1170.19 219.594 1179.88 217.775 1187.85 213.524C1195.39 209.506 1201.34 204.042 1205.04 196.923C1208.44 190.389 1210.13 183.328 1210.13 175.874C1210.13 168.421 1208.44 161.36 1205.04 154.826C1201.34 147.707 1195.39 142.243 1187.85 138.225C1179.88 133.974 1170.19 132.155 1159.32 132.155H1123.41C1119.02 132.155 1115.06 133.872 1112.06 137.038C1109.07 140.088 1107.57 143.975 1107.57 148.152V244.551C1107.57 248.78 1109.11 252.713 1112.18 255.779ZM1234.35 195.712L1234.35 195.879L1234.35 196.046C1234.58 208.245 1237.21 219.395 1242.46 229.28C1247.73 239.221 1255.29 247.09 1265 252.743C1274.82 258.462 1286.05 261.178 1298.39 261.178C1310.71 261.178 1321.9 258.467 1331.63 252.733C1341.33 247.083 1348.88 239.223 1354.15 229.295C1359.49 219.329 1362.19 208.182 1362.42 196.047L1362.43 195.879L1362.42 195.711C1362.19 183.593 1359.5 172.492 1354.15 162.618C1348.88 152.602 1341.34 144.683 1331.63 139.025C1321.9 133.291 1310.71 130.58 1298.39 130.58C1286.05 130.58 1274.82 133.296 1265 139.014C1255.29 144.668 1247.73 152.536 1242.46 162.478C1237.21 172.363 1234.58 183.513 1234.35 195.712ZM1315.72 225.897C1311.1 228.715 1305.44 230.287 1298.39 230.287C1291.22 230.287 1285.51 228.711 1280.92 225.913C1276.24 223.003 1272.68 219.092 1270.14 214.017C1267.57 208.867 1266.18 202.883 1266.18 195.879C1266.18 188.875 1267.57 182.891 1270.14 177.74C1272.68 172.666 1276.24 168.755 1280.92 165.844C1285.51 163.046 1291.22 161.471 1298.39 161.471C1305.44 161.471 1311.1 163.042 1315.72 165.86C1320.51 168.783 1324.11 172.694 1326.63 177.74C1329.21 182.891 1330.59 188.875 1330.59 195.879C1330.59 202.883 1329.21 208.867 1326.63 214.017C1324.11 219.064 1320.51 222.975 1315.72 225.897Z" fill="#BC2FFF"/>
<path fill-rule="evenodd" clip-rule="evenodd" d="M593.871 253.299L593.928 253.331L593.986 253.362C603.786 258.629 614.684 261.178 626.482 261.178C634.283 261.178 641.506 260.263 648.048 258.291C654.378 256.413 660.582 253.738 666.655 250.305C668.988 249.019 671.092 247.153 672.567 244.604C674.048 242.047 674.611 239.295 674.611 236.675C674.611 234.447 674.145 232.303 673.222 230.345C672.578 228.979 671.711 227.704 670.625 226.553L669.948 225.879C666.951 223.082 663.225 221.939 659.56 221.939C657.313 221.939 655.003 222.397 652.811 223.493L652.741 223.528L652.671 223.565C648.506 225.741 644.543 227.342 640.774 228.419C637.317 229.406 633.062 229.972 627.899 229.972C620.098 229.972 613.977 228.398 609.173 225.662C604.312 222.728 600.729 218.886 598.251 214.042C595.771 208.886 594.436 202.89 594.436 195.879C594.436 188.841 595.781 182.905 598.251 177.872C600.743 172.899 604.328 169.079 609.154 166.264L609.192 166.242C613.989 163.411 620.098 161.786 627.899 161.786C633.062 161.786 637.317 162.351 640.774 163.339C644.543 164.416 648.506 166.016 652.671 168.193L652.741 168.23L652.811 168.265C655.003 169.361 657.313 169.819 659.56 169.819C663.376 169.819 667.26 168.579 670.316 165.523L670.45 165.389L670.579 165.248C673.076 162.524 674.611 159.042 674.611 155.082C674.611 152.463 674.048 149.711 672.567 147.154C671.092 144.605 668.988 142.739 666.655 141.453C660.582 138.02 654.379 135.345 648.049 133.467C641.507 131.495 634.283 130.58 626.482 130.58C614.657 130.58 603.738 133.194 593.929 138.585C584.126 143.924 576.403 151.696 570.808 161.67L570.79 161.701C565.224 171.719 562.601 183.209 562.601 195.879C562.601 208.552 565.225 220.074 570.768 230.174L570.799 230.23L570.83 230.286C576.427 240.141 584.131 247.874 593.871 253.299Z" fill="#BC2FFF"/>
<path d="M572.07 376.356V315.526H579.37V376.356H572.07Z" fill="#BC2FFF"/>
<path d="M627.481 376.356V315.526H635.388L665.76 363.147V315.526H673.059V376.356H665.195L634.737 328.735V376.356H627.481Z" fill="#BC2FFF"/>
<path d="M737.699 376.356L715.627 315.526H723.404L742.218 367.448L761.075 315.526H768.853L746.693 376.356H737.699Z" fill="#BC2FFF"/>
<path d="M809.892 376.356V315.526H847.215V322.826H817.191V340.119H841.784V347.418H817.191V369.056H847.215V376.356H809.892Z" fill="#BC2FFF"/>
<path d="M912.916 377.485C909.643 377.485 906.486 376.978 903.444 375.964C900.403 374.922 897.738 373.444 895.45 371.533C893.19 369.621 891.583 367.347 890.627 364.711L897.448 362.148C898.028 363.77 899.099 365.189 900.663 366.406C902.257 367.593 904.125 368.52 906.268 369.186C908.412 369.853 910.628 370.186 912.916 370.186C915.523 370.186 917.942 369.766 920.172 368.926C922.432 368.057 924.257 366.855 925.647 365.319C927.037 363.784 927.733 361.988 927.733 359.932C927.733 357.817 927.008 356.094 925.56 354.761C924.112 353.4 922.258 352.328 919.998 351.546C917.739 350.735 915.378 350.112 912.916 349.678C908.716 348.982 904.95 347.997 901.619 346.723C898.317 345.419 895.696 343.609 893.755 341.292C891.843 338.974 890.887 335.919 890.887 332.124C890.887 328.59 891.901 325.505 893.929 322.869C895.985 320.233 898.694 318.191 902.054 316.743C905.414 315.294 909.035 314.57 912.916 314.57C916.131 314.57 919.245 315.077 922.258 316.091C925.299 317.076 927.979 318.524 930.296 320.436C932.613 322.348 934.279 324.68 935.293 327.431L928.384 329.951C927.805 328.3 926.719 326.881 925.126 325.693C923.561 324.477 921.708 323.55 919.564 322.913C917.449 322.246 915.234 321.913 912.916 321.913C910.338 321.884 907.934 322.304 905.704 323.173C903.473 324.042 901.663 325.244 900.272 326.78C898.882 328.315 898.187 330.096 898.187 332.124C898.187 334.557 898.824 336.425 900.099 337.729C901.402 339.003 903.169 339.959 905.399 340.597C907.63 341.234 910.135 341.799 912.916 342.291C916.856 342.957 920.505 344.015 923.866 345.463C927.226 346.882 929.919 348.78 931.947 351.155C934.004 353.53 935.032 356.456 935.032 359.932C935.032 363.466 934.004 366.55 931.947 369.186C929.919 371.822 927.226 373.864 923.866 375.313C920.505 376.761 916.856 377.485 912.916 377.485Z" fill="#BC2FFF"/>
<path d="M1023.44 315.526V322.826H1003.19V376.356H995.893V322.826H975.689V315.526H1023.44Z" fill="#BC2FFF"/>
</svg>
