<svg width="171" height="173" viewBox="0 0 171 173" fill="none" xmlns="http://www.w3.org/2000/svg">
<rect y="0.750732" width="171" height="172" rx="10" fill="url(#paint0_linear_1655_245)"/>
<g clip-path="url(#clip0_1655_245)">
<path d="M134.598 127.378L134.353 127.502L134.598 127.378Z" fill="#20262B"/>
<path d="M139 47.1963V47.072V46.9477V46.8233V46.699V46.5747V46.4504V46.3261V46.2018V46.0775V45.9532V45.8288V45.7045V45.5802V45.4559L138.877 45.3316L138.755 45.2073L138.633 45.083L138.511 44.8343C138.388 44.71 138.388 44.5857 138.266 44.4614L138.144 44.2128L138.021 44.0885L137.899 43.9642L137.777 43.8398L137.288 43.3426L137.166 43.2183L137.043 43.094L136.921 42.9697L136.799 42.8453L136.677 42.721L136.554 42.5967L136.432 42.4724L136.31 42.3481L89.8468 15.1237H89.7246H89.6023H89.48H89.3577H89.2355L89.1132 14.875H88.9909L88.8687 14.7507H88.7464H88.5018H88.3796H88.2573L87.8905 14.875H87.7682L84.1001 17.1127H84.2224H84.4669H84.5892H84.7115H84.8337H84.956H85.0783H85.2005H85.3228H85.4451H85.5673H85.6896H85.8119H85.9342H86.0564L132.397 44.5857L132.519 44.71L132.642 44.8343L132.764 44.9587L132.886 45.083H133.008L133.131 45.2073L133.253 45.3316L133.375 45.4559L133.497 45.5802L133.62 45.7045L133.742 45.8288L133.864 45.9532L133.987 46.0775L134.109 46.3261C134.231 46.4504 134.231 46.5747 134.353 46.699L134.476 46.8233L134.598 46.9477L134.72 47.072L134.842 47.1963V47.3206V47.4449V47.5692V47.6935V47.8178V47.9422V48.0665V48.1908V48.3151V48.4394V48.5637V48.688V48.8123V48.9366V49.061L134.598 125.264V125.389V125.513V125.637V125.762V125.886V126.01V126.135L134.476 126.259L134.353 126.508L134.231 126.632L134.353 127.502L134.231 127.626L138.021 125.389C138.144 125.264 138.388 125.14 138.511 125.016L138.633 124.767V124.643V124.519V124.394V124.27V124.146V124.021V123.897V123.773L138.877 47.5692L139 47.1963Z" fill="#3E4651"/>
<path d="M84.9556 16.9883C85.0778 16.9883 85.3224 16.9883 85.4446 17.1126C85.3224 16.9883 85.0778 16.9883 84.9556 16.9883Z" fill="#20262B"/>
<path d="M85.4453 17.1125C85.6899 17.1125 85.8121 17.2369 86.0567 17.3612C85.8121 17.2369 85.6899 17.1125 85.4453 17.1125Z" fill="#20262B"/>
<path d="M134.721 127.129L134.843 127.005C134.843 126.88 134.965 126.756 134.965 126.632V126.508C134.965 126.259 134.965 126.135 134.965 125.886L135.21 49.5581C135.21 49.3095 135.21 49.0609 135.21 48.8123C135.087 48.315 134.965 47.8178 134.843 47.3205C134.721 47.0719 134.598 46.8233 134.476 46.699C134.354 46.4503 134.231 46.326 134.109 46.0774C133.987 45.8288 133.742 45.7045 133.62 45.4558C133.498 45.3315 133.253 45.0829 133.131 44.9586C133.009 44.8343 132.764 44.71 132.52 44.5856L86.0568 17.3612C85.8122 17.2369 85.69 17.1126 85.4454 17.1126C85.3231 17.1126 85.0786 16.9883 84.9563 16.9883H84.8341C84.7118 16.9883 84.5895 16.9883 84.4672 16.9883H84.345L84.1004 17.1126C83.4891 17.4855 83.2445 18.1071 83.2445 18.9773L83 95.1808C83 97.0455 84.2227 99.2831 85.8122 100.153L132.153 127.378C133.009 127.875 133.865 127.875 134.354 127.378L134.476 127.253L134.721 127.129Z" fill="#2F353D"/>
<path d="M134.721 127.129L134.843 126.881L134.721 127.129Z" fill="#20262B"/>
<path d="M99.3841 96.7969V96.6726V96.5483V96.4239V96.2996V96.1753V96.051V95.9267V95.8024V95.6781V95.5538L99.2619 95.4294V95.3051V95.1808V95.0565L99.1396 94.9322L99.0173 94.8079L98.895 94.5593L98.7728 94.3106V94.1863C98.6505 94.062 98.6505 93.9377 98.5282 93.8134L98.406 93.5648L98.2837 93.3161L97.6723 92.4459L97.5501 92.3216L97.4278 92.1973L97.3055 92.073L97.1833 91.9487L96.9387 91.8244L96.8164 91.7001L96.6942 91.5757L96.5719 91.4514L96.4496 91.3271L96.3274 91.2028L96.2051 91.0785L90.2138 87.5977H90.0916L89.9693 87.4734L89.847 87.3491H89.7247H89.6025H89.4802H89.3579H89.2357H89.1134H88.9911H88.8688H88.7466H88.6243C88.502 87.3491 88.3798 87.4734 88.2575 87.4734H88.1352L86.668 87.9707L86.9125 87.8464H87.1571H87.4016H87.5239H87.6461H87.7684H87.8907H88.0129H88.1352H88.2575H88.3798H88.502L88.7466 88.095L88.8688 88.2193H88.9911L94.9824 91.7001L95.1047 91.8244L95.2269 91.9487L95.3492 92.073L95.4715 92.1973H95.5937L95.716 92.3216L95.8383 92.4459L95.9605 92.5703L96.0828 92.6946L96.2051 92.8189L96.3274 92.9432L96.4496 93.0675L96.5719 93.3161L96.8164 93.5648C96.9387 93.6891 96.9387 93.8134 97.061 93.9377V94.062L97.1833 94.3106L97.3055 94.5593L97.4278 94.6836L97.5501 94.8079V94.9322L97.6723 95.0565V95.1808V95.3051V95.4294V95.5538V95.6781V95.8024V95.9267V96.051V96.1753V96.2996V96.4239V96.5483V96.6726V97.0455V97.1698V97.2941V97.4184V97.5428V97.6671V97.7914V97.9157V98.04L97.5501 98.1643L97.4278 98.413L97.3055 98.5373L97.6723 99.6561C97.5501 99.7804 97.4278 99.9047 97.3055 99.9047L98.406 99.2831C98.6505 99.1588 98.7728 99.0345 98.895 98.7859L99.0173 98.5373V98.413V98.2886V98.1643V98.04V97.9157V97.7914V97.6671V97.5428V97.4184V97.0455L99.3841 96.7969Z" fill="#3E4651"/>
<path d="M97.917 99.283C98.0393 99.0344 98.0393 98.9101 98.1616 98.6615V98.5372C98.1616 98.2885 98.2838 98.0399 98.2838 97.7913V97.4183C98.2838 97.1697 98.2838 96.9211 98.1616 96.5482C98.0393 96.0509 97.917 95.4293 97.6725 94.9321C97.5502 94.6835 97.4279 94.4348 97.3057 94.1862C97.0611 93.689 96.6943 93.1917 96.3275 92.6945C96.083 92.4458 95.9607 92.3215 95.7161 92.0729C95.4716 91.9486 95.2271 91.7 95.1048 91.5757L89.1135 88.0949C88.869 87.9706 88.6244 87.8463 88.5022 87.722C88.3799 87.722 88.1354 87.5977 88.0131 87.5977H87.8908C87.7685 87.5977 87.6463 87.5977 87.524 87.5977H87.4017L87.1572 87.722L86.6681 87.9706C86.0568 88.3435 85.6899 89.0894 85.6899 90.0839V90.4568C85.6899 92.5702 87.1572 95.1807 88.9913 96.2995L94.9825 99.7803C96.083 100.402 97.0611 100.402 97.6725 99.656C97.7947 99.656 97.917 99.4073 97.917 99.283Z" fill="#1E2229"/>
<path d="M99.3841 84.7385V84.6142V84.4899V84.3655V84.2412V84.1169V83.9926V83.8683V83.744V83.6197L99.2619 83.4954L99.1396 83.371V83.2467V83.1224V82.9981L99.0173 82.8738L98.895 82.7495L98.7728 82.5009L98.6505 82.2522C98.5282 82.1279 98.5282 82.0036 98.406 81.8793L98.2837 81.6307L98.1614 81.382L97.6723 80.3875L97.5501 80.2632L97.4278 80.1389L97.3055 80.0146L97.1833 79.8903L97.061 79.766L96.9387 79.6417L96.8164 79.5174H96.6942L96.5719 79.393L96.4496 79.2687L96.3274 79.1444L96.2051 79.0201L90.2138 75.5394H90.0916L89.9693 75.415H89.847H89.7247H89.6025H89.4802H89.3579H89.2357H89.1134H88.9911H88.8688H88.7466H88.6243C88.502 75.415 88.3798 75.5394 88.2575 75.5394L88.1352 75.6637L86.668 75.9123L86.9125 75.788L87.1571 75.6637H87.4016H87.5239H87.6461H87.8907H88.0129H88.1352H88.2575H88.3798H88.502H88.6243H88.7466L88.8688 75.788H88.9911L94.9824 79.2687L95.1047 79.393L95.2269 79.5174L95.3492 79.6417L95.4715 79.766H95.5937L95.716 79.8903L95.8383 80.0146L95.9605 80.1389L96.0828 80.2632L96.2051 80.3875L96.3274 80.5119L96.4496 80.6362L96.5719 80.8848L96.8164 81.1334C96.9387 81.2577 96.9387 81.382 97.061 81.5064L97.1833 81.755L97.3055 82.0036L97.4278 82.1279L97.5501 82.2522V82.3765L97.6723 82.5009L97.7946 82.6252V82.7495V82.8738V82.9981V83.1224V83.2467V83.371V83.4954V83.6197V83.744V83.8683V83.9926V84.1169V84.4899V84.6142V84.7385V84.8628V84.9871V85.1114V85.2357V85.36V85.4844L97.6723 85.6087L97.5501 85.8573L97.4278 85.9816L97.3055 86.1059L97.061 86.2302L96.8164 86.3545L97.9169 85.733C98.1614 85.6087 98.2837 85.4844 98.406 85.2357L98.5282 84.9871V84.8628V84.7385V84.6142V84.4899V84.3655V84.2412V84.1169V83.9926V83.6197L99.3841 84.7385Z" fill="#3E4651"/>
<path d="M97.9168 87.3492L98.0391 87.1006C98.0391 86.9763 98.1614 86.8519 98.1614 86.7276L98.2836 86.479C98.2836 86.2304 98.4059 85.9818 98.4059 85.7331V85.3602C98.4059 85.1116 98.4059 84.8629 98.2836 84.49C98.2836 84.2414 98.1614 83.9928 98.0391 83.6198C97.9168 83.3712 97.9168 83.1226 97.7945 82.7496C97.6723 82.501 97.55 82.2524 97.4277 82.0038C97.1832 81.5065 96.8164 81.0093 96.4496 80.6363C96.205 80.3877 96.0828 80.2634 95.8382 80.0148C95.5937 79.8904 95.3491 79.6418 95.2269 79.5175L89.2356 76.0368C88.9911 75.9124 88.7465 75.7881 88.6242 75.7881H88.502C88.0129 75.7881 87.8906 75.6638 87.7683 75.6638H87.6461C87.5238 75.6638 87.4015 75.6638 87.2793 75.6638H87.157C87.0347 75.6638 86.9124 75.7881 86.7902 75.7881C86.1788 76.1611 85.812 76.9069 85.812 77.9014V78.2744C85.812 80.3877 87.2793 82.9983 89.1133 84.1171L95.1046 87.5978C96.0828 88.2194 97.0609 88.2194 97.6723 87.7221L97.9168 87.5978V87.3492Z" fill="#1E2229"/>
<path d="M99.3841 72.5561V72.4318V72.3075V72.1832V72.0588V71.9345V71.8102V71.6859V71.5616V71.4373V71.313V71.1887V71.0643V70.94V70.8157L99.2619 70.6914L99.1396 70.5671L99.0173 70.3185L98.5282 69.4483C98.406 69.324 98.406 69.1997 98.2837 69.0753L98.0391 68.8267L97.9169 68.5781L97.6723 68.3295L97.5501 68.2052L97.4278 68.0809L97.3055 67.9565L97.1833 67.8322L97.061 67.7079L96.9387 67.5836L96.8164 67.4593L96.6942 67.335L96.4496 67.2107L96.3274 67.0863L96.2051 66.962L90.2138 63.4813H90.0916L89.9693 63.357L89.7247 63.2327H89.6025H89.4802H89.3579H89.2357H89.1134H88.9911H88.8688H88.7466H88.6243H88.502C88.3798 63.2327 88.2575 63.357 88.1352 63.357H88.0129L86.668 63.8542L86.9125 63.7299H87.1571H87.2793H87.4016H87.5239H87.6461H87.7684H87.8907H88.0129H88.1352H88.2575H88.3798L88.502 63.8542L88.6243 63.9785H88.7466L94.7378 67.4593L94.8601 67.5836L94.9824 67.7079L95.1047 67.8322L95.2269 67.9565L95.3492 68.0809L95.4715 68.2052L95.5937 68.3295L95.716 68.4538L95.8383 68.5781L95.9605 68.7024L96.0828 68.8267L96.2051 68.951L96.3274 69.1997L96.5719 69.4483C96.6942 69.5726 96.6942 69.6969 96.8164 69.8212L96.9387 70.0698L97.061 70.3185L97.6723 70.6914L97.7946 70.8157V70.94L97.9169 71.0643V71.1887V71.313V71.4373V71.5616V71.6859V71.8102V71.9345V72.0588V72.1832V72.3075V72.4318V72.5561V72.6804V73.0533V73.1777V73.302V73.4263V73.5506V73.6749V73.7992V73.9235V74.0478L97.7946 74.1722L97.6723 74.4208L97.5501 74.5451L97.4278 74.6694L97.5501 75.6639L97.3055 75.7882L98.406 75.1667C98.6505 75.0423 98.7728 74.918 98.895 74.6694L99.0173 74.4208V74.2965V74.1722V74.0478V73.9235V73.7992V73.6749V73.5506V73.4263V73.302V72.929L99.3841 72.5561Z" fill="#3E4651"/>
<path d="M97.9168 75.2908L98.0391 75.0422C98.0391 74.9179 98.1614 74.7936 98.1614 74.6693L98.2836 74.4206C98.2836 74.172 98.4059 73.9234 98.4059 73.6748V73.3018C98.4059 72.8046 98.2836 72.183 98.1614 71.6858C98.0391 71.4371 98.0391 71.1885 97.9168 70.8156C97.7945 70.567 97.6723 70.3183 97.55 70.0697C97.3055 69.5725 96.9387 69.0752 96.5718 68.7023C96.3273 68.4537 96.205 68.3293 95.9605 68.0807C95.7159 67.9564 95.4714 67.7078 95.3491 67.5835L89.1133 64.1027C88.8688 63.9784 88.6242 63.8541 88.502 63.7298H88.2574C88.1352 63.7298 88.0129 63.6055 87.8906 63.6055H87.6461C87.5238 63.6055 87.4015 63.6055 87.2793 63.6055L87.157 63.7298C87.0347 63.7298 86.9124 63.8541 86.7902 63.8541C86.1788 64.227 85.812 64.9729 85.812 65.9674V66.3403C85.812 68.4536 87.2793 71.0642 89.1133 72.183L94.9823 75.6638C95.9605 76.2853 96.9386 76.2853 97.55 75.6638L97.6723 75.5395L97.9168 75.2908Z" fill="#1E2229"/>
<path d="M99.5063 60.4978V60.3735V60.2492V60.1249V60.0005V59.8762V59.7519V59.6276V59.5033V59.379L99.384 59.2547V59.1304L99.2617 59.006V58.8817L98.8949 58.1359V58.0115L98.7727 57.8872L98.6504 57.6386L98.5281 57.39C98.4058 57.2657 98.4058 57.1414 98.2836 57.017L98.039 56.7684L97.9168 56.5198L97.7945 56.3955L97.6722 56.1469L97.5499 56.0225L97.4277 55.7739L97.3054 55.6496L97.1831 55.5253L97.0609 55.401L96.9386 55.2767L96.8163 55.1524L96.4495 55.028L96.3272 54.9037L96.205 54.7794L90.2137 51.2987H90.0914L89.9692 51.1744L89.8469 51.05H89.7246H89.6024H89.4801H89.3578H89.2355H89.1133H88.991H88.8687H88.7465H88.6242C88.5019 51.05 88.3796 51.1744 88.2574 51.1744H88.1351L87.0347 51.7959L87.2792 51.6716L87.5238 51.5473H87.7683H87.8906H88.0128H88.1351H88.2574H88.3796H88.5019H88.6242H88.7465H88.8687L88.991 51.6716L89.1133 51.7959V52.0445L95.1045 55.5253L95.2268 55.6496L95.3491 55.7739L95.4713 55.8982L95.5936 56.0225L95.7159 56.1469L95.8382 56.2712L95.9604 56.3955L96.0827 56.5198L96.205 56.6441L96.3272 56.7684L96.4495 56.8927L96.5718 57.017L96.6941 57.2657L96.9386 57.5143C97.0609 57.6386 97.0609 57.7629 97.1831 57.8872L97.3054 58.1359L97.4277 58.3845L97.5499 58.5088L97.6722 58.6331V58.7574L97.7945 58.8817V59.006V59.1304V59.2547V59.379V59.5033V59.6276V59.7519V59.8762V60.0005V60.1249V60.2492V60.3735V60.4978V60.8707V60.995V61.1194V61.2437V61.368V61.4923V61.6166V61.7409V61.8652L97.6722 61.9895L98.039 63.2327L97.9168 63.357L97.7945 63.4813L97.6722 63.6056C97.5499 63.7299 97.4277 63.7299 97.4277 63.8542L98.5281 63.2327C98.7727 63.1084 98.8949 62.984 99.0172 62.7354L99.1395 62.4868V62.3625V62.2382V62.1139V61.9895V61.8652V61.7409V61.6166V61.4923V61.368V60.995L99.5063 60.4978Z" fill="#898F94"/>
<path d="M98.0391 63.2327L98.1614 62.9841L98.2836 62.6111L98.4059 62.3625C98.4059 62.1139 98.5282 61.8653 98.5282 61.6166V61.2437C98.5282 60.9951 98.5282 60.7464 98.4059 60.3735C98.4059 60.1249 98.2836 59.8763 98.1614 59.5033C98.0391 59.2547 98.0391 59.0061 97.9168 58.6331C97.7945 58.3845 97.6723 58.1359 97.55 57.8873C97.3055 57.39 96.9386 56.8928 96.5718 56.5198C96.3273 56.2712 96.205 56.1469 95.9605 55.8983C95.7159 55.7739 95.4714 55.5253 95.3491 55.401L89.1133 52.0446C88.8688 51.9203 88.6242 51.7959 88.502 51.7959H88.2574C88.1352 51.7959 88.0129 51.6716 87.8906 51.6716H87.6461H87.2793L87.0347 51.7959L86.7902 51.9203C86.1788 52.2932 85.812 53.0391 85.812 54.0336V54.4065C85.812 56.5198 87.2793 59.1304 89.1133 60.2492L95.1046 63.7299C96.205 64.3515 97.1832 64.3515 97.7945 63.7299L97.9168 63.6056L98.0391 63.2327Z" fill="#676B6F"/>
<path d="M115.035 105.996V105.872V105.747V105.623V105.499V105.375V105.25V105.126V105.002V104.877V104.753L114.913 104.629V104.504L114.791 104.38V104.256L114.668 104.131L114.546 104.007L114.179 103.013L114.057 102.764V102.64C113.935 102.515 113.935 102.391 113.812 102.267L113.568 102.018L113.446 101.769L113.323 101.645L113.201 101.521L113.079 101.397L112.956 101.272L112.834 101.148L112.712 101.024L112.59 100.899H112.467H112.345L112.223 100.775L112.101 100.526L111.978 100.402L111.856 100.278L105.743 96.797H105.62L105.498 96.6727L105.376 96.5483H105.253H105.131H105.009H104.887H104.764H104.642H104.52H104.398H104.275H104.153C104.031 96.5483 103.908 96.6727 103.786 96.6727H103.664L102.563 97.2942L102.808 97.1699H103.053H103.297H103.419H103.542H103.664H103.786H103.908H104.031H104.153H104.275H104.398L104.52 97.2942L104.642 97.4185H104.764L110.756 100.899L110.878 101.024L111 101.148L111.122 101.272L111.245 101.397H111.367L111.489 101.521L111.612 101.645L111.734 101.769L111.856 101.894L111.978 102.018L112.101 102.142L112.223 102.267L112.345 102.515L112.59 102.764C112.712 102.888 112.712 103.013 112.834 103.137L112.956 103.386L113.079 103.634L113.201 103.758L113.323 103.883V104.007L113.446 104.131V104.256V104.38V104.504V104.629V104.753V104.877V105.002V105.126V105.25V105.375V105.499V105.623V106.742V107.115V107.239V107.364V107.488V107.612V107.736V107.861V107.985V108.109L113.323 108.234L113.568 108.731L113.446 108.855L113.323 108.98L112.956 109.228L114.057 108.607C114.301 108.482 114.424 108.358 114.546 108.109L114.668 107.861L114.791 107.736V107.612V107.488V107.364V107.239V107.115V106.991V106.866V106.742V106.369L115.035 105.996Z" fill="#3E4651"/>
<path d="M113.567 108.607L113.69 108.482C113.812 108.358 113.812 108.234 113.812 107.985V107.861C113.812 107.612 113.934 107.364 113.934 107.115V106.742C113.934 106.493 113.934 106.245 113.812 105.872C113.69 105.375 113.567 104.753 113.323 104.256C113.201 104.007 113.078 103.759 112.956 103.51C112.834 103.261 112.712 103.013 112.467 102.764C112.345 102.515 112.1 102.267 111.856 102.142C111.611 101.894 111.489 101.77 111.244 101.521C111 101.397 110.755 101.148 110.633 101.024L104.642 97.5429C104.275 97.2943 104.03 97.17 103.663 97.17L103.419 97.0457H103.174C103.052 97.0457 102.93 97.0457 102.808 97.0457L102.563 97.17L102.318 97.2943C101.707 97.6672 101.34 98.4131 101.34 99.4076V99.7805C101.34 101.894 102.808 104.504 104.642 105.623L110.633 109.104C111.733 109.726 112.589 109.726 113.201 109.104L113.323 108.98C113.445 108.855 113.567 108.731 113.567 108.607Z" fill="#1E2229"/>
<path d="M115.157 93.938V93.8137V93.6894V93.5651V93.4408V93.3165V93.1922V93.0678V92.9435V92.8192L114.79 92.1977L114.668 92.0733V91.949V91.8247V91.7004L114.546 91.5761L114.423 91.4518L114.301 91.2032L114.179 90.9545V90.8302C114.057 90.7059 114.057 90.5816 113.934 90.4573L113.69 90.0843L113.568 89.8357L113.445 89.7114L113.323 89.5871L113.078 89.3385L112.956 89.2142L112.834 89.0898L112.712 88.9655L112.589 88.8412L112.467 88.7169L112.345 88.5926L112.223 88.4683L112.1 88.344L111.978 88.2197L105.987 84.7389H105.865L105.742 84.6146L105.62 84.4903H105.498H105.375L105.009 84.366H104.886H104.764H104.642H104.52H104.397H104.275H104.153C103.786 84.366 103.786 84.366 103.664 84.366L103.541 84.4903L102.441 85.1118L102.685 84.9875H102.93H103.052H103.175H103.297H103.419H103.541H103.664H103.786H103.908H104.03H104.153L104.275 85.1118L104.397 85.2362H104.52L110.511 88.7169L110.633 88.8412L110.755 88.9655L110.878 89.0898L111 89.2142H111.122L111.244 89.3385L111.367 89.4628L111.489 89.5871L111.611 89.7114L111.733 89.8357L111.856 89.96L111.978 90.0843L112.1 90.333L112.345 90.5816C112.467 90.7059 112.467 90.8302 112.589 90.9545V91.0788L112.712 91.3275L112.834 91.5761L112.956 91.7004L113.078 91.8247V91.949L113.201 92.0733V92.1977L113.323 92.322V92.4463V92.5706V92.6949V92.8192V92.9435V93.0678V93.1922V93.3165V93.4408V93.5651V93.6894V94.0623V94.1867V94.311V94.4353V94.5596V94.6839V94.8082V94.9325V95.0568L113.201 95.1812L113.568 96.5486V96.6729L113.445 96.7972L113.201 96.9215L112.956 97.0458L114.057 96.4243C114.301 96.3 114.423 96.1757 114.546 95.927L114.668 95.6784V95.5541V95.4298V95.3055V95.1812V95.0568V94.9325V94.8082V94.6839V94.5596V94.1867L115.157 93.938Z" fill="#3E4651"/>
<path d="M113.568 96.5483L113.69 96.2996C113.69 96.1753 113.812 96.051 113.812 95.9267L113.935 95.6781C113.935 95.4295 114.057 95.1808 114.057 94.9322V94.5593C114.057 94.3106 114.057 94.062 113.935 93.6891C113.935 93.4405 113.812 93.1918 113.69 92.8189C113.568 92.5703 113.568 92.3216 113.445 91.9487C113.323 91.7001 113.201 91.4515 113.079 91.2028V91.0785C112.956 90.8299 112.834 90.5813 112.59 90.3326C112.467 90.084 112.223 89.8354 111.978 89.7111C111.734 89.4624 111.611 89.3381 111.367 89.0895C111.122 88.9652 111 88.7166 110.755 88.5923L104.764 85.1115C104.397 84.8629 104.153 84.7386 103.786 84.7386L103.541 84.6143H103.297C103.175 84.6143 103.052 84.6143 102.93 84.6143L102.686 84.7386L102.441 84.8629C101.83 85.2358 101.463 85.9817 101.463 86.9762V87.3491C101.463 89.4625 102.93 92.073 104.764 93.1918L110.755 96.6726C111.734 97.2941 112.712 97.2941 113.323 96.7969L113.568 96.6726V96.5483Z" fill="#1E2229"/>
<path d="M115.157 81.8796V81.7553V81.631V81.5067V81.3824V81.2581V81.1338V81.0095V80.8851V80.7608V80.6365L114.79 79.8906V79.7663V79.642V79.5177L114.668 79.3934L114.546 79.2691L114.423 79.0205L114.301 78.7718C114.179 78.6475 114.179 78.5232 114.057 78.3989L113.812 78.1503L113.567 77.7773L113.445 77.653L113.323 77.5287L113.201 77.4044L113.078 77.2801L112.956 77.1558L112.834 77.0314L112.712 76.9071L112.589 76.7828L112.345 76.5342L112.222 76.4099L112.1 76.2856L111.978 76.1613L105.987 72.6805H105.864L105.742 72.5562L105.62 72.4319H105.498H105.375H105.253H105.131H105.008H104.886H104.764H104.642H104.519H104.397C104.275 72.4319 104.153 72.5562 104.03 72.5562H103.908L102.808 73.1778L103.052 73.0534L103.297 72.9291H103.541H103.664H103.786H103.908H104.03H104.153H104.275H104.397H104.519H104.642L104.764 73.0534L104.886 73.1778H105.008L111 76.6585L111.122 76.7828L111.244 76.9071L111.367 77.0314L111.489 77.1558H111.611L111.733 77.2801L111.856 77.4044L111.978 77.5287L112.1 77.653L112.222 77.7773L112.345 78.1503L112.467 78.2746L112.589 78.5232L112.834 78.7718C112.956 78.8961 112.956 79.0205 113.078 79.1448L113.201 79.3934L113.323 79.642L113.445 79.7663L113.567 79.8906V80.015L113.69 80.1393V80.2636V80.3879V80.5122V80.6365V80.7608V80.8851V81.0095V81.1338V81.2581V81.3824V81.5067V81.631V81.7553V82.1283V82.2526V82.3769V82.5012V82.6255V82.7498V82.8741V82.9985V83.1228L113.567 83.2471L113.445 83.4957H113.323L113.201 83.62L112.956 83.7443L112.712 83.8686L113.812 83.2471C114.057 83.1228 114.179 82.9985 114.301 82.7498L114.423 82.5012V82.3769V82.2526V82.1283V82.004V81.8796V81.7553V81.631V81.5067V81.3824V81.0095L115.157 81.8796Z" fill="#3E4651"/>
<path d="M113.69 84.49L113.812 84.2414L113.935 83.9928L114.057 83.7441C114.057 83.4955 114.179 83.2469 114.179 82.9983V82.6253C114.179 82.3767 114.179 82.1281 114.057 81.7551C113.935 81.2579 113.812 80.6363 113.568 80.1391C113.446 79.8905 113.323 79.6418 113.201 79.3932C112.956 78.896 112.59 78.3987 112.223 78.0258C111.978 77.7771 111.856 77.6528 111.611 77.4042C111.367 77.2799 111.122 77.0313 111 76.907L105.009 73.4262C104.764 73.3019 104.52 73.1776 104.397 73.0533H104.275C104.153 73.0533 103.908 72.929 103.786 72.929H103.542C103.419 72.929 103.297 72.929 103.175 72.929L102.93 73.0533L102.686 73.1776C102.074 73.5505 101.708 74.2964 101.708 75.2909V75.6638C101.708 77.7771 103.175 80.3877 105.009 81.5065L111 84.9873C111.978 85.6088 112.956 85.6088 113.568 85.1116L113.812 84.9873L113.69 84.49Z" fill="#1E2229"/>
<path d="M115.157 69.6968V69.5725V69.4481V69.3238V69.1995V69.0752V68.9509V68.8266V68.7023V68.578V68.4536V68.3293L115.035 68.205V68.0807L114.912 67.9564L114.79 67.8321L114.668 67.7078L114.546 67.4591L114.423 67.2105C114.301 67.0862 114.301 66.9619 114.179 66.8376L113.934 66.589L113.567 65.5945L113.445 65.4701L113.323 65.3458L113.201 65.2215L113.078 65.0972L112.956 64.9729L112.834 64.8486L112.712 64.7243L112.589 64.6H112.467L112.345 64.3513L112.222 64.227L112.1 64.1027L111.978 63.9784L105.987 60.4976H105.864L105.742 60.3733L105.62 60.249H105.498H105.375H105.253H105.131H105.008H104.886H104.764H104.642H104.519H104.397C104.275 60.249 104.153 60.3733 104.03 60.3733H103.908L102.808 60.9949L103.052 60.8706L103.297 60.7463H103.419H103.541H103.664H103.786H103.908H104.03H104.153H104.275H104.397H104.519L104.642 60.8706L104.764 60.9949H104.886L110.877 64.4756L111 64.6L111.122 64.7243L111.244 64.8486L111.367 64.9729H111.489L111.611 65.0972L111.733 65.2215L111.856 65.3458L111.978 65.4701L112.1 65.5945L112.222 65.7188L112.345 65.8431L112.467 66.0917L112.712 66.3403C112.834 66.4646 112.834 66.589 112.956 66.7133L113.078 66.9619L113.201 67.2105L113.323 67.3348L113.445 67.4591V67.5835L113.567 67.7078V67.8321V67.9564V68.0807V68.205V68.3293V68.4536V68.578V68.7023V68.8266V68.9509V69.0752V69.1995V69.3238V69.6968V69.8211V69.9454V70.0697V70.194V70.3183V70.4426V70.567V70.6913L113.445 70.8156L113.323 71.0642L113.567 72.556V72.6803L113.445 72.8046L113.201 73.0532L114.301 72.4316C114.546 72.3073 114.668 72.183 114.79 71.9344L114.912 71.6858V71.5615V71.4371V71.3128V71.1885V71.0642V70.9399V70.8156V70.6913V70.3183L115.157 69.6968Z" fill="#E94B51"/>
<path d="M113.69 72.4317L113.812 72.3074C113.812 72.1831 113.935 72.0588 113.935 71.9344L114.057 71.6858C114.057 71.4372 114.179 71.1886 114.179 70.9399V70.567C114.179 69.8211 113.935 68.951 113.568 68.0808C113.445 67.8321 113.323 67.5835 113.201 67.3349C112.956 66.8376 112.59 66.3404 112.1 65.8431C111.856 65.5945 111.734 65.4702 111.489 65.2216C111.245 65.0973 111 64.8486 110.878 64.7243L104.886 61.2436C104.397 60.995 104.031 60.8707 103.541 60.7463H103.419C103.297 60.7463 103.052 60.7463 102.93 60.7463H102.808C102.686 60.7463 102.563 60.8706 102.441 60.8706C101.83 61.2436 101.463 61.9895 101.463 62.984V63.3569C101.463 65.4702 102.93 68.0808 104.764 69.1996L110.755 72.6803C111.856 73.3019 112.834 73.3019 113.445 72.6803L113.568 72.556L113.69 72.4317Z" fill="#B8393B"/>
<path d="M129.218 118.055C129.34 117.93 129.34 117.806 129.463 117.682C129.463 117.557 129.585 117.433 129.585 117.309V117.06C129.585 116.811 129.707 116.563 129.707 116.314V115.941V104.132V103.759V91.9489V91.8246C129.707 91.576 129.707 91.3273 129.585 90.9544C129.585 90.7058 129.463 90.4571 129.34 90.0842C129.218 89.587 128.973 88.9654 128.607 88.4682C128.118 87.7223 127.628 86.9764 126.895 86.4792C126.65 86.3548 126.406 86.1062 126.284 85.9819L120.292 82.5012C120.048 82.3768 119.803 82.2525 119.559 82.1282H119.436C119.192 82.1282 119.07 82.0039 118.947 82.0039H118.825C118.703 82.0039 118.458 82.0039 118.336 82.0039H118.214C118.091 82.0039 117.969 82.1282 117.847 82.1282C117.235 82.5012 116.869 83.247 116.869 84.2415V84.6145V96.4241V96.7971V108.607V108.98C116.869 111.093 118.336 113.704 120.17 114.822L126.161 118.303C127.139 118.8 127.873 118.925 128.484 118.552C128.851 118.303 128.973 118.303 129.218 118.055Z" fill="#146CB3"/>
<path d="M130.808 91.0786V90.9543V90.83V90.7057V90.5814V90.457V90.3327V90.2084V90.0841V89.9598V89.8355V89.7112V89.5869V89.4625V89.3382L130.686 89.2139L130.564 89.0896L129.952 88.0951L129.83 87.8465C129.708 87.7222 129.708 87.5979 129.585 87.4735L129.341 87.2249L129.219 87.1006L129.096 86.9763L128.974 86.852L128.852 86.7277L128.729 86.6034L128.607 86.479L128.485 86.3547L128.24 85.8575L128.118 85.7332L127.874 85.6089L127.751 85.4845L127.629 85.3602L121.515 81.8795H121.393L121.271 81.7552L121.149 81.6309H121.026H120.904H120.782H120.66H120.537H120.415H120.293H120.17H120.048H119.926C119.804 81.6309 119.681 81.7552 119.559 81.7552H119.437L118.336 82.3767L118.581 82.2524L118.826 82.1281H119.07H119.192H119.315H119.437H119.559H119.681H119.804H119.926H120.048H120.17L120.293 82.2524L120.415 82.3767H120.537L126.529 85.8575L126.651 85.9818L126.773 86.1061L126.895 86.2304L127.018 86.3547H127.14L127.262 86.479L127.384 86.6034L127.507 86.7277L127.629 86.852L127.751 86.9763L127.874 87.1006L127.996 87.2249L128.118 87.4735L128.363 87.7222C128.485 87.8465 128.485 87.9708 128.607 88.0951L128.729 88.3437L128.852 88.5924L128.974 88.7167L129.096 88.841L129.219 88.9653L129.341 89.0896V89.2139V89.3382V89.4625V89.5869V89.7112V89.8355V89.9598V90.0841V90.2084V90.3327V90.457V90.5814V90.7057V91.0786V102.888V104.256V116.065V116.438C129.341 116.687 129.341 116.936 129.219 117.184V117.309V117.433V117.557L129.463 117.681L129.219 117.93L129.096 118.054C128.974 118.179 128.852 118.303 128.729 118.427L129.83 117.806C130.074 117.681 130.197 117.557 130.319 117.309L130.441 117.06V116.936V116.811V116.687V116.563V116.438V116.314V116.19V116.065V115.941V115.568V103.758V103.386V91.5759V91.2029L130.808 91.0786Z" fill="#4F96D2"/>
<path d="M130.808 78.8957V78.7714V78.6471V78.5228V78.3985V78.2742V78.1499V78.0256V77.9012V77.7769L130.686 77.6526L130.564 77.5283V77.404V77.2797L130.441 77.1554L130.319 77.0311L130.197 76.9067L130.074 76.6581L129.952 76.4095C129.83 76.2852 129.83 76.1609 129.708 76.0366L129.463 75.0421L129.341 74.9177L129.219 74.7934L129.096 74.6691L128.852 74.4205L128.729 74.2962L128.607 74.1719L128.485 74.0476L128.363 73.9232L128.24 73.7989H128.118L127.996 73.6746L127.874 73.5503L127.751 73.426L127.629 73.3017L121.638 69.8209H121.515L121.393 69.6966L121.271 69.5723H121.149L120.904 69.448H120.782H120.66H120.537H120.415H120.293H120.17H120.048H119.926C119.804 69.448 119.681 69.5723 119.559 69.5723H119.437L118.336 70.1939L118.581 70.0696L118.826 69.9452H118.948H119.07H119.192H119.315H119.437H119.559H119.681H119.804H119.926H120.048L120.17 70.0696L120.293 70.1939H120.415L126.406 73.6746L126.529 73.7989L126.651 73.9232L126.773 74.0476L127.018 74.4205H127.14L127.262 74.5448L127.384 74.6691L127.507 74.7934L127.629 74.9177L127.751 75.0421L127.874 75.1664L127.996 75.2907L128.118 75.5393L128.363 75.7879C128.485 75.9122 128.485 76.0366 128.607 76.1609L128.729 76.4095L128.852 76.6581L128.974 76.7824L129.096 76.9067V77.0311L129.219 77.1554V77.2797V77.404V77.5283V77.6526V77.7769V77.9012V78.0256V78.1499V78.2742V78.3985V78.5228V78.6471V78.7714V79.1444V79.2687V79.393V79.5173V79.6416V79.7659V79.8902V80.0146L129.096 80.1389L129.463 81.382L129.341 81.6306L129.219 81.7549V81.8792L128.974 82.1279L128.852 82.2522L129.952 81.6306C130.197 81.5063 130.319 81.382 130.441 81.1334L130.564 80.8847V80.7604V80.6361V80.5118V80.3875V80.2632V80.1389V80.0146V79.8902V79.7659V79.393L130.808 78.8957Z" fill="#FDC338"/>
<path d="M129.341 81.631L129.463 81.3823C129.463 81.258 129.585 81.1337 129.585 81.0094L129.707 80.7608C129.707 80.5122 129.83 80.2635 129.83 80.0149V79.642C129.83 79.3934 129.83 79.1447 129.707 78.7718C129.707 78.5232 129.585 78.2745 129.463 77.9016C129.341 77.653 129.341 77.4044 129.218 77.0314C129.096 76.7828 128.974 76.5342 128.852 76.2855C128.607 75.7883 128.24 75.291 127.873 74.9181C127.629 74.6695 127.507 74.5452 127.262 74.2965C127.017 74.1722 126.773 73.9236 126.651 73.7993L120.659 70.3185C120.415 70.1942 120.17 70.0699 120.048 69.9456H119.804C119.681 69.9456 119.559 69.8213 119.437 69.8213H119.192C119.07 69.8213 118.948 69.8213 118.825 69.8213L118.459 70.0699L118.214 70.1942C117.603 70.5672 117.236 71.313 117.236 72.3075V72.6805C117.236 74.7938 118.703 77.4044 120.537 78.5232L126.528 82.0039C127.507 82.6255 128.485 82.6255 129.096 82.1282L129.341 81.8796V81.631Z" fill="#F5A905"/>
<path d="M91.1917 28.7981L89.8467 28.0522V46.0775L91.1917 45.2074V28.7981Z" fill="#4F96D2"/>
<path d="M127.629 50.1798L91.1924 28.7981V45.2073L127.507 66.4648L127.629 50.1798Z" fill="#146CB3"/>
<path d="M91.1917 45.2073L89.8467 46.0775V46.2018L127.506 68.3294V66.4647L91.1917 45.2073Z" fill="#145181"/>
</g>
<defs>
<linearGradient id="paint0_linear_1655_245" x1="0" y1="0.750732" x2="175.139" y2="5.07418" gradientUnits="userSpaceOnUse">
<stop stop-color="#2F69FF" stop-opacity="0.7"/>
<stop offset="1" stop-color="#00C0A9" stop-opacity="0.7"/>
</linearGradient>
<clipPath id="clip0_1655_245">
<rect width="56" height="113" fill="white" transform="translate(83 14.7507)"/>
</clipPath>
</defs>
</svg>
