<svg width="172" height="171" viewBox="0 0 172 171" fill="none" xmlns="http://www.w3.org/2000/svg">
<rect y="0.750732" width="172" height="170" rx="10" fill="#0DB7A2" fill-opacity="0.7"/>
<g clip-path="url(#clip0_1801_299)">
<path d="M142.084 49.1692L142.236 49.0203L142.084 49.1692ZM69.6932 44.553L65.2643 42.0216L61.2935 44.2552V29.0665L60.6826 28.6198H61.5989L69.6932 39.788V44.553ZM40.9814 29.0665V69.4208L38.3851 67.9317L38.5378 28.9176L40.9814 29.0665ZM142.847 48.4247C143 48.1269 142.847 47.9779 142.847 47.6801L135.822 34.5761C135.669 34.2783 135.517 34.1294 135.211 33.9805C134.906 33.8316 134.448 33.6827 133.989 33.5338C133.073 33.3849 132.157 33.5338 131.546 33.9805L126.048 37.5543L102.07 42.6172L95.656 33.9805L94.7397 32.7892L93.8234 32.9382L85.5764 34.7251L83.591 33.6827L73.3586 19.6853L72.595 18.6429H71.6786L48.3121 18.9407L38.5378 24.5993V14.1756L32.5817 10.7507L28.1527 13.2822L28 73.8881L33.9562 77.313L121.924 126.9L126.353 124.368V117.667L116.884 112.307L119.328 110.966V88.1833L109.096 82.3759L104.667 84.9073L104.819 58.2527L94.587 52.4452L90.158 54.9767V51.7007L90.3107 51.8496L91.2271 53.0408L92.1434 52.8919L113.983 48.2758V48.5736C113.983 49.0203 114.288 49.3181 114.746 49.6159H114.899L115.205 49.7649L115.51 49.9138H115.663H115.968H116.274H116.579H116.732L140.251 52.1474H140.404H140.709H141.015H141.167H141.473H141.625H141.931H142.084C142.236 52.1474 142.389 51.9985 142.542 51.9985H142.695L143 51.8496L143.153 51.7007V51.5518V51.4028V51.2539V48.5736L142.847 48.4247Z" fill="#133658"/>
<path d="M33.9561 70.4631L38.385 68.0805L38.5377 14.1755L34.1088 16.5581L33.9561 70.4631Z" fill="#2F363E"/>
<path d="M38.538 14.1756L32.5818 10.7507L28.1528 13.2822L34.109 16.5582L38.538 14.1756Z" fill="#353C46"/>
<path d="M122.077 120.05L121.924 126.751L126.353 124.219V117.518L122.077 120.05Z" fill="#2F363E"/>
<path d="M122.077 120.05L126.353 117.518L38.385 68.0806L33.9561 70.4631L122.077 120.05Z" fill="#353C46"/>
<path d="M33.9562 70.463L34.1089 16.558L28.1527 13.282L28 73.8879L33.9562 77.1639L121.924 126.751L122.077 120.05L33.9562 70.463Z" fill="#010202"/>
<path d="M51.3661 34.8741L51.2134 84.3118L61.2931 78.5044L61.4458 29.0667L51.3661 34.8741Z" fill="#0E3C60"/>
<path d="M41.1342 29.0667L40.9814 78.5044L51.2139 84.3118L51.3666 34.8741L41.1342 29.0667Z" fill="#122E47"/>
<path d="M61.4464 29.0665L51.214 23.259L41.1343 29.0665L51.3667 34.8739L61.4464 29.0665Z" fill="#10456F"/>
<path d="M65.4169 53.6365L65.2642 92.204L75.4966 86.3965L75.6493 47.8291L65.4169 53.6365Z" fill="#175A90"/>
<path d="M55.1845 47.8291L55.0317 86.3965L65.2641 92.2039L65.4169 53.6365L55.1845 47.8291Z" fill="#10446B"/>
<path d="M75.6494 47.8292L65.417 42.1707L55.1846 47.8292L65.417 53.6366L75.6494 47.8292Z" fill="#1968A6"/>
<path d="M80.078 43.0638L79.9253 100.394L90.005 94.5863L90.3104 37.2563L80.078 43.0638Z" fill="#4F96D2"/>
<path d="M69.8461 37.2563L69.6934 94.5863L79.9258 100.394L80.0785 43.0638L69.8461 37.2563Z" fill="#1875B3"/>
<path d="M90.3105 37.2564L79.9254 31.449L69.8457 37.2564L80.0781 43.0639L90.3105 37.2564Z" fill="#3586C7"/>
<path d="M94.7401 64.0601L94.5874 108.584L104.667 102.776L104.82 58.2527L94.7401 64.0601Z" fill="#66ACDF"/>
<path d="M84.3545 58.2527V102.776L94.5869 108.584L94.7396 64.0601L84.3545 58.2527Z" fill="#3E86C0"/>
<path d="M104.819 58.2528L94.5869 52.4453L84.3545 58.2528L94.7396 64.0602L104.819 58.2528Z" fill="#4B98D3"/>
<path d="M109.249 93.9908V116.625L119.481 110.966V88.1833L109.249 93.9908Z" fill="#B5DCF6"/>
<path d="M99.0156 88.1833V110.966L109.248 116.625V93.9908L99.0156 88.1833Z" fill="#87C1EA"/>
<path d="M119.48 88.1834L109.248 82.376L99.0156 88.1834L109.248 93.9909L119.48 88.1834Z" fill="#9ECEF0"/>
<path d="M71.984 18.4939L48.312 18.9406L37.4688 25.1948L60.988 24.7481H61.9043L72.9004 18.4939H71.984Z" fill="#B8393B"/>
<path d="M73.5112 19.5363L72.9003 18.4939L61.9043 24.7481L62.6679 25.7904L73.9694 41.128L84.8127 34.8739L73.5112 19.5363Z" fill="#E94B51"/>
<path d="M93.9759 32.938L84.8125 34.8738L73.9692 41.128L83.1326 39.1921L84.0489 39.0432L94.8922 32.7891L93.9759 32.938Z" fill="#B8393B"/>
<path d="M95.809 33.9803L94.8926 32.7891L84.0493 39.0432L84.8129 40.2345L91.2273 48.7223L102.071 42.617L95.809 33.9803Z" fill="#E94B51"/>
<path d="M117.495 43.0638L119.328 46.9355L92.1434 52.8918H91.2271L90.3107 51.8495L83.8964 43.2127L74.733 45.1486L73.8167 45.4464L72.9004 44.1062L61.5989 28.6197L37.4688 29.0664V25.1948L60.988 24.748H61.9043L62.668 25.7904L73.9694 41.128L83.1328 39.1922L84.0491 39.0433L84.8127 40.2346L91.2271 48.7224L117.495 43.0638Z" fill="#8B2A2C"/>
<path d="M91.2266 48.7225L102.07 42.6173L128.491 36.9587L117.495 43.064L91.2266 48.7225Z" fill="#B8393B"/>
<path d="M142.847 48.5737C142.694 48.7226 142.541 48.8715 142.389 49.0204L142.236 49.1693C142.083 49.1693 141.931 49.3182 141.778 49.3182L141.472 49.4671H141.32C141.167 49.4671 141.014 49.4671 140.709 49.4671C140.556 49.4671 140.251 49.4671 140.098 49.4671L116.426 47.2335C116.12 47.2335 115.815 47.2335 115.51 47.0846C115.204 47.0846 114.899 46.9357 114.746 46.7867H114.593C114.135 46.4889 113.83 46.1911 113.83 45.7444V48.4247C113.83 48.8715 114.135 49.1693 114.593 49.4671H114.746L115.051 49.616L115.357 49.7649H115.51H115.815H116.12H116.426H116.579L140.251 51.9986H140.403H140.709H141.014H141.167H141.472H141.625H141.931C142.083 51.9986 142.236 51.8497 142.389 51.8497H142.541L142.847 51.7007L143 51.5518V51.4029V51.254V51.1051V48.4247C143 48.2758 143 48.4247 142.847 48.5737Z" fill="#8B2A2C"/>
<path d="M135.211 33.8317C135.517 33.9806 135.67 34.2784 135.822 34.4273L142.848 47.5313C143.153 47.978 142.848 48.5737 142.237 48.8715C141.626 49.1693 140.709 49.4671 139.946 49.3182L116.274 47.0846C115.663 47.0846 115.052 46.9357 114.594 46.7868H114.441C113.525 46.1911 113.372 45.2977 114.288 44.8509L131.241 33.9806C131.852 33.5339 132.768 33.385 133.684 33.5339C134.448 33.5339 134.906 33.6828 135.211 33.8317Z" fill="#E94B51"/>
</g>
<defs>
<clipPath id="clip0_1801_299">
<rect width="115" height="116" fill="white" transform="translate(28 10.7507)"/>
</clipPath>
</defs>
</svg>
