<svg width="172" height="173" viewBox="0 0 172 173" fill="none" xmlns="http://www.w3.org/2000/svg">
<rect y="0.750732" width="172" height="172" rx="10" fill="url(#paint0_linear_1801_300)"/>
<g clip-path="url(#clip0_1801_300)">
<path d="M101.693 84.4703L96.5234 81.36L112.489 72.0291L117.659 74.9838L101.693 84.4703Z" fill="#1E2229"/>
<path d="M83.9042 94.89L78.7344 91.7796L94.7 82.4487L99.8698 85.559L83.9042 94.89Z" fill="#1E2229"/>
<path d="M82.2316 95.9785L66.266 105.309L61.0962 102.355L77.0618 92.8682L82.2316 95.9785Z" fill="#1E2229"/>
<path d="M119.331 74.0509L114.162 70.9405L130.127 61.6096L135.297 64.5644L119.331 74.0509Z" fill="#1E2229"/>
<path d="M17 82.6042V82.7597L17.1521 83.0708V83.2263L17.4562 83.5373L17.7603 83.6928L17.9123 83.8484L65.6571 112.152C65.9612 112.308 66.1132 112.463 66.4173 112.463H66.5694H66.7214C66.8735 112.463 67.0255 112.463 67.1776 112.619H67.3296H67.6337H67.7858C67.9379 112.619 68.0899 112.619 68.242 112.619H68.394H68.5461H68.6981H69.1543H69.3063H69.4584H69.6104H70.0666H70.2187H70.3707H70.5228L70.8269 112.463H70.9789C71.131 112.308 71.4351 112.308 71.5871 112.152L150.503 65.6531C150.655 65.4975 150.807 65.342 150.959 65.342L151.111 65.1865L151.263 65.031L151.415 64.8755L151.567 64.72V64.5644V64.2534V69.0744C151.567 69.6965 151.111 70.3185 150.351 70.7851L71.131 117.129C70.9789 117.284 70.8269 117.284 70.5228 117.44H70.3707L70.2187 117.595H70.0666H69.9145H69.7625H69.3063H69.1543H69.0022H68.8502H68.394H68.242H68.0899H67.9379C67.7858 117.595 67.6337 117.595 67.4817 117.595H67.3296H67.0255H66.8735L66.4173 117.44H66.2653H66.1132C66.1132 117.284 65.8091 117.284 65.6571 117.129L18.2164 88.9804L18.0644 88.8248L17.7603 88.6693L17.4562 88.3583V88.2028L17.1521 87.7362V87.4252V87.2697L17 82.6042V82.4487V82.6042Z" fill="#8B2A2C"/>
<path d="M119.332 74.0508L114.162 70.9405L130.128 61.4541L135.297 64.5644L119.332 74.0508ZM101.694 84.4704L96.5237 81.36L112.489 71.8736L117.659 74.9839L101.694 84.4704ZM83.9033 94.8899L78.7335 91.7796L94.6991 82.2931L99.8689 85.4034L83.9033 94.8899ZM66.2651 105.309L61.0953 102.199L77.0609 92.7127L82.2307 95.823L66.2651 105.309ZM150.046 62.3872L102.606 34.0834C101.085 33.1503 98.5004 33.1503 96.9799 34.0834L18.2163 80.738C17.304 81.36 16.8478 82.1376 17.1519 82.7597L17.304 83.0707L17.6081 83.3817L17.9122 83.5373L18.0642 83.6928L65.6569 112.152C65.961 112.308 66.1131 112.463 66.4172 112.463L66.7213 112.619C66.8734 112.619 67.0254 112.619 67.1775 112.774C67.3295 112.774 67.4816 112.774 67.6336 112.93H67.7857C67.9377 112.93 68.2418 112.93 68.3939 112.93H68.5459C68.698 112.93 69.0021 112.93 69.1541 112.93H69.3062C69.4583 112.93 69.7624 112.93 69.9144 112.774H70.0665C70.2185 112.774 70.3706 112.619 70.6747 112.619H70.8267C70.9788 112.463 71.2829 112.463 71.4349 112.308L150.351 65.8085C150.503 65.653 150.655 65.4975 150.807 65.4975L150.959 65.342L151.111 65.1864L151.263 65.0309L151.415 64.8754V64.7199V64.4089C151.263 63.3203 150.807 62.8537 150.046 62.3872Z" fill="#E94B51"/>
<path d="M53.9484 101.733L41.7842 94.4234L120.092 48.2354L132.256 55.3891L53.9484 101.733Z" fill="white"/>
<path d="M36.615 95.0454L27.0356 89.2913L111.425 39.3708L121.157 45.1249L36.615 95.0454Z" fill="#1E2229"/>
<path d="M48.4751 58.1883L59.727 64.8754C61.0955 65.653 63.0722 65.653 64.4407 64.8754L75.6926 58.1883C77.0611 57.4107 76.909 56.1666 75.6926 55.389L64.4407 48.7018C63.0722 47.9243 61.0955 47.9243 59.727 48.7018L48.4751 55.389C47.1066 56.1666 47.2586 57.4107 48.4751 58.1883Z" fill="#FDC338"/>
<path d="M77.3654 59.1215L66.1135 65.8087C65.5053 66.1197 65.2012 66.7418 65.2012 67.2083V67.3638V67.5193L65.3532 67.6749L65.5053 67.8304L65.6573 67.9859L65.8094 68.1414C65.9614 68.2969 66.1135 68.2969 66.2655 68.4524L112.794 96.1342C114.162 96.9117 116.139 96.9117 117.507 96.1342L128.759 89.447C130.128 88.6694 129.976 87.4253 128.759 86.6477L82.0791 59.1215C80.7106 58.3439 78.5819 58.3439 77.3654 59.1215Z" fill="#146CB3"/>
<path d="M65.8096 68.2969C65.9616 68.4524 66.1137 68.4524 66.2657 68.6079C65.9616 68.4524 65.8096 68.4524 65.8096 68.2969Z" fill="#12385B"/>
<path d="M65.5049 67.9858L65.6569 68.1414L65.5049 67.9858Z" fill="#12385B"/>
<path d="M65.2012 67.5193L65.3532 67.8303L65.2012 67.5193Z" fill="#12385B"/>
<path d="M69.4588 82.7598L74.6286 79.6495L58.663 70.3186L53.4932 73.4289L69.4588 82.7598Z" fill="white"/>
<path d="M87.0964 93.1793L92.2663 90.2245L76.3007 80.738L71.1309 83.8483L87.0964 93.1793Z" fill="white"/>
<path d="M88.769 94.268L104.735 103.754L109.904 100.644L93.9389 91.1577L88.769 94.268Z" fill="white"/>
<path d="M41.0248 59.8989L56.9904 69.3853L51.8205 72.4956L35.7029 62.8537L41.0248 59.8989ZM48.4754 55.389L59.7273 48.7018C61.0958 47.9242 63.0725 47.9242 64.441 48.7018L75.6929 55.389C77.0614 56.1665 77.0614 57.4107 75.6929 58.1882L64.441 64.8754C63.0725 65.653 61.0958 65.653 59.7273 64.8754L48.4754 58.1882C47.259 57.4107 47.1069 56.1665 48.4754 55.389ZM72.3477 41.237L103.062 59.2768L97.8927 62.3871L67.1779 44.1918L72.3477 41.237ZM128.607 89.4468L117.356 96.134C115.987 96.9116 114.01 96.9116 112.642 96.134L66.1136 68.6078C65.9615 68.4522 65.8095 68.4522 65.6574 68.2967V68.1412L65.5053 67.9857L65.3533 67.8302L65.2012 67.5192V67.3636V67.2081C65.2012 66.7416 65.5053 66.275 66.1136 65.8085L77.3655 59.1213C78.734 58.3437 80.7107 58.3437 82.0792 59.1213L128.607 86.6475C129.976 87.4251 129.976 88.6692 128.607 89.4468ZM104.735 103.754L88.7695 94.2678L93.9393 91.1575L109.905 100.644L104.735 103.754ZM71.1313 83.8483L76.3011 80.738L92.2667 90.2244L87.0969 93.3347L71.1313 83.8483ZM58.6629 70.3184L74.6285 79.8049L69.4587 82.9152L53.4931 73.4287L58.6629 70.3184ZM19.8894 62.6982L20.0414 63.0092L20.1935 63.1647L20.3455 63.3202L20.4976 63.4757C20.6496 63.6313 20.8017 63.7868 20.9537 63.7868L99.8694 110.286C100.021 110.441 100.326 110.441 100.478 110.597H100.63C100.782 110.597 100.934 110.752 101.238 110.752H101.39C101.542 110.752 101.846 110.908 101.998 110.908H102.15C102.302 110.908 102.606 110.908 102.758 110.908H102.91C103.063 110.908 103.367 110.908 103.519 110.908H103.671C103.823 110.908 103.975 110.908 104.127 110.752L104.583 110.597L104.887 110.441C105.191 110.286 105.495 110.286 105.647 110.13L153.088 81.9821L153.24 81.8266L153.544 81.6711L153.848 81.36L154 81.049C154.152 80.2714 153.848 79.4938 152.936 79.0273L74.0203 32.3727C72.4998 31.4396 69.9149 31.4396 68.3944 32.3727L20.9537 60.6765C20.1935 61.143 19.7373 61.7651 19.7373 62.3871V62.6982H19.8894Z" fill="#4F96D2"/>
<path d="M97.8925 62.3874L103.062 59.2771L72.3475 41.2373L67.1777 44.1921L97.8925 62.3874Z" fill="white"/>
<path d="M51.8198 72.3404L56.9896 69.2301L41.024 59.8992L35.7021 62.854L51.8198 72.3404Z" fill="white"/>
<path d="M154 80.8938V81.0493L153.848 81.3603V81.5158L153.544 81.8269L153.24 81.9824L153.088 82.1379L105.495 110.442C105.191 110.597 105.039 110.753 104.735 110.753H104.583H104.431L103.975 111.064H103.823H103.518H103.366C103.214 111.064 103.062 111.064 102.91 111.064H102.758H102.606H102.454H101.998H101.846H101.694H101.542H101.086H100.934H100.781H100.629V110.908H100.477C100.325 110.753 100.021 110.753 99.8692 110.597L20.9535 63.9426C20.8015 63.7871 20.6494 63.6316 20.4974 63.6316L20.3453 63.4761L20.1933 63.3205L20.0412 63.0095L19.8892 62.854V62.6985V62.3875V67.2084C19.8892 67.8305 20.3453 68.4525 21.1056 68.9191L100.021 115.418C100.173 115.574 100.325 115.574 100.629 115.729H100.781L101.086 115.885H101.238H101.39H101.542H101.998H102.15H102.302H102.454H102.91H103.062H103.214H103.366C103.518 115.885 103.671 115.885 103.823 115.885H103.975H104.279H104.431L104.887 115.729H105.039H105.191C105.495 115.574 105.799 115.574 105.951 115.418L153.392 87.2699L153.544 87.1144L153.848 86.9589L154.152 86.6478V86.4923L154.304 86.3368V86.0258V85.8703L154 80.8938V80.7383V80.8938Z" fill="#155486"/>
</g>
<defs>
<linearGradient id="paint0_linear_1801_300" x1="0" y1="0.750732" x2="176.162" y2="5.12486" gradientUnits="userSpaceOnUse">
<stop stop-color="#00C0A9" stop-opacity="0.7"/>
<stop offset="1" stop-color="#2F69FF" stop-opacity="0.7"/>
</linearGradient>
<clipPath id="clip0_1801_300">
<rect width="137" height="86" fill="white" transform="translate(17 31.7507)"/>
</clipPath>
</defs>
</svg>
