<svg width="174" height="172" viewBox="0 0 174 172" fill="none" xmlns="http://www.w3.org/2000/svg">
<rect y="0.750732" width="174" height="171" rx="10" fill="url(#paint0_linear_1801_301)"/>
<g clip-path="url(#clip0_1801_301)">
<path d="M103.693 84.8571L98.5234 81.783L114.489 72.5605L119.659 75.481L103.693 84.8571Z" fill="#1E2229"/>
<path d="M85.9042 95.1557L80.7344 92.0815L96.7 82.8591L101.87 85.9333L85.9042 95.1557Z" fill="#1E2229"/>
<path d="M84.2316 96.2316L68.266 105.454L63.0962 102.534L79.0618 93.1575L84.2316 96.2316Z" fill="#1E2229"/>
<path d="M121.331 74.5588L116.162 71.4846L132.127 62.2622L137.297 65.1826L121.331 74.5588Z" fill="#1E2229"/>
<path d="M19 83.0129V83.1666L19.1521 83.474V83.6277L19.4562 83.9352L19.7603 84.0889L19.9123 84.2426L67.6571 112.217C67.9612 112.371 68.1132 112.525 68.4173 112.525H68.5694H68.7214C68.8735 112.525 69.0255 112.525 69.1776 112.678H69.3296H69.6337H69.7858C69.9379 112.678 70.0899 112.678 70.242 112.678H70.394H70.5461H70.6981H71.1543H71.3063H71.4584H71.6104H72.0666H72.2187H72.3707H72.5228L72.8269 112.525H72.9789C73.131 112.371 73.4351 112.371 73.5871 112.217L152.503 66.2589C152.655 66.1051 152.807 65.9514 152.959 65.9514L153.111 65.7977L153.263 65.644L153.415 65.4903L153.567 65.3366V65.1829V64.8755V69.6404C153.567 70.2552 153.111 70.8701 152.351 71.3312L73.131 117.136C72.9789 117.29 72.8269 117.29 72.5228 117.443H72.3707L72.2187 117.597H72.0666H71.9145H71.7625H71.3063H71.1543H71.0022H70.8502H70.394H70.242H70.0899H69.9379C69.7858 117.597 69.6337 117.597 69.4817 117.597H69.3296H69.0255H68.8735L68.4173 117.443H68.2653H68.1132C68.1132 117.29 67.8091 117.29 67.6571 117.136L20.2164 89.3149L20.0644 89.1612L19.7603 89.0075L19.4562 88.7001V88.5464L19.1521 88.0853V87.7778V87.6241L19 83.0129V82.8592V83.0129Z" fill="#8B2A2C"/>
<path d="M121.332 74.5589L116.162 71.4848L132.128 62.1086L137.297 65.1828L121.332 74.5589ZM103.694 84.8573L98.5237 81.7831L114.489 72.407L119.659 75.4811L103.694 84.8573ZM85.9033 95.1557L80.7335 92.0815L96.6991 82.7054L101.869 85.7795L85.9033 95.1557ZM68.2651 105.454L63.0953 102.38L79.0609 93.0038L84.2307 96.0779L68.2651 105.454ZM152.046 63.0309L104.606 35.0562C103.085 34.1339 100.5 34.1339 98.9799 35.0562L20.2163 81.1683C19.304 81.7831 18.8478 82.5517 19.1519 83.1665L19.304 83.4739L19.6081 83.7813L19.9122 83.935L20.0642 84.0887L67.6569 112.217C67.961 112.371 68.1131 112.525 68.4172 112.525L68.7213 112.678C68.8734 112.678 69.0254 112.678 69.1775 112.832C69.3295 112.832 69.4816 112.832 69.6336 112.986H69.7857C69.9377 112.986 70.2418 112.986 70.3939 112.986H70.5459C70.698 112.986 71.0021 112.986 71.1541 112.986H71.3062C71.4583 112.986 71.7624 112.986 71.9144 112.832H72.0665C72.2185 112.832 72.3706 112.678 72.6747 112.678H72.8267C72.9788 112.525 73.2829 112.525 73.4349 112.371L152.351 66.4124C152.503 66.2587 152.655 66.105 152.807 66.105L152.959 65.9513L153.111 65.7976L153.263 65.6439L153.415 65.4902V65.3365V65.0291C153.263 63.9531 152.807 63.492 152.046 63.0309Z" fill="#E94B51"/>
<path d="M55.9484 101.919L43.7842 94.6947L122.092 49.0437L134.256 56.1142L55.9484 101.919Z" fill="white"/>
<path d="M38.615 95.3094L29.0356 89.6222L113.425 40.2822L123.157 45.9694L38.615 95.3094Z" fill="#1E2229"/>
<path d="M50.4751 58.881L61.727 65.4904C63.0955 66.2589 65.0722 66.2589 66.4407 65.4904L77.6926 58.881C79.0611 58.1125 78.909 56.8828 77.6926 56.1143L66.4407 49.5049C65.0722 48.7363 63.0955 48.7363 61.727 49.5049L50.4751 56.1143C49.1066 56.8828 49.2586 58.1125 50.4751 58.881Z" fill="#FDC338"/>
<path d="M79.3654 59.8032L68.1135 66.4126C67.5053 66.72 67.2012 67.3348 67.2012 67.796V67.9497V68.1034L67.3532 68.2571L67.5053 68.4108L67.6573 68.5645L67.8094 68.7182C67.9614 68.8719 68.1135 68.8719 68.2655 69.0256L114.794 96.3855C116.162 97.154 118.139 97.154 119.507 96.3855L130.759 89.7761C132.128 89.0075 131.976 87.7779 130.759 87.0093L84.0791 59.8032C82.7106 59.0347 80.5819 59.0347 79.3654 59.8032Z" fill="#146CB3"/>
<path d="M67.8096 68.8718C67.9616 69.0255 68.1137 69.0255 68.2657 69.1792C67.9616 69.0255 67.8096 69.0255 67.8096 68.8718Z" fill="#12385B"/>
<path d="M67.5049 68.5645L67.6569 68.7182L67.5049 68.5645Z" fill="#12385B"/>
<path d="M67.2012 68.1035L67.3532 68.4109L67.2012 68.1035Z" fill="#12385B"/>
<path d="M71.4588 83.1667L76.6286 80.0925L60.663 70.8701L55.4932 73.9443L71.4588 83.1667Z" fill="white"/>
<path d="M89.0964 93.465L94.2663 90.5446L78.3007 81.1685L73.1309 84.2426L89.0964 93.465Z" fill="white"/>
<path d="M90.769 94.5409L106.735 103.917L111.904 100.843L95.9389 91.4668L90.769 94.5409Z" fill="white"/>
<path d="M43.0248 60.5717L58.9904 69.9478L53.8205 73.0219L37.7029 63.4921L43.0248 60.5717ZM50.4754 56.1142L61.7273 49.5048C63.0958 48.7362 65.0725 48.7362 66.441 49.5048L77.6929 56.1142C79.0614 56.8827 79.0614 58.1123 77.6929 58.8809L66.441 65.4903C65.0725 66.2588 63.0958 66.2588 61.7273 65.4903L50.4754 58.8809C49.259 58.1123 49.1069 56.8827 50.4754 56.1142ZM74.3477 42.1268L105.062 59.9568L99.8927 63.031L69.1779 45.0472L74.3477 42.1268ZM130.607 89.776L119.356 96.3854C117.987 97.1539 116.01 97.1539 114.642 96.3854L68.1136 69.1793C67.9615 69.0255 67.8095 69.0255 67.6574 68.8718V68.7181L67.5053 68.5644L67.3533 68.4107L67.2012 68.1033V67.9496V67.7959C67.2012 67.3348 67.5053 66.8736 68.1136 66.4125L79.3655 59.8031C80.734 59.0346 82.7107 59.0346 84.0792 59.8031L130.607 87.0093C131.976 87.7778 131.976 89.0075 130.607 89.776ZM106.735 103.917L90.7695 94.5409L95.9393 91.4668L111.905 100.843L106.735 103.917ZM73.1313 84.2425L78.3011 81.1684L94.2667 90.5445L89.0969 93.6187L73.1313 84.2425ZM60.6629 70.87L76.6285 80.2462L71.4587 83.3203L55.4931 73.9442L60.6629 70.87ZM21.8894 63.3384L22.0414 63.6458L22.1935 63.7995L22.3455 63.9532L22.4976 64.1069C22.6496 64.2606 22.8017 64.4143 22.9537 64.4143L101.869 110.373C102.021 110.526 102.326 110.526 102.478 110.68H102.63C102.782 110.68 102.934 110.834 103.238 110.834H103.39C103.542 110.834 103.846 110.988 103.998 110.988H104.15C104.302 110.988 104.606 110.988 104.758 110.988H104.91C105.063 110.988 105.367 110.988 105.519 110.988H105.671C105.823 110.988 105.975 110.988 106.127 110.834L106.583 110.68L106.887 110.526C107.191 110.373 107.495 110.373 107.647 110.219L155.088 82.3981L155.24 82.2444L155.544 82.0906L155.848 81.7832L156 81.4758C156.152 80.7073 155.848 79.9387 154.936 79.4776L76.0203 33.3655C74.4998 32.4433 71.9149 32.4433 70.3944 33.3655L22.9537 61.3402C22.1935 61.8013 21.7373 62.4161 21.7373 63.031V63.3384H21.8894Z" fill="#4F96D2"/>
<path d="M99.8925 63.0311L105.062 59.957L74.3475 42.127L69.1777 45.0474L99.8925 63.0311Z" fill="white"/>
<path d="M53.8198 72.8683L58.9896 69.7942L43.024 60.5718L37.7021 63.4922L53.8198 72.8683Z" fill="white"/>
<path d="M156 81.3221V81.4758L155.848 81.7833V81.937L155.544 82.2444L155.24 82.3981L155.088 82.5518L107.495 110.526C107.191 110.68 107.039 110.834 106.735 110.834H106.583H106.431L105.975 111.141H105.823H105.518H105.366C105.214 111.141 105.062 111.141 104.91 111.141H104.758H104.606H104.454H103.998H103.846H103.694H103.542H103.086H102.934H102.781H102.629V110.988H102.477C102.325 110.834 102.021 110.834 101.869 110.68L22.9535 64.5681C22.8015 64.4144 22.6494 64.2607 22.4974 64.2607L22.3453 64.107L22.1933 63.9532L22.0412 63.6458L21.8892 63.4921V63.3384V63.031V67.7959C21.8892 68.4107 22.3453 69.0256 23.1056 69.4867L102.021 115.445C102.173 115.599 102.325 115.599 102.629 115.753H102.781L103.086 115.906H103.238H103.39H103.542H103.998H104.15H104.302H104.454H104.91H105.062H105.214H105.366C105.518 115.906 105.671 115.906 105.823 115.906H105.975H106.279H106.431L106.887 115.753H107.039H107.191C107.495 115.599 107.799 115.599 107.951 115.445L155.392 87.6241L155.544 87.4704L155.848 87.3167L156.152 87.0093V86.8556L156.304 86.7019V86.3945V86.2408L156 81.3221V81.1684V81.3221Z" fill="#155486"/>
</g>
<defs>
<linearGradient id="paint0_linear_1801_301" x1="0" y1="0.750732" x2="178.207" y2="5.25326" gradientUnits="userSpaceOnUse">
<stop stop-color="#2F69FF" stop-opacity="0.7"/>
<stop offset="1" stop-color="#BC2FFF" stop-opacity="0.7"/>
</linearGradient>
<clipPath id="clip0_1801_301">
<rect width="137" height="85" fill="white" transform="translate(19 32.7507)"/>
</clipPath>
</defs>
</svg>
