<svg width="59" height="59" viewBox="0 0 59 59" fill="none" xmlns="http://www.w3.org/2000/svg">
<g clip-path="url(#clip0_14_1504)">
<path opacity="0.2" d="M57.4155 36.8074C53.5422 52.3434 37.8062 61.7974 22.2684 57.9241C6.73801 54.0506 -2.71691 38.3145 1.15732 22.7796C5.02882 7.24194 20.764 -2.21387 36.2973 1.65945C51.8339 5.53277 61.2879 21.2707 57.4146 36.8074H57.4155Z" fill="#F7931A"/>
<path fill-rule="evenodd" clip-rule="evenodd" d="M38.0399 26.4243C38.4451 23.8084 36.4583 22.4022 33.736 21.4641L34.6399 17.9206L32.482 17.3831L31.6019 20.8332C31.0354 20.6919 30.453 20.5586 29.8742 20.4265L30.7605 16.9536L28.6045 16.4161L27.6999 19.9584C27.2306 19.8515 26.7697 19.7458 26.3223 19.6346L26.3248 19.6236L23.3499 18.8808L22.7628 21.1846C22.7628 21.1846 24.3635 21.5514 24.3297 21.5741C25.2034 21.7922 25.359 22.3703 25.3292 22.8286L24.2997 26.8654C24.3599 26.8808 24.4379 26.9029 24.5239 26.9372L24.2965 26.8808L22.8528 32.5357C22.7445 32.8012 22.4709 33.1993 21.8602 33.0482C21.8815 33.0794 20.2922 32.6567 20.2922 32.6567L19.2065 35.1264L22.0143 35.8261C22.3313 35.9055 22.6444 35.9873 22.9541 36.068C23.1547 36.1204 23.3538 36.1723 23.5515 36.2229L22.6383 39.8076L24.793 40.3452L25.698 36.7991C26.286 36.959 26.8574 37.1063 27.4165 37.2452L26.5152 40.7746L28.6724 41.3122L29.5855 37.7349C33.2652 38.4309 36.0372 38.1502 37.2198 34.8241C38.1737 32.1456 37.1964 30.6006 35.2639 29.5923C36.677 29.2662 37.7451 28.3391 38.0392 26.4243H38.0399ZM33.0664 33.335C32.4399 35.7933 28.5909 34.7762 26.8314 34.3112C26.6738 34.2695 26.5331 34.2323 26.4128 34.2024L27.6247 29.4541C27.7716 29.4909 27.9511 29.5312 28.1545 29.5767H28.1547C29.9752 29.9853 33.7064 30.8224 33.0671 33.335H33.0664ZM28.5329 27.3734C30.0011 27.7651 33.2011 28.6189 33.7715 26.3855C34.3547 24.1008 31.2419 23.4123 29.7219 23.076C29.5511 23.0382 29.4002 23.0048 29.2771 22.9742L28.1785 27.2807C28.2802 27.3059 28.3994 27.3378 28.5329 27.3734Z" fill="#F7931A"/>
</g>
<defs>
<clipPath id="clip0_14_1504">
<rect width="58" height="58" fill="white" transform="translate(0.285156 0.791626)"/>
</clipPath>
</defs>
</svg>
