<svg width="26" height="26" viewBox="0 0 26 26" fill="none" xmlns="http://www.w3.org/2000/svg">
<path opacity="0.2" d="M13 26C20.1797 26 26 20.1797 26 13C26 5.8203 20.1797 0 13 0C5.8203 0 0 5.8203 0 13C0 20.1797 5.8203 26 13 26Z" fill="#66A97D"/>
<path fill-rule="evenodd" clip-rule="evenodd" d="M19.0322 11.8811L17.7664 10.6154C17.7324 10.5842 17.6881 10.5666 17.642 10.5657H11.8587C11.8041 10.559 11.7494 10.5772 11.7098 10.6154L10.4441 11.8811C10.4131 11.915 10.3954 11.959 10.3944 12.0049V12.2783C10.3934 12.3247 10.4115 12.3695 10.4444 12.4023C10.4773 12.435 10.5221 12.4529 10.5685 12.4517H11.586C11.6357 12.4517 11.6601 12.4273 11.7098 12.4021L12.2811 11.8063H17.2203L17.7413 12.328V17.093L17.2203 17.6154H12.2811L11.7098 17.044C11.6796 17.0076 11.633 16.9889 11.586 16.9944H10.5685C10.522 16.9932 10.477 17.0112 10.4441 17.0441C10.4112 17.077 10.3932 17.122 10.3944 17.1685V17.4412C10.3906 17.4763 10.3995 17.5115 10.4196 17.5405C10.4196 17.5657 10.4441 17.5657 10.4441 17.5902L11.7098 18.8559C11.7438 18.8871 11.7881 18.9047 11.8343 18.9056H17.642C17.6916 18.9056 17.7168 18.8811 17.7664 18.8559L19.0322 17.5902C19.0632 17.5563 19.0808 17.5123 19.0818 17.4664V12.0077C19.0839 11.958 19.0566 11.9336 19.0322 11.8811Z" fill="#66A97D"/>
<path fill-rule="evenodd" clip-rule="evenodd" d="M14.1427 15.3336C14.1923 15.3336 14.2168 15.3091 14.2664 15.2839L15.5322 14.0182C15.5634 13.9845 15.5811 13.9404 15.5818 13.8944V13.5965C15.583 13.5501 15.5651 13.5052 15.5323 13.4723C15.4996 13.4395 15.4548 13.4214 15.4084 13.4224H14.3909C14.3413 13.4224 14.3161 13.4475 14.2664 13.472L13.6993 14.0678H8.75664L8.23496 13.5468L8.26014 8.83077L8.78112 8.30979H13.7203L14.2916 8.88042C14.3253 8.9117 14.3694 8.92938 14.4154 8.93007H15.4329C15.4793 8.93122 15.5241 8.91335 15.557 8.88059C15.5899 8.84783 15.608 8.80305 15.607 8.75664V8.50839C15.6108 8.47334 15.6019 8.43809 15.5818 8.40909C15.5818 8.38391 15.5573 8.38391 15.5573 8.35944L14.2916 7.0937C14.242 7.0937 14.1923 7.06853 14.1427 7.06853H8.35944C8.31335 7.06968 8.26919 7.08729 8.23496 7.11818L6.96923 8.38461C6.93875 8.40869 6.92056 8.44508 6.91958 8.48391L6.8951 13.9196C6.8951 13.9692 6.91958 13.9944 6.94475 14.0441L8.21049 15.3077C8.24437 15.3387 8.28835 15.3563 8.33426 15.3573H14.1189C14.1189 15.3336 14.1189 15.3336 14.1427 15.3336Z" fill="#66A97D"/>
</svg>
