<svg width="26" height="26" viewBox="0 0 26 26" fill="none" xmlns="http://www.w3.org/2000/svg">
<path opacity="0.2" d="M13 26C20.1797 26 26 20.1797 26 13C26 5.8203 20.1797 0 13 0C5.8203 0 0 5.8203 0 13C0 20.1797 5.8203 26 13 26Z" fill="#6CB0FD"/>
<path fill-rule="evenodd" clip-rule="evenodd" d="M12.407 4H13.702C14.8659 4.07737 16.0114 4.45039 16.9908 5.11724C18.2277 5.93513 19.1675 7.13895 19.9886 8.38789C19.5077 8.06 19.0743 7.66303 18.5846 7.34803C16.9415 6.21605 14.9732 5.45987 12.9829 5.67171C11.1622 5.85224 9.48571 6.79724 8.11955 8.03513C6.99076 9.05566 6.21889 10.5367 6.16527 12.1136C6.08175 14.1914 6.91076 16.1653 7.90329 17.9162C7.3556 17.767 6.82285 17.5376 6.35955 17.1922C5.42769 16.5153 4.80703 15.4579 4.48263 14.3342C4.00351 12.6607 3.88747 10.8047 4.52043 9.15697C5.06109 7.67961 6.13714 6.50342 7.30373 5.53724C8.7745 4.41632 10.6356 4.11974 12.407 4Z" fill="#6CB0FD"/>
<path fill-rule="evenodd" clip-rule="evenodd" d="M8.3446 11.1382C8.40351 10.1913 9.13845 9.34026 10.0598 9.29144C12.0791 9.285 14.0993 9.28868 16.1187 9.2896C16.1204 10.1176 15.5578 10.9014 14.7886 11.1068C14.2374 11.2321 13.6686 11.1934 13.1094 11.175C13.0954 12.5888 13.1209 14.0026 13.0963 15.4155C13.0585 16.5641 12.0774 17.5284 10.9881 17.5413C11.1191 15.4257 11.222 13.3082 11.3714 11.1943C10.4677 11.1879 9.56395 11.1916 8.66021 11.1943C8.55208 11.1925 8.44746 11.1732 8.3446 11.1382Z" fill="#6CB0FD"/>
<path fill-rule="evenodd" clip-rule="evenodd" d="M17.0948 8.00717C18.2896 8.72512 19.4052 9.66294 20.0878 10.9256C20.9035 12.3678 21.0878 14.1232 20.8017 15.7485C20.4365 17.6573 19.1757 19.2502 17.6696 20.3577C16.3278 21.4131 14.6478 21.9488 12.9704 22H12.5061C11.7948 21.9659 11.0843 21.886 10.3878 21.7272C9.50957 21.5351 8.61913 21.291 7.86696 20.7624C6.60348 19.891 5.73217 18.5502 5.07391 17.161C5.97217 17.9301 6.91826 18.6499 7.96087 19.1982C9.41739 19.9844 11.1 20.4169 12.7409 20.1423C14.5183 19.8587 16.0983 18.8105 17.3557 17.5209C18.3574 16.4655 19.0948 15.0709 19.1157 13.5668C19.1878 11.5188 18.2104 9.63063 17.0948 8.00717Z" fill="#2B2E7C"/>
</svg>
