<svg width="58" height="59" viewBox="0 0 58 59" fill="none" xmlns="http://www.w3.org/2000/svg">
<g clip-path="url(#clip0_14_1507)">
<path opacity="0.1" d="M57.1311 29.7921C57.1311 45.7242 44.4385 58.6395 28.7815 58.6395C13.1242 58.6395 0.431641 45.7242 0.431641 29.7921C0.431641 13.8604 13.1242 0.945129 28.7815 0.945129C44.4385 0.945129 57.1311 13.8604 57.1311 29.7921Z" fill="#BEBEBE"/>
<path d="M27.7893 34.6456L29.0611 29.7724L32.0722 28.653L32.8211 25.7894L32.7957 25.7182L29.8317 26.82L31.9672 18.6378H25.9107L23.118 29.3158L20.7861 30.1827L20.0156 33.1351L22.3456 32.2689L20.6996 38.5621H36.8183L37.8516 34.6456H27.7893Z" fill="#E4E4E4"/>
</g>
<defs>
<clipPath id="clip0_14_1507">
<rect width="57" height="58" fill="white" transform="translate(0.285156 0.791626)"/>
</clipPath>
</defs>
</svg>
