<svg width="59" height="59" viewBox="0 0 59 59" fill="none" xmlns="http://www.w3.org/2000/svg">
<g clip-path="url(#clip0_14_1510)">
<path opacity="0.2" d="M58.1277 29.7921C58.1277 45.7242 45.2125 58.6395 29.2808 58.6395C13.3488 58.6395 0.433594 45.7242 0.433594 29.7921C0.433594 13.8604 13.3488 0.945129 29.2808 0.945129C45.2125 0.945129 58.1277 13.8604 58.1277 29.7921Z" fill="#505050"/>
<g opacity="0.8">
<path opacity="0.8" d="M29.189 16.407L29.0107 17.0126V34.5862L29.189 34.764L37.3462 29.9422L29.189 16.407Z" fill="white"/>
<path opacity="0.8" d="M29.1887 16.407L21.0312 29.9422L29.1887 34.764V26.2344V16.407Z" fill="white"/>
<path opacity="0.8" d="M29.1883 37.4182L29.0879 37.5404V43.8006L29.1883 44.0938L37.3504 32.5986L29.1883 37.4182Z" fill="white"/>
<path opacity="0.8" d="M29.1887 44.094V37.4182L21.0312 32.5986L29.1887 44.094Z" fill="white"/>
<path opacity="0.8" d="M29.1885 34.764L37.3457 29.9422L29.1885 26.2344V34.764Z" fill="white"/>
<path opacity="0.8" d="M21.0312 29.9422L29.1885 34.764V26.2344L21.0312 29.9422Z" fill="white"/>
</g>
</g>
<defs>
<clipPath id="clip0_14_1510">
<rect width="58" height="58" fill="white" transform="translate(0.285156 0.791626)"/>
</clipPath>
</defs>
</svg>
