<svg width="26" height="26" viewBox="0 0 26 26" fill="none" xmlns="http://www.w3.org/2000/svg">
<path opacity="0.2" d="M13 26C20.1797 26 26 20.1797 26 13C26 5.8203 20.1797 0 13 0C5.8203 0 0 5.8203 0 13C0 20.1797 5.8203 26 13 26Z" fill="#F70000"/>
<path fill-rule="evenodd" clip-rule="evenodd" d="M5.19408 19.4213L13.1554 11.0836L21.1941 19.5L13.1911 6.5L5.19408 19.4213ZM14.3106 14.3957H14.3005L13.1015 12.997L11.8215 14.3957H14.3005L14.3106 14.4074V14.3957ZM9.51112 16.6901H16.6805L15.2276 15.2128L10.9221 15.2312L9.51088 16.6722L9.51112 16.6901Z" fill="#F70000"/>
</svg>
