<svg width="26" height="26" viewBox="0 0 26 26" fill="none" xmlns="http://www.w3.org/2000/svg">
<path opacity="0.2" d="M13 26C20.1797 26 26 20.1797 26 13C26 5.8203 20.1797 0 13 0C5.8203 0 0 5.8203 0 13C0 20.1797 5.8203 26 13 26Z" fill="#1EB1C1"/>
<path fill-rule="evenodd" clip-rule="evenodd" d="M13.3361 19.9214C13.4093 19.9691 13.4946 19.9944 13.5818 19.9943L13.5819 19.9938C13.6675 19.9931 13.7512 19.9687 13.8238 19.9233L20.4888 15.6231C20.8063 15.4186 20.9979 15.0654 20.9967 14.6866V13.4018C21.0006 13.2678 20.9475 13.1384 20.8508 13.0459C20.6993 12.9087 20.4751 12.8902 20.3033 13.0008L13.5129 17.3506C13.5086 17.3536 13.5029 17.3536 13.4986 17.3506L6.84113 13.1017C6.67767 12.9975 6.57895 12.8163 6.57968 12.6219V11.411C6.57944 11.4087 6.57997 11.4063 6.58118 11.4042C6.58502 11.398 6.59306 11.396 6.59933 11.3997L13.3478 15.6659C13.4958 15.7584 13.6834 15.7584 13.8314 15.6659L20.7881 11.2553C20.9197 11.1715 20.9994 11.0259 20.9994 10.8694C20.9994 10.7129 20.9197 10.5674 20.7881 10.4835L13.8904 6.07147C13.7484 5.98068 13.568 5.97631 13.4218 6.06009L13.4143 6.06461L6.27923 10.7338L6.15 10.8226L6.1275 10.8408C6.04546 10.9258 5.99971 11.0396 6 11.158V12.6226C5.99988 13.0171 6.20206 13.3839 6.53505 13.5932L13.2611 17.89C13.4099 17.9849 13.5999 17.9849 13.7486 17.89L20.4046 13.6335C20.4065 13.6326 20.4086 13.6321 20.4107 13.632C20.4181 13.6318 20.4243 13.6375 20.425 13.6449V14.6917C20.4254 14.8716 20.3341 15.0392 20.1831 15.136L13.5929 19.388C13.5886 19.391 13.5829 19.391 13.5786 19.388L6.6249 14.8909C6.6197 14.8863 6.61195 14.8863 6.60675 14.8909L6.3075 15.3583C6.30296 15.3635 6.30296 15.3713 6.3075 15.3765L13.3361 19.9214ZM13.5817 15.1254L7.01873 10.9728C7.0178 10.972 7.01704 10.9709 7.01648 10.9698C7.01406 10.9669 7.01293 10.9632 7.01336 10.9595C7.01378 10.9557 7.01573 10.9523 7.01873 10.9501L13.6432 6.61158C13.6475 6.60857 13.6532 6.60857 13.6575 6.61158L20.2913 10.8568C20.2928 10.8576 20.2942 10.8589 20.295 10.8605C20.2971 10.8634 20.2978 10.867 20.2971 10.8705C20.2964 10.8739 20.2943 10.8769 20.2913 10.8788L13.596 15.1254C13.5917 15.1284 13.586 15.1284 13.5817 15.1254Z" fill="url(#paint0_linear_347_4107)"/>
<defs>
<linearGradient id="paint0_linear_347_4107" x1="6" y1="12.3948" x2="21" y2="12.3948" gradientUnits="userSpaceOnUse">
<stop stop-color="white"/>
<stop stop-color="#21BBC0"/>
<stop offset="0.34" stop-color="#20B9C0"/>
<stop offset="1" stop-color="#1387C9"/>
</linearGradient>
</defs>
</svg>
