<svg width="36" height="36" viewBox="0 0 36 36" fill="none" xmlns="http://www.w3.org/2000/svg">
<path opacity="0.2" d="M35.4201 21.9896C33.0825 31.3647 23.5855 37.0697 14.2083 34.7324C4.8354 32.3949 -0.870791 22.8991 1.46737 13.5246C3.80388 4.14851 13.3003 -1.55754 22.6749 0.779786C32.0515 3.11712 37.7571 12.6141 35.4196 21.9896H35.4201Z" fill="#6417B1"/>
<path fill-rule="evenodd" clip-rule="evenodd" d="M20.6273 24.3518C23.3937 23.4365 25.3896 20.8294 25.3896 17.7561C25.3896 14.6828 23.3936 12.0757 20.6271 11.1604H28.8466V24.3518H20.6273ZM16.2602 24.3518H8.03906V11.1604H16.2604C13.494 12.0757 11.4979 14.6828 11.4979 17.7561C11.4979 20.8294 13.4939 23.4365 16.2602 24.3518Z" fill="#6417B1"/>
<circle cx="18.4426" cy="17.7561" r="5.62231" fill="#6417B1"/>
<path fill-rule="evenodd" clip-rule="evenodd" d="M19.9937 15.7816C19.7044 15.0925 19.0186 15.048 18.225 15.2248L17.9186 14.2389L17.32 14.4286L17.6184 15.3886C17.4612 15.4384 17.3014 15.4924 17.1426 15.5462L16.8424 14.5799L16.2443 14.7693L16.5504 15.7551C16.4217 15.7987 16.2952 15.8415 16.1711 15.8809L16.1701 15.8778L15.3446 16.139L15.544 16.7799C15.544 16.7799 15.9833 16.6315 15.9785 16.642C16.2209 16.5652 16.3438 16.6813 16.4044 16.7959L16.7536 17.9191C16.7703 17.9139 16.7924 17.9077 16.8181 17.9032L16.7551 17.9233L17.2438 19.4969C17.257 19.5767 17.2501 19.7129 17.0808 19.7669C17.0905 19.7712 16.6457 19.9045 16.6457 19.9045L16.7497 20.6591L17.5286 20.4123C17.6166 20.3845 17.704 20.3579 17.7904 20.3315C17.8464 20.3144 17.902 20.2975 17.957 20.2804L18.2673 21.2777L18.8651 21.0884L18.5586 20.1017C18.7237 20.0532 18.8829 20.0042 19.0379 19.9549L19.3429 20.9371L19.9413 20.7475L19.6321 19.752C20.6202 19.3754 21.2455 18.8981 21.0383 17.9232C20.8717 17.1379 20.4082 16.9108 19.7943 16.954C20.086 16.6666 20.206 16.2856 19.9937 15.7816ZM19.819 18.1791C20.0317 18.863 18.9554 19.1874 18.4634 19.3357C18.4193 19.349 18.38 19.3608 18.3466 19.3714L17.9362 18.0502C17.9769 18.0373 18.0261 18.0205 18.0817 18.0013C18.5801 17.8305 19.6013 17.4802 19.819 18.1791ZM17.847 17.4154C18.2581 17.2926 19.1541 17.0248 18.9612 16.4033C18.7637 15.7676 17.9131 16.0621 17.4977 16.206C17.451 16.2222 17.4098 16.2364 17.3757 16.2473L17.7481 17.4455C17.7762 17.4366 17.8096 17.4266 17.847 17.4154Z" fill="white"/>
</svg>
