<svg width="36" height="36" viewBox="0 0 36 36" fill="none" xmlns="http://www.w3.org/2000/svg">
<path opacity="0.2" d="M18.4434 35.4287C28.1083 35.4287 35.9434 27.5937 35.9434 17.9287C35.9434 8.26373 28.1083 0.428711 18.4434 0.428711C8.77838 0.428711 0.943359 8.26373 0.943359 17.9287C0.943359 27.5937 8.77838 35.4287 18.4434 35.4287Z" fill="#D80A22"/>
<path d="M19.862 20.8317L18.4364 22.2573L17.01 20.8317L15.5333 19.355L13.6582 21.2293L18.4364 26.0068L23.2138 21.2293L21.3395 19.355L19.862 20.8317Z" fill="#D80A22"/>
<path d="M17.01 15.0256L18.4364 13.6L19.862 15.0256L21.3395 16.5031L23.2138 14.628L18.4364 9.85059L13.6582 14.628L15.5333 16.5031L17.01 15.0256Z" fill="#D80A22"/>
<path d="M12.5734 15.6366L10.3145 17.8955L12.5734 20.1544L14.8323 17.8955L12.5734 15.6366Z" fill="#D80A22"/>
<path d="M24.3097 15.6366L22.0508 17.8955L24.3097 20.1544L26.5686 17.8955L24.3097 15.6366Z" fill="#D80A22"/>
<path d="M18.4347 15.6366L16.1758 17.8955L18.4347 20.1544L20.6936 17.8955L18.4347 15.6366Z" fill="#D80A22"/>
</svg>
