<svg width="36" height="36" viewBox="0 0 36 36" fill="none" xmlns="http://www.w3.org/2000/svg">
<path opacity="0.2" d="M17.8848 35.241C27.5497 35.241 35.3848 27.4059 35.3848 17.741C35.3848 8.07599 27.5497 0.240967 17.8848 0.240967C8.21979 0.240967 0.384766 8.07599 0.384766 17.741C0.384766 27.4059 8.21979 35.241 17.8848 35.241Z" fill="#830DAD"/>
<path d="M24.0024 23.0961C24.0047 23.0891 24.0094 23.0797 24.0118 23.0703V23.068C24.0141 23.0586 24.0164 23.0492 24.0164 23.0422C24.0164 23.0398 24.0164 23.0398 24.0164 23.0375C24.0164 23.0281 24.0188 23.0187 24.0188 23.0117C24.0188 23.0093 24.0188 23.0093 24.0188 23.007C24.0188 22.9976 24.0188 22.9882 24.0164 22.9812C24.0164 22.9742 24.0141 22.9695 24.0141 22.9625L22.1244 14.2617C22.1244 14.2594 22.1244 14.257 22.122 14.257C22.122 14.2523 22.1197 14.2477 22.1173 14.243C22.1173 14.2406 22.115 14.2359 22.115 14.2336C22.1126 14.2289 22.1126 14.2242 22.1103 14.2219C22.108 14.2195 22.108 14.2148 22.1056 14.2125C22.1033 14.2078 22.1009 14.2055 22.0986 14.2008C22.0962 14.1984 22.0962 14.1937 22.0939 14.1914C22.0915 14.1867 22.0892 14.1844 22.0869 14.1797C22.0845 14.1773 22.0845 14.175 22.0845 14.175L18.0753 8.67694C18.0753 8.67459 18.0729 8.67459 18.0729 8.67225C18.0682 8.66756 18.0659 8.66287 18.0612 8.65818C18.0589 8.65584 18.0565 8.65349 18.0542 8.65115C18.0495 8.64646 18.0448 8.64177 18.0401 8.63943C18.0378 8.63708 18.0378 8.63708 18.0354 8.63474C18.0284 8.63005 18.0214 8.62301 18.0143 8.61832C18.0143 8.61832 18.012 8.61832 18.012 8.61598C18.0049 8.61129 18.0003 8.60895 17.9932 8.60426C17.9909 8.60426 17.9885 8.60191 17.9862 8.60191C17.9815 8.59957 17.9745 8.59722 17.9698 8.59488C17.9674 8.59488 17.9651 8.59253 17.9627 8.59253C17.9581 8.59019 17.951 8.58784 17.944 8.58784C17.9416 8.58784 17.9393 8.5855 17.937 8.5855C17.9299 8.58316 17.9252 8.58315 17.9182 8.58315C17.9159 8.58315 17.9135 8.58315 17.9112 8.58315C17.9018 8.58315 17.8947 8.58081 17.8854 8.58081C17.876 8.58081 17.8666 8.58081 17.8596 8.58315C17.8572 8.58315 17.8549 8.58315 17.8525 8.58315C17.8455 8.58315 17.8408 8.5855 17.8338 8.5855C17.8314 8.5855 17.8291 8.58784 17.8268 8.58784C17.8197 8.59019 17.815 8.59019 17.808 8.59253C17.8057 8.59253 17.8033 8.59488 17.801 8.59488C17.7939 8.59722 17.7892 8.59957 17.7846 8.60191C17.7822 8.60191 17.7799 8.60426 17.7775 8.60426C17.7705 8.6066 17.7635 8.61129 17.7588 8.61598C17.7588 8.61598 17.7564 8.61598 17.7564 8.61832C17.7494 8.62301 17.7424 8.6277 17.7353 8.63474C17.733 8.63708 17.733 8.63708 17.7306 8.63943C17.7259 8.64411 17.7212 8.6488 17.7166 8.65115C17.7142 8.65349 17.7119 8.65584 17.7095 8.65818C17.7048 8.66287 17.7025 8.66756 17.6978 8.67225C17.6978 8.67459 17.6955 8.67459 17.6955 8.67694L13.6862 14.175C13.6839 14.1773 13.6839 14.1773 13.6839 14.1797C13.6815 14.1844 13.6792 14.1867 13.6769 14.1914C13.6745 14.1937 13.6745 14.1984 13.6722 14.2008C13.6698 14.2055 13.6675 14.2078 13.6651 14.2125C13.6628 14.2148 13.6628 14.2195 13.6604 14.2219C13.6581 14.2266 13.6581 14.2312 13.6558 14.2336C13.6558 14.2359 13.6534 14.2406 13.6534 14.243C13.6511 14.2477 13.6511 14.2523 13.6487 14.257C13.6487 14.2594 13.6487 14.2617 13.6464 14.2617L11.7566 22.9625C11.7543 22.9695 11.7543 22.9742 11.7543 22.9812C11.7543 22.9906 11.752 23 11.752 23.007C11.752 23.0093 11.752 23.0093 11.752 23.0117C11.752 23.0211 11.752 23.0304 11.7543 23.0375C11.7543 23.0398 11.7543 23.0398 11.7543 23.0422C11.7566 23.0515 11.7566 23.0609 11.759 23.068V23.0703C11.7613 23.0797 11.7637 23.0867 11.7684 23.0961C11.7684 23.0961 11.7684 23.0984 11.7707 23.0984C11.7731 23.1078 11.7777 23.1149 11.7824 23.1219C11.7824 23.1219 11.7824 23.1242 11.7848 23.1242C11.7848 23.1242 11.7848 23.1266 11.7871 23.1266C11.7918 23.1336 11.7965 23.143 11.8012 23.15C11.8012 23.1524 11.8035 23.1524 11.8035 23.1547C11.8082 23.1617 11.8153 23.1688 11.8223 23.1758C11.8293 23.1828 11.8364 23.1875 11.8434 23.1922L11.8457 23.1946C11.8504 23.1993 11.8575 23.2039 11.8645 23.2063L17.7588 26.8615L17.7611 26.8638L17.7635 26.8662C17.7635 26.8662 17.7658 26.8662 17.7658 26.8685C17.7728 26.8732 17.7775 26.8756 17.7846 26.8779C17.7916 26.8802 17.7986 26.8849 17.8057 26.8873C17.808 26.8873 17.8103 26.8896 17.8103 26.8896C17.8338 26.8967 17.8596 26.9013 17.883 26.9013C17.9252 26.9013 17.9674 26.8896 18.0049 26.8685C18.0049 26.8685 18.0073 26.8662 18.0096 26.8662L23.9062 23.211C23.9133 23.2063 23.918 23.2039 23.925 23.1993L23.9274 23.1969C23.9344 23.1922 23.9414 23.1852 23.9485 23.1805C23.9555 23.1735 23.9602 23.1664 23.9672 23.1594C23.9672 23.1571 23.9696 23.1571 23.9696 23.1547C23.9742 23.1477 23.9789 23.1406 23.9836 23.1313C23.9836 23.1313 23.9836 23.1289 23.986 23.1289C23.986 23.1289 23.986 23.1266 23.9883 23.1266C23.993 23.1195 23.9977 23.1102 24 23.1031C24.0024 23.0961 24.0024 23.0961 24.0024 23.0961ZM13.923 15.2066L14.7554 17.7739L12.535 21.6003L13.923 15.2066ZM18.9006 22.7749H16.8678L15.2641 17.8278L17.8854 13.3098L20.509 17.8255L18.9006 22.7749ZM20.8231 18.3694L23.3764 22.7725H19.3953L20.8231 18.3694ZM18.7505 23.2438L17.8854 25.9049L17.0226 23.2438H18.7505ZM16.3778 22.7749H12.3967L14.95 18.3718L16.3778 22.7749ZM18.1222 12.7776V9.53036L21.6367 14.3508L20.7036 17.2253L18.1222 12.7776ZM17.6533 12.7776L15.0719 17.2276L14.1387 14.3485L17.6533 9.52802V12.7776ZM16.5302 23.2438L17.4657 26.1276L12.8117 23.2438H16.5302ZM19.2429 23.2438H22.9637L18.3074 26.1323L19.2429 23.2438ZM21.0177 17.7716L21.8501 15.2066L23.238 21.6026L21.0177 17.7716Z" fill="url(#paint0_linear_11_2498)"/>
<defs>
<linearGradient id="paint0_linear_11_2498" x1="11.752" y1="17.7411" x2="24.0186" y2="17.7411" gradientUnits="userSpaceOnUse">
<stop stop-color="#830DAD"/>
<stop offset="1" stop-color="#C666E8"/>
</linearGradient>
</defs>
</svg>
