<svg width="41" height="39" viewBox="0 0 41 39" fill="none" xmlns="http://www.w3.org/2000/svg">
<path opacity="0.1" d="M20.125 38.4717C31.1707 38.4717 40.125 29.9651 40.125 19.4717C40.125 8.97827 31.1707 0.47168 20.125 0.47168C9.07931 0.47168 0.125 8.97827 0.125 19.4717C0.125 29.9651 9.07931 38.4717 20.125 38.4717Z" fill="#3AB83A"/>
<mask id="mask0_1435_611" style="mask-type:alpha" maskUnits="userSpaceOnUse" x="0" y="0" width="41" height="39">
<path d="M20.125 38.4717C31.1707 38.4717 40.125 29.9651 40.125 19.4717C40.125 8.97827 31.1707 0.47168 20.125 0.47168C9.07931 0.47168 0.125 8.97827 0.125 19.4717C0.125 29.9651 9.07931 38.4717 20.125 38.4717Z" fill="white"/>
</mask>
<g mask="url(#mask0_1435_611)">
<path fill-rule="evenodd" clip-rule="evenodd" d="M15.5098 18.4867L20.9165 15.1479L26.279 18.5074L20.8929 9.24097L15.5098 18.4867ZM15.716 19.451L20.9224 16.1916L26.061 19.4268L20.9253 22.6896L15.716 19.451ZM15.5098 20.3842C17.4073 21.5662 19.3873 22.8036 20.9165 23.761L26.279 20.3842C24.3373 23.7679 22.7197 26.5848 20.9165 29.7025L19.8104 27.7978C18.325 25.24 16.7932 22.6024 15.5098 20.3842Z" fill="#3AB83A"/>
<path fill-rule="evenodd" clip-rule="evenodd" d="M20.8945 9.24097L20.9147 15.1479L26.2791 18.5074L20.8945 9.24097ZM20.92 16.1916L26.0925 19.4268L20.9225 22.6896L20.92 16.1916ZM20.9148 23.761L26.2792 20.3842C24.6154 23.7679 20.9148 29.7025 20.9148 29.7025V23.761Z" fill="#0B8311"/>
</g>
</svg>
