<svg width="36" height="36" viewBox="0 0 36 36" fill="none" xmlns="http://www.w3.org/2000/svg">
<path opacity="0.1" d="M18.4434 35.6013C28.1083 35.6013 35.9434 27.7663 35.9434 18.1013C35.9434 8.43634 28.1083 0.601318 18.4434 0.601318C8.77838 0.601318 0.943359 8.43634 0.943359 18.1013C0.943359 27.7663 8.77838 35.6013 18.4434 35.6013Z" fill="#3AB83A"/>
<mask id="mask0_1843_518" style="mask-type:alpha" maskUnits="userSpaceOnUse" x="0" y="0" width="36" height="36">
<path d="M18.4434 35.6013C28.1083 35.6013 35.9434 27.7663 35.9434 18.1013C35.9434 8.43634 28.1083 0.601318 18.4434 0.601318C8.77838 0.601318 0.943359 8.43634 0.943359 18.1013C0.943359 27.7663 8.77838 35.6013 18.4434 35.6013Z" fill="white"/>
</mask>
<g mask="url(#mask0_1843_518)">
<path fill-rule="evenodd" clip-rule="evenodd" d="M14.4043 17.194L19.1352 14.1188L23.8274 17.2131L19.1145 8.67822L14.4043 17.194ZM14.5855 18.0821L19.1411 15.0801L23.6373 18.0598L19.1436 21.065L14.5855 18.0821ZM14.4043 18.9418C16.0646 20.0305 17.7971 21.1702 19.1352 22.052L23.8274 18.9418C22.1284 22.0584 20.713 24.6529 19.1352 27.5244L18.1671 25.7697C16.8675 23.414 15.5272 20.9847 14.4043 18.9418Z" fill="#3AB83A"/>
<path fill-rule="evenodd" clip-rule="evenodd" d="M19.1172 8.67822L19.1349 14.1188L23.8287 17.2131L19.1172 8.67822ZM19.1394 15.0801L23.6653 18.0598L19.1416 21.065L19.1394 15.0801ZM19.1346 22.052L23.8285 18.9418C22.3726 22.0584 19.1346 27.5244 19.1346 27.5244V22.052Z" fill="#0B8311"/>
</g>
</svg>
